<svg class="main-svg" xmlns="http://www.w3.org/2000/svg" xmlns:xlink="http://www.w3.org/1999/xlink" width="1200" height="500" style="" viewBox="0 0 1200 500"><rect x="0" y="0" width="1200" height="500" style="fill: rgb(255, 255, 255); fill-opacity: 1;"/><defs id="defs-7b831c"><g class="clips"><clipPath id="clip7b831cxyplot" class="plotclip"><rect width="865" height="320"/></clipPath><clipPath class="axesclip" id="clip7b831cx"><rect x="80" y="0" width="865" height="500"/></clipPath><clipPath class="axesclip" id="clip7b831cy"><rect x="0" y="100" width="1200" height="320"/></clipPath><clipPath class="axesclip" id="clip7b831cxy"><rect x="80" y="100" width="865" height="320"/></clipPath></g><g class="gradients"/><g class="patterns"/></defs><g class="bglayer"><rect class="bg" x="80" y="100" width="865" height="320" style="fill: rgb(229, 236, 246); fill-opacity: 1; stroke-width: 0;"/></g><g class="layer-below"><g class="imagelayer"/><g class="shapelayer"/></g><g class="cartesianlayer"><g class="subplot xy"><g class="layer-subplot"><g class="shapelayer"/><g class="imagelayer"/></g><g class="minor-gridlayer"><g class="x"/><g class="y"/></g><g class="gridlayer"><g class="x"><path class="xgrid crisp" transform="translate(192.12,0)" d="M0,100v320" style="stroke: rgb(255, 255, 255); stroke-opacity: 1; stroke-width: 1px;"/><path class="xgrid crisp" transform="translate(416.37,0)" d="M0,100v320" style="stroke: rgb(255, 255, 255); stroke-opacity: 1; stroke-width: 1px;"/><path class="xgrid crisp" transform="translate(528.5,0)" d="M0,100v320" style="stroke: rgb(255, 255, 255); stroke-opacity: 1; stroke-width: 1px;"/><path class="xgrid crisp" transform="translate(640.62,0)" d="M0,100v320" style="stroke: rgb(255, 255, 255); stroke-opacity: 1; stroke-width: 1px;"/><path class="xgrid crisp" transform="translate(752.75,0)" d="M0,100v320" style="stroke: rgb(255, 255, 255); stroke-opacity: 1; stroke-width: 1px;"/><path class="xgrid crisp" transform="translate(864.87,0)" d="M0,100v320" style="stroke: rgb(255, 255, 255); stroke-opacity: 1; stroke-width: 1px;"/></g><g class="y"><path class="ygrid crisp" transform="translate(0,359.2)" d="M80,0h865" style="stroke: rgb(255, 255, 255); stroke-opacity: 1; stroke-width: 1px;"/><path class="ygrid crisp" transform="translate(0,298.4)" d="M80,0h865" style="stroke: rgb(255, 255, 255); stroke-opacity: 1; stroke-width: 1px;"/><path class="ygrid crisp" transform="translate(0,237.6)" d="M80,0h865" style="stroke: rgb(255, 255, 255); stroke-opacity: 1; stroke-width: 1px;"/><path class="ygrid crisp" transform="translate(0,176.8)" d="M80,0h865" style="stroke: rgb(255, 255, 255); stroke-opacity: 1; stroke-width: 1px;"/><path class="ygrid crisp" transform="translate(0,116)" d="M80,0h865" style="stroke: rgb(255, 255, 255); stroke-opacity: 1; stroke-width: 1px;"/></g></g><g class="zerolinelayer"><path class="xzl zl crisp" transform="translate(304.25,0)" d="M0,100v320" style="stroke: rgb(255, 255, 255); stroke-opacity: 1; stroke-width: 2px;"/><path class="yzl zl crisp" transform="translate(0,420)" d="M80,0h865" style="stroke: rgb(255, 255, 255); stroke-opacity: 1; stroke-width: 2px;"/></g><path class="xlines-below"/><path class="ylines-below"/><g class="overlines-below"/><g class="xaxislayer-below"/><g class="yaxislayer-below"/><g class="overaxes-below"/><g class="plot" transform="translate(80,100)" clip-path="url(#clip7b831cxyplot)"><g class="scatterlayer mlayer"><g class="trace scatter trace9ea670" style="stroke-miterlimit: 2; opacity: 1;"><g class="fills"/><g class="errorbars"/><g class="lines"><path class="js-line" d="M0,168V124.09H0V122.4H0V120.71H0V119.02H0V117.33H0V115.64H0V113.96H0V112.27H0V125.78H0V110.58H0V107.2H0V105.51H0V103.82H0V102.13H0V100.44H0V98.76H0V97.07H0V95.38H0V108.89H0V127.47H0V129.16H0V130.84H0V162.93H0V161.24H0V159.56H0V157.87H0V156.18H0V154.49H0V152.8H0V151.11H0V149.42H0V147.73H0V146.04H0V144.36H0V142.67H0V140.98H0V139.29H0V137.6H0V135.91H0V134.22H0V132.53H0V93.69H0V164.62H0V92H0V88.62H0V48.09H0V46.4H0V44.71H0V43.02H0V41.33H0V39.64H0V37.96H0V36.27H0V49.78H0V34.58H0V31.2H0V29.51H0V27.82H0V26.13H0V24.44H0V22.76H0V21.07H0V19.38H0V32.89H0V51.47H0V53.16H0V54.84H0V86.93H0V85.24H0V83.56H0V81.87H0V80.18H0V78.49H0V76.8H0V75.11H0V73.42H0V71.73H0V70.04H0V68.36H0V66.67H0V64.98H0V63.29H0V61.6H0V59.91H0V58.22H0V56.53H0V90.31H0V166.31H0V16H0V169.69H0V216.98H0V218.67H0V220.36H0V222.04H0V223.73H0V225.42H0V227.11H0V228.8H0V230.49H0V232.18H0V233.87H0V235.56H0V237.24H0V238.93H0V240.62H0V242.31H0V17.69H0V245.69H0V247.38H0V249.07H0V250.76H0V252.44H0V254.13H0V215.29H0V213.6H0V244H0V210.22H0V171.38H0V173.07H0V174.76H0V176.44H0V178.13H0V179.82H0V181.51H0V183.2H0V186.58H0V188.27H0V189.96H0V184.89H0V193.33H0V208.53H0V191.64H0V205.16H0V203.47H0V201.78H0V206.84H0V198.4H0V196.71H0V195.02H0V200.09H0V211.91H0V255.82H517.6V257.51H544.22V259.2H559.72V260.89H565.85V262.58H578.47V264.27H608.34V265.96H610.82V267.64H617.77V269.33H619.69V271.02H621.7V272.71H622.86V274.4H623.08V276.09H640.46V277.78H642.89V279.47H649.4V281.16H649.94V282.84H660.88V284.53H662.32V286.22H665.65V287.91H673.98V289.6H678.96V291.29H681.78V292.98H687.79V294.67H691.54V296.36H696.21V298.04H696.53V299.73H715.52V301.42H722.55V303.11H723.81V304.8H724.79V306.49H735.19V308.18H735.51V309.87H735.56V311.56H742.04V313.24H758.59V314.93H784.19V316.62H789.49V318.31H856.78" style="vector-effect: non-scaling-stroke; fill: none; stroke: rgb(0, 204, 150); stroke-opacity: 1; stroke-width: 2px; opacity: 1;"/></g><g class="points"/><g class="text"/></g><g class="trace scatter tracec8d8a1" style="stroke-miterlimit: 2; opacity: 1;"><g class="fills"/><g class="errorbars"/><g class="lines"><path class="js-line" d="M0,168V124.09H0V122.4H0V120.71H0V119.02H0V117.33H0V115.64H0V113.96H0V112.27H0V125.78H0V110.58H0V107.2H0V105.51H0V103.82H0V102.13H0V100.44H0V98.76H0V97.07H0V95.38H0V108.89H0V127.47H0V129.16H0V130.84H0V162.93H0V161.24H0V159.56H0V157.87H0V156.18H0V154.49H0V152.8H0V151.11H0V149.42H0V147.73H0V146.04H0V144.36H0V142.67H0V140.98H0V139.29H0V137.6H0V135.91H0V134.22H0V132.53H0V93.69H0V164.62H0V92H0V88.62H0V48.09H0V46.4H0V44.71H0V43.02H0V41.33H0V39.64H0V37.96H0V36.27H0V49.78H0V34.58H0V31.2H0V29.51H0V27.82H0V26.13H0V24.44H0V22.76H0V21.07H0V19.38H0V32.89H0V51.47H0V53.16H0V54.84H0V86.93H0V85.24H0V83.56H0V81.87H0V80.18H0V78.49H0V76.8H0V75.11H0V73.42H0V71.73H0V70.04H0V68.36H0V66.67H0V64.98H0V63.29H0V61.6H0V59.91H0V58.22H0V56.53H0V90.31H0V166.31H0V16H0V169.69H0V216.98H0V218.67H0V220.36H0V222.04H0V223.73H0V225.42H0V227.11H0V228.8H0V230.49H0V232.18H0V233.87H0V235.56H0V237.24H0V238.93H0V240.62H0V242.31H0V17.69H0V245.69H0V247.38H0V249.07H0V250.76H0V252.44H0V254.13H0V215.29H0V213.6H0V244H0V210.22H0V171.38H0V173.07H0V174.76H0V176.44H0V178.13H0V179.82H0V181.51H0V183.2H0V186.58H0V188.27H0V189.96H0V184.89H0V193.33H0V208.53H0V191.64H0V205.16H0V203.47H0V201.78H0V206.84H0V198.4H0V196.71H0V195.02H0V200.09H0V211.91H0V255.82H529.74V257.51H571.1V259.2H609.4V260.89H622.19V262.58H627.6V264.27H637.37V265.96H641.35V267.64H643.29V269.33H651.01V271.02H662.28V272.71H663.04V274.4H666.75V276.09H667.78V277.78H675.78V279.47H676.99V281.16H684.41V282.84H690.08V284.53H690.71V286.22H692.25V287.91H699.98V289.6H703.22V291.29H710.26V292.98H712.44V294.67H713.25V296.36H716.31V298.04H718.76V299.73H720.17V301.42H725.97V303.11H732.69V304.8H735.94V306.49H736.71V308.18H737.46V309.87H738.32V311.56H741.09V313.24H742.09V314.93H744.81V316.62H758.32V318.31H865" style="vector-effect: non-scaling-stroke; fill: none; stroke: rgb(0, 204, 150); stroke-opacity: 1; stroke-width: 2px; opacity: 1; stroke-dasharray: 3px, 3px;"/></g><g class="points"/><g class="text"/></g><g class="trace scatter trace5ba5e2" style="stroke-miterlimit: 2; opacity: 1;"><g class="fills"/><g class="errorbars"/><g class="lines"><path class="js-line" d="M0,168V124.09H0V122.4H0V120.71H0V119.02H0V117.33H0V115.64H0V113.96H0V112.27H0V125.78H0V110.58H0V107.2H0V105.51H0V103.82H0V102.13H0V100.44H0V98.76H0V97.07H0V95.38H0V108.89H0V127.47H0V129.16H0V130.84H0V162.93H0V161.24H0V159.56H0V157.87H0V156.18H0V154.49H0V152.8H0V151.11H0V149.42H0V147.73H0V146.04H0V144.36H0V142.67H0V140.98H0V139.29H0V137.6H0V135.91H0V134.22H0V132.53H0V93.69H0V164.62H0V92H0V88.62H0V48.09H0V46.4H0V44.71H0V43.02H0V41.33H0V39.64H0V37.96H0V36.27H0V49.78H0V34.58H0V31.2H0V29.51H0V27.82H0V26.13H0V24.44H0V22.76H0V21.07H0V19.38H0V32.89H0V51.47H0V53.16H0V54.84H0V86.93H0V85.24H0V83.56H0V81.87H0V80.18H0V78.49H0V76.8H0V75.11H0V73.42H0V71.73H0V70.04H0V68.36H0V66.67H0V64.98H0V63.29H0V61.6H0V59.91H0V58.22H0V56.53H0V90.31H0V166.31H0V16H0V169.69H0V216.98H0V218.67H0V220.36H0V222.04H0V223.73H0V225.42H0V227.11H0V228.8H0V230.49H0V232.18H0V233.87H0V235.56H0V237.24H0V238.93H0V240.62H0V242.31H0V17.69H0V245.69H0V247.38H0V249.07H0V250.76H0V252.44H0V254.13H0V215.29H0V213.6H0V244H0V210.22H0V171.38H0V173.07H0V174.76H0V176.44H0V178.13H0V179.82H0V181.51H0V183.2H0V186.58H0V188.27H0V189.96H0V184.89H0V193.33H0V208.53H0V191.64H0V205.16H0V203.47H0V201.78H0V206.84H0V198.4H0V196.71H0V195.02H0V200.09H0V211.91H0V255.82H374.94V257.51H390.11V259.2H397.07V260.89H407.11V262.58H427.85V264.27H444.35V265.96H469.15V267.64H471.11V269.33H502.71V271.02H506.91V272.71H511.96V274.4H518.65V276.09H522.76V277.78H530.48V279.47H530.55V281.16H534.6V282.84H537.8V284.53H543.76V286.22H544.01V287.91H545.82V289.6H549.66V291.29H555V292.98H571.25V294.67H571.44V296.36H574.03V298.04H575.62V299.73H576.03V301.42H581.53V303.11H583.71V304.8H588.17V306.49H598.44V308.18H614.46V309.87H630.67V311.56H634.42V313.24H640.27V314.93H654.47V316.62H708.78V318.31H759.11" style="vector-effect: non-scaling-stroke; fill: none; stroke: rgb(0, 204, 150); stroke-opacity: 1; stroke-width: 2px; opacity: 1; stroke-dasharray: 9px, 9px;"/></g><g class="points"/><g class="text"/></g></g></g><g class="overplot"/><path class="xlines-above crisp" d="M0,0" style="fill: none;"/><path class="ylines-above crisp" d="M0,0" style="fill: none;"/><g class="overlines-above"/><g class="xaxislayer-above"><g class="xtick"><text text-anchor="middle" x="0" y="433" transform="translate(80,0)" style="font-family: 'Open Sans', verdana, arial, sans-serif; font-size: 12px; fill: rgb(42, 63, 95); fill-opacity: 1; white-space: pre; opacity: 1;">−10</text></g><g class="xtick"><text text-anchor="middle" x="0" y="433" style="font-family: 'Open Sans', verdana, arial, sans-serif; font-size: 12px; fill: rgb(42, 63, 95); fill-opacity: 1; white-space: pre; opacity: 1;" transform="translate(192.12,0)">−5</text></g><g class="xtick"><text text-anchor="middle" x="0" y="433" style="font-family: 'Open Sans', verdana, arial, sans-serif; font-size: 12px; fill: rgb(42, 63, 95); fill-opacity: 1; white-space: pre; opacity: 1;" transform="translate(304.25,0)">0</text></g><g class="xtick"><text text-anchor="middle" x="0" y="433" style="font-family: 'Open Sans', verdana, arial, sans-serif; font-size: 12px; fill: rgb(42, 63, 95); fill-opacity: 1; white-space: pre; opacity: 1;" transform="translate(416.37,0)">5</text></g><g class="xtick"><text text-anchor="middle" x="0" y="433" style="font-family: 'Open Sans', verdana, arial, sans-serif; font-size: 12px; fill: rgb(42, 63, 95); fill-opacity: 1; white-space: pre; opacity: 1;" transform="translate(528.5,0)">10</text></g><g class="xtick"><text text-anchor="middle" x="0" y="433" style="font-family: 'Open Sans', verdana, arial, sans-serif; font-size: 12px; fill: rgb(42, 63, 95); fill-opacity: 1; white-space: pre; opacity: 1;" transform="translate(640.62,0)">15</text></g><g class="xtick"><text text-anchor="middle" x="0" y="433" style="font-family: 'Open Sans', verdana, arial, sans-serif; font-size: 12px; fill: rgb(42, 63, 95); fill-opacity: 1; white-space: pre; opacity: 1;" transform="translate(752.75,0)">20</text></g><g class="xtick"><text text-anchor="middle" x="0" y="433" style="font-family: 'Open Sans', verdana, arial, sans-serif; font-size: 12px; fill: rgb(42, 63, 95); fill-opacity: 1; white-space: pre; opacity: 1;" transform="translate(864.87,0)">25</text></g></g><g class="yaxislayer-above"><g class="ytick"><text text-anchor="end" x="79" y="4.199999999999999" transform="translate(0,420)" style="font-family: 'Open Sans', verdana, arial, sans-serif; font-size: 12px; fill: rgb(42, 63, 95); fill-opacity: 1; white-space: pre; opacity: 1;">0</text></g><g class="ytick"><text text-anchor="end" x="79" y="4.199999999999999" style="font-family: 'Open Sans', verdana, arial, sans-serif; font-size: 12px; fill: rgb(42, 63, 95); fill-opacity: 1; white-space: pre; opacity: 1;" transform="translate(0,359.2)">0.2</text></g><g class="ytick"><text text-anchor="end" x="79" y="4.199999999999999" style="font-family: 'Open Sans', verdana, arial, sans-serif; font-size: 12px; fill: rgb(42, 63, 95); fill-opacity: 1; white-space: pre; opacity: 1;" transform="translate(0,298.4)">0.4</text></g><g class="ytick"><text text-anchor="end" x="79" y="4.199999999999999" style="font-family: 'Open Sans', verdana, arial, sans-serif; font-size: 12px; fill: rgb(42, 63, 95); fill-opacity: 1; white-space: pre; opacity: 1;" transform="translate(0,237.6)">0.6</text></g><g class="ytick"><text text-anchor="end" x="79" y="4.199999999999999" style="font-family: 'Open Sans', verdana, arial, sans-serif; font-size: 12px; fill: rgb(42, 63, 95); fill-opacity: 1; white-space: pre; opacity: 1;" transform="translate(0,176.8)">0.8</text></g><g class="ytick"><text text-anchor="end" x="79" y="4.199999999999999" style="font-family: 'Open Sans', verdana, arial, sans-serif; font-size: 12px; fill: rgb(42, 63, 95); fill-opacity: 1; white-space: pre; opacity: 1;" transform="translate(0,116)">1</text></g></g><g class="overaxes-above"/></g></g><g class="polarlayer"/><g class="smithlayer"/><g class="ternarylayer"/><g class="geolayer"/><g class="funnelarealayer"/><g class="pielayer"/><g class="iciclelayer"/><g class="treemaplayer"/><g class="sunburstlayer"/><g class="glimages"/><defs id="topdefs-7b831c"><g class="clips"/><clipPath id="legend7b831c"><rect width="226" height="86" x="0" y="0"/></clipPath></defs><g class="layer-above"><g class="imagelayer"/><g class="shapelayer"/></g><g class="infolayer"><g class="legend" pointer-events="all" transform="translate(962.3000000000001,100)"><rect class="bg" shape-rendering="crispEdges" width="226" height="86" x="0" y="0" style="stroke: rgb(68, 68, 68); stroke-opacity: 1; fill: rgb(255, 255, 255); fill-opacity: 1; stroke-width: 0px;"/><g class="scrollbox" transform="" clip-path="url(#legend7b831c)"><text class="legendtitletext" text-anchor="start" x="2" y="18.2" style="font-family: 'Open Sans', verdana, arial, sans-serif; font-size: 14px; fill: rgb(42, 63, 95); fill-opacity: 1; white-space: pre;">Solver Type, Min Snr Used (dB)</text><g class="groups" transform=""><g class="traces" transform="translate(0,32.7)" style="opacity: 1;"><text class="legendtext" text-anchor="start" x="40" y="4.680000000000001" style="font-family: 'Open Sans', verdana, arial, sans-serif; font-size: 12px; fill: rgb(42, 63, 95); fill-opacity: 1; white-space: pre;">AID, 10</text><g class="layers" style="opacity: 1;"><g class="legendfill"/><g class="legendlines"><path class="js-line" d="M5,0h30" style="fill: none; stroke: rgb(0, 204, 150); stroke-opacity: 1; stroke-width: 2px;"/></g><g class="legendsymbols"><g class="legendpoints"/></g></g><rect class="legendtoggle" x="0" y="-9.5" width="87.421875" height="19" style="fill: rgb(0, 0, 0); fill-opacity: 0;"/></g></g><g class="groups" transform=""><g class="traces" transform="translate(0,51.7)" style="opacity: 1;"><text class="legendtext" text-anchor="start" x="40" y="4.680000000000001" style="font-family: 'Open Sans', verdana, arial, sans-serif; font-size: 12px; fill: rgb(42, 63, 95); fill-opacity: 1; white-space: pre;">AID, 15</text><g class="layers" style="opacity: 1;"><g class="legendfill"/><g class="legendlines"><path class="js-line" d="M5,0h30" style="fill: none; stroke: rgb(0, 204, 150); stroke-opacity: 1; stroke-dasharray: 3px, 3px; stroke-width: 2px;"/></g><g class="legendsymbols"><g class="legendpoints"/></g></g><rect class="legendtoggle" x="0" y="-9.5" width="87.421875" height="19" style="fill: rgb(0, 0, 0); fill-opacity: 0;"/></g></g><g class="groups" transform=""><g class="traces" transform="translate(0,70.7)" style="opacity: 1;"><text class="legendtext" text-anchor="start" x="40" y="4.680000000000001" style="font-family: 'Open Sans', verdana, arial, sans-serif; font-size: 12px; fill: rgb(42, 63, 95); fill-opacity: 1; white-space: pre;">AID, 5</text><g class="layers" style="opacity: 1;"><g class="legendfill"/><g class="legendlines"><path class="js-line" d="M5,0h30" style="fill: none; stroke: rgb(0, 204, 150); stroke-opacity: 1; stroke-dasharray: 9px, 9px; stroke-width: 2px;"/></g><g class="legendsymbols"><g class="legendpoints"/></g></g><rect class="legendtoggle" x="0" y="-9.5" width="87.421875" height="19" style="fill: rgb(0, 0, 0); fill-opacity: 0;"/></g></g></g><rect class="scrollbar" rx="20" ry="3" width="0" height="0" x="0" y="0" style="fill: rgb(128, 139, 164); fill-opacity: 1;"/></g><g class="g-gtitle"><text class="gtitle" x="60" y="50" text-anchor="start" dy="0em" style="font-family: 'Open Sans', verdana, arial, sans-serif; font-size: 17px; fill: rgb(42, 63, 95); opacity: 1; font-weight: normal; white-space: pre;">UE Sinr DL - CDF</text></g><g class="g-xtitle"><text class="xtitle" x="512.5" y="460.8" text-anchor="middle" style="font-family: 'Open Sans', verdana, arial, sans-serif; font-size: 14px; fill: rgb(42, 63, 95); opacity: 1; font-weight: normal; white-space: pre;">Sinr:Mean (dB)</text></g><g class="g-ytitle"><text class="ytitle" transform="rotate(-90,34.575,260)" x="34.575" y="260" text-anchor="middle" style="font-family: 'Open Sans', verdana, arial, sans-serif; font-size: 14px; fill: rgb(42, 63, 95); opacity: 1; font-weight: normal; white-space: pre;">probability</text></g><g class="annotation" data-index="0" style="opacity: 1;"><g class="annotation-text-g" transform="rotate(0,512.5,90.5)"><g class="cursor-pointer" transform="translate(480,81)"><rect class="bg" x="0.5" y="0.5" width="65" height="18" style="stroke-width: 1px; stroke: rgb(0, 0, 0); stroke-opacity: 0; fill: rgb(0, 0, 0); fill-opacity: 0;"/><text class="annotation-text" text-anchor="middle" x="32.703125" y="14" style="font-family: 'Open Sans', verdana, arial, sans-serif; font-size: 12px; fill: rgb(42, 63, 95); fill-opacity: 1; white-space: pre;">Power=30</text></g></g></g></g></svg>