<svg class="main-svg" xmlns="http://www.w3.org/2000/svg" xmlns:xlink="http://www.w3.org/1999/xlink" width="1200" height="500" style="" viewBox="0 0 1200 500"><rect x="0" y="0" width="1200" height="500" style="fill: rgb(255, 255, 255); fill-opacity: 1;"/><defs id="defs-92e1e6"><g class="clips"><clipPath id="clip92e1e6xyplot" class="plotclip"><rect width="865" height="320"/></clipPath><clipPath class="axesclip" id="clip92e1e6x"><rect x="80" y="0" width="865" height="500"/></clipPath><clipPath class="axesclip" id="clip92e1e6y"><rect x="0" y="100" width="1200" height="320"/></clipPath><clipPath class="axesclip" id="clip92e1e6xy"><rect x="80" y="100" width="865" height="320"/></clipPath></g><g class="gradients"/><g class="patterns"/></defs><g class="bglayer"><rect class="bg" x="80" y="100" width="865" height="320" style="fill: rgb(229, 236, 246); fill-opacity: 1; stroke-width: 0;"/></g><g class="layer-below"><g class="imagelayer"/><g class="shapelayer"/></g><g class="cartesianlayer"><g class="subplot xy"><g class="layer-subplot"><g class="shapelayer"/><g class="imagelayer"/></g><g class="minor-gridlayer"><g class="x"/><g class="y"/></g><g class="gridlayer"><g class="x"><path class="xgrid crisp" transform="translate(222.46,0)" d="M0,100v320" style="stroke: rgb(255, 255, 255); stroke-opacity: 1; stroke-width: 1px;"/><path class="xgrid crisp" transform="translate(364.91,0)" d="M0,100v320" style="stroke: rgb(255, 255, 255); stroke-opacity: 1; stroke-width: 1px;"/><path class="xgrid crisp" transform="translate(507.37,0)" d="M0,100v320" style="stroke: rgb(255, 255, 255); stroke-opacity: 1; stroke-width: 1px;"/><path class="xgrid crisp" transform="translate(649.83,0)" d="M0,100v320" style="stroke: rgb(255, 255, 255); stroke-opacity: 1; stroke-width: 1px;"/><path class="xgrid crisp" transform="translate(792.28,0)" d="M0,100v320" style="stroke: rgb(255, 255, 255); stroke-opacity: 1; stroke-width: 1px;"/><path class="xgrid crisp" transform="translate(934.74,0)" d="M0,100v320" style="stroke: rgb(255, 255, 255); stroke-opacity: 1; stroke-width: 1px;"/></g><g class="y"><path class="ygrid crisp" transform="translate(0,359.2)" d="M80,0h865" style="stroke: rgb(255, 255, 255); stroke-opacity: 1; stroke-width: 1px;"/><path class="ygrid crisp" transform="translate(0,298.4)" d="M80,0h865" style="stroke: rgb(255, 255, 255); stroke-opacity: 1; stroke-width: 1px;"/><path class="ygrid crisp" transform="translate(0,237.6)" d="M80,0h865" style="stroke: rgb(255, 255, 255); stroke-opacity: 1; stroke-width: 1px;"/><path class="ygrid crisp" transform="translate(0,176.8)" d="M80,0h865" style="stroke: rgb(255, 255, 255); stroke-opacity: 1; stroke-width: 1px;"/><path class="ygrid crisp" transform="translate(0,116)" d="M80,0h865" style="stroke: rgb(255, 255, 255); stroke-opacity: 1; stroke-width: 1px;"/></g></g><g class="zerolinelayer"><path class="xzl zl crisp" transform="translate(80,0)" d="M0,100v320" style="stroke: rgb(255, 255, 255); stroke-opacity: 1; stroke-width: 2px;"/><path class="yzl zl crisp" transform="translate(0,420)" d="M80,0h865" style="stroke: rgb(255, 255, 255); stroke-opacity: 1; stroke-width: 2px;"/></g><path class="xlines-below"/><path class="ylines-below"/><g class="overlines-below"/><g class="xaxislayer-below"/><g class="yaxislayer-below"/><g class="overaxes-below"/><g class="plot" transform="translate(80,100)" clip-path="url(#clip92e1e6xyplot)"><g class="scatterlayer mlayer"><g class="trace scatter trace41b045" style="stroke-miterlimit: 2; opacity: 1;"><g class="fills"/><g class="errorbars"/><g class="lines"><path class="js-line" d="M0,168V124.09H0V122.4H0V120.71H0V119.02H0V117.33H0V115.64H0V113.96H0V112.27H0V125.78H0V110.58H0V107.2H0V105.51H0V103.82H0V102.13H0V100.44H0V98.76H0V97.07H0V95.38H0V108.89H0V127.47H0V129.16H0V130.84H0V162.93H0V161.24H0V159.56H0V157.87H0V156.18H0V154.49H0V152.8H0V151.11H0V149.42H0V147.73H0V146.04H0V144.36H0V142.67H0V140.98H0V139.29H0V137.6H0V135.91H0V134.22H0V132.53H0V93.69H0V164.62H0V92H0V88.62H0V48.09H0V46.4H0V44.71H0V43.02H0V41.33H0V39.64H0V37.96H0V36.27H0V49.78H0V34.58H0V31.2H0V29.51H0V27.82H0V26.13H0V24.44H0V22.76H0V21.07H0V19.38H0V32.89H0V51.47H0V53.16H0V54.84H0V86.93H0V85.24H0V83.56H0V81.87H0V80.18H0V78.49H0V76.8H0V75.11H0V73.42H0V71.73H0V70.04H0V68.36H0V66.67H0V64.98H0V63.29H0V61.6H0V59.91H0V58.22H0V56.53H0V90.31H0V166.31H0V16H0V169.69H0V216.98H0V218.67H0V220.36H0V222.04H0V223.73H0V225.42H0V227.11H0V228.8H0V230.49H0V232.18H0V233.87H0V235.56H0V237.24H0V238.93H0V240.62H0V242.31H0V17.69H0V245.69H0V247.38H0V249.07H0V250.76H0V252.44H0V254.13H0V215.29H0V213.6H0V244H0V210.22H0V171.38H0V173.07H0V174.76H0V176.44H0V178.13H0V179.82H0V181.51H0V183.2H0V186.58H0V188.27H0V189.96H0V184.89H0V193.33H0V208.53H0V191.64H0V205.16H0V203.47H0V201.78H0V206.84H0V198.4H0V196.71H0V195.02H0V200.09H0V211.91H0V255.82H55.2V257.51H55.67V259.2H63.9V260.89H113.36V262.58H134.45V264.27H154.56V265.96H164.28V267.64H172.85V269.33H184.25V271.02H188.14V272.71H192.94V274.4H193.92V276.09H196.13V277.78H197.59V279.47H201.17V281.16H230.34V282.84H231.73V284.53H241.1V286.22H253.39V287.91H255.73V289.6H261.8V291.29H276.4V292.98H279.42V294.67H282.78V296.36H282.82V298.04H303.11V299.73H312.45V301.42H313.34V303.11H315.82V304.8H323.41V306.49H334.5V308.18H340.35V309.87H346.66V311.56H348.5V313.24H371.82V314.93H385.02V316.62H538.79V318.31H865" style="vector-effect: non-scaling-stroke; fill: none; stroke: rgb(0, 204, 150); stroke-opacity: 1; stroke-width: 2px; opacity: 1;"/></g><g class="points"/><g class="text"/></g><g class="trace scatter trace926a19" style="stroke-miterlimit: 2; opacity: 1;"><g class="fills"/><g class="errorbars"/><g class="lines"><path class="js-line" d="M0,168V124.09H0V122.4H0V120.71H0V119.02H0V117.33H0V115.64H0V113.96H0V112.27H0V125.78H0V110.58H0V107.2H0V105.51H0V103.82H0V102.13H0V100.44H0V98.76H0V97.07H0V95.38H0V108.89H0V127.47H0V129.16H0V130.84H0V162.93H0V161.24H0V159.56H0V157.87H0V156.18H0V154.49H0V152.8H0V151.11H0V149.42H0V147.73H0V146.04H0V144.36H0V142.67H0V140.98H0V139.29H0V137.6H0V135.91H0V134.22H0V132.53H0V93.69H0V164.62H0V92H0V88.62H0V48.09H0V46.4H0V44.71H0V43.02H0V41.33H0V39.64H0V37.96H0V36.27H0V49.78H0V34.58H0V31.2H0V29.51H0V27.82H0V26.13H0V24.44H0V22.76H0V21.07H0V19.38H0V32.89H0V51.47H0V53.16H0V54.84H0V86.93H0V85.24H0V83.56H0V81.87H0V80.18H0V78.49H0V76.8H0V75.11H0V73.42H0V71.73H0V70.04H0V68.36H0V66.67H0V64.98H0V63.29H0V61.6H0V59.91H0V58.22H0V56.53H0V90.31H0V166.31H0V16H0V169.69H0V216.98H0V218.67H0V220.36H0V222.04H0V223.73H0V225.42H0V227.11H0V228.8H0V230.49H0V232.18H0V233.87H0V235.56H0V237.24H0V238.93H0V240.62H0V242.31H0V17.69H0V245.69H0V247.38H0V249.07H0V250.76H0V252.44H0V254.13H0V215.29H0V213.6H0V244H0V210.22H0V171.38H0V173.07H0V174.76H0V176.44H0V178.13H0V179.82H0V181.51H0V183.2H0V186.58H0V188.27H0V189.96H0V184.89H0V193.33H0V208.53H0V191.64H0V205.16H0V203.47H0V201.78H0V206.84H0V198.4H0V196.71H0V195.02H0V200.09H0V211.91H0V255.82H43.06V257.51H94.68V259.2H102.86V260.89H121.64V262.58H160.55V264.27H169.17V265.96H176.17V267.64H184.19V269.33H201.67V271.02H211.67V272.71H216.82V274.4H220.93V276.09H229.01V277.78H241.17V279.47H245.18V281.16H247.06V282.84H247.49V284.53H247.49V286.22H251.5V287.91H259.59V289.6H267.74V291.29H268.74V292.98H271.26V294.67H279.92V296.36H294.74V298.04H299.78V299.73H307.85V301.42H320.93V303.11H349.53V304.8H360.06V306.49H368.94V308.18H377.69V309.87H387.31V311.56H401.71V313.24H434.71V314.93H436.01V316.62H506.34V318.31H540.74" style="vector-effect: non-scaling-stroke; fill: none; stroke: rgb(0, 204, 150); stroke-opacity: 1; stroke-width: 2px; opacity: 1; stroke-dasharray: 3px, 3px;"/></g><g class="points"/><g class="text"/></g><g class="trace scatter trace47455b" style="stroke-miterlimit: 2; opacity: 1;"><g class="fills"/><g class="errorbars"/><g class="lines"><path class="js-line" d="M0,168V124.09H0V122.4H0V120.71H0V119.02H0V117.33H0V115.64H0V113.96H0V112.27H0V125.78H0V110.58H0V107.2H0V105.51H0V103.82H0V102.13H0V100.44H0V98.76H0V97.07H0V95.38H0V108.89H0V127.47H0V129.16H0V130.84H0V162.93H0V161.24H0V159.56H0V157.87H0V156.18H0V154.49H0V152.8H0V151.11H0V149.42H0V147.73H0V146.04H0V144.36H0V142.67H0V140.98H0V139.29H0V137.6H0V135.91H0V134.22H0V132.53H0V93.69H0V164.62H0V92H0V88.62H0V48.09H0V46.4H0V44.71H0V43.02H0V41.33H0V39.64H0V37.96H0V36.27H0V49.78H0V34.58H0V31.2H0V29.51H0V27.82H0V26.13H0V24.44H0V22.76H0V21.07H0V19.38H0V32.89H0V51.47H0V53.16H0V54.84H0V86.93H0V85.24H0V83.56H0V81.87H0V80.18H0V78.49H0V76.8H0V75.11H0V73.42H0V71.73H0V70.04H0V68.36H0V66.67H0V64.98H0V63.29H0V61.6H0V59.91H0V58.22H0V56.53H0V90.31H0V166.31H0V16H0V169.69H0V216.98H0V218.67H0V220.36H0V222.04H0V223.73H0V225.42H0V227.11H0V228.8H0V230.49H0V232.18H0V233.87H0V235.56H0V237.24H0V238.93H0V240.62H0V242.31H0V17.69H0V245.69H0V247.38H0V249.07H0V250.76H0V252.44H0V254.13H0V215.29H0V213.6H0V244H0V210.22H0V171.38H0V173.07H0V174.76H0V176.44H0V178.13H0V179.82H0V181.51H0V183.2H0V186.58H0V188.27H0V189.96H0V184.89H0V193.33H0V208.53H0V191.64H0V205.16H0V203.47H0V201.78H0V206.84H0V198.4H0V196.71H0V195.02H0V200.09H0V211.91H0V255.82H12V257.51H17.67V259.2H48.28V260.89H60.04V262.58H68.12V264.27H74.85V265.96H75.68V267.64H83.64V269.33H96.95V271.02H98.07V272.71H98.9V274.4H125.26V276.09H130.2V277.78H137.44V279.47H138.21V281.16H153.95V282.84H155.5V284.53H157.7V286.22H173.18V287.91H190.33V289.6H191.26V291.29H194.12V292.98H206.42V294.67H215.08V296.36H217.35V298.04H221.43V299.73H227.01V301.42H244.42V303.11H247.8V304.8H250.86V306.49H258.89V308.18H264.59V309.87H296.01V311.56H300.64V313.24H339.11V314.93H354.8V316.62H383.73V318.31H401.67" style="vector-effect: non-scaling-stroke; fill: none; stroke: rgb(0, 204, 150); stroke-opacity: 1; stroke-width: 2px; opacity: 1; stroke-dasharray: 9px, 9px;"/></g><g class="points"/><g class="text"/></g></g></g><g class="overplot"/><path class="xlines-above crisp" d="M0,0" style="fill: none;"/><path class="ylines-above crisp" d="M0,0" style="fill: none;"/><g class="overlines-above"/><g class="xaxislayer-above"><g class="xtick"><text text-anchor="middle" x="0" y="433" transform="translate(80,0)" style="font-family: 'Open Sans', verdana, arial, sans-serif; font-size: 12px; fill: rgb(42, 63, 95); fill-opacity: 1; white-space: pre; opacity: 1;">0</text></g><g class="xtick"><text text-anchor="middle" x="0" y="433" style="font-family: 'Open Sans', verdana, arial, sans-serif; font-size: 12px; fill: rgb(42, 63, 95); fill-opacity: 1; white-space: pre; opacity: 1;" transform="translate(222.46,0)">2M</text></g><g class="xtick"><text text-anchor="middle" x="0" y="433" style="font-family: 'Open Sans', verdana, arial, sans-serif; font-size: 12px; fill: rgb(42, 63, 95); fill-opacity: 1; white-space: pre; opacity: 1;" transform="translate(364.91,0)">4M</text></g><g class="xtick"><text text-anchor="middle" x="0" y="433" style="font-family: 'Open Sans', verdana, arial, sans-serif; font-size: 12px; fill: rgb(42, 63, 95); fill-opacity: 1; white-space: pre; opacity: 1;" transform="translate(507.37,0)">6M</text></g><g class="xtick"><text text-anchor="middle" x="0" y="433" style="font-family: 'Open Sans', verdana, arial, sans-serif; font-size: 12px; fill: rgb(42, 63, 95); fill-opacity: 1; white-space: pre; opacity: 1;" transform="translate(649.83,0)">8M</text></g><g class="xtick"><text text-anchor="middle" x="0" y="433" style="font-family: 'Open Sans', verdana, arial, sans-serif; font-size: 12px; fill: rgb(42, 63, 95); fill-opacity: 1; white-space: pre; opacity: 1;" transform="translate(792.28,0)">10M</text></g><g class="xtick"><text text-anchor="middle" x="0" y="433" style="font-family: 'Open Sans', verdana, arial, sans-serif; font-size: 12px; fill: rgb(42, 63, 95); fill-opacity: 1; white-space: pre; opacity: 1;" transform="translate(934.74,0)">12M</text></g></g><g class="yaxislayer-above"><g class="ytick"><text text-anchor="end" x="79" y="4.199999999999999" transform="translate(0,420)" style="font-family: 'Open Sans', verdana, arial, sans-serif; font-size: 12px; fill: rgb(42, 63, 95); fill-opacity: 1; white-space: pre; opacity: 1;">0</text></g><g class="ytick"><text text-anchor="end" x="79" y="4.199999999999999" style="font-family: 'Open Sans', verdana, arial, sans-serif; font-size: 12px; fill: rgb(42, 63, 95); fill-opacity: 1; white-space: pre; opacity: 1;" transform="translate(0,359.2)">0.2</text></g><g class="ytick"><text text-anchor="end" x="79" y="4.199999999999999" style="font-family: 'Open Sans', verdana, arial, sans-serif; font-size: 12px; fill: rgb(42, 63, 95); fill-opacity: 1; white-space: pre; opacity: 1;" transform="translate(0,298.4)">0.4</text></g><g class="ytick"><text text-anchor="end" x="79" y="4.199999999999999" style="font-family: 'Open Sans', verdana, arial, sans-serif; font-size: 12px; fill: rgb(42, 63, 95); fill-opacity: 1; white-space: pre; opacity: 1;" transform="translate(0,237.6)">0.6</text></g><g class="ytick"><text text-anchor="end" x="79" y="4.199999999999999" style="font-family: 'Open Sans', verdana, arial, sans-serif; font-size: 12px; fill: rgb(42, 63, 95); fill-opacity: 1; white-space: pre; opacity: 1;" transform="translate(0,176.8)">0.8</text></g><g class="ytick"><text text-anchor="end" x="79" y="4.199999999999999" style="font-family: 'Open Sans', verdana, arial, sans-serif; font-size: 12px; fill: rgb(42, 63, 95); fill-opacity: 1; white-space: pre; opacity: 1;" transform="translate(0,116)">1</text></g></g><g class="overaxes-above"/></g></g><g class="polarlayer"/><g class="smithlayer"/><g class="ternarylayer"/><g class="geolayer"/><g class="funnelarealayer"/><g class="pielayer"/><g class="iciclelayer"/><g class="treemaplayer"/><g class="sunburstlayer"/><g class="glimages"/><defs id="topdefs-92e1e6"><g class="clips"/><clipPath id="legend92e1e6"><rect width="226" height="86" x="0" y="0"/></clipPath></defs><g class="layer-above"><g class="imagelayer"/><g class="shapelayer"/></g><g class="infolayer"><g class="legend" pointer-events="all" transform="translate(962.3000000000001,100)"><rect class="bg" shape-rendering="crispEdges" style="stroke: rgb(68, 68, 68); stroke-opacity: 1; fill: rgb(255, 255, 255); fill-opacity: 1; stroke-width: 0px;" width="226" height="86" x="0" y="0"/><g class="scrollbox" transform="" clip-path="url(#legend92e1e6)"><text class="legendtitletext" text-anchor="start" x="2" y="18.2" style="font-family: 'Open Sans', verdana, arial, sans-serif; font-size: 14px; fill: rgb(42, 63, 95); fill-opacity: 1; white-space: pre;">Solver Type, Min Snr Used (dB)</text><g class="groups" transform=""><g class="traces" transform="translate(0,32.7)" style="opacity: 1;"><text class="legendtext" text-anchor="start" x="40" y="4.680000000000001" style="font-family: 'Open Sans', verdana, arial, sans-serif; font-size: 12px; fill: rgb(42, 63, 95); fill-opacity: 1; white-space: pre;">AID, 10</text><g class="layers" style="opacity: 1;"><g class="legendfill"/><g class="legendlines"><path class="js-line" d="M5,0h30" style="fill: none; stroke: rgb(0, 204, 150); stroke-opacity: 1; stroke-width: 2px;"/></g><g class="legendsymbols"><g class="legendpoints"/></g></g><rect class="legendtoggle" x="0" y="-9.5" width="87.421875" height="19" style="fill: rgb(0, 0, 0); fill-opacity: 0;"/></g></g><g class="groups" transform=""><g class="traces" transform="translate(0,51.7)" style="opacity: 1;"><text class="legendtext" text-anchor="start" x="40" y="4.680000000000001" style="font-family: 'Open Sans', verdana, arial, sans-serif; font-size: 12px; fill: rgb(42, 63, 95); fill-opacity: 1; white-space: pre;">AID, 15</text><g class="layers" style="opacity: 1;"><g class="legendfill"/><g class="legendlines"><path class="js-line" d="M5,0h30" style="fill: none; stroke: rgb(0, 204, 150); stroke-opacity: 1; stroke-dasharray: 3px, 3px; stroke-width: 2px;"/></g><g class="legendsymbols"><g class="legendpoints"/></g></g><rect class="legendtoggle" x="0" y="-9.5" width="87.421875" height="19" style="fill: rgb(0, 0, 0); fill-opacity: 0;"/></g></g><g class="groups" transform=""><g class="traces" transform="translate(0,70.7)" style="opacity: 1;"><text class="legendtext" text-anchor="start" x="40" y="4.680000000000001" style="font-family: 'Open Sans', verdana, arial, sans-serif; font-size: 12px; fill: rgb(42, 63, 95); fill-opacity: 1; white-space: pre;">AID, 5</text><g class="layers" style="opacity: 1;"><g class="legendfill"/><g class="legendlines"><path class="js-line" d="M5,0h30" style="fill: none; stroke: rgb(0, 204, 150); stroke-opacity: 1; stroke-dasharray: 9px, 9px; stroke-width: 2px;"/></g><g class="legendsymbols"><g class="legendpoints"/></g></g><rect class="legendtoggle" x="0" y="-9.5" width="87.421875" height="19" style="fill: rgb(0, 0, 0); fill-opacity: 0;"/></g></g></g><rect class="scrollbar" rx="20" ry="3" width="0" height="0" style="fill: rgb(128, 139, 164); fill-opacity: 1;" x="0" y="0"/></g><g class="g-gtitle"><text class="gtitle" x="60" y="50" text-anchor="start" dy="0em" style="font-family: 'Open Sans', verdana, arial, sans-serif; font-size: 17px; fill: rgb(42, 63, 95); opacity: 1; font-weight: normal; white-space: pre;">UEs Throughput DL - CDF</text></g><g class="g-xtitle"><text class="xtitle" x="512.5" y="460.8" text-anchor="middle" style="font-family: 'Open Sans', verdana, arial, sans-serif; font-size: 14px; fill: rgb(42, 63, 95); opacity: 1; font-weight: normal; white-space: pre;">Throughput:Mean (Bps)</text></g><g class="g-ytitle"><text class="ytitle" transform="rotate(-90,34.575,260)" x="34.575" y="260" text-anchor="middle" style="font-family: 'Open Sans', verdana, arial, sans-serif; font-size: 14px; fill: rgb(42, 63, 95); opacity: 1; font-weight: normal; white-space: pre;">probability</text></g><g class="annotation" data-index="0" style="opacity: 1;"><g class="annotation-text-g" transform="rotate(0,512.5,90.5)"><g class="cursor-pointer" transform="translate(480,81)"><rect class="bg" x="0.5" y="0.5" width="65" height="18" style="stroke-width: 1px; stroke: rgb(0, 0, 0); stroke-opacity: 0; fill: rgb(0, 0, 0); fill-opacity: 0;"/><text class="annotation-text" text-anchor="middle" x="32.703125" y="14" style="font-family: 'Open Sans', verdana, arial, sans-serif; font-size: 12px; fill: rgb(42, 63, 95); fill-opacity: 1; white-space: pre;">Power=30</text></g></g></g></g></svg>