<svg class="main-svg" xmlns="http://www.w3.org/2000/svg" xmlns:xlink="http://www.w3.org/1999/xlink" width="1200" height="500" style="" viewBox="0 0 1200 500"><rect x="0" y="0" width="1200" height="500" style="fill: rgb(255, 255, 255); fill-opacity: 1;"/><defs id="defs-cdf005"><g class="clips"><clipPath id="clipcdf005xyplot" class="plotclip"><rect width="887" height="320"/></clipPath><clipPath class="axesclip" id="clipcdf005x"><rect x="80" y="0" width="887" height="500"/></clipPath><clipPath class="axesclip" id="clipcdf005y"><rect x="0" y="100" width="1200" height="320"/></clipPath><clipPath class="axesclip" id="clipcdf005xy"><rect x="80" y="100" width="887" height="320"/></clipPath></g><g class="gradients"/><g class="patterns"/></defs><g class="bglayer"><rect class="bg" x="80" y="100" width="887" height="320" style="fill: rgb(229, 236, 246); fill-opacity: 1; stroke-width: 0;"/></g><g class="layer-below"><g class="imagelayer"/><g class="shapelayer"/></g><g class="cartesianlayer"><g class="subplot xy"><g class="layer-subplot"><g class="shapelayer"/><g class="imagelayer"/></g><g class="minor-gridlayer"><g class="x"/><g class="y"/></g><g class="gridlayer"><g class="x"><path class="xgrid crisp" transform="translate(200.82999999999998,0)" d="M0,100v320" style="stroke: rgb(255, 255, 255); stroke-opacity: 1; stroke-width: 1px;"/><path class="xgrid crisp" transform="translate(332.9,0)" d="M0,100v320" style="stroke: rgb(255, 255, 255); stroke-opacity: 1; stroke-width: 1px;"/><path class="xgrid crisp" transform="translate(464.98,0)" d="M0,100v320" style="stroke: rgb(255, 255, 255); stroke-opacity: 1; stroke-width: 1px;"/><path class="xgrid crisp" transform="translate(597.06,0)" d="M0,100v320" style="stroke: rgb(255, 255, 255); stroke-opacity: 1; stroke-width: 1px;"/><path class="xgrid crisp" transform="translate(729.13,0)" d="M0,100v320" style="stroke: rgb(255, 255, 255); stroke-opacity: 1; stroke-width: 1px;"/><path class="xgrid crisp" transform="translate(861.21,0)" d="M0,100v320" style="stroke: rgb(255, 255, 255); stroke-opacity: 1; stroke-width: 1px;"/></g><g class="y"><path class="ygrid crisp" transform="translate(0,359.2)" d="M80,0h887" style="stroke: rgb(255, 255, 255); stroke-opacity: 1; stroke-width: 1px;"/><path class="ygrid crisp" transform="translate(0,298.4)" d="M80,0h887" style="stroke: rgb(255, 255, 255); stroke-opacity: 1; stroke-width: 1px;"/><path class="ygrid crisp" transform="translate(0,237.6)" d="M80,0h887" style="stroke: rgb(255, 255, 255); stroke-opacity: 1; stroke-width: 1px;"/><path class="ygrid crisp" transform="translate(0,176.8)" d="M80,0h887" style="stroke: rgb(255, 255, 255); stroke-opacity: 1; stroke-width: 1px;"/><path class="ygrid crisp" transform="translate(0,116)" d="M80,0h887" style="stroke: rgb(255, 255, 255); stroke-opacity: 1; stroke-width: 1px;"/></g></g><g class="zerolinelayer"><path class="yzl zl crisp" transform="translate(0,420)" d="M80,0h887" style="stroke: rgb(255, 255, 255); stroke-opacity: 1; stroke-width: 2px;"/></g><path class="xlines-below"/><path class="ylines-below"/><g class="overlines-below"/><g class="xaxislayer-below"/><g class="yaxislayer-below"/><g class="overaxes-below"/><g class="plot" transform="translate(80,100)" clip-path="url(#clipcdf005xyplot)"><g class="scatterlayer mlayer"><g class="trace scatter tracecac475" style="stroke-miterlimit: 2; opacity: 1;"><g class="fills"/><g class="errorbars"/><g class="lines"><path class="js-line" d="M0,16V21.07H5.94V26.13H31.86V31.2H61.96V36.27H103.37V41.33H104.34V46.4H112.51V51.47H112.58V56.53H114.92V61.6H117.74V66.67H123.91V71.73H125.95V76.8H136.35V81.87H175.35V86.93H180.6V92H188.25V97.07H193.14V102.13H193.54V107.2H195.19V112.27H198.33V117.33H202.87V122.4H203.93V127.47H204.28V132.53H204.63V137.6H210.46V142.67H214.34V147.73H220.02V152.8H231V157.87H238.88V162.93H242.99V168H246.88V173.07H246.99V178.13H254.45V183.2H255.44V188.27H255.91V193.33H258.18V198.4H259.9V203.47H261.1V208.53H261.42V213.6H265.24V218.67H266.83V223.73H269.49V228.8H297.53V233.87H301.51V238.93H313.42V244H334.69V249.07H337.91V254.13H339.49V259.2H339.75V264.27H341.17V269.33H342.32V274.4H346.31V279.47H349.58V284.53H355.85V289.6H388.89V294.67H401.21V299.73H408.98V304.8H442.93V309.87H530.11V314.93H575.93" style="vector-effect: non-scaling-stroke; fill: none; stroke: rgb(99, 110, 250); stroke-opacity: 1; stroke-width: 2px; opacity: 1;"/></g><g class="points"/><g class="text"/></g><g class="trace scatter trace31f18f" style="stroke-miterlimit: 2; opacity: 1;"><g class="fills"/><g class="errorbars"/><g class="lines"><path class="js-line" d="M38.64,16V21.07H60.69V26.13H95.34V31.2H105.82V36.27H108.34V41.33H113.7V46.4H118.66V51.47H145.18V56.53H148.21V61.6H160.32V66.67H162.28V71.73H162.44V76.8H180.49V81.87H196.36V86.93H202.47V92H210.38V97.07H213.39V102.13H216.8V107.2H222.16V112.27H222.28V117.33H225.15V122.4H237.95V127.47H243.66V132.53H248.41V137.6H252.27V142.67H254.11V147.73H257.53V152.8H258.87V157.87H271.87V162.93H282.7V168H282.98V173.07H288.24V178.13H288.97V183.2H293.38V188.27H295.17V193.33H295.6V198.4H299.23V203.47H300.57V208.53H305.69V213.6H319.38V218.67H320.99V223.73H321.6V228.8H328.38V233.87H329.18V238.93H330.52V244H341.7V249.07H345.94V254.13H357.71V259.2H365.81V264.27H366.35V269.33H366.8V274.4H377.67V279.47H389.33V284.53H398.41V289.6H418.47V294.67H427.92V299.73H460.17V304.8H487.29V309.87H488.86V314.93H566.59" style="vector-effect: non-scaling-stroke; fill: none; stroke: rgb(99, 110, 250); stroke-opacity: 1; stroke-width: 2px; opacity: 1; stroke-dasharray: 3px, 3px;"/></g><g class="points"/><g class="text"/></g><g class="trace scatter tracee4f91a" style="stroke-miterlimit: 2; opacity: 1;"><g class="fills"/><g class="errorbars"/><g class="lines"><path class="js-line" d="M158.72,16V21.07H214.13V26.13H217.47V31.2H298.73V36.27H303.85V41.33H308.21V46.4H311.55V51.47H315.65V56.53H316.66V61.6H326.7V66.67H328.66V71.73H335.37V76.8H336.24V81.87H347.46V86.93H358.32V92H358.96V97.07H360.36V102.13H363.37V107.2H365.54V112.27H370.84V117.33H374.08V122.4H384.3V127.47H397.58V132.53H399.62V137.6H404.69V142.67H407.74V147.73H408.73V152.8H409.54V157.87H412.73V162.93H413.1V168H427.08V173.07H431.18V178.13H436.68V183.2H444.77V188.27H444.93V193.33H472.97V198.4H474.47V203.47H477.97V208.53H481.29V213.6H501.56V218.67H503.04V223.73H507.68V228.8H510.33V233.87H518.24V238.93H538.28V244H539.06V249.07H542.58V254.13H545.06V259.2H551.62V264.27H553.18V269.33H557.83V274.4H559.21V279.47H562.36V284.53H563.82V289.6H570.65V294.67H573.12V299.73H620.87V304.8H627.24V309.87H643.91V314.93H785.51" style="vector-effect: non-scaling-stroke; fill: none; stroke: rgb(239, 85, 59); stroke-opacity: 1; stroke-width: 2px; opacity: 1;"/></g><g class="points"/><g class="text"/></g><g class="trace scatter trace244a36" style="stroke-miterlimit: 2; opacity: 1;"><g class="fills"/><g class="errorbars"/><g class="lines"><path class="js-line" d="M178.46,16V21.07H201.13V26.13H201.76V31.2H221.02V36.27H224.68V41.33H231.14V46.4H241.77V51.47H242.48V56.53H245.7V61.6H248.9V66.67H257.21V71.73H263.17V76.8H267.34V81.87H274.71V86.93H298.15V92H308.15V97.07H316.63V102.13H318.83V107.2H325.5V112.27H337.63V117.33H344.41V122.4H349.63V127.47H360.17V132.53H362.8V137.6H378.42V142.67H381.97V147.73H383.17V152.8H387.4V157.87H391.34V162.93H392.19V168H392.23V173.07H394.42V178.13H395.09V183.2H395.21V188.27H417.56V193.33H420.35V198.4H424.41V203.47H431.19V208.53H431.56V213.6H441.69V218.67H450.47V223.73H463.7V228.8H467.94V233.87H484.58V238.93H488.42V244H502.59V249.07H513.25V254.13H519.88V259.2H521.92V264.27H526.12V269.33H526.73V274.4H532.96V279.47H537.93V284.53H561.83V289.6H632.31V294.67H641.08V299.73H675.32V304.8H691.27V309.87H753.55V314.93H887" style="vector-effect: non-scaling-stroke; fill: none; stroke: rgb(239, 85, 59); stroke-opacity: 1; stroke-width: 2px; opacity: 1; stroke-dasharray: 3px, 3px;"/></g><g class="points"/><g class="text"/></g><g class="trace scatter tracee6f28f" style="stroke-miterlimit: 2; opacity: 1;"><g class="fills"/><g class="errorbars"/><g class="lines"><path class="js-line" d="M213.88,16V21.07H339.19V26.13H342.13V31.2H361.9V36.27H385.19V41.33H389.52V46.4H407.22V51.47H408.88V56.53H443.07V61.6H453.88V66.67H457.29V71.73H463.27V76.8H468.47V81.87H471.24V86.93H473.17V92H474.88V97.07H486.25V102.13H491.16V107.2H491.58V112.27H500.8V117.33H506.94V122.4H511.78V127.47H513.09V132.53H515.68V137.6H520.52V142.67H527.05V147.73H531.69V152.8H535.04V157.87H538.63V162.93H546.97V168H547.27V173.07H561.09V178.13H565.09V183.2H570.05V188.27H598.15V193.33H598.46V198.4H601.8V203.47H607.58V208.53H610.71V213.6H616V218.67H619.88V223.73H620.64V228.8H621.79V233.87H625.06V238.93H631.39V244H650.74V249.07H653.54V254.13H667.39V259.2H669.14V264.27H675.31V269.33H697.2V274.4H711.97V279.47H715.58V284.53H723.97V289.6H729.06V294.67H735.45V299.73H767.19V304.8H768.93V309.87H808.56V314.93H829.36" style="vector-effect: non-scaling-stroke; fill: none; stroke: rgb(0, 204, 150); stroke-opacity: 1; stroke-width: 2px; opacity: 1;"/></g><g class="points"/><g class="text"/></g><g class="trace scatter trace2acc4f" style="stroke-miterlimit: 2; opacity: 1;"><g class="fills"/><g class="errorbars"/><g class="lines"><path class="js-line" d="M252.63,16V21.07H304.56V26.13H339.26V31.2H343.69V36.27H358.88V41.33H361.34V46.4H364.8V51.47H368.32V56.53H370.27V61.6H370.97V66.67H384.18V71.73H393.4V76.8H405.66V81.87H444.12V86.93H448.07V92H454.45V97.07H456.43V102.13H466.55V107.2H467.54V112.27H468.02V117.33H470.07V122.4H480.38V127.47H480.64V132.53H482.25V137.6H490.84V142.67H495.75V147.73H496.88V152.8H502.1V157.87H504.82V162.93H505.29V168H506.87V173.07H507.52V178.13H518.25V183.2H522.76V188.27H531.84V193.33H565.14V198.4H565.26V203.47H573.71V208.53H582.96V213.6H587.3V218.67H589.16V223.73H604.52V228.8H612.92V233.87H619.71V238.93H620.29V244H620.44V249.07H633.5V254.13H635.78V259.2H645.79V264.27H647.5V269.33H648.63V274.4H649.94V279.47H653.31V284.53H691V289.6H718.55V294.67H756.44V299.73H785.78V304.8H790.31V309.87H792.43V314.93H841.21" style="vector-effect: non-scaling-stroke; fill: none; stroke: rgb(0, 204, 150); stroke-opacity: 1; stroke-width: 2px; opacity: 1; stroke-dasharray: 3px, 3px;"/></g><g class="points"/><g class="text"/></g></g></g><g class="overplot"/><path class="xlines-above crisp" d="M0,0" style="fill: none;"/><path class="ylines-above crisp" d="M0,0" style="fill: none;"/><g class="overlines-above"/><g class="xaxislayer-above"><g class="xtick"><text text-anchor="middle" x="0" y="433" transform="translate(200.82999999999998,0)" style="font-family: 'Open Sans', verdana, arial, sans-serif; font-size: 12px; fill: rgb(42, 63, 95); fill-opacity: 1; white-space: pre; opacity: 1;">1.5M</text></g><g class="xtick"><text text-anchor="middle" x="0" y="433" style="font-family: 'Open Sans', verdana, arial, sans-serif; font-size: 12px; fill: rgb(42, 63, 95); fill-opacity: 1; white-space: pre; opacity: 1;" transform="translate(332.9,0)">2M</text></g><g class="xtick"><text text-anchor="middle" x="0" y="433" style="font-family: 'Open Sans', verdana, arial, sans-serif; font-size: 12px; fill: rgb(42, 63, 95); fill-opacity: 1; white-space: pre; opacity: 1;" transform="translate(464.98,0)">2.5M</text></g><g class="xtick"><text text-anchor="middle" x="0" y="433" style="font-family: 'Open Sans', verdana, arial, sans-serif; font-size: 12px; fill: rgb(42, 63, 95); fill-opacity: 1; white-space: pre; opacity: 1;" transform="translate(597.06,0)">3M</text></g><g class="xtick"><text text-anchor="middle" x="0" y="433" style="font-family: 'Open Sans', verdana, arial, sans-serif; font-size: 12px; fill: rgb(42, 63, 95); fill-opacity: 1; white-space: pre; opacity: 1;" transform="translate(729.13,0)">3.5M</text></g><g class="xtick"><text text-anchor="middle" x="0" y="433" style="font-family: 'Open Sans', verdana, arial, sans-serif; font-size: 12px; fill: rgb(42, 63, 95); fill-opacity: 1; white-space: pre; opacity: 1;" transform="translate(861.21,0)">4M</text></g></g><g class="yaxislayer-above"><g class="ytick"><text text-anchor="end" x="79" y="4.199999999999999" transform="translate(0,420)" style="font-family: 'Open Sans', verdana, arial, sans-serif; font-size: 12px; fill: rgb(42, 63, 95); fill-opacity: 1; white-space: pre; opacity: 1;">0</text></g><g class="ytick"><text text-anchor="end" x="79" y="4.199999999999999" style="font-family: 'Open Sans', verdana, arial, sans-serif; font-size: 12px; fill: rgb(42, 63, 95); fill-opacity: 1; white-space: pre; opacity: 1;" transform="translate(0,359.2)">0.2</text></g><g class="ytick"><text text-anchor="end" x="79" y="4.199999999999999" style="font-family: 'Open Sans', verdana, arial, sans-serif; font-size: 12px; fill: rgb(42, 63, 95); fill-opacity: 1; white-space: pre; opacity: 1;" transform="translate(0,298.4)">0.4</text></g><g class="ytick"><text text-anchor="end" x="79" y="4.199999999999999" style="font-family: 'Open Sans', verdana, arial, sans-serif; font-size: 12px; fill: rgb(42, 63, 95); fill-opacity: 1; white-space: pre; opacity: 1;" transform="translate(0,237.6)">0.6</text></g><g class="ytick"><text text-anchor="end" x="79" y="4.199999999999999" style="font-family: 'Open Sans', verdana, arial, sans-serif; font-size: 12px; fill: rgb(42, 63, 95); fill-opacity: 1; white-space: pre; opacity: 1;" transform="translate(0,176.8)">0.8</text></g><g class="ytick"><text text-anchor="end" x="79" y="4.199999999999999" style="font-family: 'Open Sans', verdana, arial, sans-serif; font-size: 12px; fill: rgb(42, 63, 95); fill-opacity: 1; white-space: pre; opacity: 1;" transform="translate(0,116)">1</text></g></g><g class="overaxes-above"/></g></g><g class="polarlayer"/><g class="smithlayer"/><g class="ternarylayer"/><g class="geolayer"/><g class="funnelarealayer"/><g class="pielayer"/><g class="iciclelayer"/><g class="treemaplayer"/><g class="sunburstlayer"/><g class="glimages"/><defs id="topdefs-cdf005"><g class="clips"/><clipPath id="legendcdf005"><rect width="203" height="143" x="0" y="0"/></clipPath></defs><g class="layer-above"><g class="imagelayer"/><g class="shapelayer"/></g><g class="infolayer"><g class="legend" pointer-events="all" transform="translate(984.74,100)"><rect class="bg" shape-rendering="crispEdges" style="stroke: rgb(68, 68, 68); stroke-opacity: 1; fill: rgb(255, 255, 255); fill-opacity: 1; stroke-width: 0px;" width="203" height="143" x="0" y="0"/><g class="scrollbox" transform="" clip-path="url(#legendcdf005)"><text class="legendtitletext" text-anchor="start" x="2" y="18.2" style="font-family: 'Open Sans', verdana, arial, sans-serif; font-size: 14px; fill: rgb(42, 63, 95); fill-opacity: 1; white-space: pre;">Min Snr Used (dB), ILP Type</text><g class="groups" transform=""><g class="traces" transform="translate(0,32.7)" style="opacity: 1;"><text class="legendtext" text-anchor="start" x="40" y="4.680000000000001" style="font-family: 'Open Sans', verdana, arial, sans-serif; font-size: 12px; fill: rgb(42, 63, 95); fill-opacity: 1; white-space: pre;">5, Fixed</text><g class="layers" style="opacity: 1;"><g class="legendfill"/><g class="legendlines"><path class="js-line" d="M5,0h30" style="fill: none; stroke: rgb(99, 110, 250); stroke-opacity: 1; stroke-width: 2px;"/></g><g class="legendsymbols"><g class="legendpoints"/></g></g><rect class="legendtoggle" x="0" y="-9.5" width="100.859375" height="19" style="fill: rgb(0, 0, 0); fill-opacity: 0;"/></g></g><g class="groups" transform=""><g class="traces" transform="translate(0,51.7)" style="opacity: 1;"><text class="legendtext" text-anchor="start" x="40" y="4.680000000000001" style="font-family: 'Open Sans', verdana, arial, sans-serif; font-size: 12px; fill: rgb(42, 63, 95); fill-opacity: 1; white-space: pre;">5, Single</text><g class="layers" style="opacity: 1;"><g class="legendfill"/><g class="legendlines"><path class="js-line" d="M5,0h30" style="fill: none; stroke: rgb(99, 110, 250); stroke-opacity: 1; stroke-dasharray: 3px, 3px; stroke-width: 2px;"/></g><g class="legendsymbols"><g class="legendpoints"/></g></g><rect class="legendtoggle" x="0" y="-9.5" width="100.859375" height="19" style="fill: rgb(0, 0, 0); fill-opacity: 0;"/></g></g><g class="groups" transform=""><g class="traces" transform="translate(0,70.7)" style="opacity: 1;"><text class="legendtext" text-anchor="start" x="40" y="4.680000000000001" style="font-family: 'Open Sans', verdana, arial, sans-serif; font-size: 12px; fill: rgb(42, 63, 95); fill-opacity: 1; white-space: pre;">10, Fixed</text><g class="layers" style="opacity: 1;"><g class="legendfill"/><g class="legendlines"><path class="js-line" d="M5,0h30" style="fill: none; stroke: rgb(239, 85, 59); stroke-opacity: 1; stroke-width: 2px;"/></g><g class="legendsymbols"><g class="legendpoints"/></g></g><rect class="legendtoggle" x="0" y="-9.5" width="100.859375" height="19" style="fill: rgb(0, 0, 0); fill-opacity: 0;"/></g></g><g class="groups" transform=""><g class="traces" transform="translate(0,89.7)" style="opacity: 1;"><text class="legendtext" text-anchor="start" x="40" y="4.680000000000001" style="font-family: 'Open Sans', verdana, arial, sans-serif; font-size: 12px; fill: rgb(42, 63, 95); fill-opacity: 1; white-space: pre;">10, Single</text><g class="layers" style="opacity: 1;"><g class="legendfill"/><g class="legendlines"><path class="js-line" d="M5,0h30" style="fill: none; stroke: rgb(239, 85, 59); stroke-opacity: 1; stroke-dasharray: 3px, 3px; stroke-width: 2px;"/></g><g class="legendsymbols"><g class="legendpoints"/></g></g><rect class="legendtoggle" x="0" y="-9.5" width="100.859375" height="19" style="fill: rgb(0, 0, 0); fill-opacity: 0;"/></g></g><g class="groups" transform=""><g class="traces" transform="translate(0,108.7)" style="opacity: 1;"><text class="legendtext" text-anchor="start" x="40" y="4.680000000000001" style="font-family: 'Open Sans', verdana, arial, sans-serif; font-size: 12px; fill: rgb(42, 63, 95); fill-opacity: 1; white-space: pre;">15, Fixed</text><g class="layers" style="opacity: 1;"><g class="legendfill"/><g class="legendlines"><path class="js-line" d="M5,0h30" style="fill: none; stroke: rgb(0, 204, 150); stroke-opacity: 1; stroke-width: 2px;"/></g><g class="legendsymbols"><g class="legendpoints"/></g></g><rect class="legendtoggle" x="0" y="-9.5" width="100.859375" height="19" style="fill: rgb(0, 0, 0); fill-opacity: 0;"/></g></g><g class="groups" transform=""><g class="traces" transform="translate(0,127.7)" style="opacity: 1;"><text class="legendtext" text-anchor="start" x="40" y="4.680000000000001" style="font-family: 'Open Sans', verdana, arial, sans-serif; font-size: 12px; fill: rgb(42, 63, 95); fill-opacity: 1; white-space: pre;">15, Single</text><g class="layers" style="opacity: 1;"><g class="legendfill"/><g class="legendlines"><path class="js-line" d="M5,0h30" style="fill: none; stroke: rgb(0, 204, 150); stroke-opacity: 1; stroke-dasharray: 3px, 3px; stroke-width: 2px;"/></g><g class="legendsymbols"><g class="legendpoints"/></g></g><rect class="legendtoggle" x="0" y="-9.5" width="100.859375" height="19" style="fill: rgb(0, 0, 0); fill-opacity: 0;"/></g></g></g><rect class="scrollbar" rx="20" ry="3" width="0" height="0" style="fill: rgb(128, 139, 164); fill-opacity: 1;" x="0" y="0"/></g><g class="g-gtitle"><text class="gtitle" x="60" y="50" text-anchor="start" dy="0em" style="font-family: 'Open Sans', verdana, arial, sans-serif; font-size: 17px; fill: rgb(42, 63, 95); opacity: 1; font-weight: normal; white-space: pre;">UEs Throughput DL - CDF</text></g><g class="g-xtitle"><text class="xtitle" x="523.5" y="460.8" text-anchor="middle" style="font-family: 'Open Sans', verdana, arial, sans-serif; font-size: 14px; fill: rgb(42, 63, 95); opacity: 1; font-weight: normal; white-space: pre;">Throughput:Mean (Bps)</text></g><g class="g-ytitle"><text class="ytitle" transform="rotate(-90,34.575,260)" x="34.575" y="260" text-anchor="middle" style="font-family: 'Open Sans', verdana, arial, sans-serif; font-size: 14px; fill: rgb(42, 63, 95); opacity: 1; font-weight: normal; white-space: pre;">probability</text></g><g class="annotation" data-index="0" style="opacity: 1;"><g class="annotation-text-g" transform="rotate(0,523.5,90.5)"><g class="cursor-pointer" transform="translate(491,81)"><rect class="bg" x="0.5" y="0.5" width="65" height="18" style="stroke-width: 1px; stroke: rgb(0, 0, 0); stroke-opacity: 0; fill: rgb(0, 0, 0); fill-opacity: 0;"/><text class="annotation-text" text-anchor="middle" x="32.703125" y="14" style="font-family: 'Open Sans', verdana, arial, sans-serif; font-size: 12px; fill: rgb(42, 63, 95); fill-opacity: 1; white-space: pre;">Power=30</text></g></g></g></g></svg>