<svg class="main-svg" xmlns="http://www.w3.org/2000/svg" xmlns:xlink="http://www.w3.org/1999/xlink" width="1200" height="500" style="" viewBox="0 0 1200 500"><rect x="0" y="0" width="1200" height="500" style="fill: rgb(255, 255, 255); fill-opacity: 1;"/><defs id="defs-57ba93"><g class="clips"><clipPath id="clip57ba93xyplot" class="plotclip"><rect width="887" height="320"/></clipPath><clipPath class="axesclip" id="clip57ba93x"><rect x="80" y="0" width="887" height="500"/></clipPath><clipPath class="axesclip" id="clip57ba93y"><rect x="0" y="100" width="1200" height="320"/></clipPath><clipPath class="axesclip" id="clip57ba93xy"><rect x="80" y="100" width="887" height="320"/></clipPath></g><g class="gradients"/><g class="patterns"/></defs><g class="bglayer"><rect class="bg" x="80" y="100" width="887" height="320" style="fill: rgb(229, 236, 246); fill-opacity: 1; stroke-width: 0;"/></g><g class="layer-below"><g class="imagelayer"/><g class="shapelayer"/></g><g class="cartesianlayer"><g class="subplot xy"><g class="layer-subplot"><g class="shapelayer"/><g class="imagelayer"/></g><g class="minor-gridlayer"><g class="x"/><g class="y"/></g><g class="gridlayer"><g class="x"><path class="xgrid crisp" transform="translate(178.53,0)" d="M0,100v320" style="stroke: rgb(255, 255, 255); stroke-opacity: 1; stroke-width: 1px;"/><path class="xgrid crisp" transform="translate(295.18,0)" d="M0,100v320" style="stroke: rgb(255, 255, 255); stroke-opacity: 1; stroke-width: 1px;"/><path class="xgrid crisp" transform="translate(411.83,0)" d="M0,100v320" style="stroke: rgb(255, 255, 255); stroke-opacity: 1; stroke-width: 1px;"/><path class="xgrid crisp" transform="translate(528.48,0)" d="M0,100v320" style="stroke: rgb(255, 255, 255); stroke-opacity: 1; stroke-width: 1px;"/><path class="xgrid crisp" transform="translate(645.13,0)" d="M0,100v320" style="stroke: rgb(255, 255, 255); stroke-opacity: 1; stroke-width: 1px;"/><path class="xgrid crisp" transform="translate(761.78,0)" d="M0,100v320" style="stroke: rgb(255, 255, 255); stroke-opacity: 1; stroke-width: 1px;"/><path class="xgrid crisp" transform="translate(878.44,0)" d="M0,100v320" style="stroke: rgb(255, 255, 255); stroke-opacity: 1; stroke-width: 1px;"/></g><g class="y"><path class="ygrid crisp" transform="translate(0,359.2)" d="M80,0h887" style="stroke: rgb(255, 255, 255); stroke-opacity: 1; stroke-width: 1px;"/><path class="ygrid crisp" transform="translate(0,298.4)" d="M80,0h887" style="stroke: rgb(255, 255, 255); stroke-opacity: 1; stroke-width: 1px;"/><path class="ygrid crisp" transform="translate(0,237.6)" d="M80,0h887" style="stroke: rgb(255, 255, 255); stroke-opacity: 1; stroke-width: 1px;"/><path class="ygrid crisp" transform="translate(0,176.8)" d="M80,0h887" style="stroke: rgb(255, 255, 255); stroke-opacity: 1; stroke-width: 1px;"/><path class="ygrid crisp" transform="translate(0,116)" d="M80,0h887" style="stroke: rgb(255, 255, 255); stroke-opacity: 1; stroke-width: 1px;"/></g></g><g class="zerolinelayer"><path class="yzl zl crisp" transform="translate(0,420)" d="M80,0h887" style="stroke: rgb(255, 255, 255); stroke-opacity: 1; stroke-width: 2px;"/></g><path class="xlines-below"/><path class="ylines-below"/><g class="overlines-below"/><g class="xaxislayer-below"/><g class="yaxislayer-below"/><g class="overaxes-below"/><g class="plot" transform="translate(80,100)" clip-path="url(#clip57ba93xyplot)"><g class="scatterlayer mlayer"><g class="trace scatter trace5f4688" style="stroke-miterlimit: 2; opacity: 1;"><g class="fills"/><g class="errorbars"/><g class="lines"><path class="js-line" d="M111.92,16V21.07H122.21V26.13H147.22V31.2H194.77V36.27H243.96V41.33H256.43V46.4H267.82V51.47H273.87V56.53H274.13V61.6H289.02V66.67H304.57V71.73H312.05V76.8H312.79V81.87H320.05V86.93H326.92V92H327.77V97.07H333.13V102.13H335.57V107.2H340.12V112.27H350.89V117.33H363.73V122.4H368.25V127.47H369.12V132.53H370.91V137.6H376.96V142.67H398.59V147.73H417.42V152.8H418.84V157.87H423.76V162.93H427.29V168H435.78V173.07H439.78V178.13H440.74V183.2H447.84V188.27H466.15V193.33H473.79V198.4H476.04V203.47H478.49V208.53H495.23V213.6H517.1V218.67H528.76V223.73H540.71V228.8H542.66V233.87H546.31V238.93H558.63V244H562.82V249.07H564.87V254.13H572.49V259.2H585.35V264.27H587.04V269.33H594.62V274.4H607.41V279.47H607.94V284.53H625.99V289.6H666.94V294.67H690.98V299.73H704.06V304.8H739.83V309.87H780.91V314.93H790.37" style="vector-effect: non-scaling-stroke; fill: none; stroke: rgb(99, 110, 250); stroke-opacity: 1; stroke-width: 2px; opacity: 1;"/></g><g class="points"/><g class="text"/></g><g class="trace scatter tracea7fff1" style="stroke-miterlimit: 2; opacity: 1;"><g class="fills"/><g class="errorbars"/><g class="lines"><path class="js-line" d="M61.72,16V21.07H117.71V26.13H166.4V31.2H175.75V36.27H198.89V41.33H259.81V46.4H297.41V51.47H312.15V56.53H312.45V61.6H342.88V66.67H352.11V71.73H354.79V76.8H376.85V81.87H380.47V86.93H383.25V92H383.28V97.07H392.3V102.13H407.51V107.2H422.25V112.27H429.66V117.33H434.43V122.4H437.74V127.47H439.22V132.53H439.48V137.6H447.02V142.67H449.89V147.73H454.14V152.8H462.02V157.87H464.3V162.93H471.47V168H484.17V173.07H486.19V178.13H490.62V183.2H502.25V188.27H506.31V193.33H511.48V198.4H534.76V203.47H539.95V208.53H547.91V213.6H548.8V218.67H548.96V223.73H564.05V228.8H567.99V233.87H576.61V238.93H579.38V244H591.67V249.07H605.6V254.13H626.6V259.2H635.16V264.27H642.37V269.33H655.31V274.4H658.21V279.47H679.18V284.53H730.98V289.6H734.06V294.67H751.53V299.73H758.87V304.8H795.3V309.87H854.24V314.93H887" style="vector-effect: non-scaling-stroke; fill: none; stroke: rgb(99, 110, 250); stroke-opacity: 1; stroke-width: 2px; opacity: 1; stroke-dasharray: 3px, 3px;"/></g><g class="points"/><g class="text"/></g><g class="trace scatter tracec177d6" style="stroke-miterlimit: 2; opacity: 1;"><g class="fills"/><g class="errorbars"/><g class="lines"><path class="js-line" d="M103.18,16V21.07H109.4V26.13H139.14V31.2H163.25V36.27H185.16V41.33H191.91V46.4H196.87V51.47H207.4V56.53H217.34V61.6H217.57V66.67H226.06V71.73H235.82V76.8H241.6V81.87H250.91V86.93H256.23V92H256.24V97.07H257.87V102.13H258.89V107.2H260.91V112.27H266.14V117.33H271.5V122.4H284.69V127.47H285.82V132.53H295.85V137.6H295.88V142.67H303.13V147.73H305.13V152.8H314.09V157.87H317.2V162.93H319.98V168H322.21V173.07H324.65V178.13H332.08V183.2H337.33V188.27H352.48V193.33H388.25V198.4H392.16V203.47H394.05V208.53H400.69V213.6H411.45V218.67H419.32V223.73H422.91V228.8H424.16V233.87H426.96V238.93H431.05V244H441.11V249.07H445.92V254.13H447.79V259.2H458.11V264.27H466.32V269.33H480.12V274.4H489.12V279.47H548.89V284.53H549.51V289.6H553.92V294.67H557.9V299.73H645.99V304.8H682.55V309.87H702.79V314.93H822.66" style="vector-effect: non-scaling-stroke; fill: none; stroke: rgb(239, 85, 59); stroke-opacity: 1; stroke-width: 2px; opacity: 1;"/></g><g class="points"/><g class="text"/></g><g class="trace scatter trace395a4a" style="stroke-miterlimit: 2; opacity: 1;"><g class="fills"/><g class="errorbars"/><g class="lines"><path class="js-line" d="M81.72,16V21.07H83.2V26.13H170.25V31.2H171.72V36.27H174.76V41.33H182.1V46.4H185.12V51.47H226.73V56.53H240.24V61.6H242.05V66.67H247.11V71.73H248.49V76.8H249.26V81.87H279.66V86.93H301.4V92H305.72V97.07H313.79V102.13H320.09V107.2H323.02V112.27H328.96V117.33H344.65V122.4H356.7V127.47H359.22V132.53H362.39V137.6H368.68V142.67H369.23V147.73H373.79V152.8H373.89V157.87H387.59V162.93H394.75V168H401.47V173.07H409.25V178.13H413.44V183.2H424.66V188.27H440.55V193.33H443.43V198.4H444.39V203.47H456.15V208.53H467.38V213.6H471.17V218.67H481.63V223.73H482.22V228.8H482.56V233.87H495.25V238.93H498.34V244H507.99V249.07H516.3V254.13H530.32V259.2H547.51V264.27H549.91V269.33H572.69V274.4H585.96V279.47H593.39V284.53H603.75V289.6H608.1V294.67H610.87V299.73H648.16V304.8H650.61V309.87H720.87V314.93H776.32" style="vector-effect: non-scaling-stroke; fill: none; stroke: rgb(239, 85, 59); stroke-opacity: 1; stroke-width: 2px; opacity: 1; stroke-dasharray: 3px, 3px;"/></g><g class="points"/><g class="text"/></g><g class="trace scatter trace3ca904" style="stroke-miterlimit: 2; opacity: 1;"><g class="fills"/><g class="errorbars"/><g class="lines"><path class="js-line" d="M0,16V21.07H11.52V26.13H22.69V31.2H44.51V36.27H52.74V41.33H54.97V46.4H106.66V51.47H121.78V56.53H124.52V61.6H126.68V66.67H129.86V71.73H141.85V76.8H142.83V81.87H148.74V86.93H149.94V92H161.53V97.07H164.62V102.13H171.63V107.2H177.35V112.27H190.46V117.33H194.26V122.4H199.82V127.47H200.23V132.53H205.12V137.6H215.83V142.67H216.75V147.73H217.94V152.8H221.68V157.87H221.86V162.93H224.57V168H237.61V173.07H252.37V178.13H255.44V183.2H257.23V188.27H259.05V193.33H259.61V198.4H270.38V203.47H272.9V208.53H281.63V213.6H288.15V218.67H292.34V223.73H295.05V228.8H297.59V233.87H298.72V238.93H301.09V244H321.78V249.07H326.89V254.13H328.81V259.2H343.56V264.27H360.62V269.33H364.39V274.4H384.13V279.47H409.76V284.53H432.49V289.6H435.71V294.67H437.24V299.73H442.61V304.8H476.23V309.87H488.23V314.93H526.43" style="vector-effect: non-scaling-stroke; fill: none; stroke: rgb(0, 204, 150); stroke-opacity: 1; stroke-width: 2px; opacity: 1;"/></g><g class="points"/><g class="text"/></g><g class="trace scatter trace157585" style="stroke-miterlimit: 2; opacity: 1;"><g class="fills"/><g class="errorbars"/><g class="lines"><path class="js-line" d="M40.98,16V21.07H47.79V26.13H48V31.2H58.58V36.27H75.86V41.33H89.29V46.4H98.42V51.47H101.32V56.53H130.84V61.6H133.53V66.67H136.96V71.73H163.47V76.8H164.07V81.87H173.57V86.93H175.07V92H176.28V97.07H187.69V102.13H194.03V107.2H194.57V112.27H205.05V117.33H210.27V122.4H215.24V127.47H226.49V132.53H229.73V137.6H230.05V142.67H233.69V147.73H244.27V152.8H246.61V157.87H249.29V162.93H249.9V168H251.41V173.07H260.66V178.13H274.44V183.2H281.02V188.27H283.11V193.33H289.61V198.4H293.01V203.47H298.2V208.53H300.51V213.6H315.35V218.67H320.17V223.73H328.25V228.8H337.1V233.87H342V238.93H349.22V244H370.43V249.07H370.61V254.13H392.43V259.2H395.2V264.27H398.99V269.33H404.24V274.4H409.12V279.47H413.43V284.53H425.51V289.6H453.51V294.67H466.8V299.73H552.84V304.8H564.13V309.87H796.28V314.93H869.95" style="vector-effect: non-scaling-stroke; fill: none; stroke: rgb(0, 204, 150); stroke-opacity: 1; stroke-width: 2px; opacity: 1; stroke-dasharray: 3px, 3px;"/></g><g class="points"/><g class="text"/></g></g></g><g class="overplot"/><path class="xlines-above crisp" d="M0,0" style="fill: none;"/><path class="ylines-above crisp" d="M0,0" style="fill: none;"/><g class="overlines-above"/><g class="xaxislayer-above"><g class="xtick"><text text-anchor="middle" x="0" y="433" transform="translate(178.53,0)" style="font-family: 'Open Sans', verdana, arial, sans-serif; font-size: 12px; fill: rgb(42, 63, 95); fill-opacity: 1; white-space: pre; opacity: 1;">0.3</text></g><g class="xtick"><text text-anchor="middle" x="0" y="433" style="font-family: 'Open Sans', verdana, arial, sans-serif; font-size: 12px; fill: rgb(42, 63, 95); fill-opacity: 1; white-space: pre; opacity: 1;" transform="translate(295.18,0)">0.4</text></g><g class="xtick"><text text-anchor="middle" x="0" y="433" style="font-family: 'Open Sans', verdana, arial, sans-serif; font-size: 12px; fill: rgb(42, 63, 95); fill-opacity: 1; white-space: pre; opacity: 1;" transform="translate(411.83,0)">0.5</text></g><g class="xtick"><text text-anchor="middle" x="0" y="433" style="font-family: 'Open Sans', verdana, arial, sans-serif; font-size: 12px; fill: rgb(42, 63, 95); fill-opacity: 1; white-space: pre; opacity: 1;" transform="translate(528.48,0)">0.6</text></g><g class="xtick"><text text-anchor="middle" x="0" y="433" style="font-family: 'Open Sans', verdana, arial, sans-serif; font-size: 12px; fill: rgb(42, 63, 95); fill-opacity: 1; white-space: pre; opacity: 1;" transform="translate(645.13,0)">0.7</text></g><g class="xtick"><text text-anchor="middle" x="0" y="433" style="font-family: 'Open Sans', verdana, arial, sans-serif; font-size: 12px; fill: rgb(42, 63, 95); fill-opacity: 1; white-space: pre; opacity: 1;" transform="translate(761.78,0)">0.8</text></g><g class="xtick"><text text-anchor="middle" x="0" y="433" style="font-family: 'Open Sans', verdana, arial, sans-serif; font-size: 12px; fill: rgb(42, 63, 95); fill-opacity: 1; white-space: pre; opacity: 1;" transform="translate(878.44,0)">0.9</text></g></g><g class="yaxislayer-above"><g class="ytick"><text text-anchor="end" x="79" y="4.199999999999999" transform="translate(0,420)" style="font-family: 'Open Sans', verdana, arial, sans-serif; font-size: 12px; fill: rgb(42, 63, 95); fill-opacity: 1; white-space: pre; opacity: 1;">0</text></g><g class="ytick"><text text-anchor="end" x="79" y="4.199999999999999" style="font-family: 'Open Sans', verdana, arial, sans-serif; font-size: 12px; fill: rgb(42, 63, 95); fill-opacity: 1; white-space: pre; opacity: 1;" transform="translate(0,359.2)">0.2</text></g><g class="ytick"><text text-anchor="end" x="79" y="4.199999999999999" style="font-family: 'Open Sans', verdana, arial, sans-serif; font-size: 12px; fill: rgb(42, 63, 95); fill-opacity: 1; white-space: pre; opacity: 1;" transform="translate(0,298.4)">0.4</text></g><g class="ytick"><text text-anchor="end" x="79" y="4.199999999999999" style="font-family: 'Open Sans', verdana, arial, sans-serif; font-size: 12px; fill: rgb(42, 63, 95); fill-opacity: 1; white-space: pre; opacity: 1;" transform="translate(0,237.6)">0.6</text></g><g class="ytick"><text text-anchor="end" x="79" y="4.199999999999999" style="font-family: 'Open Sans', verdana, arial, sans-serif; font-size: 12px; fill: rgb(42, 63, 95); fill-opacity: 1; white-space: pre; opacity: 1;" transform="translate(0,176.8)">0.8</text></g><g class="ytick"><text text-anchor="end" x="79" y="4.199999999999999" style="font-family: 'Open Sans', verdana, arial, sans-serif; font-size: 12px; fill: rgb(42, 63, 95); fill-opacity: 1; white-space: pre; opacity: 1;" transform="translate(0,116)">1</text></g></g><g class="overaxes-above"/></g></g><g class="polarlayer"/><g class="smithlayer"/><g class="ternarylayer"/><g class="geolayer"/><g class="funnelarealayer"/><g class="pielayer"/><g class="iciclelayer"/><g class="treemaplayer"/><g class="sunburstlayer"/><g class="glimages"/><defs id="topdefs-57ba93"><g class="clips"/><clipPath id="legend57ba93"><rect width="203" height="143" x="0" y="0"/></clipPath></defs><g class="layer-above"><g class="imagelayer"/><g class="shapelayer"/></g><g class="infolayer"><g class="legend" pointer-events="all" transform="translate(984.74,100)"><rect class="bg" shape-rendering="crispEdges" width="203" height="143" x="0" y="0" style="stroke: rgb(68, 68, 68); stroke-opacity: 1; fill: rgb(255, 255, 255); fill-opacity: 1; stroke-width: 0px;"/><g class="scrollbox" transform="" clip-path="url(#legend57ba93)"><text class="legendtitletext" text-anchor="start" x="2" y="18.2" style="font-family: 'Open Sans', verdana, arial, sans-serif; font-size: 14px; fill: rgb(42, 63, 95); fill-opacity: 1; white-space: pre;">Min Snr Used (dB), ILP Type</text><g class="groups" transform=""><g class="traces" transform="translate(0,32.7)" style="opacity: 1;"><text class="legendtext" text-anchor="start" x="40" y="4.680000000000001" style="font-family: 'Open Sans', verdana, arial, sans-serif; font-size: 12px; fill: rgb(42, 63, 95); fill-opacity: 1; white-space: pre;">5, Fixed</text><g class="layers" style="opacity: 1;"><g class="legendfill"/><g class="legendlines"><path class="js-line" d="M5,0h30" style="fill: none; stroke: rgb(99, 110, 250); stroke-opacity: 1; stroke-width: 2px;"/></g><g class="legendsymbols"><g class="legendpoints"/></g></g><rect class="legendtoggle" x="0" y="-9.5" width="100.859375" height="19" style="fill: rgb(0, 0, 0); fill-opacity: 0;"/></g></g><g class="groups" transform=""><g class="traces" transform="translate(0,51.7)" style="opacity: 1;"><text class="legendtext" text-anchor="start" x="40" y="4.680000000000001" style="font-family: 'Open Sans', verdana, arial, sans-serif; font-size: 12px; fill: rgb(42, 63, 95); fill-opacity: 1; white-space: pre;">5, Single</text><g class="layers" style="opacity: 1;"><g class="legendfill"/><g class="legendlines"><path class="js-line" d="M5,0h30" style="fill: none; stroke: rgb(99, 110, 250); stroke-opacity: 1; stroke-dasharray: 3px, 3px; stroke-width: 2px;"/></g><g class="legendsymbols"><g class="legendpoints"/></g></g><rect class="legendtoggle" x="0" y="-9.5" width="100.859375" height="19" style="fill: rgb(0, 0, 0); fill-opacity: 0;"/></g></g><g class="groups" transform=""><g class="traces" transform="translate(0,70.7)" style="opacity: 1;"><text class="legendtext" text-anchor="start" x="40" y="4.680000000000001" style="font-family: 'Open Sans', verdana, arial, sans-serif; font-size: 12px; fill: rgb(42, 63, 95); fill-opacity: 1; white-space: pre;">10, Fixed</text><g class="layers" style="opacity: 1;"><g class="legendfill"/><g class="legendlines"><path class="js-line" d="M5,0h30" style="fill: none; stroke: rgb(239, 85, 59); stroke-opacity: 1; stroke-width: 2px;"/></g><g class="legendsymbols"><g class="legendpoints"/></g></g><rect class="legendtoggle" x="0" y="-9.5" width="100.859375" height="19" style="fill: rgb(0, 0, 0); fill-opacity: 0;"/></g></g><g class="groups" transform=""><g class="traces" transform="translate(0,89.7)" style="opacity: 1;"><text class="legendtext" text-anchor="start" x="40" y="4.680000000000001" style="font-family: 'Open Sans', verdana, arial, sans-serif; font-size: 12px; fill: rgb(42, 63, 95); fill-opacity: 1; white-space: pre;">10, Single</text><g class="layers" style="opacity: 1;"><g class="legendfill"/><g class="legendlines"><path class="js-line" d="M5,0h30" style="fill: none; stroke: rgb(239, 85, 59); stroke-opacity: 1; stroke-dasharray: 3px, 3px; stroke-width: 2px;"/></g><g class="legendsymbols"><g class="legendpoints"/></g></g><rect class="legendtoggle" x="0" y="-9.5" width="100.859375" height="19" style="fill: rgb(0, 0, 0); fill-opacity: 0;"/></g></g><g class="groups" transform=""><g class="traces" transform="translate(0,108.7)" style="opacity: 1;"><text class="legendtext" text-anchor="start" x="40" y="4.680000000000001" style="font-family: 'Open Sans', verdana, arial, sans-serif; font-size: 12px; fill: rgb(42, 63, 95); fill-opacity: 1; white-space: pre;">15, Fixed</text><g class="layers" style="opacity: 1;"><g class="legendfill"/><g class="legendlines"><path class="js-line" d="M5,0h30" style="fill: none; stroke: rgb(0, 204, 150); stroke-opacity: 1; stroke-width: 2px;"/></g><g class="legendsymbols"><g class="legendpoints"/></g></g><rect class="legendtoggle" x="0" y="-9.5" width="100.859375" height="19" style="fill: rgb(0, 0, 0); fill-opacity: 0;"/></g></g><g class="groups" transform=""><g class="traces" transform="translate(0,127.7)" style="opacity: 1;"><text class="legendtext" text-anchor="start" x="40" y="4.680000000000001" style="font-family: 'Open Sans', verdana, arial, sans-serif; font-size: 12px; fill: rgb(42, 63, 95); fill-opacity: 1; white-space: pre;">15, Single</text><g class="layers" style="opacity: 1;"><g class="legendfill"/><g class="legendlines"><path class="js-line" d="M5,0h30" style="fill: none; stroke: rgb(0, 204, 150); stroke-opacity: 1; stroke-dasharray: 3px, 3px; stroke-width: 2px;"/></g><g class="legendsymbols"><g class="legendpoints"/></g></g><rect class="legendtoggle" x="0" y="-9.5" width="100.859375" height="19" style="fill: rgb(0, 0, 0); fill-opacity: 0;"/></g></g></g><rect class="scrollbar" rx="20" ry="3" width="0" height="0" x="0" y="0" style="fill: rgb(128, 139, 164); fill-opacity: 1;"/></g><g class="g-gtitle"><text class="gtitle" x="60" y="50" text-anchor="start" dy="0em" style="font-family: 'Open Sans', verdana, arial, sans-serif; font-size: 17px; fill: rgb(42, 63, 95); opacity: 1; font-weight: normal; white-space: pre;">UEs Throughput COV DL - CDF</text></g><g class="g-xtitle"><text class="xtitle" x="523.5" y="460.8" text-anchor="middle" style="font-family: 'Open Sans', verdana, arial, sans-serif; font-size: 14px; fill: rgb(42, 63, 95); opacity: 1; font-weight: normal; white-space: pre;">Throughput:Mean COV</text></g><g class="g-ytitle"><text class="ytitle" transform="rotate(-90,34.575,260)" x="34.575" y="260" text-anchor="middle" style="font-family: 'Open Sans', verdana, arial, sans-serif; font-size: 14px; fill: rgb(42, 63, 95); opacity: 1; font-weight: normal; white-space: pre;">probability</text></g><g class="annotation" data-index="0" style="opacity: 1;"><g class="annotation-text-g" transform="rotate(0,523.5,90.5)"><g class="cursor-pointer" transform="translate(491,81)"><rect class="bg" x="0.5" y="0.5" width="65" height="18" style="stroke-width: 1px; stroke: rgb(0, 0, 0); stroke-opacity: 0; fill: rgb(0, 0, 0); fill-opacity: 0;"/><text class="annotation-text" text-anchor="middle" x="32.703125" y="14" style="font-family: 'Open Sans', verdana, arial, sans-serif; font-size: 12px; fill: rgb(42, 63, 95); fill-opacity: 1; white-space: pre;">Power=30</text></g></g></g></g></svg>