<svg class="main-svg" xmlns="http://www.w3.org/2000/svg" xmlns:xlink="http://www.w3.org/1999/xlink" width="700" height="500" style="" viewBox="0 0 700 500"><rect x="0" y="0" width="700" height="500" style="fill: rgb(255, 255, 255); fill-opacity: 1;"/><defs id="defs-b510e8"><g class="clips"><clipPath id="clipb510e8xyplot" class="plotclip"><rect width="272" height="320"/></clipPath><clipPath class="axesclip" id="clipb510e8x"><rect x="80" y="0" width="272" height="500"/></clipPath><clipPath class="axesclip" id="clipb510e8y"><rect x="0" y="100" width="700" height="320"/></clipPath><clipPath class="axesclip" id="clipb510e8xy"><rect x="80" y="100" width="272" height="320"/></clipPath></g><g class="gradients"/><g class="patterns"/></defs><g class="bglayer"><rect class="bg" x="80" y="100" width="272" height="320" style="fill: rgb(229, 236, 246); fill-opacity: 1; stroke-width: 0;"/></g><g class="layer-below"><g class="imagelayer"/><g class="shapelayer"/></g><g class="cartesianlayer"><g class="subplot xy"><g class="layer-subplot"><g class="shapelayer"/><g class="imagelayer"/></g><g class="minor-gridlayer"><g class="x"/><g class="y"/></g><g class="gridlayer"><g class="x"><path class="xgrid crisp" transform="translate(117.50999999999999,0)" d="M0,100v320" style="stroke: rgb(255, 255, 255); stroke-opacity: 1; stroke-width: 1px;"/><path class="xgrid crisp" transform="translate(191.91,0)" d="M0,100v320" style="stroke: rgb(255, 255, 255); stroke-opacity: 1; stroke-width: 1px;"/><path class="xgrid crisp" transform="translate(266.32,0)" d="M0,100v320" style="stroke: rgb(255, 255, 255); stroke-opacity: 1; stroke-width: 1px;"/><path class="xgrid crisp" transform="translate(340.72,0)" d="M0,100v320" style="stroke: rgb(255, 255, 255); stroke-opacity: 1; stroke-width: 1px;"/></g><g class="y"><path class="ygrid crisp" transform="translate(0,359.2)" d="M80,0h272" style="stroke: rgb(255, 255, 255); stroke-opacity: 1; stroke-width: 1px;"/><path class="ygrid crisp" transform="translate(0,298.4)" d="M80,0h272" style="stroke: rgb(255, 255, 255); stroke-opacity: 1; stroke-width: 1px;"/><path class="ygrid crisp" transform="translate(0,237.6)" d="M80,0h272" style="stroke: rgb(255, 255, 255); stroke-opacity: 1; stroke-width: 1px;"/><path class="ygrid crisp" transform="translate(0,176.8)" d="M80,0h272" style="stroke: rgb(255, 255, 255); stroke-opacity: 1; stroke-width: 1px;"/><path class="ygrid crisp" transform="translate(0,116)" d="M80,0h272" style="stroke: rgb(255, 255, 255); stroke-opacity: 1; stroke-width: 1px;"/></g></g><g class="zerolinelayer"><path class="yzl zl crisp" transform="translate(0,420)" d="M80,0h272" style="stroke: rgb(255, 255, 255); stroke-opacity: 1; stroke-width: 2px;"/></g><path class="xlines-below"/><path class="ylines-below"/><g class="overlines-below"/><g class="xaxislayer-below"/><g class="yaxislayer-below"/><g class="overaxes-below"/><g class="plot" transform="translate(80,100)" clip-path="url(#clipb510e8xyplot)"><g class="scatterlayer mlayer"><g class="trace scatter trace3f86d8" style="stroke-miterlimit: 2; opacity: 1;"><g class="fills"/><g class="errorbars"/><g class="lines"><path class="js-line" d="M0,16V21.07H0.88V26.13H1.94V31.2H4.07V36.27H5.71V41.33H10.1V46.4H13.29V51.47H14.2V56.53H18.59V61.6H23.15V66.67H24.79V71.73H31.21V76.8H31.64V81.87H32.1V86.93H35.57V92H37.12V97.07H43.41V102.13H44.19V107.2H45.48V112.27H46.25V117.33H46.97V122.4H53.65V127.47H54.91V132.53H55.29V137.6H55.39V142.67H57.06V147.73H57.35V152.8H58.24V157.87H62.47V162.93H66.17V168H70.67V173.07H73.85V178.13H76.17V183.2H77.67V188.27H77.89V193.33H78.94V198.4H80.13V203.47H80.42V208.53H80.79V213.6H84.54V218.67H90.86V223.73H95.22V228.8H95.57V233.87H104.34V238.93H107.08V244H113.49V249.07H116V254.13H117.04V259.2H120.25V264.27H122.22V269.33H126.04V274.4H128.6V279.47H128.79V284.53H129.85V289.6H134.51V294.67H146.07V299.73H158.52V304.8H159.32V309.87H164.27V314.93H178.47" style="vector-effect: non-scaling-stroke; fill: none; stroke: rgb(99, 110, 250); stroke-opacity: 1; stroke-width: 2px; opacity: 1;"/></g><g class="points"/><g class="text"/></g><g class="trace scatter trace168cd7" style="stroke-miterlimit: 2; opacity: 1;"><g class="fills"/><g class="errorbars"/><g class="lines"><path class="js-line" d="M0,16V21.07H0.88V26.13H1.94V31.2H4.07V36.27H5.71V41.33H10.1V46.4H13.29V51.47H14.2V56.53H18.59V61.6H23.15V66.67H24.79V71.73H31.21V76.8H31.64V81.87H32.1V86.93H35.57V92H37.12V97.07H43.41V102.13H44.19V107.2H45.48V112.27H46.25V117.33H46.97V122.4H53.65V127.47H54.91V132.53H55.29V137.6H55.39V142.67H57.06V147.73H57.35V152.8H58.24V157.87H62.47V162.93H66.17V168H70.67V173.07H73.85V178.13H76.17V183.2H77.67V188.27H77.89V193.33H78.94V198.4H80.13V203.47H80.42V208.53H80.79V213.6H84.54V218.67H90.86V223.73H95.22V228.8H95.57V233.87H104.34V238.93H107.08V244H113.49V249.07H116V254.13H117.04V259.2H120.25V264.27H122.22V269.33H126.04V274.4H128.6V279.47H128.79V284.53H129.85V289.6H134.51V294.67H146.07V299.73H158.52V304.8H159.32V309.87H164.27V314.93H178.47" style="vector-effect: non-scaling-stroke; fill: none; stroke: rgb(99, 110, 250); stroke-opacity: 1; stroke-width: 2px; opacity: 1; stroke-dasharray: 3px, 3px;"/></g><g class="points"/><g class="text"/></g><g class="trace scatter tracebae6b9" style="stroke-miterlimit: 2; opacity: 1;"><g class="fills"/><g class="errorbars"/><g class="lines"><path class="js-line" d="M67.51,16V21.07H73.78V26.13H78.45V31.2H79.76V36.27H91.54V41.33H93.66V46.4H95.67V51.47H101.23V56.53H103.43V61.6H105.99V66.67H107.22V71.73H107.89V76.8H109.56V81.87H111.55V86.93H113.53V92H116.27V97.07H118.13V102.13H125.1V107.2H126.64V112.27H127.45V117.33H132.62V122.4H135.06V127.47H135.49V132.53H136.2V137.6H137.43V142.67H138.96V147.73H141.02V152.8H144.05V157.87H145.93V162.93H146.77V168H148.31V173.07H150.65V178.13H152.78V183.2H153.44V188.27H157.41V193.33H158.32V198.4H159.1V203.47H159.71V208.53H161.24V213.6H161.51V218.67H161.69V223.73H165.09V228.8H167.23V233.87H170.68V238.93H172.69V244H174.82V249.07H175.2V254.13H176.68V259.2H182.2V264.27H182.78V269.33H184.23V274.4H185.17V279.47H185.3V284.53H190.03V289.6H190.8V294.67H195.41V299.73H195.7V304.8H205.64V309.87H218.33V314.93H229.67" style="vector-effect: non-scaling-stroke; fill: none; stroke: rgb(239, 85, 59); stroke-opacity: 1; stroke-width: 2px; opacity: 1;"/></g><g class="points"/><g class="text"/></g><g class="trace scatter trace110eae" style="stroke-miterlimit: 2; opacity: 1;"><g class="fills"/><g class="errorbars"/><g class="lines"><path class="js-line" d="M67.51,16V21.07H73.78V26.13H78.45V31.2H79.76V36.27H91.54V41.33H93.66V46.4H95.67V51.47H101.23V56.53H103.43V61.6H105.99V66.67H107.22V71.73H107.89V76.8H109.56V81.87H111.55V86.93H113.53V92H116.27V97.07H118.13V102.13H125.1V107.2H126.64V112.27H127.45V117.33H132.62V122.4H135.06V127.47H135.49V132.53H136.2V137.6H137.43V142.67H138.96V147.73H141.02V152.8H144.05V157.87H145.93V162.93H146.77V168H148.31V173.07H150.65V178.13H152.78V183.2H153.44V188.27H157.41V193.33H158.32V198.4H159.1V203.47H159.71V208.53H161.24V213.6H161.51V218.67H161.69V223.73H165.09V228.8H167.23V233.87H170.68V238.93H172.69V244H174.82V249.07H175.2V254.13H176.68V259.2H182.2V264.27H182.78V269.33H184.23V274.4H185.17V279.47H185.3V284.53H190.03V289.6H190.8V294.67H195.41V299.73H195.7V304.8H205.64V309.87H218.33V314.93H229.67" style="vector-effect: non-scaling-stroke; fill: none; stroke: rgb(239, 85, 59); stroke-opacity: 1; stroke-width: 2px; opacity: 1; stroke-dasharray: 3px, 3px;"/></g><g class="points"/><g class="text"/></g><g class="trace scatter trace83e33c" style="stroke-miterlimit: 2; opacity: 1;"><g class="fills"/><g class="errorbars"/><g class="lines"><path class="js-line" d="M104.11,16V21.07H114.51V26.13H114.85V31.2H121.31V36.27H122.46V41.33H123.13V46.4H126.17V51.47H126.19V56.53H130.61V61.6H135.29V66.67H137.82V71.73H139.09V76.8H148.27V81.87H148.7V86.93H149.29V92H150.28V97.07H152.61V102.13H155.95V107.2H156.79V112.27H158.58V117.33H158.82V122.4H159.7V127.47H162.72V132.53H162.84V137.6H163.63V142.67H164.08V147.73H164.37V152.8H165.78V157.87H167.01V162.93H169.74V168H172.1V173.07H172.69V178.13H177.71V183.2H182.58V188.27H183.15V193.33H186.1V198.4H188.27V203.47H189.34V208.53H191.39V213.6H193.74V218.67H198.37V223.73H205.84V228.8H206.56V233.87H210.79V238.93H214.26V244H217.61V249.07H221.26V254.13H221.38V259.2H223.75V264.27H226.09V269.33H227.12V274.4H230.25V279.47H235.55V284.53H244.23V289.6H249.32V294.67H251.12V299.73H251.46V304.8H253.95V309.87H258.7V314.93H272" style="vector-effect: non-scaling-stroke; fill: none; stroke: rgb(0, 204, 150); stroke-opacity: 1; stroke-width: 2px; opacity: 1;"/></g><g class="points"/><g class="text"/></g><g class="trace scatter trace310786" style="stroke-miterlimit: 2; opacity: 1;"><g class="fills"/><g class="errorbars"/><g class="lines"><path class="js-line" d="M104.11,16V21.07H114.51V26.13H114.85V31.2H121.31V36.27H122.46V41.33H123.13V46.4H126.17V51.47H126.19V56.53H130.61V61.6H135.29V66.67H137.82V71.73H139.09V76.8H148.27V81.87H148.7V86.93H149.29V92H150.28V97.07H152.61V102.13H155.95V107.2H156.79V112.27H158.58V117.33H158.82V122.4H159.7V127.47H162.72V132.53H162.84V137.6H163.63V142.67H164.08V147.73H164.37V152.8H165.78V157.87H167.01V162.93H169.74V168H172.1V173.07H172.69V178.13H177.71V183.2H182.58V188.27H183.15V193.33H186.1V198.4H188.27V203.47H189.34V208.53H191.39V213.6H193.74V218.67H198.37V223.73H205.84V228.8H206.56V233.87H210.79V238.93H214.26V244H217.61V249.07H221.26V254.13H221.38V259.2H223.75V264.27H226.09V269.33H227.12V274.4H230.25V279.47H235.55V284.53H244.23V289.6H249.32V294.67H251.12V299.73H251.46V304.8H253.95V309.87H258.7V314.93H272" style="vector-effect: non-scaling-stroke; fill: none; stroke: rgb(0, 204, 150); stroke-opacity: 1; stroke-width: 2px; opacity: 1; stroke-dasharray: 3px, 3px;"/></g><g class="points"/><g class="text"/></g></g></g><g class="overplot"/><path class="xlines-above crisp" d="M0,0" style="fill: none;"/><path class="ylines-above crisp" d="M0,0" style="fill: none;"/><g class="overlines-above"/><g class="xaxislayer-above"><g class="xtick"><text text-anchor="middle" x="0" y="433" transform="translate(117.50999999999999,0)" style="font-family: 'Open Sans', verdana, arial, sans-serif; font-size: 12px; fill: rgb(42, 63, 95); fill-opacity: 1; white-space: pre; opacity: 1;">15</text></g><g class="xtick"><text text-anchor="middle" x="0" y="433" style="font-family: 'Open Sans', verdana, arial, sans-serif; font-size: 12px; fill: rgb(42, 63, 95); fill-opacity: 1; white-space: pre; opacity: 1;" transform="translate(191.91,0)">20</text></g><g class="xtick"><text text-anchor="middle" x="0" y="433" style="font-family: 'Open Sans', verdana, arial, sans-serif; font-size: 12px; fill: rgb(42, 63, 95); fill-opacity: 1; white-space: pre; opacity: 1;" transform="translate(266.32,0)">25</text></g><g class="xtick"><text text-anchor="middle" x="0" y="433" style="font-family: 'Open Sans', verdana, arial, sans-serif; font-size: 12px; fill: rgb(42, 63, 95); fill-opacity: 1; white-space: pre; opacity: 1;" transform="translate(340.72,0)">30</text></g></g><g class="yaxislayer-above"><g class="ytick"><text text-anchor="end" x="79" y="4.199999999999999" transform="translate(0,420)" style="font-family: 'Open Sans', verdana, arial, sans-serif; font-size: 12px; fill: rgb(42, 63, 95); fill-opacity: 1; white-space: pre; opacity: 1;">0</text></g><g class="ytick"><text text-anchor="end" x="79" y="4.199999999999999" style="font-family: 'Open Sans', verdana, arial, sans-serif; font-size: 12px; fill: rgb(42, 63, 95); fill-opacity: 1; white-space: pre; opacity: 1;" transform="translate(0,359.2)">0.2</text></g><g class="ytick"><text text-anchor="end" x="79" y="4.199999999999999" style="font-family: 'Open Sans', verdana, arial, sans-serif; font-size: 12px; fill: rgb(42, 63, 95); fill-opacity: 1; white-space: pre; opacity: 1;" transform="translate(0,298.4)">0.4</text></g><g class="ytick"><text text-anchor="end" x="79" y="4.199999999999999" style="font-family: 'Open Sans', verdana, arial, sans-serif; font-size: 12px; fill: rgb(42, 63, 95); fill-opacity: 1; white-space: pre; opacity: 1;" transform="translate(0,237.6)">0.6</text></g><g class="ytick"><text text-anchor="end" x="79" y="4.199999999999999" style="font-family: 'Open Sans', verdana, arial, sans-serif; font-size: 12px; fill: rgb(42, 63, 95); fill-opacity: 1; white-space: pre; opacity: 1;" transform="translate(0,176.8)">0.8</text></g><g class="ytick"><text text-anchor="end" x="79" y="4.199999999999999" style="font-family: 'Open Sans', verdana, arial, sans-serif; font-size: 12px; fill: rgb(42, 63, 95); fill-opacity: 1; white-space: pre; opacity: 1;" transform="translate(0,116)">1</text></g></g><g class="overaxes-above"/></g></g><g class="polarlayer"/><g class="smithlayer"/><g class="ternarylayer"/><g class="geolayer"/><g class="funnelarealayer"/><g class="pielayer"/><g class="iciclelayer"/><g class="treemaplayer"/><g class="sunburstlayer"/><g class="glimages"/><defs id="topdefs-b510e8"><g class="clips"/><clipPath id="legendb510e8"><rect width="331" height="143" x="0" y="0"/></clipPath></defs><g class="layer-above"><g class="imagelayer"/><g class="shapelayer"/></g><g class="infolayer"><g class="legend" pointer-events="all" transform="translate(357.44,100)"><rect class="bg" shape-rendering="crispEdges" width="331" height="143" x="0" y="0" style="stroke: rgb(68, 68, 68); stroke-opacity: 1; fill: rgb(255, 255, 255); fill-opacity: 1; stroke-width: 0px;"/><g class="scrollbox" transform="" clip-path="url(#legendb510e8)"><text class="legendtitletext" text-anchor="start" x="2" y="18.2" style="font-family: 'Open Sans', verdana, arial, sans-serif; font-size: 14px; fill: rgb(42, 63, 95); fill-opacity: 1; white-space: pre;">Min Snr Used (dB), Transmission Power (dBm)</text><g class="groups" transform=""><g class="traces" transform="translate(0,32.7)" style="opacity: 1;"><text class="legendtext" text-anchor="start" x="40" y="4.680000000000001" style="font-family: 'Open Sans', verdana, arial, sans-serif; font-size: 12px; fill: rgb(42, 63, 95); fill-opacity: 1; white-space: pre;">5, 40</text><g class="layers" style="opacity: 1;"><g class="legendfill"/><g class="legendlines"><path class="js-line" d="M5,0h30" style="fill: none; stroke: rgb(99, 110, 250); stroke-opacity: 1; stroke-width: 2px;"/></g><g class="legendsymbols"><g class="legendpoints"/></g></g><rect class="legendtoggle" x="0" y="-9.5" width="79.484375" height="19" style="fill: rgb(0, 0, 0); fill-opacity: 0;"/></g></g><g class="groups" transform=""><g class="traces" transform="translate(0,51.7)" style="opacity: 1;"><text class="legendtext" text-anchor="start" x="40" y="4.680000000000001" style="font-family: 'Open Sans', verdana, arial, sans-serif; font-size: 12px; fill: rgb(42, 63, 95); fill-opacity: 1; white-space: pre;">5, 30</text><g class="layers" style="opacity: 1;"><g class="legendfill"/><g class="legendlines"><path class="js-line" d="M5,0h30" style="fill: none; stroke: rgb(99, 110, 250); stroke-opacity: 1; stroke-dasharray: 3px, 3px; stroke-width: 2px;"/></g><g class="legendsymbols"><g class="legendpoints"/></g></g><rect class="legendtoggle" x="0" y="-9.5" width="79.484375" height="19" style="fill: rgb(0, 0, 0); fill-opacity: 0;"/></g></g><g class="groups" transform=""><g class="traces" transform="translate(0,70.7)" style="opacity: 1;"><text class="legendtext" text-anchor="start" x="40" y="4.680000000000001" style="font-family: 'Open Sans', verdana, arial, sans-serif; font-size: 12px; fill: rgb(42, 63, 95); fill-opacity: 1; white-space: pre;">10, 40</text><g class="layers" style="opacity: 1;"><g class="legendfill"/><g class="legendlines"><path class="js-line" d="M5,0h30" style="fill: none; stroke: rgb(239, 85, 59); stroke-opacity: 1; stroke-width: 2px;"/></g><g class="legendsymbols"><g class="legendpoints"/></g></g><rect class="legendtoggle" x="0" y="-9.5" width="79.484375" height="19" style="fill: rgb(0, 0, 0); fill-opacity: 0;"/></g></g><g class="groups" transform=""><g class="traces" transform="translate(0,89.7)" style="opacity: 1;"><text class="legendtext" text-anchor="start" x="40" y="4.680000000000001" style="font-family: 'Open Sans', verdana, arial, sans-serif; font-size: 12px; fill: rgb(42, 63, 95); fill-opacity: 1; white-space: pre;">10, 30</text><g class="layers" style="opacity: 1;"><g class="legendfill"/><g class="legendlines"><path class="js-line" d="M5,0h30" style="fill: none; stroke: rgb(239, 85, 59); stroke-opacity: 1; stroke-dasharray: 3px, 3px; stroke-width: 2px;"/></g><g class="legendsymbols"><g class="legendpoints"/></g></g><rect class="legendtoggle" x="0" y="-9.5" width="79.484375" height="19" style="fill: rgb(0, 0, 0); fill-opacity: 0;"/></g></g><g class="groups" transform=""><g class="traces" transform="translate(0,108.7)" style="opacity: 1;"><text class="legendtext" text-anchor="start" x="40" y="4.680000000000001" style="font-family: 'Open Sans', verdana, arial, sans-serif; font-size: 12px; fill: rgb(42, 63, 95); fill-opacity: 1; white-space: pre;">15, 40</text><g class="layers" style="opacity: 1;"><g class="legendfill"/><g class="legendlines"><path class="js-line" d="M5,0h30" style="fill: none; stroke: rgb(0, 204, 150); stroke-opacity: 1; stroke-width: 2px;"/></g><g class="legendsymbols"><g class="legendpoints"/></g></g><rect class="legendtoggle" x="0" y="-9.5" width="79.484375" height="19" style="fill: rgb(0, 0, 0); fill-opacity: 0;"/></g></g><g class="groups" transform=""><g class="traces" transform="translate(0,127.7)" style="opacity: 1;"><text class="legendtext" text-anchor="start" x="40" y="4.680000000000001" style="font-family: 'Open Sans', verdana, arial, sans-serif; font-size: 12px; fill: rgb(42, 63, 95); fill-opacity: 1; white-space: pre;">15, 30</text><g class="layers" style="opacity: 1;"><g class="legendfill"/><g class="legendlines"><path class="js-line" d="M5,0h30" style="fill: none; stroke: rgb(0, 204, 150); stroke-opacity: 1; stroke-dasharray: 3px, 3px; stroke-width: 2px;"/></g><g class="legendsymbols"><g class="legendpoints"/></g></g><rect class="legendtoggle" x="0" y="-9.5" width="79.484375" height="19" style="fill: rgb(0, 0, 0); fill-opacity: 0;"/></g></g></g><rect class="scrollbar" rx="20" ry="3" width="0" height="0" x="0" y="0" style="fill: rgb(128, 139, 164); fill-opacity: 1;"/></g><g class="g-gtitle"><text class="gtitle" x="35" y="50" text-anchor="start" dy="0em" style="font-family: 'Open Sans', verdana, arial, sans-serif; font-size: 17px; fill: rgb(42, 63, 95); opacity: 1; font-weight: normal; white-space: pre;">Sliced: UE Sinr Varying DL - CDF</text></g><g class="g-xtitle"><text class="xtitle" x="216" y="460.8" text-anchor="middle" style="font-family: 'Open Sans', verdana, arial, sans-serif; font-size: 14px; fill: rgb(42, 63, 95); opacity: 1; font-weight: normal; white-space: pre;">Sinr:Mean (dB)</text></g><g class="g-ytitle"><text class="ytitle" transform="rotate(-90,34.575,260)" x="34.575" y="260" text-anchor="middle" style="font-family: 'Open Sans', verdana, arial, sans-serif; font-size: 14px; fill: rgb(42, 63, 95); opacity: 1; font-weight: normal; white-space: pre;">probability</text></g><g class="annotation" data-index="0" style="opacity: 1;"><g class="annotation-text-g" transform="rotate(0,216,90.5)"><g class="cursor-pointer" transform="translate(186,81)"><rect class="bg" x="0.5" y="0.5" width="59" height="18" style="stroke-width: 1px; stroke: rgb(0, 0, 0); stroke-opacity: 0; fill: rgb(0, 0, 0); fill-opacity: 0;"/><text class="annotation-text" text-anchor="middle" x="29.765625" y="14" style="font-family: 'Open Sans', verdana, arial, sans-serif; font-size: 12px; fill: rgb(42, 63, 95); fill-opacity: 1; white-space: pre;">RBs=100</text></g></g></g></g></svg>