<svg class="main-svg" xmlns="http://www.w3.org/2000/svg" xmlns:xlink="http://www.w3.org/1999/xlink" width="700" height="500" style="" viewBox="0 0 700 500"><rect x="0" y="0" width="700" height="500" style="fill: rgb(255, 255, 255); fill-opacity: 1;"/><defs id="defs-1f0849"><g class="clips"><clipPath id="clip1f0849xyplot" class="plotclip"><rect width="272" height="320"/></clipPath><clipPath class="axesclip" id="clip1f0849x"><rect x="80" y="0" width="272" height="500"/></clipPath><clipPath class="axesclip" id="clip1f0849y"><rect x="0" y="100" width="700" height="320"/></clipPath><clipPath class="axesclip" id="clip1f0849xy"><rect x="80" y="100" width="272" height="320"/></clipPath></g><g class="gradients"/><g class="patterns"/></defs><g class="bglayer"><rect class="bg" x="80" y="100" width="272" height="320" style="fill: rgb(229, 236, 246); fill-opacity: 1; stroke-width: 0;"/></g><g class="layer-below"><g class="imagelayer"/><g class="shapelayer"/></g><g class="cartesianlayer"><g class="subplot xy"><g class="layer-subplot"><g class="shapelayer"/><g class="imagelayer"/></g><g class="minor-gridlayer"><g class="x"/><g class="y"/></g><g class="gridlayer"><g class="x"><path class="xgrid crisp" transform="translate(127.59,0)" d="M0,100v320" style="stroke: rgb(255, 255, 255); stroke-opacity: 1; stroke-width: 1px;"/><path class="xgrid crisp" transform="translate(197.32,0)" d="M0,100v320" style="stroke: rgb(255, 255, 255); stroke-opacity: 1; stroke-width: 1px;"/><path class="xgrid crisp" transform="translate(267.05,0)" d="M0,100v320" style="stroke: rgb(255, 255, 255); stroke-opacity: 1; stroke-width: 1px;"/><path class="xgrid crisp" transform="translate(336.78,0)" d="M0,100v320" style="stroke: rgb(255, 255, 255); stroke-opacity: 1; stroke-width: 1px;"/></g><g class="y"><path class="ygrid crisp" transform="translate(0,359.2)" d="M80,0h272" style="stroke: rgb(255, 255, 255); stroke-opacity: 1; stroke-width: 1px;"/><path class="ygrid crisp" transform="translate(0,298.4)" d="M80,0h272" style="stroke: rgb(255, 255, 255); stroke-opacity: 1; stroke-width: 1px;"/><path class="ygrid crisp" transform="translate(0,237.6)" d="M80,0h272" style="stroke: rgb(255, 255, 255); stroke-opacity: 1; stroke-width: 1px;"/><path class="ygrid crisp" transform="translate(0,176.8)" d="M80,0h272" style="stroke: rgb(255, 255, 255); stroke-opacity: 1; stroke-width: 1px;"/><path class="ygrid crisp" transform="translate(0,116)" d="M80,0h272" style="stroke: rgb(255, 255, 255); stroke-opacity: 1; stroke-width: 1px;"/></g></g><g class="zerolinelayer"><path class="yzl zl crisp" transform="translate(0,420)" d="M80,0h272" style="stroke: rgb(255, 255, 255); stroke-opacity: 1; stroke-width: 2px;"/></g><path class="xlines-below"/><path class="ylines-below"/><g class="overlines-below"/><g class="xaxislayer-below"/><g class="yaxislayer-below"/><g class="overaxes-below"/><g class="plot" transform="translate(80,100)" clip-path="url(#clip1f0849xyplot)"><g class="scatterlayer mlayer"><g class="trace scatter trace22f06b" style="stroke-miterlimit: 2; opacity: 1;"><g class="fills"/><g class="errorbars"/><g class="lines"><path class="js-line" d="M0,16V21.07H7.69V26.13H10.79V31.2H15.55V36.27H22.94V41.33H23.34V46.4H24.09V51.47H26.34V56.53H39.23V61.6H39.81V66.67H40.21V71.73H42.05V76.8H49.65V81.87H52.63V86.93H53.38V92H54.45V97.07H54.96V102.13H61.22V107.2H63.51V112.27H63.72V117.33H63.86V122.4H64.05V127.47H65.09V132.53H66.35V137.6H68.2V142.67H68.7V147.73H71.82V152.8H72.7V157.87H74.07V162.93H74.49V168H74.53V173.07H75.84V178.13H80.21V183.2H83.72V188.27H85.89V193.33H86.66V198.4H89.8V203.47H92.28V208.53H94.31V213.6H97.72V218.67H97.81V223.73H99.05V228.8H99.88V233.87H99.94V238.93H101.92V244H102.33V249.07H102.37V254.13H103.41V259.2H103.94V264.27H104.03V269.33H106.87V274.4H108.17V279.47H111.69V284.53H112.08V289.6H127.56V294.67H130.44V299.73H135.11V304.8H137.87V309.87H138.78V314.93H182.47" style="vector-effect: non-scaling-stroke; fill: none; stroke: rgb(99, 110, 250); stroke-opacity: 1; stroke-width: 2px; opacity: 1;"/></g><g class="points"/><g class="text"/></g><g class="trace scatter trace48640e" style="stroke-miterlimit: 2; opacity: 1;"><g class="fills"/><g class="errorbars"/><g class="lines"><path class="js-line" d="M0,16V21.07H7.69V26.13H10.79V31.2H15.55V36.27H22.94V41.33H23.34V46.4H24.09V51.47H26.34V56.53H39.23V61.6H39.81V66.67H40.21V71.73H42.05V76.8H49.65V81.87H52.63V86.93H53.38V92H54.45V97.07H54.96V102.13H61.22V107.2H63.51V112.27H63.72V117.33H63.86V122.4H64.05V127.47H65.09V132.53H66.35V137.6H68.2V142.67H68.7V147.73H71.82V152.8H72.7V157.87H74.07V162.93H74.49V168H74.53V173.07H75.84V178.13H80.21V183.2H83.72V188.27H85.89V193.33H86.66V198.4H89.8V203.47H92.28V208.53H94.31V213.6H97.72V218.67H97.81V223.73H99.05V228.8H99.88V233.87H99.94V238.93H101.92V244H102.33V249.07H102.37V254.13H103.41V259.2H103.94V264.27H104.03V269.33H106.87V274.4H108.17V279.47H111.69V284.53H112.08V289.6H127.56V294.67H130.44V299.73H135.11V304.8H137.87V309.87H138.78V314.93H182.47" style="vector-effect: non-scaling-stroke; fill: none; stroke: rgb(99, 110, 250); stroke-opacity: 1; stroke-width: 2px; opacity: 1; stroke-dasharray: 3px, 3px;"/></g><g class="points"/><g class="text"/></g><g class="trace scatter tracebccd72" style="stroke-miterlimit: 2; opacity: 1;"><g class="fills"/><g class="errorbars"/><g class="lines"><path class="js-line" d="M59.71,16V21.07H64.18V26.13H91.84V31.2H94.16V36.27H94.22V41.33H99.23V46.4H99.64V51.47H101.48V56.53H108.64V61.6H110.12V66.67H113.07V71.73H119.46V76.8H126.03V81.87H128.89V86.93H131.66V92H131.95V97.07H135.15V102.13H135.55V107.2H136.94V112.27H137.63V117.33H140.85V122.4H143.38V127.47H143.49V132.53H144.32V137.6H147.73V142.67H149.13V147.73H149.33V152.8H150.16V157.87H150.39V162.93H153.87V168H154.28V173.07H155.14V178.13H155.85V183.2H158.19V188.27H166.82V193.33H169.13V198.4H170.04V203.47H175.86V208.53H175.99V213.6H176.22V218.67H176.49V223.73H177.6V228.8H180.3V233.87H180.97V238.93H181.72V244H182.66V249.07H186.18V254.13H187.4V259.2H188.53V264.27H191.23V269.33H192.88V274.4H194.85V279.47H195.52V284.53H196.51V289.6H201.41V294.67H201.48V299.73H210.41V304.8H214.61V309.87H216.92V314.93H222.47" style="vector-effect: non-scaling-stroke; fill: none; stroke: rgb(239, 85, 59); stroke-opacity: 1; stroke-width: 2px; opacity: 1;"/></g><g class="points"/><g class="text"/></g><g class="trace scatter tracef60a68" style="stroke-miterlimit: 2; opacity: 1;"><g class="fills"/><g class="errorbars"/><g class="lines"><path class="js-line" d="M59.71,16V21.07H64.18V26.13H91.84V31.2H94.16V36.27H94.22V41.33H99.23V46.4H99.64V51.47H101.48V56.53H108.64V61.6H110.12V66.67H113.07V71.73H119.46V76.8H126.03V81.87H128.89V86.93H131.66V92H131.95V97.07H135.15V102.13H135.55V107.2H136.94V112.27H137.63V117.33H140.85V122.4H143.38V127.47H143.49V132.53H144.32V137.6H147.73V142.67H149.13V147.73H149.33V152.8H150.16V157.87H150.39V162.93H153.87V168H154.28V173.07H155.14V178.13H155.85V183.2H158.19V188.27H166.82V193.33H169.13V198.4H170.04V203.47H175.86V208.53H175.99V213.6H176.22V218.67H176.49V223.73H177.6V228.8H180.3V233.87H180.97V238.93H181.72V244H182.66V249.07H186.18V254.13H187.4V259.2H188.53V264.27H191.23V269.33H192.88V274.4H194.85V279.47H195.52V284.53H196.51V289.6H201.41V294.67H201.48V299.73H210.41V304.8H214.61V309.87H216.92V314.93H222.47" style="vector-effect: non-scaling-stroke; fill: none; stroke: rgb(239, 85, 59); stroke-opacity: 1; stroke-width: 2px; opacity: 1; stroke-dasharray: 3px, 3px;"/></g><g class="points"/><g class="text"/></g><g class="trace scatter traceac9566" style="stroke-miterlimit: 2; opacity: 1;"><g class="fills"/><g class="errorbars"/><g class="lines"><path class="js-line" d="M84.52,16V21.07H101.36V26.13H112.61V31.2H121.68V36.27H131.3V41.33H132.5V46.4H136.14V51.47H139.86V56.53H141.58V61.6H141.73V66.67H146.31V71.73H147V76.8H147.86V81.87H151.97V86.93H152.68V92H156.88V97.07H157.74V102.13H158.02V107.2H158.32V112.27H158.35V117.33H158.5V122.4H161.1V127.47H164.23V132.53H164.94V137.6H167.94V142.67H168.42V147.73H170.02V152.8H174.28V157.87H174.93V162.93H175.78V168H176.11V173.07H177.08V178.13H177.48V183.2H180.43V188.27H182.88V193.33H183.93V198.4H186.34V203.47H187.16V208.53H187.46V213.6H189.38V218.67H189.52V223.73H190.1V228.8H191.61V233.87H193.77V238.93H196.28V244H196.62V249.07H198.37V254.13H199.09V259.2H201.11V264.27H203.23V269.33H207.08V274.4H210.93V279.47H214.76V284.53H223.26V289.6H224.95V294.67H225.64V299.73H235.97V304.8H245.16V309.87H250.18V314.93H272" style="vector-effect: non-scaling-stroke; fill: none; stroke: rgb(0, 204, 150); stroke-opacity: 1; stroke-width: 2px; opacity: 1;"/></g><g class="points"/><g class="text"/></g><g class="trace scatter traceff3947" style="stroke-miterlimit: 2; opacity: 1;"><g class="fills"/><g class="errorbars"/><g class="lines"><path class="js-line" d="M84.52,16V21.07H101.36V26.13H112.61V31.2H121.68V36.27H131.3V41.33H132.5V46.4H136.14V51.47H139.86V56.53H141.58V61.6H141.73V66.67H146.31V71.73H147V76.8H147.86V81.87H151.97V86.93H152.68V92H156.88V97.07H157.74V102.13H158.02V107.2H158.32V112.27H158.35V117.33H158.5V122.4H161.1V127.47H164.23V132.53H164.94V137.6H167.94V142.67H168.42V147.73H170.02V152.8H174.28V157.87H174.93V162.93H175.78V168H176.11V173.07H177.08V178.13H177.48V183.2H180.43V188.27H182.88V193.33H183.93V198.4H186.34V203.47H187.16V208.53H187.46V213.6H189.38V218.67H189.52V223.73H190.1V228.8H191.61V233.87H193.77V238.93H196.28V244H196.62V249.07H198.37V254.13H199.09V259.2H201.11V264.27H203.23V269.33H207.08V274.4H210.93V279.47H214.76V284.53H223.26V289.6H224.95V294.67H225.64V299.73H235.97V304.8H245.16V309.87H250.18V314.93H272" style="vector-effect: non-scaling-stroke; fill: none; stroke: rgb(0, 204, 150); stroke-opacity: 1; stroke-width: 2px; opacity: 1; stroke-dasharray: 3px, 3px;"/></g><g class="points"/><g class="text"/></g></g></g><g class="overplot"/><path class="xlines-above crisp" d="M0,0" style="fill: none;"/><path class="ylines-above crisp" d="M0,0" style="fill: none;"/><g class="overlines-above"/><g class="xaxislayer-above"><g class="xtick"><text text-anchor="middle" x="0" y="433" transform="translate(127.59,0)" style="font-family: 'Open Sans', verdana, arial, sans-serif; font-size: 12px; fill: rgb(42, 63, 95); fill-opacity: 1; white-space: pre; opacity: 1;">15</text></g><g class="xtick"><text text-anchor="middle" x="0" y="433" style="font-family: 'Open Sans', verdana, arial, sans-serif; font-size: 12px; fill: rgb(42, 63, 95); fill-opacity: 1; white-space: pre; opacity: 1;" transform="translate(197.32,0)">20</text></g><g class="xtick"><text text-anchor="middle" x="0" y="433" style="font-family: 'Open Sans', verdana, arial, sans-serif; font-size: 12px; fill: rgb(42, 63, 95); fill-opacity: 1; white-space: pre; opacity: 1;" transform="translate(267.05,0)">25</text></g><g class="xtick"><text text-anchor="middle" x="0" y="433" style="font-family: 'Open Sans', verdana, arial, sans-serif; font-size: 12px; fill: rgb(42, 63, 95); fill-opacity: 1; white-space: pre; opacity: 1;" transform="translate(336.78,0)">30</text></g></g><g class="yaxislayer-above"><g class="ytick"><text text-anchor="end" x="79" y="4.199999999999999" transform="translate(0,420)" style="font-family: 'Open Sans', verdana, arial, sans-serif; font-size: 12px; fill: rgb(42, 63, 95); fill-opacity: 1; white-space: pre; opacity: 1;">0</text></g><g class="ytick"><text text-anchor="end" x="79" y="4.199999999999999" style="font-family: 'Open Sans', verdana, arial, sans-serif; font-size: 12px; fill: rgb(42, 63, 95); fill-opacity: 1; white-space: pre; opacity: 1;" transform="translate(0,359.2)">0.2</text></g><g class="ytick"><text text-anchor="end" x="79" y="4.199999999999999" style="font-family: 'Open Sans', verdana, arial, sans-serif; font-size: 12px; fill: rgb(42, 63, 95); fill-opacity: 1; white-space: pre; opacity: 1;" transform="translate(0,298.4)">0.4</text></g><g class="ytick"><text text-anchor="end" x="79" y="4.199999999999999" style="font-family: 'Open Sans', verdana, arial, sans-serif; font-size: 12px; fill: rgb(42, 63, 95); fill-opacity: 1; white-space: pre; opacity: 1;" transform="translate(0,237.6)">0.6</text></g><g class="ytick"><text text-anchor="end" x="79" y="4.199999999999999" style="font-family: 'Open Sans', verdana, arial, sans-serif; font-size: 12px; fill: rgb(42, 63, 95); fill-opacity: 1; white-space: pre; opacity: 1;" transform="translate(0,176.8)">0.8</text></g><g class="ytick"><text text-anchor="end" x="79" y="4.199999999999999" style="font-family: 'Open Sans', verdana, arial, sans-serif; font-size: 12px; fill: rgb(42, 63, 95); fill-opacity: 1; white-space: pre; opacity: 1;" transform="translate(0,116)">1</text></g></g><g class="overaxes-above"/></g></g><g class="polarlayer"/><g class="smithlayer"/><g class="ternarylayer"/><g class="geolayer"/><g class="funnelarealayer"/><g class="pielayer"/><g class="iciclelayer"/><g class="treemaplayer"/><g class="sunburstlayer"/><g class="glimages"/><defs id="topdefs-1f0849"><g class="clips"/><clipPath id="legend1f0849"><rect width="331" height="143" x="0" y="0"/></clipPath></defs><g class="layer-above"><g class="imagelayer"/><g class="shapelayer"/></g><g class="infolayer"><g class="legend" pointer-events="all" transform="translate(357.44,100)"><rect class="bg" shape-rendering="crispEdges" width="331" height="143" x="0" y="0" style="stroke: rgb(68, 68, 68); stroke-opacity: 1; fill: rgb(255, 255, 255); fill-opacity: 1; stroke-width: 0px;"/><g class="scrollbox" transform="" clip-path="url(#legend1f0849)"><text class="legendtitletext" text-anchor="start" x="2" y="18.2" style="font-family: 'Open Sans', verdana, arial, sans-serif; font-size: 14px; fill: rgb(42, 63, 95); fill-opacity: 1; white-space: pre;">Min Snr Used (dB), Transmission Power (dBm)</text><g class="groups" transform=""><g class="traces" transform="translate(0,32.7)" style="opacity: 1;"><text class="legendtext" text-anchor="start" x="40" y="4.680000000000001" style="font-family: 'Open Sans', verdana, arial, sans-serif; font-size: 12px; fill: rgb(42, 63, 95); fill-opacity: 1; white-space: pre;">5, 40</text><g class="layers" style="opacity: 1;"><g class="legendfill"/><g class="legendlines"><path class="js-line" d="M5,0h30" style="fill: none; stroke: rgb(99, 110, 250); stroke-opacity: 1; stroke-width: 2px;"/></g><g class="legendsymbols"><g class="legendpoints"/></g></g><rect class="legendtoggle" x="0" y="-9.5" width="79.484375" height="19" style="fill: rgb(0, 0, 0); fill-opacity: 0;"/></g></g><g class="groups" transform=""><g class="traces" transform="translate(0,51.7)" style="opacity: 1;"><text class="legendtext" text-anchor="start" x="40" y="4.680000000000001" style="font-family: 'Open Sans', verdana, arial, sans-serif; font-size: 12px; fill: rgb(42, 63, 95); fill-opacity: 1; white-space: pre;">5, 30</text><g class="layers" style="opacity: 1;"><g class="legendfill"/><g class="legendlines"><path class="js-line" d="M5,0h30" style="fill: none; stroke: rgb(99, 110, 250); stroke-opacity: 1; stroke-dasharray: 3px, 3px; stroke-width: 2px;"/></g><g class="legendsymbols"><g class="legendpoints"/></g></g><rect class="legendtoggle" x="0" y="-9.5" width="79.484375" height="19" style="fill: rgb(0, 0, 0); fill-opacity: 0;"/></g></g><g class="groups" transform=""><g class="traces" transform="translate(0,70.7)" style="opacity: 1;"><text class="legendtext" text-anchor="start" x="40" y="4.680000000000001" style="font-family: 'Open Sans', verdana, arial, sans-serif; font-size: 12px; fill: rgb(42, 63, 95); fill-opacity: 1; white-space: pre;">10, 40</text><g class="layers" style="opacity: 1;"><g class="legendfill"/><g class="legendlines"><path class="js-line" d="M5,0h30" style="fill: none; stroke: rgb(239, 85, 59); stroke-opacity: 1; stroke-width: 2px;"/></g><g class="legendsymbols"><g class="legendpoints"/></g></g><rect class="legendtoggle" x="0" y="-9.5" width="79.484375" height="19" style="fill: rgb(0, 0, 0); fill-opacity: 0;"/></g></g><g class="groups" transform=""><g class="traces" transform="translate(0,89.7)" style="opacity: 1;"><text class="legendtext" text-anchor="start" x="40" y="4.680000000000001" style="font-family: 'Open Sans', verdana, arial, sans-serif; font-size: 12px; fill: rgb(42, 63, 95); fill-opacity: 1; white-space: pre;">10, 30</text><g class="layers" style="opacity: 1;"><g class="legendfill"/><g class="legendlines"><path class="js-line" d="M5,0h30" style="fill: none; stroke: rgb(239, 85, 59); stroke-opacity: 1; stroke-dasharray: 3px, 3px; stroke-width: 2px;"/></g><g class="legendsymbols"><g class="legendpoints"/></g></g><rect class="legendtoggle" x="0" y="-9.5" width="79.484375" height="19" style="fill: rgb(0, 0, 0); fill-opacity: 0;"/></g></g><g class="groups" transform=""><g class="traces" transform="translate(0,108.7)" style="opacity: 1;"><text class="legendtext" text-anchor="start" x="40" y="4.680000000000001" style="font-family: 'Open Sans', verdana, arial, sans-serif; font-size: 12px; fill: rgb(42, 63, 95); fill-opacity: 1; white-space: pre;">15, 40</text><g class="layers" style="opacity: 1;"><g class="legendfill"/><g class="legendlines"><path class="js-line" d="M5,0h30" style="fill: none; stroke: rgb(0, 204, 150); stroke-opacity: 1; stroke-width: 2px;"/></g><g class="legendsymbols"><g class="legendpoints"/></g></g><rect class="legendtoggle" x="0" y="-9.5" width="79.484375" height="19" style="fill: rgb(0, 0, 0); fill-opacity: 0;"/></g></g><g class="groups" transform=""><g class="traces" transform="translate(0,127.7)" style="opacity: 1;"><text class="legendtext" text-anchor="start" x="40" y="4.680000000000001" style="font-family: 'Open Sans', verdana, arial, sans-serif; font-size: 12px; fill: rgb(42, 63, 95); fill-opacity: 1; white-space: pre;">15, 30</text><g class="layers" style="opacity: 1;"><g class="legendfill"/><g class="legendlines"><path class="js-line" d="M5,0h30" style="fill: none; stroke: rgb(0, 204, 150); stroke-opacity: 1; stroke-dasharray: 3px, 3px; stroke-width: 2px;"/></g><g class="legendsymbols"><g class="legendpoints"/></g></g><rect class="legendtoggle" x="0" y="-9.5" width="79.484375" height="19" style="fill: rgb(0, 0, 0); fill-opacity: 0;"/></g></g></g><rect class="scrollbar" rx="20" ry="3" width="0" height="0" x="0" y="0" style="fill: rgb(128, 139, 164); fill-opacity: 1;"/></g><g class="g-gtitle"><text class="gtitle" x="35" y="50" text-anchor="start" dy="0em" style="font-family: 'Open Sans', verdana, arial, sans-serif; font-size: 17px; fill: rgb(42, 63, 95); opacity: 1; font-weight: normal; white-space: pre;">Sliced: UE Sinr Fixed DL - CDF</text></g><g class="g-xtitle"><text class="xtitle" x="216" y="460.8" text-anchor="middle" style="font-family: 'Open Sans', verdana, arial, sans-serif; font-size: 14px; fill: rgb(42, 63, 95); opacity: 1; font-weight: normal; white-space: pre;">Sinr:Mean (dB)</text></g><g class="g-ytitle"><text class="ytitle" transform="rotate(-90,34.575,260)" x="34.575" y="260" text-anchor="middle" style="font-family: 'Open Sans', verdana, arial, sans-serif; font-size: 14px; fill: rgb(42, 63, 95); opacity: 1; font-weight: normal; white-space: pre;">probability</text></g><g class="annotation" data-index="0" style="opacity: 1;"><g class="annotation-text-g" transform="rotate(0,216,90.5)"><g class="cursor-pointer" transform="translate(186,81)"><rect class="bg" x="0.5" y="0.5" width="59" height="18" style="stroke-width: 1px; stroke: rgb(0, 0, 0); stroke-opacity: 0; fill: rgb(0, 0, 0); fill-opacity: 0;"/><text class="annotation-text" text-anchor="middle" x="29.765625" y="14" style="font-family: 'Open Sans', verdana, arial, sans-serif; font-size: 12px; fill: rgb(42, 63, 95); fill-opacity: 1; white-space: pre;">RBs=100</text></g></g></g></g></svg>