<svg class="main-svg" xmlns="http://www.w3.org/2000/svg" xmlns:xlink="http://www.w3.org/1999/xlink" width="700" height="500" style="" viewBox="0 0 700 500"><rect x="0" y="0" width="700" height="500" style="fill: rgb(255, 255, 255); fill-opacity: 1;"/><defs id="defs-cc151e"><g class="clips"><clipPath id="clipcc151exyplot" class="plotclip"><rect width="272" height="320"/></clipPath><clipPath class="axesclip" id="clipcc151ex"><rect x="80" y="0" width="272" height="500"/></clipPath><clipPath class="axesclip" id="clipcc151ey"><rect x="0" y="100" width="700" height="320"/></clipPath><clipPath class="axesclip" id="clipcc151exy"><rect x="80" y="100" width="272" height="320"/></clipPath></g><g class="gradients"/><g class="patterns"/></defs><g class="bglayer"><rect class="bg" x="80" y="100" width="272" height="320" style="fill: rgb(229, 236, 246); fill-opacity: 1; stroke-width: 0;"/></g><g class="layer-below"><g class="imagelayer"/><g class="shapelayer"/></g><g class="cartesianlayer"><g class="subplot xy"><g class="layer-subplot"><g class="shapelayer"/><g class="imagelayer"/></g><g class="minor-gridlayer"><g class="x"/><g class="y"/></g><g class="gridlayer"><g class="x"><path class="xgrid crisp" transform="translate(137.68,0)" d="M0,100v320" style="stroke: rgb(255, 255, 255); stroke-opacity: 1; stroke-width: 1px;"/><path class="xgrid crisp" transform="translate(200.88,0)" d="M0,100v320" style="stroke: rgb(255, 255, 255); stroke-opacity: 1; stroke-width: 1px;"/><path class="xgrid crisp" transform="translate(264.07,0)" d="M0,100v320" style="stroke: rgb(255, 255, 255); stroke-opacity: 1; stroke-width: 1px;"/><path class="xgrid crisp" transform="translate(327.26,0)" d="M0,100v320" style="stroke: rgb(255, 255, 255); stroke-opacity: 1; stroke-width: 1px;"/></g><g class="y"><path class="ygrid crisp" transform="translate(0,359.2)" d="M80,0h272" style="stroke: rgb(255, 255, 255); stroke-opacity: 1; stroke-width: 1px;"/><path class="ygrid crisp" transform="translate(0,298.4)" d="M80,0h272" style="stroke: rgb(255, 255, 255); stroke-opacity: 1; stroke-width: 1px;"/><path class="ygrid crisp" transform="translate(0,237.6)" d="M80,0h272" style="stroke: rgb(255, 255, 255); stroke-opacity: 1; stroke-width: 1px;"/><path class="ygrid crisp" transform="translate(0,176.8)" d="M80,0h272" style="stroke: rgb(255, 255, 255); stroke-opacity: 1; stroke-width: 1px;"/><path class="ygrid crisp" transform="translate(0,116)" d="M80,0h272" style="stroke: rgb(255, 255, 255); stroke-opacity: 1; stroke-width: 1px;"/></g></g><g class="zerolinelayer"><path class="yzl zl crisp" transform="translate(0,420)" d="M80,0h272" style="stroke: rgb(255, 255, 255); stroke-opacity: 1; stroke-width: 2px;"/></g><path class="xlines-below"/><path class="ylines-below"/><g class="overlines-below"/><g class="xaxislayer-below"/><g class="yaxislayer-below"/><g class="overaxes-below"/><g class="plot" transform="translate(80,100)" clip-path="url(#clipcc151exyplot)"><g class="scatterlayer mlayer"><g class="trace scatter trace19bf9e" style="stroke-miterlimit: 2; opacity: 1;"><g class="fills"/><g class="errorbars"/><g class="lines"><path class="js-line" d="M16.22,16V21.07H16.5V26.13H16.9V31.2H17V36.27H17.49V41.33H22.7V46.4H26.52V51.47H27.57V56.53H34.09V61.6H36.86V66.67H38.87V71.73H40.66V76.8H47.45V81.87H52.12V86.93H53.16V92H55.69V97.07H56.02V102.13H56.76V107.2H59.22V112.27H60.71V117.33H61.97V122.4H64.09V127.47H66.34V132.53H66.56V137.6H75.4V142.67H76.51V147.73H78.65V152.8H85.04V157.87H87.83V162.93H88.3V168H89.07V173.07H98.65V178.13H98.65V183.2H99.58V188.27H100.29V193.33H102.13V198.4H102.92V203.47H103.42V208.53H106.45V213.6H109.23V218.67H110.43V223.73H112.64V228.8H112.86V233.87H113.12V238.93H113.29V244H114.62V249.07H117.28V254.13H120.64V259.2H120.91V264.27H123.82V269.33H132.9V274.4H150.42V279.47H164.43V284.53H164.45V289.6H168.98V294.67H173.12V299.73H202.18V304.8H210.62V309.87H233.14V314.93H272" style="vector-effect: non-scaling-stroke; fill: none; stroke: rgb(99, 110, 250); stroke-opacity: 1; stroke-width: 2px; opacity: 1;"/></g><g class="points"/><g class="text"/></g><g class="trace scatter tracea73936" style="stroke-miterlimit: 2; opacity: 1;"><g class="fills"/><g class="errorbars"/><g class="lines"><path class="js-line" d="M16.22,16V21.07H16.5V26.13H16.9V31.2H17V36.27H17.49V41.33H22.7V46.4H26.52V51.47H27.57V56.53H34.09V61.6H36.86V66.67H38.87V71.73H40.66V76.8H47.45V81.87H52.12V86.93H53.16V92H55.69V97.07H56.02V102.13H56.76V107.2H59.22V112.27H60.71V117.33H61.97V122.4H64.09V127.47H66.34V132.53H66.56V137.6H75.4V142.67H76.51V147.73H78.65V152.8H85.04V157.87H87.83V162.93H88.3V168H89.07V173.07H98.65V178.13H98.65V183.2H99.58V188.27H100.29V193.33H102.13V198.4H102.92V203.47H103.42V208.53H106.45V213.6H109.23V218.67H110.43V223.73H112.64V228.8H112.86V233.87H113.12V238.93H113.29V244H114.62V249.07H117.28V254.13H120.64V259.2H120.91V264.27H123.82V269.33H132.9V274.4H150.42V279.47H164.43V284.53H164.45V289.6H168.98V294.67H173.12V299.73H202.18V304.8H210.62V309.87H233.14V314.93H272" style="vector-effect: non-scaling-stroke; fill: none; stroke: rgb(99, 110, 250); stroke-opacity: 1; stroke-width: 2px; opacity: 1; stroke-dasharray: 3px, 3px;"/></g><g class="points"/><g class="text"/></g><g class="trace scatter tracecfb83d" style="stroke-miterlimit: 2; opacity: 1;"><g class="fills"/><g class="errorbars"/><g class="lines"><path class="js-line" d="M0,16V21.07H10.7V26.13H13.3V31.2H29.09V36.27H30.23V41.33H35.9V46.4H36.84V51.47H36.89V56.53H36.91V61.6H38.47V66.67H38.67V71.73H43.03V76.8H44.45V81.87H49.49V86.93H50.63V92H51.46V97.07H52.89V102.13H52.93V107.2H54.36V112.27H59.06V117.33H59.16V122.4H59.94V127.47H61.07V132.53H63.85V137.6H67.76V142.67H69.17V147.73H69.26V152.8H71.67V157.87H72.06V162.93H73.51V168H75.07V173.07H75.89V178.13H75.93V183.2H76.48V188.27H76.85V193.33H79.41V198.4H85.95V203.47H88.99V208.53H89.98V213.6H90.56V218.67H90.81V223.73H91.36V228.8H93.9V233.87H95.71V238.93H97.07V244H101.21V249.07H104.39V254.13H110.45V259.2H112.86V264.27H119.39V269.33H120.66V274.4H136.37V279.47H137.11V284.53H139.65V289.6H145.98V294.67H168.97V299.73H169.77V304.8H193.8V309.87H194.41V314.93H239.07" style="vector-effect: non-scaling-stroke; fill: none; stroke: rgb(239, 85, 59); stroke-opacity: 1; stroke-width: 2px; opacity: 1;"/></g><g class="points"/><g class="text"/></g><g class="trace scatter trace29da8c" style="stroke-miterlimit: 2; opacity: 1;"><g class="fills"/><g class="errorbars"/><g class="lines"><path class="js-line" d="M0,16V21.07H10.7V26.13H13.3V31.2H29.09V36.27H30.23V41.33H35.9V46.4H36.84V51.47H36.89V56.53H36.91V61.6H38.47V66.67H38.67V71.73H43.03V76.8H44.45V81.87H49.49V86.93H50.63V92H51.46V97.07H52.89V102.13H52.93V107.2H54.36V112.27H59.06V117.33H59.16V122.4H59.94V127.47H61.07V132.53H63.85V137.6H67.76V142.67H69.17V147.73H69.26V152.8H71.67V157.87H72.06V162.93H73.51V168H75.07V173.07H75.89V178.13H75.93V183.2H76.48V188.27H76.85V193.33H79.41V198.4H85.95V203.47H88.99V208.53H89.98V213.6H90.56V218.67H90.81V223.73H91.36V228.8H93.9V233.87H95.71V238.93H97.07V244H101.21V249.07H104.39V254.13H110.45V259.2H112.86V264.27H119.39V269.33H120.66V274.4H136.37V279.47H137.11V284.53H139.65V289.6H145.98V294.67H168.97V299.73H169.77V304.8H193.8V309.87H194.41V314.93H239.07" style="vector-effect: non-scaling-stroke; fill: none; stroke: rgb(239, 85, 59); stroke-opacity: 1; stroke-width: 2px; opacity: 1; stroke-dasharray: 3px, 3px;"/></g><g class="points"/><g class="text"/></g><g class="trace scatter traceb658c0" style="stroke-miterlimit: 2; opacity: 1;"><g class="fills"/><g class="errorbars"/><g class="lines"><path class="js-line" d="M1.82,16V21.07H1.83V26.13H2.97V31.2H5.29V36.27H6.28V41.33H9.92V46.4H11.25V51.47H11.72V56.53H16.71V61.6H17.21V66.67H18V71.73H23.58V76.8H24.95V81.87H25V86.93H27.38V92H28.25V97.07H30.85V102.13H33.26V107.2H33.45V112.27H33.92V117.33H35.14V122.4H41.74V127.47H44.55V132.53H45.48V137.6H46.36V142.67H47.16V147.73H48.76V152.8H49.5V157.87H54.01V162.93H56V168H56.61V173.07H56.71V178.13H58.28V183.2H61.1V188.27H62.1V193.33H62.25V198.4H64.38V203.47H64.52V208.53H66.1V213.6H66.46V218.67H67.33V223.73H68.52V228.8H71.14V233.87H71.16V238.93H71.67V244H71.8V249.07H72.37V254.13H72.55V259.2H73.99V264.27H74.39V269.33H88.77V274.4H89.43V279.47H93.9V284.53H94.22V289.6H97.86V294.67H97.92V299.73H98.66V304.8H116.58V309.87H129.14V314.93H161.26" style="vector-effect: non-scaling-stroke; fill: none; stroke: rgb(0, 204, 150); stroke-opacity: 1; stroke-width: 2px; opacity: 1;"/></g><g class="points"/><g class="text"/></g><g class="trace scatter trace2b83ff" style="stroke-miterlimit: 2; opacity: 1;"><g class="fills"/><g class="errorbars"/><g class="lines"><path class="js-line" d="M1.82,16V21.07H1.83V26.13H2.97V31.2H5.29V36.27H6.28V41.33H9.92V46.4H11.25V51.47H11.72V56.53H16.71V61.6H17.21V66.67H18V71.73H23.58V76.8H24.95V81.87H25V86.93H27.38V92H28.25V97.07H30.85V102.13H33.26V107.2H33.45V112.27H33.92V117.33H35.14V122.4H41.74V127.47H44.55V132.53H45.48V137.6H46.36V142.67H47.16V147.73H48.76V152.8H49.5V157.87H54.01V162.93H56V168H56.61V173.07H56.71V178.13H58.28V183.2H61.1V188.27H62.1V193.33H62.25V198.4H64.38V203.47H64.52V208.53H66.1V213.6H66.46V218.67H67.33V223.73H68.52V228.8H71.14V233.87H71.16V238.93H71.67V244H71.8V249.07H72.37V254.13H72.55V259.2H73.99V264.27H74.39V269.33H88.77V274.4H89.43V279.47H93.9V284.53H94.22V289.6H97.86V294.67H97.92V299.73H98.66V304.8H116.58V309.87H129.14V314.93H161.26" style="vector-effect: non-scaling-stroke; fill: none; stroke: rgb(0, 204, 150); stroke-opacity: 1; stroke-width: 2px; opacity: 1; stroke-dasharray: 3px, 3px;"/></g><g class="points"/><g class="text"/></g></g></g><g class="overplot"/><path class="xlines-above crisp" d="M0,0" style="fill: none;"/><path class="ylines-above crisp" d="M0,0" style="fill: none;"/><g class="overlines-above"/><g class="xaxislayer-above"><g class="xtick"><text text-anchor="middle" x="0" y="433" transform="translate(137.68,0)" style="font-family: 'Open Sans', verdana, arial, sans-serif; font-size: 12px; fill: rgb(42, 63, 95); fill-opacity: 1; white-space: pre; opacity: 1;">0.05</text></g><g class="xtick"><text text-anchor="middle" x="0" y="433" style="font-family: 'Open Sans', verdana, arial, sans-serif; font-size: 12px; fill: rgb(42, 63, 95); fill-opacity: 1; white-space: pre; opacity: 1;" transform="translate(200.88,0)">0.1</text></g><g class="xtick"><text text-anchor="middle" x="0" y="433" style="font-family: 'Open Sans', verdana, arial, sans-serif; font-size: 12px; fill: rgb(42, 63, 95); fill-opacity: 1; white-space: pre; opacity: 1;" transform="translate(264.07,0)">0.15</text></g><g class="xtick"><text text-anchor="middle" x="0" y="433" style="font-family: 'Open Sans', verdana, arial, sans-serif; font-size: 12px; fill: rgb(42, 63, 95); fill-opacity: 1; white-space: pre; opacity: 1;" transform="translate(327.26,0)">0.2</text></g></g><g class="yaxislayer-above"><g class="ytick"><text text-anchor="end" x="79" y="4.199999999999999" transform="translate(0,420)" style="font-family: 'Open Sans', verdana, arial, sans-serif; font-size: 12px; fill: rgb(42, 63, 95); fill-opacity: 1; white-space: pre; opacity: 1;">0</text></g><g class="ytick"><text text-anchor="end" x="79" y="4.199999999999999" style="font-family: 'Open Sans', verdana, arial, sans-serif; font-size: 12px; fill: rgb(42, 63, 95); fill-opacity: 1; white-space: pre; opacity: 1;" transform="translate(0,359.2)">0.2</text></g><g class="ytick"><text text-anchor="end" x="79" y="4.199999999999999" style="font-family: 'Open Sans', verdana, arial, sans-serif; font-size: 12px; fill: rgb(42, 63, 95); fill-opacity: 1; white-space: pre; opacity: 1;" transform="translate(0,298.4)">0.4</text></g><g class="ytick"><text text-anchor="end" x="79" y="4.199999999999999" style="font-family: 'Open Sans', verdana, arial, sans-serif; font-size: 12px; fill: rgb(42, 63, 95); fill-opacity: 1; white-space: pre; opacity: 1;" transform="translate(0,237.6)">0.6</text></g><g class="ytick"><text text-anchor="end" x="79" y="4.199999999999999" style="font-family: 'Open Sans', verdana, arial, sans-serif; font-size: 12px; fill: rgb(42, 63, 95); fill-opacity: 1; white-space: pre; opacity: 1;" transform="translate(0,176.8)">0.8</text></g><g class="ytick"><text text-anchor="end" x="79" y="4.199999999999999" style="font-family: 'Open Sans', verdana, arial, sans-serif; font-size: 12px; fill: rgb(42, 63, 95); fill-opacity: 1; white-space: pre; opacity: 1;" transform="translate(0,116)">1</text></g></g><g class="overaxes-above"/></g></g><g class="polarlayer"/><g class="smithlayer"/><g class="ternarylayer"/><g class="geolayer"/><g class="funnelarealayer"/><g class="pielayer"/><g class="iciclelayer"/><g class="treemaplayer"/><g class="sunburstlayer"/><g class="glimages"/><defs id="topdefs-cc151e"><g class="clips"/><clipPath id="legendcc151e"><rect width="331" height="143" x="0" y="0"/></clipPath></defs><g class="layer-above"><g class="imagelayer"/><g class="shapelayer"/></g><g class="infolayer"><g class="legend" pointer-events="all" transform="translate(357.44,100)"><rect class="bg" shape-rendering="crispEdges" width="331" height="143" x="0" y="0" style="stroke: rgb(68, 68, 68); stroke-opacity: 1; fill: rgb(255, 255, 255); fill-opacity: 1; stroke-width: 0px;"/><g class="scrollbox" transform="" clip-path="url(#legendcc151e)"><text class="legendtitletext" text-anchor="start" x="2" y="18.2" style="font-family: 'Open Sans', verdana, arial, sans-serif; font-size: 14px; fill: rgb(42, 63, 95); fill-opacity: 1; white-space: pre;">Min Snr Used (dB), Transmission Power (dBm)</text><g class="groups" transform=""><g class="traces" transform="translate(0,32.7)" style="opacity: 1;"><text class="legendtext" text-anchor="start" x="40" y="4.680000000000001" style="font-family: 'Open Sans', verdana, arial, sans-serif; font-size: 12px; fill: rgb(42, 63, 95); fill-opacity: 1; white-space: pre;">5, 40</text><g class="layers" style="opacity: 1;"><g class="legendfill"/><g class="legendlines"><path class="js-line" d="M5,0h30" style="fill: none; stroke: rgb(99, 110, 250); stroke-opacity: 1; stroke-width: 2px;"/></g><g class="legendsymbols"><g class="legendpoints"/></g></g><rect class="legendtoggle" x="0" y="-9.5" width="79.484375" height="19" style="fill: rgb(0, 0, 0); fill-opacity: 0;"/></g></g><g class="groups" transform=""><g class="traces" transform="translate(0,51.7)" style="opacity: 1;"><text class="legendtext" text-anchor="start" x="40" y="4.680000000000001" style="font-family: 'Open Sans', verdana, arial, sans-serif; font-size: 12px; fill: rgb(42, 63, 95); fill-opacity: 1; white-space: pre;">5, 30</text><g class="layers" style="opacity: 1;"><g class="legendfill"/><g class="legendlines"><path class="js-line" d="M5,0h30" style="fill: none; stroke: rgb(99, 110, 250); stroke-opacity: 1; stroke-dasharray: 3px, 3px; stroke-width: 2px;"/></g><g class="legendsymbols"><g class="legendpoints"/></g></g><rect class="legendtoggle" x="0" y="-9.5" width="79.484375" height="19" style="fill: rgb(0, 0, 0); fill-opacity: 0;"/></g></g><g class="groups" transform=""><g class="traces" transform="translate(0,70.7)" style="opacity: 1;"><text class="legendtext" text-anchor="start" x="40" y="4.680000000000001" style="font-family: 'Open Sans', verdana, arial, sans-serif; font-size: 12px; fill: rgb(42, 63, 95); fill-opacity: 1; white-space: pre;">10, 40</text><g class="layers" style="opacity: 1;"><g class="legendfill"/><g class="legendlines"><path class="js-line" d="M5,0h30" style="fill: none; stroke: rgb(239, 85, 59); stroke-opacity: 1; stroke-width: 2px;"/></g><g class="legendsymbols"><g class="legendpoints"/></g></g><rect class="legendtoggle" x="0" y="-9.5" width="79.484375" height="19" style="fill: rgb(0, 0, 0); fill-opacity: 0;"/></g></g><g class="groups" transform=""><g class="traces" transform="translate(0,89.7)" style="opacity: 1;"><text class="legendtext" text-anchor="start" x="40" y="4.680000000000001" style="font-family: 'Open Sans', verdana, arial, sans-serif; font-size: 12px; fill: rgb(42, 63, 95); fill-opacity: 1; white-space: pre;">10, 30</text><g class="layers" style="opacity: 1;"><g class="legendfill"/><g class="legendlines"><path class="js-line" d="M5,0h30" style="fill: none; stroke: rgb(239, 85, 59); stroke-opacity: 1; stroke-dasharray: 3px, 3px; stroke-width: 2px;"/></g><g class="legendsymbols"><g class="legendpoints"/></g></g><rect class="legendtoggle" x="0" y="-9.5" width="79.484375" height="19" style="fill: rgb(0, 0, 0); fill-opacity: 0;"/></g></g><g class="groups" transform=""><g class="traces" transform="translate(0,108.7)" style="opacity: 1;"><text class="legendtext" text-anchor="start" x="40" y="4.680000000000001" style="font-family: 'Open Sans', verdana, arial, sans-serif; font-size: 12px; fill: rgb(42, 63, 95); fill-opacity: 1; white-space: pre;">15, 40</text><g class="layers" style="opacity: 1;"><g class="legendfill"/><g class="legendlines"><path class="js-line" d="M5,0h30" style="fill: none; stroke: rgb(0, 204, 150); stroke-opacity: 1; stroke-width: 2px;"/></g><g class="legendsymbols"><g class="legendpoints"/></g></g><rect class="legendtoggle" x="0" y="-9.5" width="79.484375" height="19" style="fill: rgb(0, 0, 0); fill-opacity: 0;"/></g></g><g class="groups" transform=""><g class="traces" transform="translate(0,127.7)" style="opacity: 1;"><text class="legendtext" text-anchor="start" x="40" y="4.680000000000001" style="font-family: 'Open Sans', verdana, arial, sans-serif; font-size: 12px; fill: rgb(42, 63, 95); fill-opacity: 1; white-space: pre;">15, 30</text><g class="layers" style="opacity: 1;"><g class="legendfill"/><g class="legendlines"><path class="js-line" d="M5,0h30" style="fill: none; stroke: rgb(0, 204, 150); stroke-opacity: 1; stroke-dasharray: 3px, 3px; stroke-width: 2px;"/></g><g class="legendsymbols"><g class="legendpoints"/></g></g><rect class="legendtoggle" x="0" y="-9.5" width="79.484375" height="19" style="fill: rgb(0, 0, 0); fill-opacity: 0;"/></g></g></g><rect class="scrollbar" rx="20" ry="3" width="0" height="0" x="0" y="0" style="fill: rgb(128, 139, 164); fill-opacity: 1;"/></g><g class="g-gtitle"><text class="gtitle" x="35" y="50" text-anchor="start" dy="0em" style="font-family: 'Open Sans', verdana, arial, sans-serif; font-size: 17px; fill: rgb(42, 63, 95); opacity: 1; font-weight: normal; white-space: pre;">Sliced: UE Sinr DL Varying COV - CDF</text></g><g class="g-xtitle"><text class="xtitle" x="216" y="460.8" text-anchor="middle" style="font-family: 'Open Sans', verdana, arial, sans-serif; font-size: 14px; fill: rgb(42, 63, 95); opacity: 1; font-weight: normal; white-space: pre;">Sinr:Mean COV</text></g><g class="g-ytitle"><text class="ytitle" transform="rotate(-90,34.575,260)" x="34.575" y="260" text-anchor="middle" style="font-family: 'Open Sans', verdana, arial, sans-serif; font-size: 14px; fill: rgb(42, 63, 95); opacity: 1; font-weight: normal; white-space: pre;">probability</text></g><g class="annotation" data-index="0" style="opacity: 1;"><g class="annotation-text-g" transform="rotate(0,216,90.5)"><g class="cursor-pointer" transform="translate(186,81)"><rect class="bg" x="0.5" y="0.5" width="59" height="18" style="stroke-width: 1px; stroke: rgb(0, 0, 0); stroke-opacity: 0; fill: rgb(0, 0, 0); fill-opacity: 0;"/><text class="annotation-text" text-anchor="middle" x="29.765625" y="14" style="font-family: 'Open Sans', verdana, arial, sans-serif; font-size: 12px; fill: rgb(42, 63, 95); fill-opacity: 1; white-space: pre;">RBs=100</text></g></g></g></g></svg>