<svg class="main-svg" xmlns="http://www.w3.org/2000/svg" xmlns:xlink="http://www.w3.org/1999/xlink" width="700" height="500" style="" viewBox="0 0 700 500"><rect x="0" y="0" width="700" height="500" style="fill: rgb(255, 255, 255); fill-opacity: 1;"/><defs id="defs-434240"><g class="clips"><clipPath id="clip434240xyplot" class="plotclip"><rect width="272" height="320"/></clipPath><clipPath class="axesclip" id="clip434240x"><rect x="80" y="0" width="272" height="500"/></clipPath><clipPath class="axesclip" id="clip434240y"><rect x="0" y="100" width="700" height="320"/></clipPath><clipPath class="axesclip" id="clip434240xy"><rect x="80" y="100" width="272" height="320"/></clipPath></g><g class="gradients"/><g class="patterns"/></defs><g class="bglayer"><rect class="bg" x="80" y="100" width="272" height="320" style="fill: rgb(229, 236, 246); fill-opacity: 1; stroke-width: 0;"/></g><g class="layer-below"><g class="imagelayer"/><g class="shapelayer"/></g><g class="cartesianlayer"><g class="subplot xy"><g class="layer-subplot"><g class="shapelayer"/><g class="imagelayer"/></g><g class="minor-gridlayer"><g class="x"/><g class="y"/></g><g class="gridlayer"><g class="x"><path class="xgrid crisp" transform="translate(138.23,0)" d="M0,100v320" style="stroke: rgb(255, 255, 255); stroke-opacity: 1; stroke-width: 1px;"/><path class="xgrid crisp" transform="translate(203.2,0)" d="M0,100v320" style="stroke: rgb(255, 255, 255); stroke-opacity: 1; stroke-width: 1px;"/><path class="xgrid crisp" transform="translate(268.16999999999996,0)" d="M0,100v320" style="stroke: rgb(255, 255, 255); stroke-opacity: 1; stroke-width: 1px;"/><path class="xgrid crisp" transform="translate(333.14,0)" d="M0,100v320" style="stroke: rgb(255, 255, 255); stroke-opacity: 1; stroke-width: 1px;"/></g><g class="y"><path class="ygrid crisp" transform="translate(0,359.2)" d="M80,0h272" style="stroke: rgb(255, 255, 255); stroke-opacity: 1; stroke-width: 1px;"/><path class="ygrid crisp" transform="translate(0,298.4)" d="M80,0h272" style="stroke: rgb(255, 255, 255); stroke-opacity: 1; stroke-width: 1px;"/><path class="ygrid crisp" transform="translate(0,237.6)" d="M80,0h272" style="stroke: rgb(255, 255, 255); stroke-opacity: 1; stroke-width: 1px;"/><path class="ygrid crisp" transform="translate(0,176.8)" d="M80,0h272" style="stroke: rgb(255, 255, 255); stroke-opacity: 1; stroke-width: 1px;"/><path class="ygrid crisp" transform="translate(0,116)" d="M80,0h272" style="stroke: rgb(255, 255, 255); stroke-opacity: 1; stroke-width: 1px;"/></g></g><g class="zerolinelayer"><path class="yzl zl crisp" transform="translate(0,420)" d="M80,0h272" style="stroke: rgb(255, 255, 255); stroke-opacity: 1; stroke-width: 2px;"/></g><path class="xlines-below"/><path class="ylines-below"/><g class="overlines-below"/><g class="xaxislayer-below"/><g class="yaxislayer-below"/><g class="overaxes-below"/><g class="plot" transform="translate(80,100)" clip-path="url(#clip434240xyplot)"><g class="scatterlayer mlayer"><g class="trace scatter trace29bd88" style="stroke-miterlimit: 2; opacity: 1;"><g class="fills"/><g class="errorbars"/><g class="lines"><path class="js-line" d="M12.02,16V21.07H12.26V26.13H34.08V31.2H38.68V36.27H41.57V41.33H42.91V46.4H45.27V51.47H46.19V56.53H47.07V61.6H48.37V66.67H52.35V71.73H53.14V76.8H57.51V81.87H61.17V86.93H61.47V92H62.43V97.07H62.52V102.13H64.55V107.2H66.05V112.27H67.04V117.33H70.47V122.4H73.6V127.47H75.1V132.53H75.67V137.6H75.67V142.67H78.65V147.73H78.75V152.8H80.2V157.87H82.92V162.93H87V168H92.32V173.07H93.88V178.13H95.98V183.2H96.67V188.27H97.15V193.33H100.78V198.4H103.13V203.47H103.36V208.53H107.59V213.6H115.13V218.67H115.97V223.73H116.55V228.8H118.1V233.87H119.2V238.93H120.25V244H128.58V249.07H129.48V254.13H135.96V259.2H139.4V264.27H141.23V269.33H145.66V274.4H148.8V279.47H148.99V284.53H154.03V289.6H164.88V294.67H177.71V299.73H182.26V304.8H186.72V309.87H197.85V314.93H272" style="vector-effect: non-scaling-stroke; fill: none; stroke: rgb(99, 110, 250); stroke-opacity: 1; stroke-width: 2px; opacity: 1;"/></g><g class="points"/><g class="text"/></g><g class="trace scatter tracec83c3e" style="stroke-miterlimit: 2; opacity: 1;"><g class="fills"/><g class="errorbars"/><g class="lines"><path class="js-line" d="M12.02,16V21.07H12.26V26.13H34.08V31.2H38.68V36.27H41.57V41.33H42.91V46.4H45.27V51.47H46.19V56.53H47.07V61.6H48.37V66.67H52.35V71.73H53.14V76.8H57.51V81.87H61.17V86.93H61.47V92H62.43V97.07H62.52V102.13H64.55V107.2H66.05V112.27H67.04V117.33H70.47V122.4H73.6V127.47H75.1V132.53H75.67V137.6H75.67V142.67H78.65V147.73H78.75V152.8H80.2V157.87H82.92V162.93H87V168H92.32V173.07H93.88V178.13H95.98V183.2H96.67V188.27H97.15V193.33H100.78V198.4H103.13V203.47H103.36V208.53H107.59V213.6H115.13V218.67H115.97V223.73H116.55V228.8H118.1V233.87H119.2V238.93H120.25V244H128.58V249.07H129.48V254.13H135.96V259.2H139.4V264.27H141.23V269.33H145.66V274.4H148.8V279.47H148.99V284.53H154.03V289.6H164.88V294.67H177.71V299.73H182.26V304.8H186.72V309.87H197.85V314.93H272" style="vector-effect: non-scaling-stroke; fill: none; stroke: rgb(99, 110, 250); stroke-opacity: 1; stroke-width: 2px; opacity: 1; stroke-dasharray: 3px, 3px;"/></g><g class="points"/><g class="text"/></g><g class="trace scatter trace5db432" style="stroke-miterlimit: 2; opacity: 1;"><g class="fills"/><g class="errorbars"/><g class="lines"><path class="js-line" d="M1.89,16V21.07H8.23V26.13H14.29V31.2H21.46V36.27H22.43V41.33H29.76V46.4H31.96V51.47H33.31V56.53H33.84V61.6H34.08V66.67H34.35V71.73H35.64V76.8H35.68V81.87H39.31V86.93H41.1V92H45.99V97.07H46.09V102.13H46.42V107.2H46.81V112.27H49.06V117.33H50.41V122.4H56.44V127.47H60.97V132.53H61.19V137.6H61.36V142.67H62.96V147.73H63.71V152.8H65.3V157.87H68.3V162.93H75.51V168H76.78V173.07H78.14V178.13H80.61V183.2H81.7V188.27H83.42V193.33H85.48V198.4H86.29V203.47H87.23V208.53H91.08V213.6H91.92V218.67H93.01V223.73H93.79V228.8H100.88V233.87H101.55V238.93H106.34V244H112.18V249.07H114.72V254.13H116.8V259.2H121.74V264.27H122.09V269.33H122.88V274.4H123.48V279.47H126.31V284.53H134.69V289.6H141.58V294.67H147.98V299.73H149.91V304.8H161.44V309.87H183.35V314.93H196.37" style="vector-effect: non-scaling-stroke; fill: none; stroke: rgb(239, 85, 59); stroke-opacity: 1; stroke-width: 2px; opacity: 1;"/></g><g class="points"/><g class="text"/></g><g class="trace scatter trace4a96d5" style="stroke-miterlimit: 2; opacity: 1;"><g class="fills"/><g class="errorbars"/><g class="lines"><path class="js-line" d="M1.89,16V21.07H8.23V26.13H14.29V31.2H21.46V36.27H22.43V41.33H29.76V46.4H31.96V51.47H33.31V56.53H33.84V61.6H34.08V66.67H34.35V71.73H35.64V76.8H35.68V81.87H39.31V86.93H41.1V92H45.99V97.07H46.09V102.13H46.42V107.2H46.81V112.27H49.06V117.33H50.41V122.4H56.44V127.47H60.97V132.53H61.19V137.6H61.36V142.67H62.96V147.73H63.71V152.8H65.3V157.87H68.3V162.93H75.51V168H76.78V173.07H78.14V178.13H80.61V183.2H81.7V188.27H83.42V193.33H85.48V198.4H86.29V203.47H87.23V208.53H91.08V213.6H91.92V218.67H93.01V223.73H93.79V228.8H100.88V233.87H101.55V238.93H106.34V244H112.18V249.07H114.72V254.13H116.8V259.2H121.74V264.27H122.09V269.33H122.88V274.4H123.48V279.47H126.31V284.53H134.69V289.6H141.58V294.67H147.98V299.73H149.91V304.8H161.44V309.87H183.35V314.93H196.37" style="vector-effect: non-scaling-stroke; fill: none; stroke: rgb(239, 85, 59); stroke-opacity: 1; stroke-width: 2px; opacity: 1; stroke-dasharray: 3px, 3px;"/></g><g class="points"/><g class="text"/></g><g class="trace scatter trace1bd0eb" style="stroke-miterlimit: 2; opacity: 1;"><g class="fills"/><g class="errorbars"/><g class="lines"><path class="js-line" d="M0,16V21.07H6.18V26.13H7.13V31.2H7.47V36.27H8.77V41.33H9.82V46.4H10.05V51.47H13.53V56.53H13.82V61.6H15.36V66.67H15.65V71.73H18.48V76.8H20.24V81.87H22.09V86.93H22.99V92H26.61V97.07H30.37V102.13H33.08V107.2H33.5V112.27H35.02V117.33H35.67V122.4H35.89V127.47H36.46V132.53H37.94V137.6H39.32V142.67H40.53V147.73H40.6V152.8H41.66V157.87H44.51V162.93H45.41V168H45.44V173.07H51.13V178.13H51.87V183.2H54.98V188.27H58.46V193.33H62.58V198.4H64.87V203.47H65.21V208.53H69.37V213.6H69.67V218.67H71.11V223.73H73.01V228.8H74.25V233.87H76.78V238.93H81.53V244H83.94V249.07H84.19V254.13H95.64V259.2H98.85V264.27H105.45V269.33H107.2V274.4H108.59V279.47H111.87V284.53H117.71V289.6H120.55V294.67H122.56V299.73H141.61V304.8H168.99V309.87H172.85V314.93H204.68" style="vector-effect: non-scaling-stroke; fill: none; stroke: rgb(0, 204, 150); stroke-opacity: 1; stroke-width: 2px; opacity: 1;"/></g><g class="points"/><g class="text"/></g><g class="trace scatter trace5ad11f" style="stroke-miterlimit: 2; opacity: 1;"><g class="fills"/><g class="errorbars"/><g class="lines"><path class="js-line" d="M0,16V21.07H6.18V26.13H7.13V31.2H7.47V36.27H8.77V41.33H9.82V46.4H10.05V51.47H13.53V56.53H13.82V61.6H15.36V66.67H15.65V71.73H18.48V76.8H20.24V81.87H22.09V86.93H22.99V92H26.61V97.07H30.37V102.13H33.08V107.2H33.5V112.27H35.02V117.33H35.67V122.4H35.89V127.47H36.46V132.53H37.94V137.6H39.32V142.67H40.53V147.73H40.6V152.8H41.66V157.87H44.51V162.93H45.41V168H45.44V173.07H51.13V178.13H51.87V183.2H54.98V188.27H58.46V193.33H62.58V198.4H64.87V203.47H65.21V208.53H69.37V213.6H69.67V218.67H71.11V223.73H73.01V228.8H74.25V233.87H76.78V238.93H81.53V244H83.94V249.07H84.19V254.13H95.64V259.2H98.85V264.27H105.45V269.33H107.2V274.4H108.59V279.47H111.87V284.53H117.71V289.6H120.55V294.67H122.56V299.73H141.61V304.8H168.99V309.87H172.85V314.93H204.68" style="vector-effect: non-scaling-stroke; fill: none; stroke: rgb(0, 204, 150); stroke-opacity: 1; stroke-width: 2px; opacity: 1; stroke-dasharray: 3px, 3px;"/></g><g class="points"/><g class="text"/></g></g></g><g class="overplot"/><path class="xlines-above crisp" d="M0,0" style="fill: none;"/><path class="ylines-above crisp" d="M0,0" style="fill: none;"/><g class="overlines-above"/><g class="xaxislayer-above"><g class="xtick"><text text-anchor="middle" x="0" y="433" transform="translate(138.23,0)" style="font-family: 'Open Sans', verdana, arial, sans-serif; font-size: 12px; fill: rgb(42, 63, 95); fill-opacity: 1; white-space: pre; opacity: 1;">0.05</text></g><g class="xtick"><text text-anchor="middle" x="0" y="433" style="font-family: 'Open Sans', verdana, arial, sans-serif; font-size: 12px; fill: rgb(42, 63, 95); fill-opacity: 1; white-space: pre; opacity: 1;" transform="translate(203.2,0)">0.1</text></g><g class="xtick"><text text-anchor="middle" x="0" y="433" style="font-family: 'Open Sans', verdana, arial, sans-serif; font-size: 12px; fill: rgb(42, 63, 95); fill-opacity: 1; white-space: pre; opacity: 1;" transform="translate(268.16999999999996,0)">0.15</text></g><g class="xtick"><text text-anchor="middle" x="0" y="433" style="font-family: 'Open Sans', verdana, arial, sans-serif; font-size: 12px; fill: rgb(42, 63, 95); fill-opacity: 1; white-space: pre; opacity: 1;" transform="translate(333.14,0)">0.2</text></g></g><g class="yaxislayer-above"><g class="ytick"><text text-anchor="end" x="79" y="4.199999999999999" transform="translate(0,420)" style="font-family: 'Open Sans', verdana, arial, sans-serif; font-size: 12px; fill: rgb(42, 63, 95); fill-opacity: 1; white-space: pre; opacity: 1;">0</text></g><g class="ytick"><text text-anchor="end" x="79" y="4.199999999999999" style="font-family: 'Open Sans', verdana, arial, sans-serif; font-size: 12px; fill: rgb(42, 63, 95); fill-opacity: 1; white-space: pre; opacity: 1;" transform="translate(0,359.2)">0.2</text></g><g class="ytick"><text text-anchor="end" x="79" y="4.199999999999999" style="font-family: 'Open Sans', verdana, arial, sans-serif; font-size: 12px; fill: rgb(42, 63, 95); fill-opacity: 1; white-space: pre; opacity: 1;" transform="translate(0,298.4)">0.4</text></g><g class="ytick"><text text-anchor="end" x="79" y="4.199999999999999" style="font-family: 'Open Sans', verdana, arial, sans-serif; font-size: 12px; fill: rgb(42, 63, 95); fill-opacity: 1; white-space: pre; opacity: 1;" transform="translate(0,237.6)">0.6</text></g><g class="ytick"><text text-anchor="end" x="79" y="4.199999999999999" style="font-family: 'Open Sans', verdana, arial, sans-serif; font-size: 12px; fill: rgb(42, 63, 95); fill-opacity: 1; white-space: pre; opacity: 1;" transform="translate(0,176.8)">0.8</text></g><g class="ytick"><text text-anchor="end" x="79" y="4.199999999999999" style="font-family: 'Open Sans', verdana, arial, sans-serif; font-size: 12px; fill: rgb(42, 63, 95); fill-opacity: 1; white-space: pre; opacity: 1;" transform="translate(0,116)">1</text></g></g><g class="overaxes-above"/></g></g><g class="polarlayer"/><g class="smithlayer"/><g class="ternarylayer"/><g class="geolayer"/><g class="funnelarealayer"/><g class="pielayer"/><g class="iciclelayer"/><g class="treemaplayer"/><g class="sunburstlayer"/><g class="glimages"/><defs id="topdefs-434240"><g class="clips"/><clipPath id="legend434240"><rect width="331" height="143" x="0" y="0"/></clipPath></defs><g class="layer-above"><g class="imagelayer"/><g class="shapelayer"/></g><g class="infolayer"><g class="legend" pointer-events="all" transform="translate(357.44,100)"><rect class="bg" shape-rendering="crispEdges" width="331" height="143" x="0" y="0" style="stroke: rgb(68, 68, 68); stroke-opacity: 1; fill: rgb(255, 255, 255); fill-opacity: 1; stroke-width: 0px;"/><g class="scrollbox" transform="" clip-path="url(#legend434240)"><text class="legendtitletext" text-anchor="start" x="2" y="18.2" style="font-family: 'Open Sans', verdana, arial, sans-serif; font-size: 14px; fill: rgb(42, 63, 95); fill-opacity: 1; white-space: pre;">Min Snr Used (dB), Transmission Power (dBm)</text><g class="groups" transform=""><g class="traces" transform="translate(0,32.7)" style="opacity: 1;"><text class="legendtext" text-anchor="start" x="40" y="4.680000000000001" style="font-family: 'Open Sans', verdana, arial, sans-serif; font-size: 12px; fill: rgb(42, 63, 95); fill-opacity: 1; white-space: pre;">5, 40</text><g class="layers" style="opacity: 1;"><g class="legendfill"/><g class="legendlines"><path class="js-line" d="M5,0h30" style="fill: none; stroke: rgb(99, 110, 250); stroke-opacity: 1; stroke-width: 2px;"/></g><g class="legendsymbols"><g class="legendpoints"/></g></g><rect class="legendtoggle" x="0" y="-9.5" width="79.484375" height="19" style="fill: rgb(0, 0, 0); fill-opacity: 0;"/></g></g><g class="groups" transform=""><g class="traces" transform="translate(0,51.7)" style="opacity: 1;"><text class="legendtext" text-anchor="start" x="40" y="4.680000000000001" style="font-family: 'Open Sans', verdana, arial, sans-serif; font-size: 12px; fill: rgb(42, 63, 95); fill-opacity: 1; white-space: pre;">5, 30</text><g class="layers" style="opacity: 1;"><g class="legendfill"/><g class="legendlines"><path class="js-line" d="M5,0h30" style="fill: none; stroke: rgb(99, 110, 250); stroke-opacity: 1; stroke-dasharray: 3px, 3px; stroke-width: 2px;"/></g><g class="legendsymbols"><g class="legendpoints"/></g></g><rect class="legendtoggle" x="0" y="-9.5" width="79.484375" height="19" style="fill: rgb(0, 0, 0); fill-opacity: 0;"/></g></g><g class="groups" transform=""><g class="traces" transform="translate(0,70.7)" style="opacity: 1;"><text class="legendtext" text-anchor="start" x="40" y="4.680000000000001" style="font-family: 'Open Sans', verdana, arial, sans-serif; font-size: 12px; fill: rgb(42, 63, 95); fill-opacity: 1; white-space: pre;">10, 40</text><g class="layers" style="opacity: 1;"><g class="legendfill"/><g class="legendlines"><path class="js-line" d="M5,0h30" style="fill: none; stroke: rgb(239, 85, 59); stroke-opacity: 1; stroke-width: 2px;"/></g><g class="legendsymbols"><g class="legendpoints"/></g></g><rect class="legendtoggle" x="0" y="-9.5" width="79.484375" height="19" style="fill: rgb(0, 0, 0); fill-opacity: 0;"/></g></g><g class="groups" transform=""><g class="traces" transform="translate(0,89.7)" style="opacity: 1;"><text class="legendtext" text-anchor="start" x="40" y="4.680000000000001" style="font-family: 'Open Sans', verdana, arial, sans-serif; font-size: 12px; fill: rgb(42, 63, 95); fill-opacity: 1; white-space: pre;">10, 30</text><g class="layers" style="opacity: 1;"><g class="legendfill"/><g class="legendlines"><path class="js-line" d="M5,0h30" style="fill: none; stroke: rgb(239, 85, 59); stroke-opacity: 1; stroke-dasharray: 3px, 3px; stroke-width: 2px;"/></g><g class="legendsymbols"><g class="legendpoints"/></g></g><rect class="legendtoggle" x="0" y="-9.5" width="79.484375" height="19" style="fill: rgb(0, 0, 0); fill-opacity: 0;"/></g></g><g class="groups" transform=""><g class="traces" transform="translate(0,108.7)" style="opacity: 1;"><text class="legendtext" text-anchor="start" x="40" y="4.680000000000001" style="font-family: 'Open Sans', verdana, arial, sans-serif; font-size: 12px; fill: rgb(42, 63, 95); fill-opacity: 1; white-space: pre;">15, 40</text><g class="layers" style="opacity: 1;"><g class="legendfill"/><g class="legendlines"><path class="js-line" d="M5,0h30" style="fill: none; stroke: rgb(0, 204, 150); stroke-opacity: 1; stroke-width: 2px;"/></g><g class="legendsymbols"><g class="legendpoints"/></g></g><rect class="legendtoggle" x="0" y="-9.5" width="79.484375" height="19" style="fill: rgb(0, 0, 0); fill-opacity: 0;"/></g></g><g class="groups" transform=""><g class="traces" transform="translate(0,127.7)" style="opacity: 1;"><text class="legendtext" text-anchor="start" x="40" y="4.680000000000001" style="font-family: 'Open Sans', verdana, arial, sans-serif; font-size: 12px; fill: rgb(42, 63, 95); fill-opacity: 1; white-space: pre;">15, 30</text><g class="layers" style="opacity: 1;"><g class="legendfill"/><g class="legendlines"><path class="js-line" d="M5,0h30" style="fill: none; stroke: rgb(0, 204, 150); stroke-opacity: 1; stroke-dasharray: 3px, 3px; stroke-width: 2px;"/></g><g class="legendsymbols"><g class="legendpoints"/></g></g><rect class="legendtoggle" x="0" y="-9.5" width="79.484375" height="19" style="fill: rgb(0, 0, 0); fill-opacity: 0;"/></g></g></g><rect class="scrollbar" rx="20" ry="3" width="0" height="0" x="0" y="0" style="fill: rgb(128, 139, 164); fill-opacity: 1;"/></g><g class="g-gtitle"><text class="gtitle" x="35" y="50" text-anchor="start" dy="0em" style="font-family: 'Open Sans', verdana, arial, sans-serif; font-size: 17px; fill: rgb(42, 63, 95); opacity: 1; font-weight: normal; white-space: pre;">Sliced: UE Sinr DL Fixed COV - CDF</text></g><g class="g-xtitle"><text class="xtitle" x="216" y="460.8" text-anchor="middle" style="font-family: 'Open Sans', verdana, arial, sans-serif; font-size: 14px; fill: rgb(42, 63, 95); opacity: 1; font-weight: normal; white-space: pre;">Sinr:Mean COV</text></g><g class="g-ytitle"><text class="ytitle" transform="rotate(-90,34.575,260)" x="34.575" y="260" text-anchor="middle" style="font-family: 'Open Sans', verdana, arial, sans-serif; font-size: 14px; fill: rgb(42, 63, 95); opacity: 1; font-weight: normal; white-space: pre;">probability</text></g><g class="annotation" data-index="0" style="opacity: 1;"><g class="annotation-text-g" transform="rotate(0,216,90.5)"><g class="cursor-pointer" transform="translate(186,81)"><rect class="bg" x="0.5" y="0.5" width="59" height="18" style="stroke-width: 1px; stroke: rgb(0, 0, 0); stroke-opacity: 0; fill: rgb(0, 0, 0); fill-opacity: 0;"/><text class="annotation-text" text-anchor="middle" x="29.765625" y="14" style="font-family: 'Open Sans', verdana, arial, sans-serif; font-size: 12px; fill: rgb(42, 63, 95); fill-opacity: 1; white-space: pre;">RBs=100</text></g></g></g></g></svg>