<svg class="main-svg" xmlns="http://www.w3.org/2000/svg" xmlns:xlink="http://www.w3.org/1999/xlink" width="700" height="500" style="" viewBox="0 0 700 500"><rect x="0" y="0" width="700" height="500" style="fill: rgb(255, 255, 255); fill-opacity: 1;"/><defs id="defs-854cbd"><g class="clips"><clipPath id="clip854cbdxyplot" class="plotclip"><rect width="272" height="320"/></clipPath><clipPath class="axesclip" id="clip854cbdx"><rect x="80" y="0" width="272" height="500"/></clipPath><clipPath class="axesclip" id="clip854cbdy"><rect x="0" y="100" width="700" height="320"/></clipPath><clipPath class="axesclip" id="clip854cbdxy"><rect x="80" y="100" width="272" height="320"/></clipPath></g><g class="gradients"/><g class="patterns"/></defs><g class="bglayer"><rect class="bg" x="80" y="100" width="272" height="320" style="fill: rgb(229, 236, 246); fill-opacity: 1; stroke-width: 0;"/></g><g class="layer-below"><g class="imagelayer"/><g class="shapelayer"/></g><g class="cartesianlayer"><g class="subplot xy"><g class="layer-subplot"><g class="shapelayer"/><g class="imagelayer"/></g><g class="minor-gridlayer"><g class="x"/><g class="y"/></g><g class="gridlayer"><g class="x"><path class="xgrid crisp" transform="translate(163.16,0)" d="M0,100v320" style="stroke: rgb(255, 255, 255); stroke-opacity: 1; stroke-width: 1px;"/><path class="xgrid crisp" transform="translate(249.03,0)" d="M0,100v320" style="stroke: rgb(255, 255, 255); stroke-opacity: 1; stroke-width: 1px;"/><path class="xgrid crisp" transform="translate(334.90999999999997,0)" d="M0,100v320" style="stroke: rgb(255, 255, 255); stroke-opacity: 1; stroke-width: 1px;"/></g><g class="y"><path class="ygrid crisp" transform="translate(0,359.2)" d="M80,0h272" style="stroke: rgb(255, 255, 255); stroke-opacity: 1; stroke-width: 1px;"/><path class="ygrid crisp" transform="translate(0,298.4)" d="M80,0h272" style="stroke: rgb(255, 255, 255); stroke-opacity: 1; stroke-width: 1px;"/><path class="ygrid crisp" transform="translate(0,237.6)" d="M80,0h272" style="stroke: rgb(255, 255, 255); stroke-opacity: 1; stroke-width: 1px;"/><path class="ygrid crisp" transform="translate(0,176.8)" d="M80,0h272" style="stroke: rgb(255, 255, 255); stroke-opacity: 1; stroke-width: 1px;"/><path class="ygrid crisp" transform="translate(0,116)" d="M80,0h272" style="stroke: rgb(255, 255, 255); stroke-opacity: 1; stroke-width: 1px;"/></g></g><g class="zerolinelayer"><path class="yzl zl crisp" transform="translate(0,420)" d="M80,0h272" style="stroke: rgb(255, 255, 255); stroke-opacity: 1; stroke-width: 2px;"/></g><path class="xlines-below"/><path class="ylines-below"/><g class="overlines-below"/><g class="xaxislayer-below"/><g class="yaxislayer-below"/><g class="overaxes-below"/><g class="plot" transform="translate(80,100)" clip-path="url(#clip854cbdxyplot)"><g class="scatterlayer mlayer"><g class="trace scatter trace592e07" style="stroke-miterlimit: 2; opacity: 1;"><g class="fills"/><g class="errorbars"/><g class="lines"><path class="js-line" d="M0,16V21.07H0.06V26.13H0.68V31.2H1.5V36.27H4.8V41.33H5.55V46.4H6.16V51.47H6.55V56.53H9.02V61.6H12.75V66.67H15.12V71.73H16.24V76.8H17.27V81.87H17.88V86.93H20.76V92H22.28V97.07H22.69V102.13H24.45V107.2H26.1V112.27H26.39V117.33H28.94V122.4H29.1V127.47H29.24V132.53H29.88V137.6H33.32V142.67H36.94V147.73H37.3V152.8H39.95V157.87H40.04V162.93H40.63V168H40.75V173.07H42.61V178.13H43V183.2H43.4V188.27H44.48V193.33H46.93V198.4H48.1V203.47H53.68V208.53H54.18V213.6H56.1V218.67H56.93V223.73H57.18V228.8H59.96V233.87H62.17V238.93H63.1V244H63.37V249.07H65.26V254.13H67.39V259.2H69.86V264.27H71.58V269.33H72.83V274.4H82.85V279.47H83.55V284.53H85.99V289.6H88.58V294.67H89.87V299.73H90.55V304.8H94.36V309.87H99.63V314.93H106.54" style="vector-effect: non-scaling-stroke; fill: none; stroke: rgb(99, 110, 250); stroke-opacity: 1; stroke-width: 2px; opacity: 1;"/></g><g class="points"/><g class="text"/></g><g class="trace scatter tracef43810" style="stroke-miterlimit: 2; opacity: 1;"><g class="fills"/><g class="errorbars"/><g class="lines"><path class="js-line" d="M2.45,16V21.07H5.56V26.13H13.32V31.2H26.92V36.27H28.78V41.33H28.8V46.4H29.03V51.47H29.87V56.53H30.65V61.6H36.86V66.67H37.92V71.73H39.53V76.8H40.72V81.87H41.38V86.93H42.72V92H44.15V97.07H45.65V102.13H46.5V107.2H49.08V112.27H49.12V117.33H50.16V122.4H50.33V127.47H50.54V132.53H51.29V137.6H51.56V142.67H52.03V147.73H53.3V152.8H58.22V157.87H58.8V162.93H62.65V168H63.18V173.07H65.16V178.13H65.98V183.2H66.69V188.27H68.17V193.33H69.77V198.4H71.55V203.47H74.19V208.53H76.91V213.6H78.87V218.67H79.83V223.73H80.24V228.8H81.45V233.87H87.58V238.93H88.5V244H91.98V249.07H92.76V254.13H96.95V259.2H97.41V264.27H101.67V269.33H102.02V274.4H120.06V279.47H122.88V284.53H124.39V289.6H139.39V294.67H144.47V299.73H148.66V304.8H149.07V309.87H195.92V314.93H204.52" style="vector-effect: non-scaling-stroke; fill: none; stroke: rgb(99, 110, 250); stroke-opacity: 1; stroke-width: 2px; opacity: 1; stroke-dasharray: 3px, 3px;"/></g><g class="points"/><g class="text"/></g><g class="trace scatter traceae677b" style="stroke-miterlimit: 2; opacity: 1;"><g class="fills"/><g class="errorbars"/><g class="lines"><path class="js-line" d="M4.41,16V21.07H4.93V26.13H9.31V31.2H13.68V36.27H14.02V41.33H16.99V46.4H17.85V51.47H22.03V56.53H23.24V61.6H24.25V66.67H25.47V71.73H26.3V76.8H27.21V81.87H28.25V86.93H30.21V92H32.46V97.07H36.8V102.13H38.58V107.2H39.27V112.27H41.49V117.33H42.77V122.4H42.98V127.47H43.53V132.53H47.6V137.6H47.67V142.67H50.44V147.73H51.36V152.8H51.46V157.87H53.05V162.93H53.62V168H60.01V173.07H60.03V178.13H61.17V183.2H64.47V188.27H64.98V193.33H65.32V198.4H69.82V203.47H70.8V208.53H71.3V213.6H74.25V218.67H74.45V223.73H76.62V228.8H77.04V233.87H78.95V238.93H79.26V244H83.96V249.07H86.54V254.13H90.9V259.2H93.09V264.27H93.68V269.33H96.29V274.4H101.04V279.47H103.15V284.53H108.8V289.6H111.65V294.67H113.41V299.73H114.24V304.8H137.65V309.87H143.59V314.93H167.46" style="vector-effect: non-scaling-stroke; fill: none; stroke: rgb(239, 85, 59); stroke-opacity: 1; stroke-width: 2px; opacity: 1;"/></g><g class="points"/><g class="text"/></g><g class="trace scatter tracea89307" style="stroke-miterlimit: 2; opacity: 1;"><g class="fills"/><g class="errorbars"/><g class="lines"><path class="js-line" d="M11.97,16V21.07H12.32V26.13H25.4V31.2H30.69V36.27H31.14V41.33H34.23V46.4H40.42V51.47H40.53V56.53H40.97V61.6H41V66.67H42.28V71.73H45.68V76.8H52.6V81.87H53.9V86.93H57.18V92H58.11V97.07H58.19V102.13H58.77V107.2H61.93V112.27H65.36V117.33H65.48V122.4H66.39V127.47H66.97V132.53H68.22V137.6H75.23V142.67H75.32V147.73H75.34V152.8H76.08V157.87H81.45V162.93H82.01V168H83.04V173.07H83.8V178.13H84.73V183.2H86.37V188.27H90.35V193.33H91.24V198.4H91.31V203.47H91.75V208.53H91.83V213.6H95.17V218.67H99.72V223.73H107.8V228.8H109.93V233.87H117.47V238.93H118.18V244H129.12V249.07H129.54V254.13H133.51V259.2H142.3V264.27H145.28V269.33H147.72V274.4H149.42V279.47H149.8V284.53H150.5V289.6H154.32V294.67H177.07V299.73H204.93V304.8H216.75V309.87H221.72V314.93H272" style="vector-effect: non-scaling-stroke; fill: none; stroke: rgb(239, 85, 59); stroke-opacity: 1; stroke-width: 2px; opacity: 1; stroke-dasharray: 3px, 3px;"/></g><g class="points"/><g class="text"/></g><g class="trace scatter tracee23301" style="stroke-miterlimit: 2; opacity: 1;"><g class="fills"/><g class="errorbars"/><g class="lines"><path class="js-line" d="M3.72,16V21.07H4.98V26.13H18.45V31.2H19.88V36.27H43.3V41.33H51.14V46.4H51.84V51.47H52.25V56.53H52.27V61.6H52.56V66.67H57.41V71.73H59.33V76.8H61.7V81.87H61.7V86.93H62.46V92H65.26V97.07H66.85V102.13H70.55V107.2H73.54V112.27H76.13V117.33H78.64V122.4H79.12V127.47H80.02V132.53H83.07V137.6H88.35V142.67H90.8V147.73H96.12V152.8H96.14V157.87H97.58V162.93H98.36V168H100.89V173.07H101.05V178.13H101.58V183.2H103.11V188.27H108.79V193.33H111.14V198.4H112.37V203.47H113.31V208.53H121.09V213.6H122.5V218.67H122.57V223.73H123.18V228.8H124.73V233.87H125.07V238.93H125.43V244H126.12V249.07H127.5V254.13H130.24V259.2H131.03V264.27H142.03V269.33H152.04V274.4H152.73V279.47H154.59V284.53H157.68V289.6H158.16V294.67H164.22V299.73H170.15V304.8H190.6V309.87H192.15V314.93H203.14" style="vector-effect: non-scaling-stroke; fill: none; stroke: rgb(0, 204, 150); stroke-opacity: 1; stroke-width: 2px; opacity: 1;"/></g><g class="points"/><g class="text"/></g><g class="trace scatter traced5e623" style="stroke-miterlimit: 2; opacity: 1;"><g class="fills"/><g class="errorbars"/><g class="lines"><path class="js-line" d="M17.62,16V21.07H44.5V26.13H51.42V31.2H53.92V36.27H55V41.33H58.3V46.4H63.9V51.47H71.09V56.53H71.67V61.6H74.6V66.67H79.22V71.73H80.55V76.8H80.73V81.87H81.47V86.93H81.84V92H83.43V97.07H83.69V102.13H83.83V107.2H85.26V112.27H85.67V117.33H87.46V122.4H88.27V127.47H88.88V132.53H89.91V137.6H96.47V142.67H97.63V147.73H98.92V152.8H101.3V157.87H102.11V162.93H103.51V168H108.36V173.07H108.44V178.13H108.49V183.2H111.73V188.27H114.56V193.33H115.23V198.4H116.85V203.47H121.93V208.53H127.8V213.6H128.02V218.67H132.3V223.73H133.75V228.8H141.75V233.87H143.77V238.93H145.29V244H151.61V249.07H152.62V254.13H157.77V259.2H159.71V264.27H159.77V269.33H161.92V274.4H162.25V279.47H163.19V284.53H167.02V289.6H171.78V294.67H172.79V299.73H173.6V304.8H194.33V309.87H212.58V314.93H222.53" style="vector-effect: non-scaling-stroke; fill: none; stroke: rgb(0, 204, 150); stroke-opacity: 1; stroke-width: 2px; opacity: 1; stroke-dasharray: 3px, 3px;"/></g><g class="points"/><g class="text"/></g></g></g><g class="overplot"/><path class="xlines-above crisp" d="M0,0" style="fill: none;"/><path class="ylines-above crisp" d="M0,0" style="fill: none;"/><g class="overlines-above"/><g class="xaxislayer-above"><g class="xtick"><text text-anchor="middle" x="0" y="433" transform="translate(163.16,0)" style="font-family: 'Open Sans', verdana, arial, sans-serif; font-size: 12px; fill: rgb(42, 63, 95); fill-opacity: 1; white-space: pre; opacity: 1;">2M</text></g><g class="xtick"><text text-anchor="middle" x="0" y="433" style="font-family: 'Open Sans', verdana, arial, sans-serif; font-size: 12px; fill: rgb(42, 63, 95); fill-opacity: 1; white-space: pre; opacity: 1;" transform="translate(249.03,0)">4M</text></g><g class="xtick"><text text-anchor="middle" x="0" y="433" style="font-family: 'Open Sans', verdana, arial, sans-serif; font-size: 12px; fill: rgb(42, 63, 95); fill-opacity: 1; white-space: pre; opacity: 1;" transform="translate(334.90999999999997,0)">6M</text></g></g><g class="yaxislayer-above"><g class="ytick"><text text-anchor="end" x="79" y="4.199999999999999" transform="translate(0,420)" style="font-family: 'Open Sans', verdana, arial, sans-serif; font-size: 12px; fill: rgb(42, 63, 95); fill-opacity: 1; white-space: pre; opacity: 1;">0</text></g><g class="ytick"><text text-anchor="end" x="79" y="4.199999999999999" style="font-family: 'Open Sans', verdana, arial, sans-serif; font-size: 12px; fill: rgb(42, 63, 95); fill-opacity: 1; white-space: pre; opacity: 1;" transform="translate(0,359.2)">0.2</text></g><g class="ytick"><text text-anchor="end" x="79" y="4.199999999999999" style="font-family: 'Open Sans', verdana, arial, sans-serif; font-size: 12px; fill: rgb(42, 63, 95); fill-opacity: 1; white-space: pre; opacity: 1;" transform="translate(0,298.4)">0.4</text></g><g class="ytick"><text text-anchor="end" x="79" y="4.199999999999999" style="font-family: 'Open Sans', verdana, arial, sans-serif; font-size: 12px; fill: rgb(42, 63, 95); fill-opacity: 1; white-space: pre; opacity: 1;" transform="translate(0,237.6)">0.6</text></g><g class="ytick"><text text-anchor="end" x="79" y="4.199999999999999" style="font-family: 'Open Sans', verdana, arial, sans-serif; font-size: 12px; fill: rgb(42, 63, 95); fill-opacity: 1; white-space: pre; opacity: 1;" transform="translate(0,176.8)">0.8</text></g><g class="ytick"><text text-anchor="end" x="79" y="4.199999999999999" style="font-family: 'Open Sans', verdana, arial, sans-serif; font-size: 12px; fill: rgb(42, 63, 95); fill-opacity: 1; white-space: pre; opacity: 1;" transform="translate(0,116)">1</text></g></g><g class="overaxes-above"/></g></g><g class="polarlayer"/><g class="smithlayer"/><g class="ternarylayer"/><g class="geolayer"/><g class="funnelarealayer"/><g class="pielayer"/><g class="iciclelayer"/><g class="treemaplayer"/><g class="sunburstlayer"/><g class="glimages"/><defs id="topdefs-854cbd"><g class="clips"/><clipPath id="legend854cbd"><rect width="331" height="143" x="0" y="0"/></clipPath></defs><g class="layer-above"><g class="imagelayer"/><g class="shapelayer"/></g><g class="infolayer"><g class="legend" pointer-events="all" transform="translate(357.44,100)"><rect class="bg" shape-rendering="crispEdges" width="331" height="143" x="0" y="0" style="stroke: rgb(68, 68, 68); stroke-opacity: 1; fill: rgb(255, 255, 255); fill-opacity: 1; stroke-width: 0px;"/><g class="scrollbox" transform="" clip-path="url(#legend854cbd)"><text class="legendtitletext" text-anchor="start" x="2" y="18.2" style="font-family: 'Open Sans', verdana, arial, sans-serif; font-size: 14px; fill: rgb(42, 63, 95); fill-opacity: 1; white-space: pre;">Min Snr Used (dB), Transmission Power (dBm)</text><g class="groups" transform=""><g class="traces" transform="translate(0,32.7)" style="opacity: 1;"><text class="legendtext" text-anchor="start" x="40" y="4.680000000000001" style="font-family: 'Open Sans', verdana, arial, sans-serif; font-size: 12px; fill: rgb(42, 63, 95); fill-opacity: 1; white-space: pre;">5, 40</text><g class="layers" style="opacity: 1;"><g class="legendfill"/><g class="legendlines"><path class="js-line" d="M5,0h30" style="fill: none; stroke: rgb(99, 110, 250); stroke-opacity: 1; stroke-width: 2px;"/></g><g class="legendsymbols"><g class="legendpoints"/></g></g><rect class="legendtoggle" x="0" y="-9.5" width="79.484375" height="19" style="fill: rgb(0, 0, 0); fill-opacity: 0;"/></g></g><g class="groups" transform=""><g class="traces" transform="translate(0,51.7)" style="opacity: 1;"><text class="legendtext" text-anchor="start" x="40" y="4.680000000000001" style="font-family: 'Open Sans', verdana, arial, sans-serif; font-size: 12px; fill: rgb(42, 63, 95); fill-opacity: 1; white-space: pre;">5, 30</text><g class="layers" style="opacity: 1;"><g class="legendfill"/><g class="legendlines"><path class="js-line" d="M5,0h30" style="fill: none; stroke: rgb(99, 110, 250); stroke-opacity: 1; stroke-dasharray: 3px, 3px; stroke-width: 2px;"/></g><g class="legendsymbols"><g class="legendpoints"/></g></g><rect class="legendtoggle" x="0" y="-9.5" width="79.484375" height="19" style="fill: rgb(0, 0, 0); fill-opacity: 0;"/></g></g><g class="groups" transform=""><g class="traces" transform="translate(0,70.7)" style="opacity: 1;"><text class="legendtext" text-anchor="start" x="40" y="4.680000000000001" style="font-family: 'Open Sans', verdana, arial, sans-serif; font-size: 12px; fill: rgb(42, 63, 95); fill-opacity: 1; white-space: pre;">10, 40</text><g class="layers" style="opacity: 1;"><g class="legendfill"/><g class="legendlines"><path class="js-line" d="M5,0h30" style="fill: none; stroke: rgb(239, 85, 59); stroke-opacity: 1; stroke-width: 2px;"/></g><g class="legendsymbols"><g class="legendpoints"/></g></g><rect class="legendtoggle" x="0" y="-9.5" width="79.484375" height="19" style="fill: rgb(0, 0, 0); fill-opacity: 0;"/></g></g><g class="groups" transform=""><g class="traces" transform="translate(0,89.7)" style="opacity: 1;"><text class="legendtext" text-anchor="start" x="40" y="4.680000000000001" style="font-family: 'Open Sans', verdana, arial, sans-serif; font-size: 12px; fill: rgb(42, 63, 95); fill-opacity: 1; white-space: pre;">10, 30</text><g class="layers" style="opacity: 1;"><g class="legendfill"/><g class="legendlines"><path class="js-line" d="M5,0h30" style="fill: none; stroke: rgb(239, 85, 59); stroke-opacity: 1; stroke-dasharray: 3px, 3px; stroke-width: 2px;"/></g><g class="legendsymbols"><g class="legendpoints"/></g></g><rect class="legendtoggle" x="0" y="-9.5" width="79.484375" height="19" style="fill: rgb(0, 0, 0); fill-opacity: 0;"/></g></g><g class="groups" transform=""><g class="traces" transform="translate(0,108.7)" style="opacity: 1;"><text class="legendtext" text-anchor="start" x="40" y="4.680000000000001" style="font-family: 'Open Sans', verdana, arial, sans-serif; font-size: 12px; fill: rgb(42, 63, 95); fill-opacity: 1; white-space: pre;">15, 40</text><g class="layers" style="opacity: 1;"><g class="legendfill"/><g class="legendlines"><path class="js-line" d="M5,0h30" style="fill: none; stroke: rgb(0, 204, 150); stroke-opacity: 1; stroke-width: 2px;"/></g><g class="legendsymbols"><g class="legendpoints"/></g></g><rect class="legendtoggle" x="0" y="-9.5" width="79.484375" height="19" style="fill: rgb(0, 0, 0); fill-opacity: 0;"/></g></g><g class="groups" transform=""><g class="traces" transform="translate(0,127.7)" style="opacity: 1;"><text class="legendtext" text-anchor="start" x="40" y="4.680000000000001" style="font-family: 'Open Sans', verdana, arial, sans-serif; font-size: 12px; fill: rgb(42, 63, 95); fill-opacity: 1; white-space: pre;">15, 30</text><g class="layers" style="opacity: 1;"><g class="legendfill"/><g class="legendlines"><path class="js-line" d="M5,0h30" style="fill: none; stroke: rgb(0, 204, 150); stroke-opacity: 1; stroke-dasharray: 3px, 3px; stroke-width: 2px;"/></g><g class="legendsymbols"><g class="legendpoints"/></g></g><rect class="legendtoggle" x="0" y="-9.5" width="79.484375" height="19" style="fill: rgb(0, 0, 0); fill-opacity: 0;"/></g></g></g><rect class="scrollbar" rx="20" ry="3" width="0" height="0" x="0" y="0" style="fill: rgb(128, 139, 164); fill-opacity: 1;"/></g><g class="g-gtitle"><text class="gtitle" x="35" y="50" text-anchor="start" dy="0em" style="font-family: 'Open Sans', verdana, arial, sans-serif; font-size: 17px; fill: rgb(42, 63, 95); opacity: 1; font-weight: normal; white-space: pre;">Sliced: UE Throughput Fixed DL - CDF</text></g><g class="g-xtitle"><text class="xtitle" x="216" y="460.8" text-anchor="middle" style="font-family: 'Open Sans', verdana, arial, sans-serif; font-size: 14px; fill: rgb(42, 63, 95); opacity: 1; font-weight: normal; white-space: pre;">Throughput:Mean (Bps)</text></g><g class="g-ytitle"><text class="ytitle" transform="rotate(-90,34.575,260)" x="34.575" y="260" text-anchor="middle" style="font-family: 'Open Sans', verdana, arial, sans-serif; font-size: 14px; fill: rgb(42, 63, 95); opacity: 1; font-weight: normal; white-space: pre;">probability</text></g><g class="annotation" data-index="0" style="opacity: 1;"><g class="annotation-text-g" transform="rotate(0,216,90.5)"><g class="cursor-pointer" transform="translate(186,81)"><rect class="bg" x="0.5" y="0.5" width="59" height="18" style="stroke-width: 1px; stroke: rgb(0, 0, 0); stroke-opacity: 0; fill: rgb(0, 0, 0); fill-opacity: 0;"/><text class="annotation-text" text-anchor="middle" x="29.765625" y="14" style="font-family: 'Open Sans', verdana, arial, sans-serif; font-size: 12px; fill: rgb(42, 63, 95); fill-opacity: 1; white-space: pre;">RBs=100</text></g></g></g></g></svg>