<svg class="main-svg" xmlns="http://www.w3.org/2000/svg" xmlns:xlink="http://www.w3.org/1999/xlink" width="700" height="500" style="" viewBox="0 0 700 500"><rect x="0" y="0" width="700" height="500" style="fill: rgb(255, 255, 255); fill-opacity: 1;"/><defs id="defs-e0eb6b"><g class="clips"><clipPath id="clipe0eb6bxyplot" class="plotclip"><rect width="365" height="320"/></clipPath><clipPath class="axesclip" id="clipe0eb6bx"><rect x="80" y="0" width="365" height="500"/></clipPath><clipPath class="axesclip" id="clipe0eb6by"><rect x="0" y="100" width="700" height="320"/></clipPath><clipPath class="axesclip" id="clipe0eb6bxy"><rect x="80" y="100" width="365" height="320"/></clipPath></g><g class="gradients"/><g class="patterns"/></defs><g class="bglayer"><rect class="bg" x="80" y="100" width="365" height="320" style="fill: rgb(229, 236, 246); fill-opacity: 1; stroke-width: 0;"/></g><g class="layer-below"><g class="imagelayer"/><g class="shapelayer"/></g><g class="cartesianlayer"><g class="subplot xy"><g class="layer-subplot"><g class="shapelayer"/><g class="imagelayer"/></g><g class="minor-gridlayer"><g class="x"/><g class="y"/></g><g class="gridlayer"><g class="x"><path class="xgrid crisp" transform="translate(193.14,0)" d="M0,100v320" style="stroke: rgb(255, 255, 255); stroke-opacity: 1; stroke-width: 1px;"/><path class="xgrid crisp" transform="translate(309.99,0)" d="M0,100v320" style="stroke: rgb(255, 255, 255); stroke-opacity: 1; stroke-width: 1px;"/><path class="xgrid crisp" transform="translate(426.83,0)" d="M0,100v320" style="stroke: rgb(255, 255, 255); stroke-opacity: 1; stroke-width: 1px;"/></g><g class="y"><path class="ygrid crisp" transform="translate(0,359.2)" d="M80,0h365" style="stroke: rgb(255, 255, 255); stroke-opacity: 1; stroke-width: 1px;"/><path class="ygrid crisp" transform="translate(0,298.4)" d="M80,0h365" style="stroke: rgb(255, 255, 255); stroke-opacity: 1; stroke-width: 1px;"/><path class="ygrid crisp" transform="translate(0,237.6)" d="M80,0h365" style="stroke: rgb(255, 255, 255); stroke-opacity: 1; stroke-width: 1px;"/><path class="ygrid crisp" transform="translate(0,176.8)" d="M80,0h365" style="stroke: rgb(255, 255, 255); stroke-opacity: 1; stroke-width: 1px;"/><path class="ygrid crisp" transform="translate(0,116)" d="M80,0h365" style="stroke: rgb(255, 255, 255); stroke-opacity: 1; stroke-width: 1px;"/></g></g><g class="zerolinelayer"><path class="yzl zl crisp" transform="translate(0,420)" d="M80,0h365" style="stroke: rgb(255, 255, 255); stroke-opacity: 1; stroke-width: 2px;"/></g><path class="xlines-below"/><path class="ylines-below"/><g class="overlines-below"/><g class="xaxislayer-below"/><g class="yaxislayer-below"/><g class="overaxes-below"/><g class="plot" transform="translate(80,100)" clip-path="url(#clipe0eb6bxyplot)"><g class="scatterlayer mlayer"><g class="trace scatter trace820278" style="stroke-miterlimit: 2; opacity: 1;"><g class="fills"/><g class="errorbars"/><g class="lines"><path class="js-line" d="M2.21,16V18.53H6.21V21.07H9.72V23.6H10.58V26.13H16.46V28.67H16.92V31.2H17.73V33.73H21.6V36.27H24.54V38.8H26.37V41.33H27.94V43.87H27.94V46.4H29.72V48.93H31.77V51.47H32.18V54H33.94V56.53H34.24V59.07H41.63V61.6H41.99V64.13H43.59V66.67H44.13V69.2H45.16V71.73H46.85V74.27H47.02V76.8H48.05V79.33H48.33V81.87H48.93V84.4H49.51V86.93H49.56V89.47H50.18V92H50.25V94.53H50.41V97.07H51.03V99.6H52.02V102.13H54.55V104.67H56.83V107.2H60.32V109.73H61.82V112.27H62.65V114.8H62.88V117.33H63.39V119.87H66.05V122.4H66.07V124.93H66.2V127.47H66.63V130H66.91V132.53H67.12V135.07H67.51V137.6H67.57V140.13H69.17V142.67H73.31V145.2H74.39V147.73H76.94V150.27H77.07V152.8H81.43V155.33H84.52V157.87H87.76V160.4H90.05V162.93H90.72V165.47H90.73V168H91.25V170.53H91.58V173.07H91.73V175.6H91.76V178.13H96.08V180.67H97.29V183.2H97.61V185.73H98.36V188.27H101.14V190.8H105.69V193.33H107.27V195.87H108.81V198.4H111.4V200.93H112.64V203.47H113.72V206H113.93V208.53H115.11V211.07H116.66V213.6H116.75V216.13H116.96V218.67H118.19V221.2H118.43V223.73H121.63V226.27H123.45V228.8H123.59V231.33H125.49V233.87H125.91V236.4H128.69V238.93H131.68V241.47H135.68V244H136.09V246.53H136.6V249.07H136.88V251.6H137.95V254.13H141.03V256.67H148.49V259.2H148.98V261.73H155.24V264.27H159.44V266.8H162.85V269.33H164.64V271.87H165.07V274.4H166.03V276.93H171.82V279.47H172.71V282H174.69V284.53H178.82V287.07H185.58V289.6H188.53V292.13H195.18V294.67H197.26V297.2H199.19V299.73H201.55V302.27H211.69V304.8H227.76V307.33H253.26V309.87H261.89V312.4H266.42V314.93H286.58V317.47H303.97" style="vector-effect: non-scaling-stroke; fill: none; stroke: rgb(99, 110, 250); stroke-opacity: 1; stroke-width: 2px; opacity: 1;"/></g><g class="points"/><g class="text"/></g><g class="trace scatter tracebdbeff" style="stroke-miterlimit: 2; opacity: 1;"><g class="fills"/><g class="errorbars"/><g class="lines"><path class="js-line" d="M0,16V21.07H0.08V26.13H0.93V31.2H2.04V36.27H6.54V41.33H7.56V46.4H8.38V51.47H8.92V56.53H12.27V61.6H17.35V66.67H20.57V71.73H22.1V76.8H23.5V81.87H24.32V86.93H28.25V92H30.32V97.07H30.87V102.13H33.27V107.2H35.52V112.27H35.91V117.33H39.37V122.4H39.59V127.47H39.78V132.53H40.66V137.6H45.34V142.67H50.26V147.73H50.75V152.8H54.36V157.87H54.47V162.93H55.28V168H55.45V173.07H57.98V178.13H58.5V183.2H59.05V188.27H60.52V193.33H63.85V198.4H65.45V203.47H73.04V208.53H73.72V213.6H76.33V218.67H77.46V223.73H77.79V228.8H81.59V233.87H84.58V238.93H85.85V244H86.22V249.07H88.8V254.13H91.7V259.2H95.05V264.27H97.39V269.33H99.1V274.4H112.73V279.47H113.68V284.53H116.99V289.6H120.53V294.67H122.28V299.73H123.2V304.8H128.39V309.87H135.56V314.93H144.96" style="vector-effect: non-scaling-stroke; fill: none; stroke: rgb(99, 110, 250); stroke-opacity: 1; stroke-width: 2px; opacity: 1; stroke-dasharray: 3px, 3px;"/></g><g class="points"/><g class="text"/></g><g class="trace scatter tracef3ae4d" style="stroke-miterlimit: 2; opacity: 1;"><g class="fills"/><g class="errorbars"/><g class="lines"><path class="js-line" d="M3.78,16V18.53H10.18V21.07H25.17V23.6H30.01V26.13H31.44V28.67H32.44V31.2H33.66V33.73H38.54V36.27H39V38.8H41.33V41.33H42.55V43.87H43.22V46.4H44.16V48.93H44.72V51.47H45.56V54H47.81V56.53H48.07V59.07H48.14V61.6H48.52V64.13H48.58V66.67H50.98V69.2H52.47V71.73H53.38V74.27H54.19V76.8H54.38V79.33H54.59V81.87H56.15V84.4H58.4V86.93H58.5V89.47H59.6V92H60.02V94.53H60.08V97.07H61.99V99.6H64.47V102.13H64.67V104.67H66.72V107.2H66.92V109.73H70.22V112.27H71.51V114.8H73.88V117.33H74.25V119.87H74.46V122.4H76.71V124.93H76.81V127.47H77.58V130H77.99V132.53H78.19V135.07H78.29V137.6H81.27V140.13H81.7V142.67H83.74V145.2H84.08V147.73H84.43V150.27H90.18V152.8H91.65V155.33H93.26V157.87H93.38V160.4H93.44V162.93H93.94V165.47H94.59V168H95.32V170.53H96.06V173.07H96.29V175.6H96.54V178.13H97.89V180.67H100.36V183.2H101.38V185.73H101.94V188.27H102.34V190.8H103.61V193.33H103.96V195.87H104.29V198.4H105.44V200.93H105.72V203.47H106.46V206H108.07V208.53H109.05V211.07H110.83V213.6H112.01V216.13H114.17V218.67H117.97V221.2H118.36V223.73H119.17V226.27H119.97V228.8H120.95V231.33H125.31V233.87H126.41V236.4H127.23V238.93H128.39V241.47H129.55V244H130.52V246.53H131.74V249.07H132.89V251.6H135.72V254.13H137.63V256.67H137.76V259.2H139.18V261.73H139.7V264.27H142.69V266.8H144.58V269.33H149.47V271.87H152.05V274.4H152.57V276.93H156.03V279.47H160.63V282H165.64V284.53H167.13V287.07H179.53V289.6H183.32V292.13H185.27V294.67H203.72V297.2H214.08V299.73H225.83V302.27H226.72V304.8H238.22V307.33H247.34V309.87H262.5V312.4H274.36V314.93H304.54V317.47H365" style="vector-effect: non-scaling-stroke; fill: none; stroke: rgb(239, 85, 59); stroke-opacity: 1; stroke-width: 2px; opacity: 1;"/></g><g class="points"/><g class="text"/></g><g class="trace scatter trace3aab5c" style="stroke-miterlimit: 2; opacity: 1;"><g class="fills"/><g class="errorbars"/><g class="lines"><path class="js-line" d="M6,16V18.53H6.71V21.07H12.67V23.6H18.61V26.13H19.08V28.67H20.7V31.2H23.12V33.73H23.77V36.27H24.28V38.8H28.98V41.33H29.98V43.87H31.15V46.4H31.62V48.93H32.99V51.47H33.5V54H34.66V56.53H35.26V59.07H35.79V61.6H36.01V64.13H37.03V66.67H38.43V69.2H41.1V71.73H44.17V74.27H48.62V76.8H50.07V79.33H50.17V81.87H50.51V84.4H52.49V86.93H53.43V89.47H53.65V92H53.88V94.53H53.89V97.07H55.97V99.6H56.45V102.13H58.19V104.67H58.48V107.2H59.23V109.73H64.76V112.27H64.86V114.8H67.76V117.33H67.94V119.87H68.63V122.4H68.87V124.93H69.88V127.47H70.01V130H72.18V132.53H72.78V135.07H72.96V137.6H73.03V140.13H73.72V142.67H77.05V145.2H77.11V147.73H78.92V150.27H79.41V152.8H79.67V155.33H81.66V157.87H81.67V160.4H81.86V162.93H83.22V165.47H84.71V168H87.72V170.53H88.41V173.07H88.88V175.6H89.12V178.13H92.01V180.67H93.55V183.2H95V185.73H95.42V188.27H96.33V190.8H97.01V193.33H98.95V195.87H99.22V198.4H101.03V200.93H101.3V203.47H102.21V206H102.83V208.53H103.08V211.07H104.25V213.6H104.47V216.13H104.82V218.67H106.4V221.2H106.57V223.73H107.42V226.27H107.84V228.8H108.25V231.33H113.01V233.87H114.24V236.4H117.75V238.93H120.98V241.47H121.94V244H123.68V246.53H126.04V249.07H126.65V251.6H127.46V254.13H128.11V256.67H131.01V259.2H132.94V261.73H136.07V264.27H137.47V266.8H139.36V269.33H140.35V271.87H148.03V274.4H148.07V276.93H151.91V279.47H154.3V282H155.44V284.53H158.57V287.07H173.59V289.6H180.86V292.13H182.4V294.67H184.3V297.2H187.08V299.73H187.29V302.27H190.91V304.8H195.37V307.33H197.05V309.87H208.35V312.4H210.52V314.93H219.7V317.47H227.85" style="vector-effect: non-scaling-stroke; fill: none; stroke: rgb(239, 85, 59); stroke-opacity: 1; stroke-width: 2px; opacity: 1; stroke-dasharray: 3px, 3px;"/></g><g class="points"/><g class="text"/></g><g class="trace scatter trace9f2957" style="stroke-miterlimit: 2; opacity: 1;"><g class="fills"/><g class="errorbars"/><g class="lines"><path class="js-line" d="M27.94,16V21.07H28.49V26.13H30.95V31.2H35.91V36.27H54.07V41.33H57.41V46.4H57.99V51.47H58.97V56.53H62.9V61.6H64.58V66.67H64.6V71.73H67.35V76.8H67.7V81.87H68.5V86.93H70.36V92H70.82V97.07H74.1V102.13H74.75V107.2H78.96V112.27H82.09V117.33H82.77V122.4H85.59V127.47H88.09V132.53H94.4V137.6H100.31V142.67H101.48V147.73H104.3V152.8H104.72V157.87H107.94V162.93H112.72V168H112.94V173.07H118.82V178.13H120.69V183.2H122.31V188.27H132.52V193.33H134.42V198.4H139.96V203.47H140.13V208.53H140.91V213.6H146.67V218.67H147.12V223.73H148.49V228.8H148.99V233.87H149.38V238.93H151.78V244H153.11V249.07H155.94V254.13H165V259.2H165.02V264.27H166.43V269.33H168.56V274.4H177.11V279.47H181.89V284.53H187.67V289.6H193.15V294.67H208.9V299.73H219.81V304.8H231.55V309.87H235.79V314.93H254.04" style="vector-effect: non-scaling-stroke; fill: none; stroke: rgb(0, 204, 150); stroke-opacity: 1; stroke-width: 2px; opacity: 1;"/></g><g class="points"/><g class="text"/></g><g class="trace scatter traced7d257" style="stroke-miterlimit: 2; opacity: 1;"><g class="fills"/><g class="errorbars"/><g class="lines"><path class="js-line" d="M5.07,16V18.53H6.78V21.07H25.1V23.6H27.05V26.13H28.19V28.67H58.91V31.2H59.14V33.73H65.19V36.27H69.59V38.8H70.54V41.33H71.09V43.87H71.12V46.4H71.52V48.93H73.38V51.47H78.11V54H80.72V56.53H81.35V59.07H83.95V61.6H83.95V64.13H84.98V66.67H85.24V69.2H87.15V71.73H88.79V74.27H90.75V76.8H90.95V79.33H93.12V81.87H93.76V84.4H95.99V86.93H98.76V89.47H100.06V92H103.13V94.53H103.58V97.07H103.86V99.6H106.99V102.13H107.22V104.67H107.65V107.2H108.7V109.73H108.88V112.27H109.07V114.8H109.16V117.33H111.49V119.87H112.89V122.4H113.02V124.93H114.4V127.47H115.73V130H118.91V132.53H120.2V135.07H122.43V137.6H123.55V140.13H124.09V142.67H130.79V145.2H130.81V147.73H132.77V150.27H133.45V152.8H133.74V155.33H133.8V157.87H133.83V160.4H136.6V162.93H136.67V165.47H137.28V168H137.49V170.53H138.21V173.07H140.29V175.6H142.47V178.13H143.59V180.67H145.47V183.2H146.44V185.73H147.79V188.27H148.03V190.8H150.67V193.33H150.7V195.87H151.22V198.4H152.9V200.93H153.26V203.47H154.18V206H154.25V208.53H160.49V211.07H164.75V213.6H166.26V216.13H166.67V218.67H166.77V221.2H167.07V223.73H167.41V226.27H167.6V228.8H168.84V231.33H169.35V233.87H169.71V236.4H170.17V238.93H170.67V241.47H171.6V244H173.48V246.53H177.21V249.07H178.28V251.6H182.7V254.13H187.39V256.67H187.83V259.2H191.32V261.73H193.25V264.27H195.67V266.8H206.87V269.33H207.8V271.87H210.33V274.4H214.54V276.93H215.19V279.47H223.44V282H225.91V284.53H230.36V287.07H230.78V289.6H231.51V292.13H238.08V294.67H248.71V297.2H259.33V299.73H261.44V302.27H263.35V304.8H268.66V307.33H276.39V309.87H304.97V312.4H305.71V314.93H322.65V317.47H325.89" style="vector-effect: non-scaling-stroke; fill: none; stroke: rgb(0, 204, 150); stroke-opacity: 1; stroke-width: 2px; opacity: 1; stroke-dasharray: 3px, 3px;"/></g><g class="points"/><g class="text"/></g></g></g><g class="overplot"/><path class="xlines-above crisp" d="M0,0" style="fill: none;"/><path class="ylines-above crisp" d="M0,0" style="fill: none;"/><g class="overlines-above"/><g class="xaxislayer-above"><g class="xtick"><text text-anchor="middle" x="0" y="433" transform="translate(193.14,0)" style="font-family: 'Open Sans', verdana, arial, sans-serif; font-size: 12px; fill: rgb(42, 63, 95); fill-opacity: 1; white-space: pre; opacity: 1;">2M</text></g><g class="xtick"><text text-anchor="middle" x="0" y="433" style="font-family: 'Open Sans', verdana, arial, sans-serif; font-size: 12px; fill: rgb(42, 63, 95); fill-opacity: 1; white-space: pre; opacity: 1;" transform="translate(309.99,0)">4M</text></g><g class="xtick"><text text-anchor="middle" x="0" y="433" style="font-family: 'Open Sans', verdana, arial, sans-serif; font-size: 12px; fill: rgb(42, 63, 95); fill-opacity: 1; white-space: pre; opacity: 1;" transform="translate(426.83,0)">6M</text></g></g><g class="yaxislayer-above"><g class="ytick"><text text-anchor="end" x="79" y="4.199999999999999" transform="translate(0,420)" style="font-family: 'Open Sans', verdana, arial, sans-serif; font-size: 12px; fill: rgb(42, 63, 95); fill-opacity: 1; white-space: pre; opacity: 1;">0</text></g><g class="ytick"><text text-anchor="end" x="79" y="4.199999999999999" style="font-family: 'Open Sans', verdana, arial, sans-serif; font-size: 12px; fill: rgb(42, 63, 95); fill-opacity: 1; white-space: pre; opacity: 1;" transform="translate(0,359.2)">0.2</text></g><g class="ytick"><text text-anchor="end" x="79" y="4.199999999999999" style="font-family: 'Open Sans', verdana, arial, sans-serif; font-size: 12px; fill: rgb(42, 63, 95); fill-opacity: 1; white-space: pre; opacity: 1;" transform="translate(0,298.4)">0.4</text></g><g class="ytick"><text text-anchor="end" x="79" y="4.199999999999999" style="font-family: 'Open Sans', verdana, arial, sans-serif; font-size: 12px; fill: rgb(42, 63, 95); fill-opacity: 1; white-space: pre; opacity: 1;" transform="translate(0,237.6)">0.6</text></g><g class="ytick"><text text-anchor="end" x="79" y="4.199999999999999" style="font-family: 'Open Sans', verdana, arial, sans-serif; font-size: 12px; fill: rgb(42, 63, 95); fill-opacity: 1; white-space: pre; opacity: 1;" transform="translate(0,176.8)">0.8</text></g><g class="ytick"><text text-anchor="end" x="79" y="4.199999999999999" style="font-family: 'Open Sans', verdana, arial, sans-serif; font-size: 12px; fill: rgb(42, 63, 95); fill-opacity: 1; white-space: pre; opacity: 1;" transform="translate(0,116)">1</text></g></g><g class="overaxes-above"/></g></g><g class="polarlayer"/><g class="smithlayer"/><g class="ternarylayer"/><g class="geolayer"/><g class="funnelarealayer"/><g class="pielayer"/><g class="iciclelayer"/><g class="treemaplayer"/><g class="sunburstlayer"/><g class="glimages"/><defs id="topdefs-e0eb6b"><g class="clips"/><clipPath id="legende0eb6b"><rect width="236" height="143" x="0" y="0"/></clipPath></defs><g class="layer-above"><g class="imagelayer"/><g class="shapelayer"/></g><g class="infolayer"><g class="legend" pointer-events="all" transform="translate(452.3,100)"><rect class="bg" shape-rendering="crispEdges" style="stroke: rgb(68, 68, 68); stroke-opacity: 1; fill: rgb(255, 255, 255); fill-opacity: 1; stroke-width: 0px;" width="236" height="143" x="0" y="0"/><g class="scrollbox" transform="" clip-path="url(#legende0eb6b)"><text class="legendtitletext" text-anchor="start" x="2" y="18.2" style="font-family: 'Open Sans', verdana, arial, sans-serif; font-size: 14px; fill: rgb(42, 63, 95); fill-opacity: 1; white-space: pre;">Min Snr Used (dB), Power (dBm)</text><g class="groups" transform=""><g class="traces" transform="translate(0,32.7)" style="opacity: 1;"><text class="legendtext" text-anchor="start" x="40" y="4.680000000000001" style="font-family: 'Open Sans', verdana, arial, sans-serif; font-size: 12px; fill: rgb(42, 63, 95); fill-opacity: 1; white-space: pre;">5, 20</text><g class="layers" style="opacity: 1;"><g class="legendfill"/><g class="legendlines"><path class="js-line" d="M5,0h30" style="fill: none; stroke: rgb(99, 110, 250); stroke-opacity: 1; stroke-width: 2px;"/></g><g class="legendsymbols"><g class="legendpoints"/></g></g><rect class="legendtoggle" x="0" y="-9.5" width="79.484375" height="19" style="fill: rgb(0, 0, 0); fill-opacity: 0;"/></g></g><g class="groups" transform=""><g class="traces" transform="translate(0,51.7)" style="opacity: 1;"><text class="legendtext" text-anchor="start" x="40" y="4.680000000000001" style="font-family: 'Open Sans', verdana, arial, sans-serif; font-size: 12px; fill: rgb(42, 63, 95); fill-opacity: 1; white-space: pre;">5, 40</text><g class="layers" style="opacity: 1;"><g class="legendfill"/><g class="legendlines"><path class="js-line" d="M5,0h30" style="fill: none; stroke: rgb(99, 110, 250); stroke-opacity: 1; stroke-dasharray: 3px, 3px; stroke-width: 2px;"/></g><g class="legendsymbols"><g class="legendpoints"/></g></g><rect class="legendtoggle" x="0" y="-9.5" width="79.484375" height="19" style="fill: rgb(0, 0, 0); fill-opacity: 0;"/></g></g><g class="groups" transform=""><g class="traces" transform="translate(0,70.7)" style="opacity: 1;"><text class="legendtext" text-anchor="start" x="40" y="4.680000000000001" style="font-family: 'Open Sans', verdana, arial, sans-serif; font-size: 12px; fill: rgb(42, 63, 95); fill-opacity: 1; white-space: pre;">10, 20</text><g class="layers" style="opacity: 1;"><g class="legendfill"/><g class="legendlines"><path class="js-line" d="M5,0h30" style="fill: none; stroke: rgb(239, 85, 59); stroke-opacity: 1; stroke-width: 2px;"/></g><g class="legendsymbols"><g class="legendpoints"/></g></g><rect class="legendtoggle" x="0" y="-9.5" width="79.484375" height="19" style="fill: rgb(0, 0, 0); fill-opacity: 0;"/></g></g><g class="groups" transform=""><g class="traces" transform="translate(0,89.7)" style="opacity: 1;"><text class="legendtext" text-anchor="start" x="40" y="4.680000000000001" style="font-family: 'Open Sans', verdana, arial, sans-serif; font-size: 12px; fill: rgb(42, 63, 95); fill-opacity: 1; white-space: pre;">10, 40</text><g class="layers" style="opacity: 1;"><g class="legendfill"/><g class="legendlines"><path class="js-line" d="M5,0h30" style="fill: none; stroke: rgb(239, 85, 59); stroke-opacity: 1; stroke-dasharray: 3px, 3px; stroke-width: 2px;"/></g><g class="legendsymbols"><g class="legendpoints"/></g></g><rect class="legendtoggle" x="0" y="-9.5" width="79.484375" height="19" style="fill: rgb(0, 0, 0); fill-opacity: 0;"/></g></g><g class="groups" transform=""><g class="traces" transform="translate(0,108.7)" style="opacity: 1;"><text class="legendtext" text-anchor="start" x="40" y="4.680000000000001" style="font-family: 'Open Sans', verdana, arial, sans-serif; font-size: 12px; fill: rgb(42, 63, 95); fill-opacity: 1; white-space: pre;">15, 20</text><g class="layers" style="opacity: 1;"><g class="legendfill"/><g class="legendlines"><path class="js-line" d="M5,0h30" style="fill: none; stroke: rgb(0, 204, 150); stroke-opacity: 1; stroke-width: 2px;"/></g><g class="legendsymbols"><g class="legendpoints"/></g></g><rect class="legendtoggle" x="0" y="-9.5" width="79.484375" height="19" style="fill: rgb(0, 0, 0); fill-opacity: 0;"/></g></g><g class="groups" transform=""><g class="traces" transform="translate(0,127.7)" style="opacity: 1;"><text class="legendtext" text-anchor="start" x="40" y="4.680000000000001" style="font-family: 'Open Sans', verdana, arial, sans-serif; font-size: 12px; fill: rgb(42, 63, 95); fill-opacity: 1; white-space: pre;">15, 40</text><g class="layers" style="opacity: 1;"><g class="legendfill"/><g class="legendlines"><path class="js-line" d="M5,0h30" style="fill: none; stroke: rgb(0, 204, 150); stroke-opacity: 1; stroke-dasharray: 3px, 3px; stroke-width: 2px;"/></g><g class="legendsymbols"><g class="legendpoints"/></g></g><rect class="legendtoggle" x="0" y="-9.5" width="79.484375" height="19" style="fill: rgb(0, 0, 0); fill-opacity: 0;"/></g></g></g><rect class="scrollbar" rx="20" ry="3" width="0" height="0" style="fill: rgb(128, 139, 164); fill-opacity: 1;" x="0" y="0"/></g><g class="g-gtitle"><text class="gtitle" x="35" y="50" text-anchor="start" dy="0em" style="font-family: 'Open Sans', verdana, arial, sans-serif; font-size: 17px; fill: rgb(42, 63, 95); opacity: 1; font-weight: normal; white-space: pre;">UE Throughput Fixed DL - CDF</text></g><g class="g-xtitle"><text class="xtitle" x="262.5" y="460.8" text-anchor="middle" style="font-family: 'Open Sans', verdana, arial, sans-serif; font-size: 14px; fill: rgb(42, 63, 95); opacity: 1; font-weight: normal; white-space: pre;">Throughput:Mean (Bps)</text></g><g class="g-ytitle"><text class="ytitle" transform="rotate(-90,34.575,260)" x="34.575" y="260" text-anchor="middle" style="font-family: 'Open Sans', verdana, arial, sans-serif; font-size: 14px; fill: rgb(42, 63, 95); opacity: 1; font-weight: normal; white-space: pre;">probability</text></g><g class="annotation" data-index="0" style="opacity: 1;"><g class="annotation-text-g" transform="rotate(0,262.5,90.5)"><g class="cursor-pointer" transform="translate(214,81)"><rect class="bg" x="0.5" y="0.5" width="96" height="18" style="stroke-width: 1px; stroke: rgb(0, 0, 0); stroke-opacity: 0; fill: rgb(0, 0, 0); fill-opacity: 0;"/><text class="annotation-text" text-anchor="middle" x="48.375" y="14" style="font-family: 'Open Sans', verdana, arial, sans-serif; font-size: 12px; fill: rgb(42, 63, 95); fill-opacity: 1; white-space: pre;">ILP Type=Fixed</text></g></g></g></g></svg>