<svg class="main-svg" xmlns="http://www.w3.org/2000/svg" xmlns:xlink="http://www.w3.org/1999/xlink" width="700" height="500" style="" viewBox="0 0 700 500"><rect x="0" y="0" width="700" height="500" style="fill: rgb(255, 255, 255); fill-opacity: 1;"/><defs id="defs-fe5af4"><g class="clips"><clipPath id="clipfe5af4xyplot" class="plotclip"><rect width="272" height="320"/></clipPath><clipPath class="axesclip" id="clipfe5af4x"><rect x="80" y="0" width="272" height="500"/></clipPath><clipPath class="axesclip" id="clipfe5af4y"><rect x="0" y="100" width="700" height="320"/></clipPath><clipPath class="axesclip" id="clipfe5af4xy"><rect x="80" y="100" width="272" height="320"/></clipPath></g><g class="gradients"/><g class="patterns"/></defs><g class="bglayer"><rect class="bg" x="80" y="100" width="272" height="320" style="fill: rgb(229, 236, 246); fill-opacity: 1; stroke-width: 0;"/></g><g class="layer-below"><g class="imagelayer"/><g class="shapelayer"/></g><g class="cartesianlayer"><g class="subplot xy"><g class="layer-subplot"><g class="shapelayer"/><g class="imagelayer"/></g><g class="minor-gridlayer"><g class="x"/><g class="y"/></g><g class="gridlayer"><g class="x"><path class="xgrid crisp" transform="translate(173.65,0)" d="M0,100v320" style="stroke: rgb(255, 255, 255); stroke-opacity: 1; stroke-width: 1px;"/><path class="xgrid crisp" transform="translate(269.66999999999996,0)" d="M0,100v320" style="stroke: rgb(255, 255, 255); stroke-opacity: 1; stroke-width: 1px;"/></g><g class="y"><path class="ygrid crisp" transform="translate(0,359.2)" d="M80,0h272" style="stroke: rgb(255, 255, 255); stroke-opacity: 1; stroke-width: 1px;"/><path class="ygrid crisp" transform="translate(0,298.4)" d="M80,0h272" style="stroke: rgb(255, 255, 255); stroke-opacity: 1; stroke-width: 1px;"/><path class="ygrid crisp" transform="translate(0,237.6)" d="M80,0h272" style="stroke: rgb(255, 255, 255); stroke-opacity: 1; stroke-width: 1px;"/><path class="ygrid crisp" transform="translate(0,176.8)" d="M80,0h272" style="stroke: rgb(255, 255, 255); stroke-opacity: 1; stroke-width: 1px;"/><path class="ygrid crisp" transform="translate(0,116)" d="M80,0h272" style="stroke: rgb(255, 255, 255); stroke-opacity: 1; stroke-width: 1px;"/></g></g><g class="zerolinelayer"><path class="yzl zl crisp" transform="translate(0,420)" d="M80,0h272" style="stroke: rgb(255, 255, 255); stroke-opacity: 1; stroke-width: 2px;"/></g><path class="xlines-below"/><path class="ylines-below"/><g class="overlines-below"/><g class="xaxislayer-below"/><g class="yaxislayer-below"/><g class="overaxes-below"/><g class="plot" transform="translate(80,100)" clip-path="url(#clipfe5af4xyplot)"><g class="scatterlayer mlayer"><g class="trace scatter trace4d8afb" style="stroke-miterlimit: 2; opacity: 1;"><g class="fills"/><g class="errorbars"/><g class="lines"><path class="js-line" d="M2.36,16V21.07H4.54V26.13H13.53V31.2H16.3V36.27H16.85V41.33H18.96V46.4H19.09V51.47H20.72V56.53H23.56V61.6H24.48V66.67H25.08V71.73H26.18V76.8H28.36V81.87H28.73V86.93H29.15V92H29.71V97.07H30.85V102.13H36.11V107.2H37.56V112.27H37.62V117.33H37.7V122.4H39.18V127.47H41.2V132.53H41.23V137.6H44.4V142.67H45.18V147.73H46.75V152.8H47.04V157.87H47.74V162.93H48.75V168H50.35V173.07H51.22V178.13H51.47V183.2H52.44V188.27H53.26V193.33H54.17V198.4H54.52V203.47H56.06V208.53H58.23V213.6H58.86V218.67H59.92V223.73H62.47V228.8H68.5V233.87H72.71V238.93H73.65V244H74.28V249.07H78.12V254.13H88.21V259.2H102.17V264.27H113.78V269.33H116.98V274.4H123.02V279.47H137.37V284.53H145.55V289.6H152.49V294.67H160.49V299.73H162.31V304.8H167.49V309.87H240.07V314.93H272" style="vector-effect: non-scaling-stroke; fill: none; stroke: rgb(99, 110, 250); stroke-opacity: 1; stroke-width: 2px; opacity: 1;"/></g><g class="points"/><g class="text"/></g><g class="trace scatter tracee9b281" style="stroke-miterlimit: 2; opacity: 1;"><g class="fills"/><g class="errorbars"/><g class="lines"><path class="js-line" d="M0,16V21.07H0.04V26.13H0.38V31.2H1.86V36.27H2.49V41.33H2.9V46.4H7.73V51.47H10.59V56.53H10.96V61.6H13.14V66.67H13.78V71.73H16.95V76.8H18.9V81.87H20.09V86.93H22.06V92H23.31V97.07H27.2V102.13H27.79V107.2H29.37V112.27H29.95V117.33H30.2V122.4H30.24V127.47H30.3V132.53H30.61V137.6H32.31V142.67H34.49V147.73H35.07V152.8H35.56V157.87H36.42V162.93H36.93V168H39.95V173.07H43.41V178.13H43.62V183.2H46.39V188.27H51.88V193.33H52.6V198.4H52.7V203.47H56.88V208.53H58.27V213.6H58.66V218.67H59.65V223.73H62.64V228.8H64.58V233.87H65.58V238.93H66.84V244H68.43V249.07H72.26V254.13H74.34V259.2H74.54V264.27H78.45V269.33H84.21V274.4H87.22V279.47H89.13V284.53H97.67V289.6H100.61V294.67H103.09V299.73H107.28V304.8H129.85V309.87H157.33V314.93H243.57" style="vector-effect: non-scaling-stroke; fill: none; stroke: rgb(99, 110, 250); stroke-opacity: 1; stroke-width: 2px; opacity: 1; stroke-dasharray: 3px, 3px;"/></g><g class="points"/><g class="text"/></g><g class="trace scatter traceef49c3" style="stroke-miterlimit: 2; opacity: 1;"><g class="fills"/><g class="errorbars"/><g class="lines"><path class="js-line" d="M2.25,16V21.07H4.88V26.13H6.05V31.2H11.77V36.27H12.87V41.33H15.14V46.4H23.27V51.47H23.5V56.53H28.33V61.6H28.49V66.67H30.6V71.73H30.83V76.8H35.72V81.87H35.9V86.93H35.94V92H36.35V97.07H38.65V102.13H38.98V107.2H39.46V112.27H40.76V117.33H42.52V122.4H44.59V127.47H45.76V132.53H46.08V137.6H46.36V142.67H46.98V147.73H48.06V152.8H48.07V157.87H48.17V162.93H51.3V168H52.45V173.07H54.28V178.13H54.92V183.2H56.9V188.27H58.66V193.33H61.08V198.4H63.84V203.47H68.19V208.53H69.97V213.6H71.48V218.67H72.25V223.73H72.66V228.8H76.53V233.87H77.04V238.93H79.52V244H80.19V249.07H83.63V254.13H85.77V259.2H88.39V264.27H94.85V269.33H97.16V274.4H98.32V279.47H98.6V284.53H103.35V289.6H131.45V294.67H143.25V299.73H156.46V304.8H159.84V309.87H201.75V314.93H236.39" style="vector-effect: non-scaling-stroke; fill: none; stroke: rgb(239, 85, 59); stroke-opacity: 1; stroke-width: 2px; opacity: 1;"/></g><g class="points"/><g class="text"/></g><g class="trace scatter traced6ad6c" style="stroke-miterlimit: 2; opacity: 1;"><g class="fills"/><g class="errorbars"/><g class="lines"><path class="js-line" d="M6.03,16V21.07H6.69V26.13H8.14V31.2H9.02V36.27H12.27V41.33H13.8V46.4H14.35V51.47H14.5V56.53H18.08V61.6H19.05V66.67H19.89V71.73H20.14V76.8H21.83V81.87H23.61V86.93H24.78V92H25.34V97.07H25.6V102.13H25.74V107.2H27.96V112.27H27.97V117.33H28.11V122.4H29.03V127.47H30.59V132.53H31.29V137.6H31.38V142.67H33.04V147.73H34.18V152.8H34.56V157.87H34.65V162.93H35.64V168H38.66V173.07H40.72V178.13H41.22V183.2H41.77V188.27H43.59V193.33H44.27V198.4H44.5V203.47H44.62V208.53H47V213.6H48.11V218.67H48.39V223.73H48.68V228.8H49.55V233.87H50.92V238.93H55.8V244H55.99V249.07H57.97V254.13H60.81V259.2H62.04V264.27H63.5V269.33H64.82V274.4H64.94V279.47H68.51V284.53H74.54V289.6H74.62V294.67H78.63V299.73H84.89V304.8H93.97V309.87H100.48V314.93H177.56" style="vector-effect: non-scaling-stroke; fill: none; stroke: rgb(239, 85, 59); stroke-opacity: 1; stroke-width: 2px; opacity: 1; stroke-dasharray: 3px, 3px;"/></g><g class="points"/><g class="text"/></g><g class="trace scatter traceee0ab0" style="stroke-miterlimit: 2; opacity: 1;"><g class="fills"/><g class="errorbars"/><g class="lines"><path class="js-line" d="M4.1,16V21.07H5.59V26.13H7.41V31.2H9.1V36.27H11.23V41.33H11.87V46.4H14.14V51.47H14.7V56.53H14.84V61.6H14.87V66.67H16.46V71.73H18.16V76.8H18.18V81.87H19.84V86.93H21.3V92H23V97.07H23.96V102.13H24.18V107.2H24.32V112.27H24.52V117.33H27.94V122.4H28.86V127.47H29.4V132.53H29.44V137.6H30.48V142.67H31.97V147.73H32.42V152.8H38.8V157.87H39.01V162.93H39.32V168H39.49V173.07H40.66V178.13H43.31V183.2H43.33V188.27H44.38V193.33H46V198.4H46.64V203.47H51.89V208.53H54.43V213.6H56.26V218.67H59.36V223.73H61.87V228.8H62.86V233.87H65.13V238.93H66.85V244H68.47V249.07H69V254.13H69.4V259.2H70.7V264.27H72.32V269.33H77.47V274.4H80.43V279.47H80.67V284.53H81.56V289.6H82.15V294.67H85.73V299.73H98.17V304.8H102.01V309.87H121.28V314.93H137.48" style="vector-effect: non-scaling-stroke; fill: none; stroke: rgb(0, 204, 150); stroke-opacity: 1; stroke-width: 2px; opacity: 1;"/></g><g class="points"/><g class="text"/></g><g class="trace scatter tracec1b521" style="stroke-miterlimit: 2; opacity: 1;"><g class="fills"/><g class="errorbars"/><g class="lines"><path class="js-line" d="M1.92,16V21.07H2.67V26.13H3.45V31.2H3.73V36.27H4.03V41.33H7.23V46.4H8.84V51.47H9.28V56.53H9.98V61.6H12.58V66.67H13.05V71.73H13.31V76.8H13.59V81.87H14.03V86.93H14.17V92H14.23V97.07H18.3V102.13H18.7V107.2H20.39V112.27H22.13V117.33H22.84V122.4H24.7V127.47H25.3V132.53H27.8V137.6H27.85V142.67H28.1V147.73H30V152.8H30.35V157.87H30.61V162.93H30.65V168H32.36V173.07H33.69V178.13H34.41V183.2H35.27V188.27H35.7V193.33H36.14V198.4H38.93V203.47H39.24V208.53H40.63V213.6H42.55V218.67H42.72V223.73H42.8V228.8H43.83V233.87H44.47V238.93H46.03V244H46.29V249.07H46.68V254.13H46.99V259.2H47.47V264.27H47.79V269.33H49.51V274.4H50.34V279.47H52.35V284.53H55.65V289.6H56.5V294.67H60.66V299.73H61.78V304.8H66.22V309.87H77.74V314.93H83.35" style="vector-effect: non-scaling-stroke; fill: none; stroke: rgb(0, 204, 150); stroke-opacity: 1; stroke-width: 2px; opacity: 1; stroke-dasharray: 3px, 3px;"/></g><g class="points"/><g class="text"/></g></g></g><g class="overplot"/><path class="xlines-above crisp" d="M0,0" style="fill: none;"/><path class="ylines-above crisp" d="M0,0" style="fill: none;"/><g class="overlines-above"/><g class="xaxislayer-above"><g class="xtick"><text text-anchor="middle" x="0" y="433" transform="translate(173.65,0)" style="font-family: 'Open Sans', verdana, arial, sans-serif; font-size: 12px; fill: rgb(42, 63, 95); fill-opacity: 1; white-space: pre; opacity: 1;">0.5</text></g><g class="xtick"><text text-anchor="middle" x="0" y="433" style="font-family: 'Open Sans', verdana, arial, sans-serif; font-size: 12px; fill: rgb(42, 63, 95); fill-opacity: 1; white-space: pre; opacity: 1;" transform="translate(269.66999999999996,0)">1</text></g></g><g class="yaxislayer-above"><g class="ytick"><text text-anchor="end" x="79" y="4.199999999999999" transform="translate(0,420)" style="font-family: 'Open Sans', verdana, arial, sans-serif; font-size: 12px; fill: rgb(42, 63, 95); fill-opacity: 1; white-space: pre; opacity: 1;">0</text></g><g class="ytick"><text text-anchor="end" x="79" y="4.199999999999999" style="font-family: 'Open Sans', verdana, arial, sans-serif; font-size: 12px; fill: rgb(42, 63, 95); fill-opacity: 1; white-space: pre; opacity: 1;" transform="translate(0,359.2)">0.2</text></g><g class="ytick"><text text-anchor="end" x="79" y="4.199999999999999" style="font-family: 'Open Sans', verdana, arial, sans-serif; font-size: 12px; fill: rgb(42, 63, 95); fill-opacity: 1; white-space: pre; opacity: 1;" transform="translate(0,298.4)">0.4</text></g><g class="ytick"><text text-anchor="end" x="79" y="4.199999999999999" style="font-family: 'Open Sans', verdana, arial, sans-serif; font-size: 12px; fill: rgb(42, 63, 95); fill-opacity: 1; white-space: pre; opacity: 1;" transform="translate(0,237.6)">0.6</text></g><g class="ytick"><text text-anchor="end" x="79" y="4.199999999999999" style="font-family: 'Open Sans', verdana, arial, sans-serif; font-size: 12px; fill: rgb(42, 63, 95); fill-opacity: 1; white-space: pre; opacity: 1;" transform="translate(0,176.8)">0.8</text></g><g class="ytick"><text text-anchor="end" x="79" y="4.199999999999999" style="font-family: 'Open Sans', verdana, arial, sans-serif; font-size: 12px; fill: rgb(42, 63, 95); fill-opacity: 1; white-space: pre; opacity: 1;" transform="translate(0,116)">1</text></g></g><g class="overaxes-above"/></g></g><g class="polarlayer"/><g class="smithlayer"/><g class="ternarylayer"/><g class="geolayer"/><g class="funnelarealayer"/><g class="pielayer"/><g class="iciclelayer"/><g class="treemaplayer"/><g class="sunburstlayer"/><g class="glimages"/><defs id="topdefs-fe5af4"><g class="clips"/><clipPath id="legendfe5af4"><rect width="331" height="143" x="0" y="0"/></clipPath></defs><g class="layer-above"><g class="imagelayer"/><g class="shapelayer"/></g><g class="infolayer"><g class="legend" pointer-events="all" transform="translate(357.44,100)"><rect class="bg" shape-rendering="crispEdges" width="331" height="143" x="0" y="0" style="stroke: rgb(68, 68, 68); stroke-opacity: 1; fill: rgb(255, 255, 255); fill-opacity: 1; stroke-width: 0px;"/><g class="scrollbox" transform="" clip-path="url(#legendfe5af4)"><text class="legendtitletext" text-anchor="start" x="2" y="18.2" style="font-family: 'Open Sans', verdana, arial, sans-serif; font-size: 14px; fill: rgb(42, 63, 95); fill-opacity: 1; white-space: pre;">Min Snr Used (dB), Transmission Power (dBm)</text><g class="groups" transform=""><g class="traces" transform="translate(0,32.7)" style="opacity: 1;"><text class="legendtext" text-anchor="start" x="40" y="4.680000000000001" style="font-family: 'Open Sans', verdana, arial, sans-serif; font-size: 12px; fill: rgb(42, 63, 95); fill-opacity: 1; white-space: pre;">5, 40</text><g class="layers" style="opacity: 1;"><g class="legendfill"/><g class="legendlines"><path class="js-line" d="M5,0h30" style="fill: none; stroke: rgb(99, 110, 250); stroke-opacity: 1; stroke-width: 2px;"/></g><g class="legendsymbols"><g class="legendpoints"/></g></g><rect class="legendtoggle" x="0" y="-9.5" width="79.484375" height="19" style="fill: rgb(0, 0, 0); fill-opacity: 0;"/></g></g><g class="groups" transform=""><g class="traces" transform="translate(0,51.7)" style="opacity: 1;"><text class="legendtext" text-anchor="start" x="40" y="4.680000000000001" style="font-family: 'Open Sans', verdana, arial, sans-serif; font-size: 12px; fill: rgb(42, 63, 95); fill-opacity: 1; white-space: pre;">5, 30</text><g class="layers" style="opacity: 1;"><g class="legendfill"/><g class="legendlines"><path class="js-line" d="M5,0h30" style="fill: none; stroke: rgb(99, 110, 250); stroke-opacity: 1; stroke-dasharray: 3px, 3px; stroke-width: 2px;"/></g><g class="legendsymbols"><g class="legendpoints"/></g></g><rect class="legendtoggle" x="0" y="-9.5" width="79.484375" height="19" style="fill: rgb(0, 0, 0); fill-opacity: 0;"/></g></g><g class="groups" transform=""><g class="traces" transform="translate(0,70.7)" style="opacity: 1;"><text class="legendtext" text-anchor="start" x="40" y="4.680000000000001" style="font-family: 'Open Sans', verdana, arial, sans-serif; font-size: 12px; fill: rgb(42, 63, 95); fill-opacity: 1; white-space: pre;">10, 40</text><g class="layers" style="opacity: 1;"><g class="legendfill"/><g class="legendlines"><path class="js-line" d="M5,0h30" style="fill: none; stroke: rgb(239, 85, 59); stroke-opacity: 1; stroke-width: 2px;"/></g><g class="legendsymbols"><g class="legendpoints"/></g></g><rect class="legendtoggle" x="0" y="-9.5" width="79.484375" height="19" style="fill: rgb(0, 0, 0); fill-opacity: 0;"/></g></g><g class="groups" transform=""><g class="traces" transform="translate(0,89.7)" style="opacity: 1;"><text class="legendtext" text-anchor="start" x="40" y="4.680000000000001" style="font-family: 'Open Sans', verdana, arial, sans-serif; font-size: 12px; fill: rgb(42, 63, 95); fill-opacity: 1; white-space: pre;">10, 30</text><g class="layers" style="opacity: 1;"><g class="legendfill"/><g class="legendlines"><path class="js-line" d="M5,0h30" style="fill: none; stroke: rgb(239, 85, 59); stroke-opacity: 1; stroke-dasharray: 3px, 3px; stroke-width: 2px;"/></g><g class="legendsymbols"><g class="legendpoints"/></g></g><rect class="legendtoggle" x="0" y="-9.5" width="79.484375" height="19" style="fill: rgb(0, 0, 0); fill-opacity: 0;"/></g></g><g class="groups" transform=""><g class="traces" transform="translate(0,108.7)" style="opacity: 1;"><text class="legendtext" text-anchor="start" x="40" y="4.680000000000001" style="font-family: 'Open Sans', verdana, arial, sans-serif; font-size: 12px; fill: rgb(42, 63, 95); fill-opacity: 1; white-space: pre;">15, 40</text><g class="layers" style="opacity: 1;"><g class="legendfill"/><g class="legendlines"><path class="js-line" d="M5,0h30" style="fill: none; stroke: rgb(0, 204, 150); stroke-opacity: 1; stroke-width: 2px;"/></g><g class="legendsymbols"><g class="legendpoints"/></g></g><rect class="legendtoggle" x="0" y="-9.5" width="79.484375" height="19" style="fill: rgb(0, 0, 0); fill-opacity: 0;"/></g></g><g class="groups" transform=""><g class="traces" transform="translate(0,127.7)" style="opacity: 1;"><text class="legendtext" text-anchor="start" x="40" y="4.680000000000001" style="font-family: 'Open Sans', verdana, arial, sans-serif; font-size: 12px; fill: rgb(42, 63, 95); fill-opacity: 1; white-space: pre;">15, 30</text><g class="layers" style="opacity: 1;"><g class="legendfill"/><g class="legendlines"><path class="js-line" d="M5,0h30" style="fill: none; stroke: rgb(0, 204, 150); stroke-opacity: 1; stroke-dasharray: 3px, 3px; stroke-width: 2px;"/></g><g class="legendsymbols"><g class="legendpoints"/></g></g><rect class="legendtoggle" x="0" y="-9.5" width="79.484375" height="19" style="fill: rgb(0, 0, 0); fill-opacity: 0;"/></g></g></g><rect class="scrollbar" rx="20" ry="3" width="0" height="0" x="0" y="0" style="fill: rgb(128, 139, 164); fill-opacity: 1;"/></g><g class="g-gtitle"><text class="gtitle" x="35" y="50" text-anchor="start" dy="0em" style="font-family: 'Open Sans', verdana, arial, sans-serif; font-size: 17px; fill: rgb(42, 63, 95); opacity: 1; font-weight: normal; white-space: pre;">Sliced: UE Throughput Fixed DL COV - CDF</text></g><g class="g-xtitle"><text class="xtitle" x="216" y="460.8" text-anchor="middle" style="font-family: 'Open Sans', verdana, arial, sans-serif; font-size: 14px; fill: rgb(42, 63, 95); opacity: 1; font-weight: normal; white-space: pre;">Throughput:Mean COV</text></g><g class="g-ytitle"><text class="ytitle" transform="rotate(-90,34.575,260)" x="34.575" y="260" text-anchor="middle" style="font-family: 'Open Sans', verdana, arial, sans-serif; font-size: 14px; fill: rgb(42, 63, 95); opacity: 1; font-weight: normal; white-space: pre;">probability</text></g><g class="annotation" data-index="0" style="opacity: 1;"><g class="annotation-text-g" transform="rotate(0,216,90.5)"><g class="cursor-pointer" transform="translate(186,81)"><rect class="bg" x="0.5" y="0.5" width="59" height="18" style="stroke-width: 1px; stroke: rgb(0, 0, 0); stroke-opacity: 0; fill: rgb(0, 0, 0); fill-opacity: 0;"/><text class="annotation-text" text-anchor="middle" x="29.765625" y="14" style="font-family: 'Open Sans', verdana, arial, sans-serif; font-size: 12px; fill: rgb(42, 63, 95); fill-opacity: 1; white-space: pre;">RBs=100</text></g></g></g></g></svg>