<svg class="main-svg" xmlns="http://www.w3.org/2000/svg" xmlns:xlink="http://www.w3.org/1999/xlink" width="1200" height="500" style="" viewBox="0 0 1200 500"><rect x="0" y="0" width="1200" height="500" style="fill: rgb(255, 255, 255); fill-opacity: 1;"/><defs id="defs-c1fa96"><g class="clips"><clipPath id="clipc1fa96xyplot" class="plotclip"><rect width="887" height="320"/></clipPath><clipPath class="axesclip" id="clipc1fa96x"><rect x="80" y="0" width="887" height="500"/></clipPath><clipPath class="axesclip" id="clipc1fa96y"><rect x="0" y="100" width="1200" height="320"/></clipPath><clipPath class="axesclip" id="clipc1fa96xy"><rect x="80" y="100" width="887" height="320"/></clipPath></g><g class="gradients"/><g class="patterns"/></defs><g class="bglayer"><rect class="bg" x="80" y="100" width="887" height="320" style="fill: rgb(229, 236, 246); fill-opacity: 1; stroke-width: 0;"/></g><g class="layer-below"><g class="imagelayer"/><g class="shapelayer"/></g><g class="cartesianlayer"><g class="subplot xy"><g class="layer-subplot"><g class="shapelayer"/><g class="imagelayer"/></g><g class="minor-gridlayer"><g class="x"/><g class="y"/></g><g class="gridlayer"><g class="x"><path class="xgrid crisp" transform="translate(184.26,0)" d="M0,100v320" style="stroke: rgb(255, 255, 255); stroke-opacity: 1; stroke-width: 1px;"/><path class="xgrid crisp" transform="translate(288.63,0)" d="M0,100v320" style="stroke: rgb(255, 255, 255); stroke-opacity: 1; stroke-width: 1px;"/><path class="xgrid crisp" transform="translate(393,0)" d="M0,100v320" style="stroke: rgb(255, 255, 255); stroke-opacity: 1; stroke-width: 1px;"/><path class="xgrid crisp" transform="translate(497.37,0)" d="M0,100v320" style="stroke: rgb(255, 255, 255); stroke-opacity: 1; stroke-width: 1px;"/><path class="xgrid crisp" transform="translate(601.74,0)" d="M0,100v320" style="stroke: rgb(255, 255, 255); stroke-opacity: 1; stroke-width: 1px;"/><path class="xgrid crisp" transform="translate(706.11,0)" d="M0,100v320" style="stroke: rgb(255, 255, 255); stroke-opacity: 1; stroke-width: 1px;"/><path class="xgrid crisp" transform="translate(810.48,0)" d="M0,100v320" style="stroke: rgb(255, 255, 255); stroke-opacity: 1; stroke-width: 1px;"/><path class="xgrid crisp" transform="translate(914.85,0)" d="M0,100v320" style="stroke: rgb(255, 255, 255); stroke-opacity: 1; stroke-width: 1px;"/></g><g class="y"><path class="ygrid crisp" transform="translate(0,359.2)" d="M80,0h887" style="stroke: rgb(255, 255, 255); stroke-opacity: 1; stroke-width: 1px;"/><path class="ygrid crisp" transform="translate(0,298.4)" d="M80,0h887" style="stroke: rgb(255, 255, 255); stroke-opacity: 1; stroke-width: 1px;"/><path class="ygrid crisp" transform="translate(0,237.6)" d="M80,0h887" style="stroke: rgb(255, 255, 255); stroke-opacity: 1; stroke-width: 1px;"/><path class="ygrid crisp" transform="translate(0,176.8)" d="M80,0h887" style="stroke: rgb(255, 255, 255); stroke-opacity: 1; stroke-width: 1px;"/><path class="ygrid crisp" transform="translate(0,116)" d="M80,0h887" style="stroke: rgb(255, 255, 255); stroke-opacity: 1; stroke-width: 1px;"/></g></g><g class="zerolinelayer"><path class="yzl zl crisp" transform="translate(0,420)" d="M80,0h887" style="stroke: rgb(255, 255, 255); stroke-opacity: 1; stroke-width: 2px;"/></g><path class="xlines-below"/><path class="ylines-below"/><g class="overlines-below"/><g class="xaxislayer-below"/><g class="yaxislayer-below"/><g class="overaxes-below"/><g class="plot" transform="translate(80,100)" clip-path="url(#clipc1fa96xyplot)"><g class="scatterlayer mlayer"><g class="trace scatter tracee72cd1" style="stroke-miterlimit: 2; opacity: 1;"><g class="fills"/><g class="errorbars"/><g class="lines"><path class="js-line" d="M102.59,16V21.07H110.22V26.13H121.05V31.2H123.4V36.27H159.4V41.33H163.46V46.4H165.93V51.47H187.39V56.53H201.39V61.6H209.99V66.67H229.25V71.73H229.46V76.8H252.22V81.87H254.53V86.93H272.55V92H273.78V97.07H280.07V102.13H288.81V107.2H289.94V112.27H292.03V117.33H297.26V122.4H308.9V127.47H322.98V132.53H341.54V137.6H342.16V142.67H342.63V147.73H343.04V152.8H348.28V157.87H349.07V162.93H349.9V168H350.95V173.07H354.25V178.13H362.07V183.2H371.46V188.27H379.94V193.33H383V198.4H400.63V203.47H405.32V208.53H406.55V213.6H408.54V218.67H411.37V223.73H418.59V228.8H432.21V233.87H434.32V238.93H438.52V244H447.18V249.07H457.44V254.13H461.89V259.2H468.89V264.27H471.35V269.33H476.11V274.4H484.56V279.47H502.16V284.53H505.1V289.6H513.02V294.67H549.82V299.73H552.02V304.8H596.77V309.87H635.96V314.93H773.56" style="vector-effect: non-scaling-stroke; fill: none; stroke: rgb(99, 110, 250); stroke-opacity: 1; stroke-width: 2px; opacity: 1;"/></g><g class="points"/><g class="text"/></g><g class="trace scatter trace88510c" style="stroke-miterlimit: 2; opacity: 1;"><g class="fills"/><g class="errorbars"/><g class="lines"><path class="js-line" d="M0,16V21.07H131.66V26.13H178.18V31.2H180.87V36.27H196.91V41.33H235.82V46.4H254.35V51.47H266.97V56.53H271.06V61.6H289.58V66.67H295.83V71.73H299.83V76.8H310.31V81.87H313.69V86.93H325.79V92H328.23V97.07H357.69V102.13H376.17V107.2H388.81V112.27H407.69V117.33H410.6V122.4H415.92V127.47H425.73V132.53H427.44V137.6H431.17V142.67H431.66V147.73H433.83V152.8H437.84V157.87H442.34V162.93H444.35V168H475.67V173.07H482.55V178.13H491.27V183.2H492.69V188.27H493.6V193.33H494.03V198.4H518.59V203.47H524.13V208.53H525.3V213.6H533.97V218.67H537.57V223.73H544.63V228.8H561.16V233.87H573.87V238.93H577.8V244H598.76V249.07H612.36V254.13H617.37V259.2H620.17V264.27H640.76V269.33H662.56V274.4H675.17V279.47H676.37V284.53H693.29V289.6H703.43V294.67H714.98V299.73H764.97V304.8H771.88V309.87H782.56V314.93H808.36" style="vector-effect: non-scaling-stroke; fill: none; stroke: rgb(99, 110, 250); stroke-opacity: 1; stroke-width: 2px; opacity: 1; stroke-dasharray: 3px, 3px;"/></g><g class="points"/><g class="text"/></g><g class="trace scatter traceaa30b2" style="stroke-miterlimit: 2; opacity: 1;"><g class="fills"/><g class="errorbars"/><g class="lines"><path class="js-line" d="M58.85,16V21.07H150.69V26.13H156.72V31.2H157.47V36.27H172.14V41.33H189.82V46.4H205.64V51.47H209.99V56.53H215.83V61.6H221.81V66.67H222.13V71.73H224.74V76.8H228.23V81.87H264.84V86.93H267.51V92H274.42V97.07H300.27V102.13H303.89V107.2H307.43V112.27H311.62V117.33H318.76V122.4H321.82V127.47H325.08V132.53H348.37V137.6H348.85V142.67H349.29V147.73H353.46V152.8H364.02V157.87H370.11V162.93H375.25V168H383.81V173.07H398.56V178.13H401.63V183.2H409.81V188.27H410.85V193.33H426.21V198.4H431.01V203.47H431.24V208.53H439.53V213.6H442.81V218.67H445.67V223.73H445.76V228.8H461.28V233.87H468.22V238.93H478.59V244H484.17V249.07H485.16V254.13H496.82V259.2H508.46V264.27H508.85V269.33H544.59V274.4H545.91V279.47H562.55V284.53H564.68V289.6H571.04V294.67H575.2V299.73H577.38V304.8H598.83V309.87H614.18V314.93H663.92" style="vector-effect: non-scaling-stroke; fill: none; stroke: rgb(99, 110, 250); stroke-opacity: 1; stroke-width: 2px; opacity: 1; stroke-dasharray: 9px, 9px;"/></g><g class="points"/><g class="text"/></g><g class="trace scatter tracec2a573" style="stroke-miterlimit: 2; opacity: 1;"><g class="fills"/><g class="errorbars"/><g class="lines"><path class="js-line" d="M53.01,16V21.07H117.47V26.13H125.48V31.2H138.02V36.27H216.02V41.33H225.24V46.4H225.3V51.47H244.66V56.53H266.59V61.6H275.17V66.67H276.01V71.73H291.27V76.8H307.45V81.87H310.96V86.93H318.41V92H323.45V97.07H331.45V102.13H335.18V107.2H336.65V112.27H337.19V117.33H337.92V122.4H340.2V127.47H342.38V132.53H365.74V137.6H379.19V142.67H391.94V147.73H398.98V152.8H403.95V157.87H404.79V162.93H409.78V168H412.9V173.07H415.04V178.13H416V183.2H419.21V188.27H439.85V193.33H442V198.4H443.98V203.47H446.95V208.53H451.01V213.6H460.58V218.67H462.26V223.73H475.28V228.8H476.57V233.87H479V238.93H486.29V244H490.3V249.07H492.07V254.13H502.83V259.2H504.53V264.27H504.83V269.33H506V274.4H510.34V279.47H516.73V284.53H546.17V289.6H596.3V294.67H617.25V299.73H620.86V304.8H645.04V309.87H679.65V314.93H723.53" style="vector-effect: non-scaling-stroke; fill: none; stroke: rgb(239, 85, 59); stroke-opacity: 1; stroke-width: 2px; opacity: 1;"/></g><g class="points"/><g class="text"/></g><g class="trace scatter traceef92f4" style="stroke-miterlimit: 2; opacity: 1;"><g class="fills"/><g class="errorbars"/><g class="lines"><path class="js-line" d="M152.14,16V21.07H187.77V26.13H241.04V31.2H262.29V36.27H267.6V41.33H268.99V46.4H272.42V51.47H272.97V56.53H276.53V61.6H278.21V66.67H283.43V71.73H295.33V76.8H296.91V81.87H316.12V86.93H316.89V92H337.77V97.07H352.45V102.13H371.71V107.2H372.38V112.27H374.77V117.33H380.32V122.4H387.44V127.47H396.66V132.53H399.6V137.6H406.09V142.67H429.51V147.73H431.6V152.8H440.1V157.87H442.37V162.93H442.87V168H450.41V173.07H465.82V178.13H479.88V183.2H483.55V188.27H484.76V193.33H487.47V198.4H490.48V203.47H502.12V208.53H505.19V213.6H517.86V218.67H524.1V223.73H530.29V228.8H530.73V233.87H536.67V238.93H537.53V244H542.19V249.07H542.42V254.13H559.25V259.2H559.51V264.27H615.79V269.33H630.29V274.4H634.78V279.47H661.56V284.53H662.45V289.6H705.66V294.67H709.91V299.73H720.89V304.8H727.31V309.87H766.86V314.93H887" style="vector-effect: non-scaling-stroke; fill: none; stroke: rgb(239, 85, 59); stroke-opacity: 1; stroke-width: 2px; opacity: 1; stroke-dasharray: 3px, 3px;"/></g><g class="points"/><g class="text"/></g><g class="trace scatter trace9979f8" style="stroke-miterlimit: 2; opacity: 1;"><g class="fills"/><g class="errorbars"/><g class="lines"><path class="js-line" d="M29.69,16V21.07H141.49V26.13H156.78V31.2H180.37V36.27H225.01V41.33H251.2V46.4H258.82V51.47H282.22V56.53H282.42V61.6H290.96V66.67H295.89V71.73H298.7V76.8H300.71V81.87H304.5V86.93H315.57V92H319.41V97.07H331.35V102.13H336.83V107.2H342.84V112.27H344.94V117.33H347.35V122.4H351.3V127.47H352.25V132.53H360.65V137.6H378.15V142.67H381.43V147.73H383.81V152.8H391.58V157.87H396.38V162.93H397.98V168H401.15V173.07H411.67V178.13H411.97V183.2H418.45V188.27H419.04V193.33H422.96V198.4H431.28V203.47H441.7V208.53H447.72V213.6H453.11V218.67H471.76V223.73H480.05V228.8H484.95V233.87H506.98V238.93H509.17V244H528.51V249.07H534.9V254.13H545.35V259.2H546.07V264.27H560.61V269.33H569.16V274.4H580.29V279.47H584.3V284.53H590.18V289.6H605.43V294.67H623.27V299.73H630.24V304.8H650.39V309.87H781.65V314.93H790.87" style="vector-effect: non-scaling-stroke; fill: none; stroke: rgb(239, 85, 59); stroke-opacity: 1; stroke-width: 2px; opacity: 1; stroke-dasharray: 9px, 9px;"/></g><g class="points"/><g class="text"/></g><g class="trace scatter trace62a589" style="stroke-miterlimit: 2; opacity: 1;"><g class="fills"/><g class="errorbars"/><g class="lines"><path class="js-line" d="M69,16V21.07H69.18V26.13H96.08V31.2H103.24V36.27H115.46V41.33H120.64V46.4H121.39V51.47H140.23V56.53H165.42V61.6H173.72V66.67H175.22V71.73H184.51V76.8H187.26V81.87H190.7V86.93H190.86V92H194.17V97.07H195.13V102.13H203.55V107.2H229.77V112.27H240.34V117.33H246.19V122.4H251.86V127.47H254.42V132.53H268.64V137.6H272.9V142.67H274.6V147.73H275.67V152.8H275.75V157.87H287.9V162.93H292.66V168H295.9V173.07H301.23V178.13H308.04V183.2H310.85V188.27H312.63V193.33H341.24V198.4H349.57V203.47H355.7V208.53H359.32V213.6H385.05V218.67H387.86V223.73H391.02V228.8H398.83V233.87H402.91V238.93H405.67V244H407.84V249.07H419.39V254.13H423.78V259.2H440.64V264.27H452.64V269.33H455.97V274.4H459.95V279.47H463V284.53H475.45V289.6H489.1V294.67H507.24V299.73H513.4V304.8H524.21V309.87H548.7V314.93H555.88" style="vector-effect: non-scaling-stroke; fill: none; stroke: rgb(0, 204, 150); stroke-opacity: 1; stroke-width: 2px; opacity: 1;"/></g><g class="points"/><g class="text"/></g><g class="trace scatter trace9b74a5" style="stroke-miterlimit: 2; opacity: 1;"><g class="fills"/><g class="errorbars"/><g class="lines"><path class="js-line" d="M102.57,16V21.07H165.74V26.13H171.99V31.2H181.88V36.27H182.59V41.33H216.78V46.4H217.52V51.47H222.09V56.53H222.24V61.6H226.13V66.67H226.56V71.73H239.89V76.8H241.76V81.87H241.95V86.93H244.19V92H247.86V97.07H248.76V102.13H253.17V107.2H263.94V112.27H268.79V117.33H281.05V122.4H283.09V127.47H290.31V132.53H292.69V137.6H307.36V142.67H309.7V147.73H324.73V152.8H325.75V157.87H326.38V162.93H326.89V168H334.67V173.07H337.73V178.13H340.04V183.2H342.61V188.27H346.5V193.33H347.58V198.4H368.95V203.47H369.12V208.53H371.86V213.6H372.95V218.67H392.02V223.73H401.98V228.8H411.72V233.87H416.55V238.93H421.84V244H428.12V249.07H428.62V254.13H435.32V259.2H435.64V264.27H456.57V269.33H456.59V274.4H457.94V279.47H458.51V284.53H470.86V289.6H479.98V294.67H481.47V299.73H533.38V304.8H546.66V309.87H583.73V314.93H593.62" style="vector-effect: non-scaling-stroke; fill: none; stroke: rgb(0, 204, 150); stroke-opacity: 1; stroke-width: 2px; opacity: 1; stroke-dasharray: 3px, 3px;"/></g><g class="points"/><g class="text"/></g><g class="trace scatter tracedc8093" style="stroke-miterlimit: 2; opacity: 1;"><g class="fills"/><g class="errorbars"/><g class="lines"><path class="js-line" d="M80.84,16V21.07H99.54V26.13H127.93V31.2H129.07V36.27H149.16V41.33H164.24V46.4H180.03V51.47H189.91V56.53H203.38V61.6H210.99V66.67H216.43V71.73H224.75V76.8H236.11V81.87H248.58V86.93H251.58V92H259.15V97.07H267.1V102.13H269.11V107.2H275.23V112.27H292.31V117.33H293.26V122.4H299.87V127.47H300.11V132.53H300.48V137.6H304.67V142.67H313.76V147.73H321.52V152.8H321.58V157.87H333.41V162.93H333.52V168H334.44V173.07H338.96V178.13H348.8V183.2H368.87V188.27H372.55V193.33H373.96V198.4H374.03V203.47H376.93V208.53H380.19V213.6H382.8V218.67H386.76V223.73H391.12V228.8H404.54V233.87H409.36V238.93H409.7V244H416.24V249.07H439V254.13H439.11V259.2H443.93V264.27H452.06V269.33H452.94V274.4H464.8V279.47H465.27V284.53H499.5V289.6H529.42V294.67H532.35V299.73H544.52V304.8H567.96V309.87H573.57V314.93H587.19" style="vector-effect: non-scaling-stroke; fill: none; stroke: rgb(0, 204, 150); stroke-opacity: 1; stroke-width: 2px; opacity: 1; stroke-dasharray: 9px, 9px;"/></g><g class="points"/><g class="text"/></g></g></g><g class="overplot"/><path class="xlines-above crisp" d="M0,0" style="fill: none;"/><path class="ylines-above crisp" d="M0,0" style="fill: none;"/><g class="overlines-above"/><g class="xaxislayer-above"><g class="xtick"><text text-anchor="middle" x="0" y="433" transform="translate(184.26,0)" style="font-family: 'Open Sans', verdana, arial, sans-serif; font-size: 12px; fill: rgb(42, 63, 95); fill-opacity: 1; white-space: pre; opacity: 1;">0.1</text></g><g class="xtick"><text text-anchor="middle" x="0" y="433" style="font-family: 'Open Sans', verdana, arial, sans-serif; font-size: 12px; fill: rgb(42, 63, 95); fill-opacity: 1; white-space: pre; opacity: 1;" transform="translate(288.63,0)">0.12</text></g><g class="xtick"><text text-anchor="middle" x="0" y="433" style="font-family: 'Open Sans', verdana, arial, sans-serif; font-size: 12px; fill: rgb(42, 63, 95); fill-opacity: 1; white-space: pre; opacity: 1;" transform="translate(393,0)">0.14</text></g><g class="xtick"><text text-anchor="middle" x="0" y="433" style="font-family: 'Open Sans', verdana, arial, sans-serif; font-size: 12px; fill: rgb(42, 63, 95); fill-opacity: 1; white-space: pre; opacity: 1;" transform="translate(497.37,0)">0.16</text></g><g class="xtick"><text text-anchor="middle" x="0" y="433" style="font-family: 'Open Sans', verdana, arial, sans-serif; font-size: 12px; fill: rgb(42, 63, 95); fill-opacity: 1; white-space: pre; opacity: 1;" transform="translate(601.74,0)">0.18</text></g><g class="xtick"><text text-anchor="middle" x="0" y="433" style="font-family: 'Open Sans', verdana, arial, sans-serif; font-size: 12px; fill: rgb(42, 63, 95); fill-opacity: 1; white-space: pre; opacity: 1;" transform="translate(706.11,0)">0.2</text></g><g class="xtick"><text text-anchor="middle" x="0" y="433" style="font-family: 'Open Sans', verdana, arial, sans-serif; font-size: 12px; fill: rgb(42, 63, 95); fill-opacity: 1; white-space: pre; opacity: 1;" transform="translate(810.48,0)">0.22</text></g><g class="xtick"><text text-anchor="middle" x="0" y="433" style="font-family: 'Open Sans', verdana, arial, sans-serif; font-size: 12px; fill: rgb(42, 63, 95); fill-opacity: 1; white-space: pre; opacity: 1;" transform="translate(914.85,0)">0.24</text></g></g><g class="yaxislayer-above"><g class="ytick"><text text-anchor="end" x="79" y="4.199999999999999" transform="translate(0,420)" style="font-family: 'Open Sans', verdana, arial, sans-serif; font-size: 12px; fill: rgb(42, 63, 95); fill-opacity: 1; white-space: pre; opacity: 1;">0</text></g><g class="ytick"><text text-anchor="end" x="79" y="4.199999999999999" style="font-family: 'Open Sans', verdana, arial, sans-serif; font-size: 12px; fill: rgb(42, 63, 95); fill-opacity: 1; white-space: pre; opacity: 1;" transform="translate(0,359.2)">0.2</text></g><g class="ytick"><text text-anchor="end" x="79" y="4.199999999999999" style="font-family: 'Open Sans', verdana, arial, sans-serif; font-size: 12px; fill: rgb(42, 63, 95); fill-opacity: 1; white-space: pre; opacity: 1;" transform="translate(0,298.4)">0.4</text></g><g class="ytick"><text text-anchor="end" x="79" y="4.199999999999999" style="font-family: 'Open Sans', verdana, arial, sans-serif; font-size: 12px; fill: rgb(42, 63, 95); fill-opacity: 1; white-space: pre; opacity: 1;" transform="translate(0,237.6)">0.6</text></g><g class="ytick"><text text-anchor="end" x="79" y="4.199999999999999" style="font-family: 'Open Sans', verdana, arial, sans-serif; font-size: 12px; fill: rgb(42, 63, 95); fill-opacity: 1; white-space: pre; opacity: 1;" transform="translate(0,176.8)">0.8</text></g><g class="ytick"><text text-anchor="end" x="79" y="4.199999999999999" style="font-family: 'Open Sans', verdana, arial, sans-serif; font-size: 12px; fill: rgb(42, 63, 95); fill-opacity: 1; white-space: pre; opacity: 1;" transform="translate(0,116)">1</text></g></g><g class="overaxes-above"/></g></g><g class="polarlayer"/><g class="smithlayer"/><g class="ternarylayer"/><g class="geolayer"/><g class="funnelarealayer"/><g class="pielayer"/><g class="iciclelayer"/><g class="treemaplayer"/><g class="sunburstlayer"/><g class="glimages"/><defs id="topdefs-c1fa96"><g class="clips"/><clipPath id="legendc1fa96"><rect width="203" height="200" x="0" y="0"/></clipPath></defs><g class="layer-above"><g class="imagelayer"/><g class="shapelayer"/></g><g class="infolayer"><g class="legend" pointer-events="all" transform="translate(984.74,100)"><rect class="bg" shape-rendering="crispEdges" width="203" height="200" x="0" y="0" style="stroke: rgb(68, 68, 68); stroke-opacity: 1; fill: rgb(255, 255, 255); fill-opacity: 1; stroke-width: 0px;"/><g class="scrollbox" transform="" clip-path="url(#legendc1fa96)"><text class="legendtitletext" text-anchor="start" x="2" y="18.2" style="font-family: 'Open Sans', verdana, arial, sans-serif; font-size: 14px; fill: rgb(42, 63, 95); fill-opacity: 1; white-space: pre;">Min Snr Used (dB), ILP Type</text><g class="groups" transform=""><g class="traces" transform="translate(0,32.7)" style="opacity: 1;"><text class="legendtext" text-anchor="start" x="40" y="4.680000000000001" style="font-family: 'Open Sans', verdana, arial, sans-serif; font-size: 12px; fill: rgb(42, 63, 95); fill-opacity: 1; white-space: pre;">5, Fixed</text><g class="layers" style="opacity: 1;"><g class="legendfill"/><g class="legendlines"><path class="js-line" d="M5,0h30" style="fill: none; stroke: rgb(99, 110, 250); stroke-opacity: 1; stroke-width: 2px;"/></g><g class="legendsymbols"><g class="legendpoints"/></g></g><rect class="legendtoggle" x="0" y="-9.5" width="109.265625" height="19" style="fill: rgb(0, 0, 0); fill-opacity: 0;"/></g></g><g class="groups" transform=""><g class="traces" transform="translate(0,51.7)" style="opacity: 1;"><text class="legendtext" text-anchor="start" x="40" y="4.680000000000001" style="font-family: 'Open Sans', verdana, arial, sans-serif; font-size: 12px; fill: rgb(42, 63, 95); fill-opacity: 1; white-space: pre;">5, Single</text><g class="layers" style="opacity: 1;"><g class="legendfill"/><g class="legendlines"><path class="js-line" d="M5,0h30" style="fill: none; stroke: rgb(99, 110, 250); stroke-opacity: 1; stroke-dasharray: 3px, 3px; stroke-width: 2px;"/></g><g class="legendsymbols"><g class="legendpoints"/></g></g><rect class="legendtoggle" x="0" y="-9.5" width="109.265625" height="19" style="fill: rgb(0, 0, 0); fill-opacity: 0;"/></g></g><g class="groups" transform=""><g class="traces" transform="translate(0,70.7)" style="opacity: 1;"><text class="legendtext" text-anchor="start" x="40" y="4.680000000000001" style="font-family: 'Open Sans', verdana, arial, sans-serif; font-size: 12px; fill: rgb(42, 63, 95); fill-opacity: 1; white-space: pre;">5, Varying</text><g class="layers" style="opacity: 1;"><g class="legendfill"/><g class="legendlines"><path class="js-line" d="M5,0h30" style="fill: none; stroke: rgb(99, 110, 250); stroke-opacity: 1; stroke-dasharray: 9px, 9px; stroke-width: 2px;"/></g><g class="legendsymbols"><g class="legendpoints"/></g></g><rect class="legendtoggle" x="0" y="-9.5" width="109.265625" height="19" style="fill: rgb(0, 0, 0); fill-opacity: 0;"/></g></g><g class="groups" transform=""><g class="traces" transform="translate(0,89.7)" style="opacity: 1;"><text class="legendtext" text-anchor="start" x="40" y="4.680000000000001" style="font-family: 'Open Sans', verdana, arial, sans-serif; font-size: 12px; fill: rgb(42, 63, 95); fill-opacity: 1; white-space: pre;">10, Fixed</text><g class="layers" style="opacity: 1;"><g class="legendfill"/><g class="legendlines"><path class="js-line" d="M5,0h30" style="fill: none; stroke: rgb(239, 85, 59); stroke-opacity: 1; stroke-width: 2px;"/></g><g class="legendsymbols"><g class="legendpoints"/></g></g><rect class="legendtoggle" x="0" y="-9.5" width="109.265625" height="19" style="fill: rgb(0, 0, 0); fill-opacity: 0;"/></g></g><g class="groups" transform=""><g class="traces" transform="translate(0,108.7)" style="opacity: 1;"><text class="legendtext" text-anchor="start" x="40" y="4.680000000000001" style="font-family: 'Open Sans', verdana, arial, sans-serif; font-size: 12px; fill: rgb(42, 63, 95); fill-opacity: 1; white-space: pre;">10, Single</text><g class="layers" style="opacity: 1;"><g class="legendfill"/><g class="legendlines"><path class="js-line" d="M5,0h30" style="fill: none; stroke: rgb(239, 85, 59); stroke-opacity: 1; stroke-dasharray: 3px, 3px; stroke-width: 2px;"/></g><g class="legendsymbols"><g class="legendpoints"/></g></g><rect class="legendtoggle" x="0" y="-9.5" width="109.265625" height="19" style="fill: rgb(0, 0, 0); fill-opacity: 0;"/></g></g><g class="groups" transform=""><g class="traces" transform="translate(0,127.7)" style="opacity: 1;"><text class="legendtext" text-anchor="start" x="40" y="4.680000000000001" style="font-family: 'Open Sans', verdana, arial, sans-serif; font-size: 12px; fill: rgb(42, 63, 95); fill-opacity: 1; white-space: pre;">10, Varying</text><g class="layers" style="opacity: 1;"><g class="legendfill"/><g class="legendlines"><path class="js-line" d="M5,0h30" style="fill: none; stroke: rgb(239, 85, 59); stroke-opacity: 1; stroke-dasharray: 9px, 9px; stroke-width: 2px;"/></g><g class="legendsymbols"><g class="legendpoints"/></g></g><rect class="legendtoggle" x="0" y="-9.5" width="109.265625" height="19" style="fill: rgb(0, 0, 0); fill-opacity: 0;"/></g></g><g class="groups" transform=""><g class="traces" transform="translate(0,146.7)" style="opacity: 1;"><text class="legendtext" text-anchor="start" x="40" y="4.680000000000001" style="font-family: 'Open Sans', verdana, arial, sans-serif; font-size: 12px; fill: rgb(42, 63, 95); fill-opacity: 1; white-space: pre;">15, Fixed</text><g class="layers" style="opacity: 1;"><g class="legendfill"/><g class="legendlines"><path class="js-line" d="M5,0h30" style="fill: none; stroke: rgb(0, 204, 150); stroke-opacity: 1; stroke-width: 2px;"/></g><g class="legendsymbols"><g class="legendpoints"/></g></g><rect class="legendtoggle" x="0" y="-9.5" width="109.265625" height="19" style="fill: rgb(0, 0, 0); fill-opacity: 0;"/></g></g><g class="groups" transform=""><g class="traces" transform="translate(0,165.7)" style="opacity: 1;"><text class="legendtext" text-anchor="start" x="40" y="4.680000000000001" style="font-family: 'Open Sans', verdana, arial, sans-serif; font-size: 12px; fill: rgb(42, 63, 95); fill-opacity: 1; white-space: pre;">15, Single</text><g class="layers" style="opacity: 1;"><g class="legendfill"/><g class="legendlines"><path class="js-line" d="M5,0h30" style="fill: none; stroke: rgb(0, 204, 150); stroke-opacity: 1; stroke-dasharray: 3px, 3px; stroke-width: 2px;"/></g><g class="legendsymbols"><g class="legendpoints"/></g></g><rect class="legendtoggle" x="0" y="-9.5" width="109.265625" height="19" style="fill: rgb(0, 0, 0); fill-opacity: 0;"/></g></g><g class="groups" transform=""><g class="traces" transform="translate(0,184.7)" style="opacity: 1;"><text class="legendtext" text-anchor="start" x="40" y="4.680000000000001" style="font-family: 'Open Sans', verdana, arial, sans-serif; font-size: 12px; fill: rgb(42, 63, 95); fill-opacity: 1; white-space: pre;">15, Varying</text><g class="layers" style="opacity: 1;"><g class="legendfill"/><g class="legendlines"><path class="js-line" d="M5,0h30" style="fill: none; stroke: rgb(0, 204, 150); stroke-opacity: 1; stroke-dasharray: 9px, 9px; stroke-width: 2px;"/></g><g class="legendsymbols"><g class="legendpoints"/></g></g><rect class="legendtoggle" x="0" y="-9.5" width="109.265625" height="19" style="fill: rgb(0, 0, 0); fill-opacity: 0;"/></g></g></g><rect class="scrollbar" rx="20" ry="3" width="0" height="0" x="0" y="0" style="fill: rgb(128, 139, 164); fill-opacity: 1;"/></g><g class="g-gtitle"><text class="gtitle" x="60" y="50" text-anchor="start" dy="0em" style="font-family: 'Open Sans', verdana, arial, sans-serif; font-size: 17px; fill: rgb(42, 63, 95); opacity: 1; font-weight: normal; white-space: pre;">End to End Delay of each UE DL - CDF</text></g><g class="g-xtitle"><text class="xtitle" x="523.5" y="460.8" text-anchor="middle" style="font-family: 'Open Sans', verdana, arial, sans-serif; font-size: 14px; fill: rgb(42, 63, 95); opacity: 1; font-weight: normal; white-space: pre;">Delay (s)</text></g><g class="g-ytitle"><text class="ytitle" transform="rotate(-90,34.575,260)" x="34.575" y="260" text-anchor="middle" style="font-family: 'Open Sans', verdana, arial, sans-serif; font-size: 14px; fill: rgb(42, 63, 95); opacity: 1; font-weight: normal; white-space: pre;">probability</text></g><g class="annotation" data-index="0" style="opacity: 1;"><g class="annotation-text-g" transform="rotate(0,523.5,90.5)"><g class="cursor-pointer" transform="translate(491,81)"><rect class="bg" x="0.5" y="0.5" width="65" height="18" style="stroke-width: 1px; stroke: rgb(0, 0, 0); stroke-opacity: 0; fill: rgb(0, 0, 0); fill-opacity: 0;"/><text class="annotation-text" text-anchor="middle" x="32.703125" y="14" style="font-family: 'Open Sans', verdana, arial, sans-serif; font-size: 12px; fill: rgb(42, 63, 95); fill-opacity: 1; white-space: pre;">Power=30</text></g></g></g></g></svg>