<svg class="main-svg" xmlns="http://www.w3.org/2000/svg" xmlns:xlink="http://www.w3.org/1999/xlink" width="1200" height="500" style="" viewBox="0 0 1200 500"><rect x="0" y="0" width="1200" height="500" style="fill: rgb(255, 255, 255); fill-opacity: 1;"/><defs id="defs-5ec33c"><g class="clips"><clipPath id="clip5ec33cxyplot" class="plotclip"><rect width="887" height="320"/></clipPath><clipPath class="axesclip" id="clip5ec33cx"><rect x="80" y="0" width="887" height="500"/></clipPath><clipPath class="axesclip" id="clip5ec33cy"><rect x="0" y="100" width="1200" height="320"/></clipPath><clipPath class="axesclip" id="clip5ec33cxy"><rect x="80" y="100" width="887" height="320"/></clipPath></g><g class="gradients"/><g class="patterns"/></defs><g class="bglayer"><rect class="bg" x="80" y="100" width="887" height="320" style="fill: rgb(229, 236, 246); fill-opacity: 1; stroke-width: 0;"/></g><g class="layer-below"><g class="imagelayer"/><g class="shapelayer"/></g><g class="cartesianlayer"><g class="subplot xy"><g class="layer-subplot"><g class="shapelayer"/><g class="imagelayer"/></g><g class="minor-gridlayer"><g class="x"/><g class="y"/></g><g class="gridlayer"><g class="x"><path class="xgrid crisp" transform="translate(102.34,0)" d="M0,100v320" style="stroke: rgb(255, 255, 255); stroke-opacity: 1; stroke-width: 1px;"/><path class="xgrid crisp" transform="translate(198.95999999999998,0)" d="M0,100v320" style="stroke: rgb(255, 255, 255); stroke-opacity: 1; stroke-width: 1px;"/><path class="xgrid crisp" transform="translate(295.58000000000004,0)" d="M0,100v320" style="stroke: rgb(255, 255, 255); stroke-opacity: 1; stroke-width: 1px;"/><path class="xgrid crisp" transform="translate(392.21,0)" d="M0,100v320" style="stroke: rgb(255, 255, 255); stroke-opacity: 1; stroke-width: 1px;"/><path class="xgrid crisp" transform="translate(488.83,0)" d="M0,100v320" style="stroke: rgb(255, 255, 255); stroke-opacity: 1; stroke-width: 1px;"/><path class="xgrid crisp" transform="translate(585.45,0)" d="M0,100v320" style="stroke: rgb(255, 255, 255); stroke-opacity: 1; stroke-width: 1px;"/><path class="xgrid crisp" transform="translate(682.08,0)" d="M0,100v320" style="stroke: rgb(255, 255, 255); stroke-opacity: 1; stroke-width: 1px;"/><path class="xgrid crisp" transform="translate(778.7,0)" d="M0,100v320" style="stroke: rgb(255, 255, 255); stroke-opacity: 1; stroke-width: 1px;"/><path class="xgrid crisp" transform="translate(875.32,0)" d="M0,100v320" style="stroke: rgb(255, 255, 255); stroke-opacity: 1; stroke-width: 1px;"/></g><g class="y"><path class="ygrid crisp" transform="translate(0,359.2)" d="M80,0h887" style="stroke: rgb(255, 255, 255); stroke-opacity: 1; stroke-width: 1px;"/><path class="ygrid crisp" transform="translate(0,298.4)" d="M80,0h887" style="stroke: rgb(255, 255, 255); stroke-opacity: 1; stroke-width: 1px;"/><path class="ygrid crisp" transform="translate(0,237.6)" d="M80,0h887" style="stroke: rgb(255, 255, 255); stroke-opacity: 1; stroke-width: 1px;"/><path class="ygrid crisp" transform="translate(0,176.8)" d="M80,0h887" style="stroke: rgb(255, 255, 255); stroke-opacity: 1; stroke-width: 1px;"/><path class="ygrid crisp" transform="translate(0,116)" d="M80,0h887" style="stroke: rgb(255, 255, 255); stroke-opacity: 1; stroke-width: 1px;"/></g></g><g class="zerolinelayer"><path class="yzl zl crisp" transform="translate(0,420)" d="M80,0h887" style="stroke: rgb(255, 255, 255); stroke-opacity: 1; stroke-width: 2px;"/></g><path class="xlines-below"/><path class="ylines-below"/><g class="overlines-below"/><g class="xaxislayer-below"/><g class="yaxislayer-below"/><g class="overaxes-below"/><g class="plot" transform="translate(80,100)" clip-path="url(#clip5ec33cxyplot)"><g class="scatterlayer mlayer"><g class="trace scatter trace6b2b34" style="stroke-miterlimit: 2; opacity: 1;"><g class="fills"/><g class="errorbars"/><g class="lines"><path class="js-line" d="M187.6,16V21.07H198.69V26.13H214.6V31.2H215.12V36.27H225.48V41.33H229.61V46.4H242.6V51.47H251.9V56.53H254.72V61.6H256.41V66.67H268.32V71.73H279.3V76.8H283.73V81.87H283.82V86.93H285.66V92H287.49V97.07H287.71V102.13H291.65V107.2H293.9V112.27H304.67V117.33H334.77V122.4H336.06V127.47H336.88V132.53H337.83V137.6H339.13V142.67H342.03V147.73H351.91V152.8H353.44V157.87H353.68V162.93H363.27V168H365.82V173.07H366.53V178.13H368.59V183.2H373.21V188.27H386.53V193.33H387.31V198.4H407.04V203.47H420.05V208.53H423.69V213.6H423.98V218.67H431.26V223.73H434.16V228.8H451.35V233.87H451.87V238.93H456.78V244H457.46V249.07H459.65V254.13H462.54V259.2H471.68V264.27H477.6V269.33H478.23V274.4H497.43V279.47H500.27V284.53H512.53V289.6H530.12V294.67H531.56V299.73H554.7V304.8H587.81V309.87H589.31V314.93H589.81" style="vector-effect: non-scaling-stroke; fill: none; stroke: rgb(99, 110, 250); stroke-opacity: 1; stroke-width: 2px; opacity: 1;"/></g><g class="points"/><g class="text"/></g><g class="trace scatter tracebff205" style="stroke-miterlimit: 2; opacity: 1;"><g class="fills"/><g class="errorbars"/><g class="lines"><path class="js-line" d="M165.75,16V21.07H175.82V26.13H190.8V31.2H190.95V36.27H197.07V41.33H202V46.4H204.99V51.47H209.94V56.53H212.45V61.6H225.54V66.67H225.79V71.73H240.52V76.8H248.82V81.87H249.97V86.93H263.19V92H274.51V97.07H285.21V102.13H285.22V107.2H288.31V112.27H289.84V117.33H290.08V122.4H290.57V127.47H306.23V132.53H313.13V137.6H319.04V142.67H319.99V147.73H326.5V152.8H327.34V157.87H345.11V162.93H346.44V168H347.34V173.07H354.03V178.13H358.36V183.2H382.53V188.27H384.01V193.33H385.05V198.4H392.86V203.47H396.65V208.53H396.92V213.6H396.97V218.67H401.89V223.73H406.87V228.8H409.44V233.87H412.59V238.93H415.89V244H421.71V249.07H453.22V254.13H455.01V259.2H463.2V264.27H471.76V269.33H487.3V274.4H500.69V279.47H512.89V284.53H539.45V289.6H573.89V294.67H636.36V299.73H650.57V304.8H656.23V309.87H785.94V314.93H788.44" style="vector-effect: non-scaling-stroke; fill: none; stroke: rgb(99, 110, 250); stroke-opacity: 1; stroke-width: 2px; opacity: 1; stroke-dasharray: 3px, 3px;"/></g><g class="points"/><g class="text"/></g><g class="trace scatter tracec30910" style="stroke-miterlimit: 2; opacity: 1;"><g class="fills"/><g class="errorbars"/><g class="lines"><path class="js-line" d="M143.54,16V21.07H165.72V26.13H167.56V31.2H170.8V36.27H173.39V41.33H200.03V46.4H204.68V51.47H222.1V56.53H239.53V61.6H243.22V66.67H255.61V71.73H262.57V76.8H264.48V81.87H270.02V86.93H270.4V92H271.76V97.07H288.99V102.13H300.55V107.2H305.76V112.27H305.86V117.33H309.32V122.4H309.52V127.47H310.78V132.53H310.82V137.6H315.04V142.67H328.12V147.73H337.62V152.8H339.29V157.87H345.84V162.93H347.95V168H351.2V173.07H368.82V178.13H371.69V183.2H378.53V188.27H380.8V193.33H385.3V198.4H393.56V203.47H395.17V208.53H399.92V213.6H414.6V218.67H418.74V223.73H419.1V228.8H421.09V233.87H426.53V238.93H433.41V244H462.11V249.07H465.99V254.13H476.04V259.2H490.07V264.27H501.06V269.33H519.04V274.4H530.71V279.47H577.8V284.53H587.04V289.6H597.33V294.67H617.13V299.73H626.35V304.8H636.83V309.87H723.73V314.93H887" style="vector-effect: non-scaling-stroke; fill: none; stroke: rgb(99, 110, 250); stroke-opacity: 1; stroke-width: 2px; opacity: 1; stroke-dasharray: 9px, 9px;"/></g><g class="points"/><g class="text"/></g><g class="trace scatter traceb1f61b" style="stroke-miterlimit: 2; opacity: 1;"><g class="fills"/><g class="errorbars"/><g class="lines"><path class="js-line" d="M40.74,16V21.07H103.36V26.13H104.34V31.2H145.72V36.27H157.38V41.33H160.21V46.4H162.2V51.47H164.15V56.53H172.32V61.6H176.19V66.67H181.65V71.73H197.26V76.8H201.98V81.87H205.74V86.93H220.1V92H221.49V97.07H230.68V102.13H238.15V107.2H259.84V112.27H260.8V117.33H262.07V122.4H264.75V127.47H270.98V132.53H272.8V137.6H276.71V142.67H277.15V147.73H285.52V152.8H291.09V157.87H291.42V162.93H296.21V168H296.52V173.07H297.29V178.13H298.5V183.2H301.71V188.27H307.5V193.33H310.77V198.4H312.29V203.47H319.39V208.53H324.35V213.6H327.32V218.67H327.69V223.73H336.4V228.8H339.92V233.87H350.31V238.93H368.76V244H384.73V249.07H385.68V254.13H387.6V259.2H390.89V264.27H393.53V269.33H394.72V274.4H422.21V279.47H438.52V284.53H439.53V289.6H442.87V294.67H448.01V299.73H457.98V304.8H492.71V309.87H503.37V314.93H537.07" style="vector-effect: non-scaling-stroke; fill: none; stroke: rgb(239, 85, 59); stroke-opacity: 1; stroke-width: 2px; opacity: 1;"/></g><g class="points"/><g class="text"/></g><g class="trace scatter tracec7acd2" style="stroke-miterlimit: 2; opacity: 1;"><g class="fills"/><g class="errorbars"/><g class="lines"><path class="js-line" d="M0,16V21.07H15.72V26.13H68.76V31.2H90.97V36.27H98.2V41.33H132.13V46.4H132.29V51.47H170.03V56.53H178.01V61.6H178.8V66.67H181.09V71.73H182.42V76.8H194.44V81.87H195.3V86.93H204.42V92H222.04V97.07H231.34V102.13H233.41V107.2H234.27V112.27H245.51V117.33H249.33V122.4H251.51V127.47H252.26V132.53H254.14V137.6H254.36V142.67H269.29V147.73H274.14V152.8H277.39V157.87H279.35V162.93H282.36V168H284.67V173.07H286.62V178.13H287.58V183.2H290V188.27H290.97V193.33H298.46V198.4H307.48V203.47H316.35V208.53H322.29V213.6H324.1V218.67H327.1V223.73H329.71V228.8H340.36V233.87H357V238.93H357.62V244H360.38V249.07H388.06V254.13H391.55V259.2H399.31V264.27H400.21V269.33H405.32V274.4H407.69V279.47H423.56V284.53H431.54V289.6H451.73V294.67H452.87V299.73H524.47V304.8H525.83V309.87H566.11V314.93H595.84" style="vector-effect: non-scaling-stroke; fill: none; stroke: rgb(239, 85, 59); stroke-opacity: 1; stroke-width: 2px; opacity: 1; stroke-dasharray: 3px, 3px;"/></g><g class="points"/><g class="text"/></g><g class="trace scatter trace3567c5" style="stroke-miterlimit: 2; opacity: 1;"><g class="fills"/><g class="errorbars"/><g class="lines"><path class="js-line" d="M21.85,16V21.07H89.36V26.13H125.86V31.2H135.3V36.27H148.2V41.33H155.12V46.4H184.38V51.47H189.21V56.53H189.77V61.6H196.84V66.67H198.56V71.73H203.63V76.8H213.34V81.87H214.6V86.93H228.36V92H235.29V97.07H236.33V102.13H238.41V107.2H241.99V112.27H249.37V117.33H252.19V122.4H256.47V127.47H262.39V132.53H264.89V137.6H266.19V142.67H266.21V147.73H272.28V152.8H280.25V157.87H288.6V162.93H297.04V168H303.63V173.07H310.72V178.13H312.06V183.2H312.71V188.27H327.41V193.33H330.86V198.4H331.59V203.47H331.72V208.53H333.2V213.6H342.41V218.67H343.57V223.73H348.71V228.8H352.37V233.87H356.34V238.93H360.22V244H360.25V249.07H373.76V254.13H380.75V259.2H384.45V264.27H386.18V269.33H389.72V274.4H390.34V279.47H396.99V284.53H424.99V289.6H436.41V294.67H461.62V299.73H465.14V304.8H472.75V309.87H507.34V314.93H652.97" style="vector-effect: non-scaling-stroke; fill: none; stroke: rgb(239, 85, 59); stroke-opacity: 1; stroke-width: 2px; opacity: 1; stroke-dasharray: 9px, 9px;"/></g><g class="points"/><g class="text"/></g><g class="trace scatter tracea1a2d9" style="stroke-miterlimit: 2; opacity: 1;"><g class="fills"/><g class="errorbars"/><g class="lines"><path class="js-line" d="M49.9,16V21.07H78.74V26.13H90.79V31.2H127.92V36.27H145.02V41.33H160.68V46.4H187.1V51.47H187.31V56.53H191.56V61.6H192.72V66.67H202.63V71.73H214.44V76.8H216.16V81.87H216.22V86.93H217.91V92H222.49V97.07H227.13V102.13H235.39V107.2H236.19V112.27H243.45V117.33H248.87V122.4H250.87V127.47H252.27V132.53H255.36V137.6H258V142.67H269.29V147.73H272.58V152.8H276.47V157.87H278V162.93H283.39V168H286.14V173.07H287.21V178.13H288.15V183.2H310.91V188.27H314.22V193.33H320.1V198.4H320.48V203.47H353.65V208.53H361.86V213.6H364.6V218.67H375.35V223.73H378.75V228.8H380.13V233.87H382.5V238.93H387.41V244H394.47V249.07H395.11V254.13H400.88V259.2H407.84V264.27H412.39V269.33H417.37V274.4H438.92V279.47H453.08V284.53H455.5V289.6H455.87V294.67H459.85V299.73H503.72V304.8H536.99V309.87H584.46V314.93H603.03" style="vector-effect: non-scaling-stroke; fill: none; stroke: rgb(0, 204, 150); stroke-opacity: 1; stroke-width: 2px; opacity: 1;"/></g><g class="points"/><g class="text"/></g><g class="trace scatter tracea80643" style="stroke-miterlimit: 2; opacity: 1;"><g class="fills"/><g class="errorbars"/><g class="lines"><path class="js-line" d="M68.51,16V21.07H80V26.13H104.39V31.2H107.64V36.27H119.79V41.33H125.76V46.4H126.13V51.47H144.11V56.53H155.4V61.6H157.05V66.67H158.48V71.73H171.61V76.8H171.83V81.87H180.56V86.93H184.95V92H187.27V97.07H187.87V102.13H192.67V107.2H195.21V112.27H196.64V117.33H201.04V122.4H207.05V127.47H210.39V132.53H211.45V137.6H212.57V142.67H227.93V147.73H229.84V152.8H237.08V157.87H239.46V162.93H246.33V168H253.95V173.07H254.81V178.13H257.47V183.2H260.04V188.27H266.43V193.33H276.51V198.4H280.46V203.47H282.23V208.53H285.64V213.6H288.66V218.67H291.97V223.73H294.21V228.8H298.49V233.87H300.15V238.93H309.66V244H312.88V249.07H314.22V254.13H320.21V259.2H321.51V264.27H356.35V269.33H371.84V274.4H387.65V279.47H390.96V284.53H405.98V289.6H433.08V294.67H463.79V299.73H507.75V304.8H515.56V309.87H575.04V314.93H610.95" style="vector-effect: non-scaling-stroke; fill: none; stroke: rgb(0, 204, 150); stroke-opacity: 1; stroke-width: 2px; opacity: 1; stroke-dasharray: 3px, 3px;"/></g><g class="points"/><g class="text"/></g><g class="trace scatter tracecf12f2" style="stroke-miterlimit: 2; opacity: 1;"><g class="fills"/><g class="errorbars"/><g class="lines"><path class="js-line" d="M8.45,16V21.07H100.89V26.13H105.7V31.2H109.36V36.27H117.63V41.33H119.72V46.4H130.92V51.47H154.28V56.53H167.12V61.6H168.78V66.67H171.14V71.73H179.83V76.8H186.13V81.87H189.05V86.93H196.62V92H197.13V97.07H200.66V102.13H205.22V107.2H206.86V112.27H207.58V117.33H207.59V122.4H213.99V127.47H215.93V132.53H227.48V137.6H229.94V142.67H239.55V147.73H245.29V152.8H246.76V157.87H251.59V162.93H262.35V168H266.5V173.07H274.03V178.13H275.68V183.2H276.56V188.27H285.99V193.33H286.79V198.4H288.44V203.47H293.26V208.53H300.75V213.6H302.31V218.67H304.67V223.73H308.26V228.8H312.18V233.87H322.22V238.93H330.1V244H343.87V249.07H344.68V254.13H345.41V259.2H353.48V264.27H363.63V269.33H365.09V274.4H379.57V279.47H380.41V284.53H382.05V289.6H382.85V294.67H404.15V299.73H412.63V304.8H446.26V309.87H452.09V314.93H627.38" style="vector-effect: non-scaling-stroke; fill: none; stroke: rgb(0, 204, 150); stroke-opacity: 1; stroke-width: 2px; opacity: 1; stroke-dasharray: 9px, 9px;"/></g><g class="points"/><g class="text"/></g></g></g><g class="overplot"/><path class="xlines-above crisp" d="M0,0" style="fill: none;"/><path class="ylines-above crisp" d="M0,0" style="fill: none;"/><g class="overlines-above"/><g class="xaxislayer-above"><g class="xtick"><text text-anchor="middle" x="0" y="433" transform="translate(102.34,0)" style="font-family: 'Open Sans', verdana, arial, sans-serif; font-size: 12px; fill: rgb(42, 63, 95); fill-opacity: 1; white-space: pre; opacity: 1;">0.2</text></g><g class="xtick"><text text-anchor="middle" x="0" y="433" style="font-family: 'Open Sans', verdana, arial, sans-serif; font-size: 12px; fill: rgb(42, 63, 95); fill-opacity: 1; white-space: pre; opacity: 1;" transform="translate(198.95999999999998,0)">0.3</text></g><g class="xtick"><text text-anchor="middle" x="0" y="433" style="font-family: 'Open Sans', verdana, arial, sans-serif; font-size: 12px; fill: rgb(42, 63, 95); fill-opacity: 1; white-space: pre; opacity: 1;" transform="translate(295.58000000000004,0)">0.4</text></g><g class="xtick"><text text-anchor="middle" x="0" y="433" style="font-family: 'Open Sans', verdana, arial, sans-serif; font-size: 12px; fill: rgb(42, 63, 95); fill-opacity: 1; white-space: pre; opacity: 1;" transform="translate(392.21,0)">0.5</text></g><g class="xtick"><text text-anchor="middle" x="0" y="433" style="font-family: 'Open Sans', verdana, arial, sans-serif; font-size: 12px; fill: rgb(42, 63, 95); fill-opacity: 1; white-space: pre; opacity: 1;" transform="translate(488.83,0)">0.6</text></g><g class="xtick"><text text-anchor="middle" x="0" y="433" style="font-family: 'Open Sans', verdana, arial, sans-serif; font-size: 12px; fill: rgb(42, 63, 95); fill-opacity: 1; white-space: pre; opacity: 1;" transform="translate(585.45,0)">0.7</text></g><g class="xtick"><text text-anchor="middle" x="0" y="433" style="font-family: 'Open Sans', verdana, arial, sans-serif; font-size: 12px; fill: rgb(42, 63, 95); fill-opacity: 1; white-space: pre; opacity: 1;" transform="translate(682.08,0)">0.8</text></g><g class="xtick"><text text-anchor="middle" x="0" y="433" style="font-family: 'Open Sans', verdana, arial, sans-serif; font-size: 12px; fill: rgb(42, 63, 95); fill-opacity: 1; white-space: pre; opacity: 1;" transform="translate(778.7,0)">0.9</text></g><g class="xtick"><text text-anchor="middle" x="0" y="433" style="font-family: 'Open Sans', verdana, arial, sans-serif; font-size: 12px; fill: rgb(42, 63, 95); fill-opacity: 1; white-space: pre; opacity: 1;" transform="translate(875.32,0)">1</text></g></g><g class="yaxislayer-above"><g class="ytick"><text text-anchor="end" x="79" y="4.199999999999999" transform="translate(0,420)" style="font-family: 'Open Sans', verdana, arial, sans-serif; font-size: 12px; fill: rgb(42, 63, 95); fill-opacity: 1; white-space: pre; opacity: 1;">0</text></g><g class="ytick"><text text-anchor="end" x="79" y="4.199999999999999" style="font-family: 'Open Sans', verdana, arial, sans-serif; font-size: 12px; fill: rgb(42, 63, 95); fill-opacity: 1; white-space: pre; opacity: 1;" transform="translate(0,359.2)">0.2</text></g><g class="ytick"><text text-anchor="end" x="79" y="4.199999999999999" style="font-family: 'Open Sans', verdana, arial, sans-serif; font-size: 12px; fill: rgb(42, 63, 95); fill-opacity: 1; white-space: pre; opacity: 1;" transform="translate(0,298.4)">0.4</text></g><g class="ytick"><text text-anchor="end" x="79" y="4.199999999999999" style="font-family: 'Open Sans', verdana, arial, sans-serif; font-size: 12px; fill: rgb(42, 63, 95); fill-opacity: 1; white-space: pre; opacity: 1;" transform="translate(0,237.6)">0.6</text></g><g class="ytick"><text text-anchor="end" x="79" y="4.199999999999999" style="font-family: 'Open Sans', verdana, arial, sans-serif; font-size: 12px; fill: rgb(42, 63, 95); fill-opacity: 1; white-space: pre; opacity: 1;" transform="translate(0,176.8)">0.8</text></g><g class="ytick"><text text-anchor="end" x="79" y="4.199999999999999" style="font-family: 'Open Sans', verdana, arial, sans-serif; font-size: 12px; fill: rgb(42, 63, 95); fill-opacity: 1; white-space: pre; opacity: 1;" transform="translate(0,116)">1</text></g></g><g class="overaxes-above"/></g></g><g class="polarlayer"/><g class="smithlayer"/><g class="ternarylayer"/><g class="geolayer"/><g class="funnelarealayer"/><g class="pielayer"/><g class="iciclelayer"/><g class="treemaplayer"/><g class="sunburstlayer"/><g class="glimages"/><defs id="topdefs-5ec33c"><g class="clips"/><clipPath id="legend5ec33c"><rect width="203" height="200" x="0" y="0"/></clipPath></defs><g class="layer-above"><g class="imagelayer"/><g class="shapelayer"/></g><g class="infolayer"><g class="legend" pointer-events="all" transform="translate(984.74,100)"><rect class="bg" shape-rendering="crispEdges" width="203" height="200" x="0" y="0" style="stroke: rgb(68, 68, 68); stroke-opacity: 1; fill: rgb(255, 255, 255); fill-opacity: 1; stroke-width: 0px;"/><g class="scrollbox" transform="" clip-path="url(#legend5ec33c)"><text class="legendtitletext" text-anchor="start" x="2" y="18.2" style="font-family: 'Open Sans', verdana, arial, sans-serif; font-size: 14px; fill: rgb(42, 63, 95); fill-opacity: 1; white-space: pre;">Min Snr Used (dB), ILP Type</text><g class="groups" transform=""><g class="traces" transform="translate(0,32.7)" style="opacity: 1;"><text class="legendtext" text-anchor="start" x="40" y="4.680000000000001" style="font-family: 'Open Sans', verdana, arial, sans-serif; font-size: 12px; fill: rgb(42, 63, 95); fill-opacity: 1; white-space: pre;">5, Fixed</text><g class="layers" style="opacity: 1;"><g class="legendfill"/><g class="legendlines"><path class="js-line" d="M5,0h30" style="fill: none; stroke: rgb(99, 110, 250); stroke-opacity: 1; stroke-width: 2px;"/></g><g class="legendsymbols"><g class="legendpoints"/></g></g><rect class="legendtoggle" x="0" y="-9.5" width="109.265625" height="19" style="fill: rgb(0, 0, 0); fill-opacity: 0;"/></g></g><g class="groups" transform=""><g class="traces" transform="translate(0,51.7)" style="opacity: 1;"><text class="legendtext" text-anchor="start" x="40" y="4.680000000000001" style="font-family: 'Open Sans', verdana, arial, sans-serif; font-size: 12px; fill: rgb(42, 63, 95); fill-opacity: 1; white-space: pre;">5, Single</text><g class="layers" style="opacity: 1;"><g class="legendfill"/><g class="legendlines"><path class="js-line" d="M5,0h30" style="fill: none; stroke: rgb(99, 110, 250); stroke-opacity: 1; stroke-dasharray: 3px, 3px; stroke-width: 2px;"/></g><g class="legendsymbols"><g class="legendpoints"/></g></g><rect class="legendtoggle" x="0" y="-9.5" width="109.265625" height="19" style="fill: rgb(0, 0, 0); fill-opacity: 0;"/></g></g><g class="groups" transform=""><g class="traces" transform="translate(0,70.7)" style="opacity: 1;"><text class="legendtext" text-anchor="start" x="40" y="4.680000000000001" style="font-family: 'Open Sans', verdana, arial, sans-serif; font-size: 12px; fill: rgb(42, 63, 95); fill-opacity: 1; white-space: pre;">5, Varying</text><g class="layers" style="opacity: 1;"><g class="legendfill"/><g class="legendlines"><path class="js-line" d="M5,0h30" style="fill: none; stroke: rgb(99, 110, 250); stroke-opacity: 1; stroke-dasharray: 9px, 9px; stroke-width: 2px;"/></g><g class="legendsymbols"><g class="legendpoints"/></g></g><rect class="legendtoggle" x="0" y="-9.5" width="109.265625" height="19" style="fill: rgb(0, 0, 0); fill-opacity: 0;"/></g></g><g class="groups" transform=""><g class="traces" transform="translate(0,89.7)" style="opacity: 1;"><text class="legendtext" text-anchor="start" x="40" y="4.680000000000001" style="font-family: 'Open Sans', verdana, arial, sans-serif; font-size: 12px; fill: rgb(42, 63, 95); fill-opacity: 1; white-space: pre;">10, Fixed</text><g class="layers" style="opacity: 1;"><g class="legendfill"/><g class="legendlines"><path class="js-line" d="M5,0h30" style="fill: none; stroke: rgb(239, 85, 59); stroke-opacity: 1; stroke-width: 2px;"/></g><g class="legendsymbols"><g class="legendpoints"/></g></g><rect class="legendtoggle" x="0" y="-9.5" width="109.265625" height="19" style="fill: rgb(0, 0, 0); fill-opacity: 0;"/></g></g><g class="groups" transform=""><g class="traces" transform="translate(0,108.7)" style="opacity: 1;"><text class="legendtext" text-anchor="start" x="40" y="4.680000000000001" style="font-family: 'Open Sans', verdana, arial, sans-serif; font-size: 12px; fill: rgb(42, 63, 95); fill-opacity: 1; white-space: pre;">10, Single</text><g class="layers" style="opacity: 1;"><g class="legendfill"/><g class="legendlines"><path class="js-line" d="M5,0h30" style="fill: none; stroke: rgb(239, 85, 59); stroke-opacity: 1; stroke-dasharray: 3px, 3px; stroke-width: 2px;"/></g><g class="legendsymbols"><g class="legendpoints"/></g></g><rect class="legendtoggle" x="0" y="-9.5" width="109.265625" height="19" style="fill: rgb(0, 0, 0); fill-opacity: 0;"/></g></g><g class="groups" transform=""><g class="traces" transform="translate(0,127.7)" style="opacity: 1;"><text class="legendtext" text-anchor="start" x="40" y="4.680000000000001" style="font-family: 'Open Sans', verdana, arial, sans-serif; font-size: 12px; fill: rgb(42, 63, 95); fill-opacity: 1; white-space: pre;">10, Varying</text><g class="layers" style="opacity: 1;"><g class="legendfill"/><g class="legendlines"><path class="js-line" d="M5,0h30" style="fill: none; stroke: rgb(239, 85, 59); stroke-opacity: 1; stroke-dasharray: 9px, 9px; stroke-width: 2px;"/></g><g class="legendsymbols"><g class="legendpoints"/></g></g><rect class="legendtoggle" x="0" y="-9.5" width="109.265625" height="19" style="fill: rgb(0, 0, 0); fill-opacity: 0;"/></g></g><g class="groups" transform=""><g class="traces" transform="translate(0,146.7)" style="opacity: 1;"><text class="legendtext" text-anchor="start" x="40" y="4.680000000000001" style="font-family: 'Open Sans', verdana, arial, sans-serif; font-size: 12px; fill: rgb(42, 63, 95); fill-opacity: 1; white-space: pre;">15, Fixed</text><g class="layers" style="opacity: 1;"><g class="legendfill"/><g class="legendlines"><path class="js-line" d="M5,0h30" style="fill: none; stroke: rgb(0, 204, 150); stroke-opacity: 1; stroke-width: 2px;"/></g><g class="legendsymbols"><g class="legendpoints"/></g></g><rect class="legendtoggle" x="0" y="-9.5" width="109.265625" height="19" style="fill: rgb(0, 0, 0); fill-opacity: 0;"/></g></g><g class="groups" transform=""><g class="traces" transform="translate(0,165.7)" style="opacity: 1;"><text class="legendtext" text-anchor="start" x="40" y="4.680000000000001" style="font-family: 'Open Sans', verdana, arial, sans-serif; font-size: 12px; fill: rgb(42, 63, 95); fill-opacity: 1; white-space: pre;">15, Single</text><g class="layers" style="opacity: 1;"><g class="legendfill"/><g class="legendlines"><path class="js-line" d="M5,0h30" style="fill: none; stroke: rgb(0, 204, 150); stroke-opacity: 1; stroke-dasharray: 3px, 3px; stroke-width: 2px;"/></g><g class="legendsymbols"><g class="legendpoints"/></g></g><rect class="legendtoggle" x="0" y="-9.5" width="109.265625" height="19" style="fill: rgb(0, 0, 0); fill-opacity: 0;"/></g></g><g class="groups" transform=""><g class="traces" transform="translate(0,184.7)" style="opacity: 1;"><text class="legendtext" text-anchor="start" x="40" y="4.680000000000001" style="font-family: 'Open Sans', verdana, arial, sans-serif; font-size: 12px; fill: rgb(42, 63, 95); fill-opacity: 1; white-space: pre;">15, Varying</text><g class="layers" style="opacity: 1;"><g class="legendfill"/><g class="legendlines"><path class="js-line" d="M5,0h30" style="fill: none; stroke: rgb(0, 204, 150); stroke-opacity: 1; stroke-dasharray: 9px, 9px; stroke-width: 2px;"/></g><g class="legendsymbols"><g class="legendpoints"/></g></g><rect class="legendtoggle" x="0" y="-9.5" width="109.265625" height="19" style="fill: rgb(0, 0, 0); fill-opacity: 0;"/></g></g></g><rect class="scrollbar" rx="20" ry="3" width="0" height="0" x="0" y="0" style="fill: rgb(128, 139, 164); fill-opacity: 1;"/></g><g class="g-gtitle"><text class="gtitle" x="60" y="50" text-anchor="start" dy="0em" style="font-family: 'Open Sans', verdana, arial, sans-serif; font-size: 17px; fill: rgb(42, 63, 95); opacity: 1; font-weight: normal; white-space: pre;">End to End Delay COV of each UE DL - CDF</text></g><g class="g-xtitle"><text class="xtitle" x="523.5" y="460.8" text-anchor="middle" style="font-family: 'Open Sans', verdana, arial, sans-serif; font-size: 14px; fill: rgb(42, 63, 95); opacity: 1; font-weight: normal; white-space: pre;">COV</text></g><g class="g-ytitle"><text class="ytitle" transform="rotate(-90,34.575,260)" x="34.575" y="260" text-anchor="middle" style="font-family: 'Open Sans', verdana, arial, sans-serif; font-size: 14px; fill: rgb(42, 63, 95); opacity: 1; font-weight: normal; white-space: pre;">probability</text></g><g class="annotation" data-index="0" style="opacity: 1;"><g class="annotation-text-g" transform="rotate(0,523.5,90.5)"><g class="cursor-pointer" transform="translate(491,81)"><rect class="bg" x="0.5" y="0.5" width="65" height="18" style="stroke-width: 1px; stroke: rgb(0, 0, 0); stroke-opacity: 0; fill: rgb(0, 0, 0); fill-opacity: 0;"/><text class="annotation-text" text-anchor="middle" x="32.703125" y="14" style="font-family: 'Open Sans', verdana, arial, sans-serif; font-size: 12px; fill: rgb(42, 63, 95); fill-opacity: 1; white-space: pre;">Power=30</text></g></g></g></g></svg>