<svg class="main-svg" xmlns="http://www.w3.org/2000/svg" xmlns:xlink="http://www.w3.org/1999/xlink" width="1200" height="500" style="" viewBox="0 0 1200 500"><rect x="0" y="0" width="1200" height="500" style="fill: rgb(255, 255, 255); fill-opacity: 1;"/><defs id="defs-98a950"><g class="clips"><clipPath id="clip98a950xyplot" class="plotclip"><rect width="887" height="320"/></clipPath><clipPath class="axesclip" id="clip98a950x"><rect x="80" y="0" width="887" height="500"/></clipPath><clipPath class="axesclip" id="clip98a950y"><rect x="0" y="100" width="1200" height="320"/></clipPath><clipPath class="axesclip" id="clip98a950xy"><rect x="80" y="100" width="887" height="320"/></clipPath></g><g class="gradients"/><g class="patterns"/></defs><g class="bglayer"><rect class="bg" x="80" y="100" width="887" height="320" style="fill: rgb(229, 236, 246); fill-opacity: 1; stroke-width: 0;"/></g><g class="layer-below"><g class="imagelayer"/><g class="shapelayer"/></g><g class="cartesianlayer"><g class="subplot xy"><g class="layer-subplot"><g class="shapelayer"/><g class="imagelayer"/></g><g class="minor-gridlayer"><g class="x"/><g class="y"/></g><g class="gridlayer"><g class="x"><path class="xgrid crisp" transform="translate(142.43,0)" d="M0,100v320" style="stroke: rgb(255, 255, 255); stroke-opacity: 1; stroke-width: 1px;"/><path class="xgrid crisp" transform="translate(255.66,0)" d="M0,100v320" style="stroke: rgb(255, 255, 255); stroke-opacity: 1; stroke-width: 1px;"/><path class="xgrid crisp" transform="translate(368.89,0)" d="M0,100v320" style="stroke: rgb(255, 255, 255); stroke-opacity: 1; stroke-width: 1px;"/><path class="xgrid crisp" transform="translate(482.12,0)" d="M0,100v320" style="stroke: rgb(255, 255, 255); stroke-opacity: 1; stroke-width: 1px;"/><path class="xgrid crisp" transform="translate(595.34,0)" d="M0,100v320" style="stroke: rgb(255, 255, 255); stroke-opacity: 1; stroke-width: 1px;"/><path class="xgrid crisp" transform="translate(708.57,0)" d="M0,100v320" style="stroke: rgb(255, 255, 255); stroke-opacity: 1; stroke-width: 1px;"/><path class="xgrid crisp" transform="translate(821.8,0)" d="M0,100v320" style="stroke: rgb(255, 255, 255); stroke-opacity: 1; stroke-width: 1px;"/><path class="xgrid crisp" transform="translate(935.02,0)" d="M0,100v320" style="stroke: rgb(255, 255, 255); stroke-opacity: 1; stroke-width: 1px;"/></g><g class="y"><path class="ygrid crisp" transform="translate(0,359.2)" d="M80,0h887" style="stroke: rgb(255, 255, 255); stroke-opacity: 1; stroke-width: 1px;"/><path class="ygrid crisp" transform="translate(0,298.4)" d="M80,0h887" style="stroke: rgb(255, 255, 255); stroke-opacity: 1; stroke-width: 1px;"/><path class="ygrid crisp" transform="translate(0,237.6)" d="M80,0h887" style="stroke: rgb(255, 255, 255); stroke-opacity: 1; stroke-width: 1px;"/><path class="ygrid crisp" transform="translate(0,176.8)" d="M80,0h887" style="stroke: rgb(255, 255, 255); stroke-opacity: 1; stroke-width: 1px;"/><path class="ygrid crisp" transform="translate(0,116)" d="M80,0h887" style="stroke: rgb(255, 255, 255); stroke-opacity: 1; stroke-width: 1px;"/></g></g><g class="zerolinelayer"><path class="yzl zl crisp" transform="translate(0,420)" d="M80,0h887" style="stroke: rgb(255, 255, 255); stroke-opacity: 1; stroke-width: 2px;"/></g><path class="xlines-below"/><path class="ylines-below"/><g class="overlines-below"/><g class="xaxislayer-below"/><g class="yaxislayer-below"/><g class="overaxes-below"/><g class="plot" transform="translate(80,100)" clip-path="url(#clip98a950xyplot)"><g class="scatterlayer mlayer"><g class="trace scatter trace2991f1" style="stroke-miterlimit: 2; opacity: 1;"><g class="fills"/><g class="errorbars"/><g class="lines"><path class="js-line" d="M0,16V21.07H1.56V26.13H18.46V31.2H18.64V36.27H31.34V41.33H45.83V46.4H55.35V51.47H67.62V56.53H71.06V61.6H72.6V66.67H72.78V71.73H74.73V76.8H80.71V81.87H84.63V86.93H85.65V92H94.66V97.07H99.59V102.13H100.64V107.2H104.89V112.27H140.92V117.33H161.71V122.4H162.98V127.47H163.57V132.53H165.63V137.6H173.37V142.67H179.08V147.73H189.23V152.8H194.03V157.87H209.74V162.93H210.17V168H210.35V173.07H231.35V178.13H264.05V183.2H273.96V188.27H274.51V193.33H279.6V198.4H279.78V203.47H281.87V208.53H306.03V213.6H308.11V218.67H314.57V223.73H319.07V228.8H323.6V233.87H323.81V238.93H332.21V244H337.73V249.07H338.3V254.13H345.28V259.2H396.52V264.27H401.16V269.33H409.86V274.4H427.77V279.47H452.37V284.53H510.2V289.6H524.31V294.67H543.4V299.73H567.77V304.8H585.27V309.87H599.2V314.93H601.94" style="vector-effect: non-scaling-stroke; fill: none; stroke: rgb(99, 110, 250); stroke-opacity: 1; stroke-width: 2px; opacity: 1;"/></g><g class="points"/><g class="text"/></g><g class="trace scatter tracefc2715" style="stroke-miterlimit: 2; opacity: 1;"><g class="fills"/><g class="errorbars"/><g class="lines"><path class="js-line" d="M301.84,16V21.07H303.4V26.13H322.9V31.2H324.89V36.27H328.43V41.33H342.83V46.4H349.35V51.47H350.17V56.53H351.89V61.6H357.84V66.67H359.43V71.73H377.91V76.8H378.61V81.87H382.5V86.93H382.75V92H389.82V97.07H395.41V102.13H405.69V107.2H413.82V112.27H423.95V117.33H424.81V122.4H426.12V127.47H433.14V132.53H444.78V137.6H450.49V142.67H469.73V147.73H476.46V152.8H478.32V157.87H480.06V162.93H483.39V168H495.17V173.07H508.57V178.13H516.72V183.2H531.26V188.27H533.69V193.33H542.72V198.4H542.81V203.47H543.6V208.53H549.45V213.6H554.45V218.67H563.67V223.73H570.64V228.8H571.21V233.87H581.97V238.93H582.31V244H585.18V249.07H588.01V254.13H593.06V259.2H593.51V264.27H600.47V269.33H606.45V274.4H616.43V279.47H618.72V284.53H619.22V289.6H642.16V294.67H650.51V299.73H651.17V304.8H653.46V309.87H752.49V314.93H768.68" style="vector-effect: non-scaling-stroke; fill: none; stroke: rgb(99, 110, 250); stroke-opacity: 1; stroke-width: 2px; opacity: 1; stroke-dasharray: 3px, 3px;"/></g><g class="points"/><g class="text"/></g><g class="trace scatter trace8fc911" style="stroke-miterlimit: 2; opacity: 1;"><g class="fills"/><g class="errorbars"/><g class="lines"><path class="js-line" d="M14.49,16V21.07H22.89V26.13H33.18V31.2H35.15V36.27H45.04V41.33H55.14V46.4H59.1V51.47H69.97V56.53H72.17V61.6H75.59V66.67H81.57V71.73H85.08V76.8H90.88V81.87H100.98V86.93H107.25V92H112.73V97.07H113.7V102.13H116.15V107.2H119.93V112.27H124.21V117.33H126.79V122.4H127.06V127.47H134.24V132.53H141.99V137.6H145.75V142.67H156.75V147.73H157.41V152.8H158.65V157.87H165.56V162.93H169.21V168H170.45V173.07H182.68V178.13H194.25V183.2H194.52V188.27H211.62V193.33H212.84V198.4H221.59V203.47H226.41V208.53H227.43V213.6H228.83V218.67H230.78V223.73H235.29V228.8H243.94V233.87H245.23V238.93H259.13V244H262.94V249.07H275.82V254.13H276.21V259.2H281.39V264.27H294.03V269.33H301.03V274.4H336.51V279.47H351.48V284.53H352.84V289.6H358.07V294.67H369.82V299.73H403.63V304.8H446.98V309.87H469.03V314.93H502.64" style="vector-effect: non-scaling-stroke; fill: none; stroke: rgb(99, 110, 250); stroke-opacity: 1; stroke-width: 2px; opacity: 1; stroke-dasharray: 9px, 9px;"/></g><g class="points"/><g class="text"/></g><g class="trace scatter trace7aafba" style="stroke-miterlimit: 2; opacity: 1;"><g class="fills"/><g class="errorbars"/><g class="lines"><path class="js-line" d="M255.1,16V21.07H260.38V26.13H267.56V31.2H270.73V36.27H292.62V41.33H310.79V46.4H313.44V51.47H342.04V56.53H351.84V61.6H358.79V66.67H382.14V71.73H385.24V76.8H388.32V81.87H392.47V86.93H402.57V92H407.84V97.07H413.91V102.13H423.99V107.2H425.69V112.27H427.3V117.33H436.49V122.4H439.44V127.47H456.83V132.53H460.63V137.6H462.85V142.67H463.28V147.73H467.56V152.8H480.38V157.87H482.76V162.93H493.47V168H503.2V173.07H505.13V178.13H505.9V183.2H508.44V188.27H522.75V193.33H533.84V198.4H537.94V203.47H549.4V208.53H549.92V213.6H551.51V218.67H570.76V223.73H572.23V228.8H580.67V233.87H589.12V238.93H590.3V244H601.69V249.07H609.3V254.13H617.52V259.2H624.72V264.27H632.8V269.33H635.18V274.4H636.13V279.47H656.51V284.53H665.96V289.6H671.82V294.67H713.72V299.73H718.18V304.8H742.43V309.87H769.02V314.93H773.52" style="vector-effect: non-scaling-stroke; fill: none; stroke: rgb(239, 85, 59); stroke-opacity: 1; stroke-width: 2px; opacity: 1;"/></g><g class="points"/><g class="text"/></g><g class="trace scatter traceb2001a" style="stroke-miterlimit: 2; opacity: 1;"><g class="fills"/><g class="errorbars"/><g class="lines"><path class="js-line" d="M316.13,16V21.07H320.03V26.13H333.09V31.2H402.39V36.27H424.04V41.33H447.9V46.4H448.86V51.47H454.79V56.53H463.64V61.6H480.22V66.67H483.12V71.73H495.17V76.8H501.94V81.87H504.65V86.93H519.89V92H531.24V97.07H531.96V102.13H542.38V107.2H544.8V112.27H552.78V117.33H572.18V122.4H573.75V127.47H576.3V132.53H578.7V137.6H578.93V142.67H580.81V147.73H584.62V152.8H589.44V157.87H591.68V162.93H619.53V168H631.56V173.07H632.33V178.13H634.39V183.2H647.25V188.27H654.09V193.33H656.54V198.4H661.25V203.47H663.42V208.53H665.26V213.6H669.49V218.67H671.17V223.73H675.56V228.8H683.87V233.87H697.28V238.93H702.82V244H703.89V249.07H715.62V254.13H716.41V259.2H773.25V264.27H780.27V269.33H783.8V274.4H785.23V279.47H790.51V284.53H792.07V289.6H803.1V294.67H816.37V299.73H835.55V304.8H851.15V309.87H868.52V314.93H876.11" style="vector-effect: non-scaling-stroke; fill: none; stroke: rgb(239, 85, 59); stroke-opacity: 1; stroke-width: 2px; opacity: 1; stroke-dasharray: 3px, 3px;"/></g><g class="points"/><g class="text"/></g><g class="trace scatter trace57b6ec" style="stroke-miterlimit: 2; opacity: 1;"><g class="fills"/><g class="errorbars"/><g class="lines"><path class="js-line" d="M265.29,16V21.07H271.77V26.13H274.19V31.2H293.73V36.27H294.14V41.33H294.21V46.4H313.8V51.47H320.39V56.53H334.29V61.6H347.81V66.67H354.15V71.73H363.53V76.8H368.28V81.87H371.32V86.93H374.85V92H390.39V97.07H395.96V102.13H396.3V107.2H400.98V112.27H404.18V117.33H409.29V122.4H413.76V127.47H414.53V132.53H414.77V137.6H416.68V142.67H418.17V147.73H418.69V152.8H419.03V157.87H422.86V162.93H431.53V168H436.9V173.07H452.77V178.13H477.09V183.2H479.47V188.27H482.35V193.33H484.36V198.4H507.03V203.47H512.96V208.53H514.1V213.6H536.34V218.67H554.02V223.73H556.31V228.8H557.64V233.87H566.7V238.93H588.65V244H597.12V249.07H604.52V254.13H637.63V259.2H642.95V264.27H646.62V269.33H647.34V274.4H673.57V279.47H676.17V284.53H676.53V289.6H677.03V294.67H693.04V299.73H697.84V304.8H704.84V309.87H777.35V314.93H796.19" style="vector-effect: non-scaling-stroke; fill: none; stroke: rgb(239, 85, 59); stroke-opacity: 1; stroke-width: 2px; opacity: 1; stroke-dasharray: 9px, 9px;"/></g><g class="points"/><g class="text"/></g><g class="trace scatter trace63a047" style="stroke-miterlimit: 2; opacity: 1;"><g class="fills"/><g class="errorbars"/><g class="lines"><path class="js-line" d="M464.21,16V21.07H467.97V26.13H483.28V31.2H527.78V36.27H566.7V41.33H571.28V46.4H573.68V51.47H589.21V56.53H589.57V61.6H590.62V66.67H597.07V71.73H602.78V76.8H611.56V81.87H615.64V86.93H624.24V92H648.02V97.07H654.09V102.13H656.15V107.2H658.85V112.27H658.89V117.33H671.82V122.4H677.82V127.47H681.13V132.53H682.58V137.6H685.36V142.67H685.41V147.73H685.68V152.8H685.8V157.87H688.56V162.93H696.21V168H702.69V173.07H706.33V178.13H711.59V183.2H717.27V188.27H719.24V193.33H720.15V198.4H720.83V203.47H728.19V208.53H729.5V213.6H732.06V218.67H732.74V223.73H753.71V228.8H755.81V233.87H760.34V238.93H761.91V244H764.22V249.07H778.53V254.13H789.94V259.2H796.64V264.27H800.25V269.33H806.74V274.4H812.11V279.47H822.8V284.53H831.16V289.6H832.76V294.67H835.91V299.73H844.2V304.8H866.82V309.87H867.82V314.93H868.68" style="vector-effect: non-scaling-stroke; fill: none; stroke: rgb(0, 204, 150); stroke-opacity: 1; stroke-width: 2px; opacity: 1;"/></g><g class="points"/><g class="text"/></g><g class="trace scatter trace319b73" style="stroke-miterlimit: 2; opacity: 1;"><g class="fills"/><g class="errorbars"/><g class="lines"><path class="js-line" d="M477.8,16V21.07H508.07V26.13H542.36V31.2H590.03V36.27H604.93V41.33H609.57V46.4H616.09V51.47H623.75V56.53H630.99V61.6H640.28V66.67H649.06V71.73H659.89V76.8H668.88V81.87H671.32V86.93H676.28V92H688.24V97.07H692.72V102.13H692.79V107.2H697.8V112.27H710.98V117.33H712.79V122.4H717.88V127.47H721.69V132.53H734.51V137.6H735.84V142.67H740.12V147.73H743.77V152.8H751.24V157.87H754.5V162.93H758.62V168H770.76V173.07H773.75V178.13H775.47V183.2H777.96V188.27H781.38V193.33H782.94V198.4H799.97V203.47H802.08V208.53H803.12V213.6H803.8V218.67H813.79V223.73H814.65V228.8H814.85V233.87H816.39V238.93H818.63V244H824.82V249.07H841.3V254.13H849.02V259.2H849.7V264.27H850.59V269.33H857.24V274.4H858.78V279.47H859.4V284.53H860.96V289.6H861.5V294.67H864.54V299.73H866.94V304.8H870.02V309.87H885.55V314.93H887" style="vector-effect: non-scaling-stroke; fill: none; stroke: rgb(0, 204, 150); stroke-opacity: 1; stroke-width: 2px; opacity: 1; stroke-dasharray: 3px, 3px;"/></g><g class="points"/><g class="text"/></g><g class="trace scatter trace5fbac9" style="stroke-miterlimit: 2; opacity: 1;"><g class="fills"/><g class="errorbars"/><g class="lines"><path class="js-line" d="M459.02,16V21.07H515.52V26.13H518.83V31.2H522.77V36.27H530.31V41.33H537.42V46.4H562.47V51.47H565.39V56.53H570.26V61.6H571.07V66.67H581.06V71.73H590.12V76.8H600.31V81.87H602.03V86.93H623.81V92H629.75V97.07H633.23V102.13H636.45V107.2H638.78V112.27H639.01V117.33H643.47V122.4H644.06V127.47H674.36V132.53H682.4V137.6H690.08V142.67H690.62V147.73H697.66V152.8H698.68V157.87H715.62V162.93H716.71V168H719.56V173.07H722.53V178.13H724.43V183.2H724.93V188.27H734.44V193.33H742.3V198.4H744.38V203.47H747.73V208.53H748.64V213.6H757.51V218.67H758.37V223.73H759.44V228.8H760.07V233.87H761.14V238.93H768.95V244H770.92V249.07H772.05V254.13H772.55V259.2H775.56V264.27H776.97V269.33H778.82V274.4H786.79V279.47H791.32V284.53H791.69V289.6H792.89V294.67H793.95V299.73H796.58V304.8H801.08V309.87H818.04V314.93H836.46" style="vector-effect: non-scaling-stroke; fill: none; stroke: rgb(0, 204, 150); stroke-opacity: 1; stroke-width: 2px; opacity: 1; stroke-dasharray: 9px, 9px;"/></g><g class="points"/><g class="text"/></g></g></g><g class="overplot"/><path class="xlines-above crisp" d="M0,0" style="fill: none;"/><path class="ylines-above crisp" d="M0,0" style="fill: none;"/><g class="overlines-above"/><g class="xaxislayer-above"><g class="xtick"><text text-anchor="middle" x="0" y="433" transform="translate(142.43,0)" style="font-family: 'Open Sans', verdana, arial, sans-serif; font-size: 12px; fill: rgb(42, 63, 95); fill-opacity: 1; white-space: pre; opacity: 1;">5000</text></g><g class="xtick"><text text-anchor="middle" x="0" y="433" style="font-family: 'Open Sans', verdana, arial, sans-serif; font-size: 12px; fill: rgb(42, 63, 95); fill-opacity: 1; white-space: pre; opacity: 1;" transform="translate(255.66,0)">5500</text></g><g class="xtick"><text text-anchor="middle" x="0" y="433" style="font-family: 'Open Sans', verdana, arial, sans-serif; font-size: 12px; fill: rgb(42, 63, 95); fill-opacity: 1; white-space: pre; opacity: 1;" transform="translate(368.89,0)">6000</text></g><g class="xtick"><text text-anchor="middle" x="0" y="433" style="font-family: 'Open Sans', verdana, arial, sans-serif; font-size: 12px; fill: rgb(42, 63, 95); fill-opacity: 1; white-space: pre; opacity: 1;" transform="translate(482.12,0)">6500</text></g><g class="xtick"><text text-anchor="middle" x="0" y="433" style="font-family: 'Open Sans', verdana, arial, sans-serif; font-size: 12px; fill: rgb(42, 63, 95); fill-opacity: 1; white-space: pre; opacity: 1;" transform="translate(595.34,0)">7000</text></g><g class="xtick"><text text-anchor="middle" x="0" y="433" style="font-family: 'Open Sans', verdana, arial, sans-serif; font-size: 12px; fill: rgb(42, 63, 95); fill-opacity: 1; white-space: pre; opacity: 1;" transform="translate(708.57,0)">7500</text></g><g class="xtick"><text text-anchor="middle" x="0" y="433" style="font-family: 'Open Sans', verdana, arial, sans-serif; font-size: 12px; fill: rgb(42, 63, 95); fill-opacity: 1; white-space: pre; opacity: 1;" transform="translate(821.8,0)">8000</text></g><g class="xtick"><text text-anchor="middle" x="0" y="433" style="font-family: 'Open Sans', verdana, arial, sans-serif; font-size: 12px; fill: rgb(42, 63, 95); fill-opacity: 1; white-space: pre; opacity: 1;" transform="translate(935.02,0)">8500</text></g></g><g class="yaxislayer-above"><g class="ytick"><text text-anchor="end" x="79" y="4.199999999999999" transform="translate(0,420)" style="font-family: 'Open Sans', verdana, arial, sans-serif; font-size: 12px; fill: rgb(42, 63, 95); fill-opacity: 1; white-space: pre; opacity: 1;">0</text></g><g class="ytick"><text text-anchor="end" x="79" y="4.199999999999999" style="font-family: 'Open Sans', verdana, arial, sans-serif; font-size: 12px; fill: rgb(42, 63, 95); fill-opacity: 1; white-space: pre; opacity: 1;" transform="translate(0,359.2)">0.2</text></g><g class="ytick"><text text-anchor="end" x="79" y="4.199999999999999" style="font-family: 'Open Sans', verdana, arial, sans-serif; font-size: 12px; fill: rgb(42, 63, 95); fill-opacity: 1; white-space: pre; opacity: 1;" transform="translate(0,298.4)">0.4</text></g><g class="ytick"><text text-anchor="end" x="79" y="4.199999999999999" style="font-family: 'Open Sans', verdana, arial, sans-serif; font-size: 12px; fill: rgb(42, 63, 95); fill-opacity: 1; white-space: pre; opacity: 1;" transform="translate(0,237.6)">0.6</text></g><g class="ytick"><text text-anchor="end" x="79" y="4.199999999999999" style="font-family: 'Open Sans', verdana, arial, sans-serif; font-size: 12px; fill: rgb(42, 63, 95); fill-opacity: 1; white-space: pre; opacity: 1;" transform="translate(0,176.8)">0.8</text></g><g class="ytick"><text text-anchor="end" x="79" y="4.199999999999999" style="font-family: 'Open Sans', verdana, arial, sans-serif; font-size: 12px; fill: rgb(42, 63, 95); fill-opacity: 1; white-space: pre; opacity: 1;" transform="translate(0,116)">1</text></g></g><g class="overaxes-above"/></g></g><g class="polarlayer"/><g class="smithlayer"/><g class="ternarylayer"/><g class="geolayer"/><g class="funnelarealayer"/><g class="pielayer"/><g class="iciclelayer"/><g class="treemaplayer"/><g class="sunburstlayer"/><g class="glimages"/><defs id="topdefs-98a950"><g class="clips"/><clipPath id="legend98a950"><rect width="203" height="200" x="0" y="0"/></clipPath></defs><g class="layer-above"><g class="imagelayer"/><g class="shapelayer"/></g><g class="infolayer"><g class="legend" pointer-events="all" transform="translate(984.74,100)"><rect class="bg" shape-rendering="crispEdges" width="203" height="200" x="0" y="0" style="stroke: rgb(68, 68, 68); stroke-opacity: 1; fill: rgb(255, 255, 255); fill-opacity: 1; stroke-width: 0px;"/><g class="scrollbox" transform="" clip-path="url(#legend98a950)"><text class="legendtitletext" text-anchor="start" x="2" y="18.2" style="font-family: 'Open Sans', verdana, arial, sans-serif; font-size: 14px; fill: rgb(42, 63, 95); fill-opacity: 1; white-space: pre;">Min Snr Used (dB), ILP Type</text><g class="groups" transform=""><g class="traces" transform="translate(0,32.7)" style="opacity: 1;"><text class="legendtext" text-anchor="start" x="40" y="4.680000000000001" style="font-family: 'Open Sans', verdana, arial, sans-serif; font-size: 12px; fill: rgb(42, 63, 95); fill-opacity: 1; white-space: pre;">5, Fixed</text><g class="layers" style="opacity: 1;"><g class="legendfill"/><g class="legendlines"><path class="js-line" d="M5,0h30" style="fill: none; stroke: rgb(99, 110, 250); stroke-opacity: 1; stroke-width: 2px;"/></g><g class="legendsymbols"><g class="legendpoints"/></g></g><rect class="legendtoggle" x="0" y="-9.5" width="109.265625" height="19" style="fill: rgb(0, 0, 0); fill-opacity: 0;"/></g></g><g class="groups" transform=""><g class="traces" transform="translate(0,51.7)" style="opacity: 1;"><text class="legendtext" text-anchor="start" x="40" y="4.680000000000001" style="font-family: 'Open Sans', verdana, arial, sans-serif; font-size: 12px; fill: rgb(42, 63, 95); fill-opacity: 1; white-space: pre;">5, Single</text><g class="layers" style="opacity: 1;"><g class="legendfill"/><g class="legendlines"><path class="js-line" d="M5,0h30" style="fill: none; stroke: rgb(99, 110, 250); stroke-opacity: 1; stroke-dasharray: 3px, 3px; stroke-width: 2px;"/></g><g class="legendsymbols"><g class="legendpoints"/></g></g><rect class="legendtoggle" x="0" y="-9.5" width="109.265625" height="19" style="fill: rgb(0, 0, 0); fill-opacity: 0;"/></g></g><g class="groups" transform=""><g class="traces" transform="translate(0,70.7)" style="opacity: 1;"><text class="legendtext" text-anchor="start" x="40" y="4.680000000000001" style="font-family: 'Open Sans', verdana, arial, sans-serif; font-size: 12px; fill: rgb(42, 63, 95); fill-opacity: 1; white-space: pre;">5, Varying</text><g class="layers" style="opacity: 1;"><g class="legendfill"/><g class="legendlines"><path class="js-line" d="M5,0h30" style="fill: none; stroke: rgb(99, 110, 250); stroke-opacity: 1; stroke-dasharray: 9px, 9px; stroke-width: 2px;"/></g><g class="legendsymbols"><g class="legendpoints"/></g></g><rect class="legendtoggle" x="0" y="-9.5" width="109.265625" height="19" style="fill: rgb(0, 0, 0); fill-opacity: 0;"/></g></g><g class="groups" transform=""><g class="traces" transform="translate(0,89.7)" style="opacity: 1;"><text class="legendtext" text-anchor="start" x="40" y="4.680000000000001" style="font-family: 'Open Sans', verdana, arial, sans-serif; font-size: 12px; fill: rgb(42, 63, 95); fill-opacity: 1; white-space: pre;">10, Fixed</text><g class="layers" style="opacity: 1;"><g class="legendfill"/><g class="legendlines"><path class="js-line" d="M5,0h30" style="fill: none; stroke: rgb(239, 85, 59); stroke-opacity: 1; stroke-width: 2px;"/></g><g class="legendsymbols"><g class="legendpoints"/></g></g><rect class="legendtoggle" x="0" y="-9.5" width="109.265625" height="19" style="fill: rgb(0, 0, 0); fill-opacity: 0;"/></g></g><g class="groups" transform=""><g class="traces" transform="translate(0,108.7)" style="opacity: 1;"><text class="legendtext" text-anchor="start" x="40" y="4.680000000000001" style="font-family: 'Open Sans', verdana, arial, sans-serif; font-size: 12px; fill: rgb(42, 63, 95); fill-opacity: 1; white-space: pre;">10, Single</text><g class="layers" style="opacity: 1;"><g class="legendfill"/><g class="legendlines"><path class="js-line" d="M5,0h30" style="fill: none; stroke: rgb(239, 85, 59); stroke-opacity: 1; stroke-dasharray: 3px, 3px; stroke-width: 2px;"/></g><g class="legendsymbols"><g class="legendpoints"/></g></g><rect class="legendtoggle" x="0" y="-9.5" width="109.265625" height="19" style="fill: rgb(0, 0, 0); fill-opacity: 0;"/></g></g><g class="groups" transform=""><g class="traces" transform="translate(0,127.7)" style="opacity: 1;"><text class="legendtext" text-anchor="start" x="40" y="4.680000000000001" style="font-family: 'Open Sans', verdana, arial, sans-serif; font-size: 12px; fill: rgb(42, 63, 95); fill-opacity: 1; white-space: pre;">10, Varying</text><g class="layers" style="opacity: 1;"><g class="legendfill"/><g class="legendlines"><path class="js-line" d="M5,0h30" style="fill: none; stroke: rgb(239, 85, 59); stroke-opacity: 1; stroke-dasharray: 9px, 9px; stroke-width: 2px;"/></g><g class="legendsymbols"><g class="legendpoints"/></g></g><rect class="legendtoggle" x="0" y="-9.5" width="109.265625" height="19" style="fill: rgb(0, 0, 0); fill-opacity: 0;"/></g></g><g class="groups" transform=""><g class="traces" transform="translate(0,146.7)" style="opacity: 1;"><text class="legendtext" text-anchor="start" x="40" y="4.680000000000001" style="font-family: 'Open Sans', verdana, arial, sans-serif; font-size: 12px; fill: rgb(42, 63, 95); fill-opacity: 1; white-space: pre;">15, Fixed</text><g class="layers" style="opacity: 1;"><g class="legendfill"/><g class="legendlines"><path class="js-line" d="M5,0h30" style="fill: none; stroke: rgb(0, 204, 150); stroke-opacity: 1; stroke-width: 2px;"/></g><g class="legendsymbols"><g class="legendpoints"/></g></g><rect class="legendtoggle" x="0" y="-9.5" width="109.265625" height="19" style="fill: rgb(0, 0, 0); fill-opacity: 0;"/></g></g><g class="groups" transform=""><g class="traces" transform="translate(0,165.7)" style="opacity: 1;"><text class="legendtext" text-anchor="start" x="40" y="4.680000000000001" style="font-family: 'Open Sans', verdana, arial, sans-serif; font-size: 12px; fill: rgb(42, 63, 95); fill-opacity: 1; white-space: pre;">15, Single</text><g class="layers" style="opacity: 1;"><g class="legendfill"/><g class="legendlines"><path class="js-line" d="M5,0h30" style="fill: none; stroke: rgb(0, 204, 150); stroke-opacity: 1; stroke-dasharray: 3px, 3px; stroke-width: 2px;"/></g><g class="legendsymbols"><g class="legendpoints"/></g></g><rect class="legendtoggle" x="0" y="-9.5" width="109.265625" height="19" style="fill: rgb(0, 0, 0); fill-opacity: 0;"/></g></g><g class="groups" transform=""><g class="traces" transform="translate(0,184.7)" style="opacity: 1;"><text class="legendtext" text-anchor="start" x="40" y="4.680000000000001" style="font-family: 'Open Sans', verdana, arial, sans-serif; font-size: 12px; fill: rgb(42, 63, 95); fill-opacity: 1; white-space: pre;">15, Varying</text><g class="layers" style="opacity: 1;"><g class="legendfill"/><g class="legendlines"><path class="js-line" d="M5,0h30" style="fill: none; stroke: rgb(0, 204, 150); stroke-opacity: 1; stroke-dasharray: 9px, 9px; stroke-width: 2px;"/></g><g class="legendsymbols"><g class="legendpoints"/></g></g><rect class="legendtoggle" x="0" y="-9.5" width="109.265625" height="19" style="fill: rgb(0, 0, 0); fill-opacity: 0;"/></g></g></g><rect class="scrollbar" rx="20" ry="3" width="0" height="0" x="0" y="0" style="fill: rgb(128, 139, 164); fill-opacity: 1;"/></g><g class="g-gtitle"><text class="gtitle" x="60" y="50" text-anchor="start" dy="0em" style="font-family: 'Open Sans', verdana, arial, sans-serif; font-size: 17px; fill: rgb(42, 63, 95); opacity: 1; font-weight: normal; white-space: pre;">Packets sent to each UE DL - CDF</text></g><g class="g-xtitle"><text class="xtitle" x="523.5" y="460.8" text-anchor="middle" style="font-family: 'Open Sans', verdana, arial, sans-serif; font-size: 14px; fill: rgb(42, 63, 95); opacity: 1; font-weight: normal; white-space: pre;">Number of Packets Sent</text></g><g class="g-ytitle"><text class="ytitle" transform="rotate(-90,34.575,260)" x="34.575" y="260" text-anchor="middle" style="font-family: 'Open Sans', verdana, arial, sans-serif; font-size: 14px; fill: rgb(42, 63, 95); opacity: 1; font-weight: normal; white-space: pre;">probability</text></g><g class="annotation" data-index="0" style="opacity: 1;"><g class="annotation-text-g" transform="rotate(0,523.5,90.5)"><g class="cursor-pointer" transform="translate(491,81)"><rect class="bg" x="0.5" y="0.5" width="65" height="18" style="stroke-width: 1px; stroke: rgb(0, 0, 0); stroke-opacity: 0; fill: rgb(0, 0, 0); fill-opacity: 0;"/><text class="annotation-text" text-anchor="middle" x="32.703125" y="14" style="font-family: 'Open Sans', verdana, arial, sans-serif; font-size: 12px; fill: rgb(42, 63, 95); fill-opacity: 1; white-space: pre;">Power=30</text></g></g></g></g></svg>