<svg class="main-svg" xmlns="http://www.w3.org/2000/svg" xmlns:xlink="http://www.w3.org/1999/xlink" width="1200" height="500" style="" viewBox="0 0 1200 500"><rect x="0" y="0" width="1200" height="500" style="fill: rgb(255, 255, 255); fill-opacity: 1;"/><defs id="defs-e04b5a"><g class="clips"><clipPath id="clipe04b5axyplot" class="plotclip"><rect width="887" height="320"/></clipPath><clipPath class="axesclip" id="clipe04b5ax"><rect x="80" y="0" width="887" height="500"/></clipPath><clipPath class="axesclip" id="clipe04b5ay"><rect x="0" y="100" width="1200" height="320"/></clipPath><clipPath class="axesclip" id="clipe04b5axy"><rect x="80" y="100" width="887" height="320"/></clipPath></g><g class="gradients"/><g class="patterns"/></defs><g class="bglayer"><rect class="bg" x="80" y="100" width="887" height="320" style="fill: rgb(229, 236, 246); fill-opacity: 1; stroke-width: 0;"/></g><g class="layer-below"><g class="imagelayer"/><g class="shapelayer"/></g><g class="cartesianlayer"><g class="subplot xy"><g class="layer-subplot"><g class="shapelayer"/><g class="imagelayer"/></g><g class="minor-gridlayer"><g class="x"/><g class="y"/></g><g class="gridlayer"><g class="x"><path class="xgrid crisp" transform="translate(213.13,0)" d="M0,100v320" style="stroke: rgb(255, 255, 255); stroke-opacity: 1; stroke-width: 1px;"/><path class="xgrid crisp" transform="translate(395.29,0)" d="M0,100v320" style="stroke: rgb(255, 255, 255); stroke-opacity: 1; stroke-width: 1px;"/><path class="xgrid crisp" transform="translate(577.46,0)" d="M0,100v320" style="stroke: rgb(255, 255, 255); stroke-opacity: 1; stroke-width: 1px;"/><path class="xgrid crisp" transform="translate(759.62,0)" d="M0,100v320" style="stroke: rgb(255, 255, 255); stroke-opacity: 1; stroke-width: 1px;"/><path class="xgrid crisp" transform="translate(941.79,0)" d="M0,100v320" style="stroke: rgb(255, 255, 255); stroke-opacity: 1; stroke-width: 1px;"/></g><g class="y"><path class="ygrid crisp" transform="translate(0,359.2)" d="M80,0h887" style="stroke: rgb(255, 255, 255); stroke-opacity: 1; stroke-width: 1px;"/><path class="ygrid crisp" transform="translate(0,298.4)" d="M80,0h887" style="stroke: rgb(255, 255, 255); stroke-opacity: 1; stroke-width: 1px;"/><path class="ygrid crisp" transform="translate(0,237.6)" d="M80,0h887" style="stroke: rgb(255, 255, 255); stroke-opacity: 1; stroke-width: 1px;"/><path class="ygrid crisp" transform="translate(0,176.8)" d="M80,0h887" style="stroke: rgb(255, 255, 255); stroke-opacity: 1; stroke-width: 1px;"/><path class="ygrid crisp" transform="translate(0,116)" d="M80,0h887" style="stroke: rgb(255, 255, 255); stroke-opacity: 1; stroke-width: 1px;"/></g></g><g class="zerolinelayer"><path class="yzl zl crisp" transform="translate(0,420)" d="M80,0h887" style="stroke: rgb(255, 255, 255); stroke-opacity: 1; stroke-width: 2px;"/></g><path class="xlines-below"/><path class="ylines-below"/><g class="overlines-below"/><g class="xaxislayer-below"/><g class="yaxislayer-below"/><g class="overaxes-below"/><g class="plot" transform="translate(80,100)" clip-path="url(#clipe04b5axyplot)"><g class="scatterlayer mlayer"><g class="trace scatter trace1025bd" style="stroke-miterlimit: 2; opacity: 1;"><g class="fills"/><g class="errorbars"/><g class="lines"><path class="js-line" d="M9.62,16V21.07H53.96V26.13H62.01V31.2H73.08V36.27H75.45V41.33H100.34V46.4H103.03V51.47H115.35V56.53H121.36V61.6H123.25V66.67H127.52V71.73H135.75V76.8H137.06V81.87H137.75V86.93H141.14V92H143.73V97.07H149.16V102.13H160.6V107.2H170.03V112.27H178.74V117.33H183.08V122.4H184.28V127.47H187.56V132.53H189.78V137.6H191.93V142.67H201.29V147.73H202.97V152.8H205.77V157.87H205.92V162.93H206.1V168H212.33V173.07H219.51V178.13H220.38V183.2H221.26V188.27H221.48V193.33H222.79V198.4H228.14V203.47H234.12V208.53H234.19V213.6H235.18V218.67H235.28V223.73H237.29V228.8H241.19V233.87H249.2V238.93H262.14V244H264.1V249.07H265.01V254.13H268.51V259.2H273.9V264.27H279.95V269.33H283.7V274.4H295.73V279.47H308.66V284.53H322.83V289.6H324.07V294.67H329.17V299.73H349.94V304.8H352.27V309.87H392.06V314.93H396.36" style="vector-effect: non-scaling-stroke; fill: none; stroke: rgb(99, 110, 250); stroke-opacity: 1; stroke-width: 2px; opacity: 1;"/></g><g class="points"/><g class="text"/></g><g class="trace scatter tracec832bb" style="stroke-miterlimit: 2; opacity: 1;"><g class="fills"/><g class="errorbars"/><g class="lines"><path class="js-line" d="M84.63,16V21.07H137.79V26.13H158.7V31.2H158.96V36.27H159.29V41.33H165.15V46.4H166.39V51.47H176.08V56.53H179.87V61.6H186.28V66.67H189.78V71.73H200.53V76.8H202.82V81.87H204.64V86.93H208.22V92H209.85V97.07H216.34V102.13H219.58V107.2H222.21V112.27H223.84V117.33H230.59V122.4H234.16V127.47H235.69V132.53H238.35V137.6H244.61V142.67H246.98V147.73H248.62V152.8H251.93V157.87H252.15V162.93H252.15V168H252.66V173.07H252.74V178.13H253.43V183.2H253.47V188.27H255.29V193.33H266.65V198.4H271.61V203.47H272.19V208.53H279.81V213.6H283.01V218.67H283.12V223.73H293.18V228.8H293.21V233.87H295.62V238.93H299.44V244H300.5V249.07H301.81V254.13H306.29V259.2H313.18V264.27H322.94V269.33H345.31V274.4H349.98V279.47H357.85V284.53H372.46V289.6H380.03V294.67H383.97V299.73H384.41V304.8H387.5V309.87H410.64V314.93H474.91" style="vector-effect: non-scaling-stroke; fill: none; stroke: rgb(99, 110, 250); stroke-opacity: 1; stroke-width: 2px; opacity: 1; stroke-dasharray: 3px, 3px;"/></g><g class="points"/><g class="text"/></g><g class="trace scatter tracee18384" style="stroke-miterlimit: 2; opacity: 1;"><g class="fills"/><g class="errorbars"/><g class="lines"><path class="js-line" d="M0,16V21.07H16.07V26.13H51.26V31.2H58.44V36.27H69.3V41.33H72.47V46.4H91.81V51.47H93.49V56.53H102.45V61.6H102.78V66.67H105.58V71.73H116.11V76.8H121.32V81.87H123.51V86.93H127.88V92H129.08V97.07H129.96V102.13H131.27V107.2H139.9V112.27H140.6V117.33H142.31V122.4H148.72V127.47H157.54V132.53H158.37V137.6H160.82V142.67H163.26V147.73H169.67V152.8H172.66V157.87H177.83V162.93H179.25V168H179.83V173.07H182.13V178.13H185.19V183.2H186.25V188.27H186.54V193.33H187.38V198.4H191.27V203.47H197.43V208.53H198.63V213.6H218.05V218.67H224.83V223.73H229.24V228.8H229.86V233.87H230.69V238.93H235.03V244H236.49V249.07H243.45V254.13H244.9V259.2H249.17V264.27H253.76V269.33H256.53V274.4H265.52V279.47H280.94V284.53H297.91V289.6H299.44V294.67H310.41V299.73H311.69V304.8H312.78V309.87H332.42V314.93H375.04" style="vector-effect: non-scaling-stroke; fill: none; stroke: rgb(99, 110, 250); stroke-opacity: 1; stroke-width: 2px; opacity: 1; stroke-dasharray: 9px, 9px;"/></g><g class="points"/><g class="text"/></g><g class="trace scatter trace337fd0" style="stroke-miterlimit: 2; opacity: 1;"><g class="fills"/><g class="errorbars"/><g class="lines"><path class="js-line" d="M103.32,16V21.07H149.45V26.13H225.78V31.2H232.41V36.27H238.13V41.33H253.47V46.4H262.17V51.47H294.27V56.53H299.01V61.6H300.57V66.67H302.47V71.73H304.54V76.8H304.98V81.87H318.75V86.93H320.87V92H325.09V97.07H330.81V102.13H332.49V107.2H332.78V112.27H337.37V117.33H340.61V122.4H343.16V127.47H346.44V132.53H347.9V137.6H354.28V142.67H355.33V147.73H355.88V152.8H356.39V157.87H358.47V162.93H358.57V168H362.25V173.07H365.86V178.13H365.9V183.2H369.72V188.27H376.46V193.33H376.57V198.4H386.96V203.47H389.54V208.53H389.98V213.6H393.48V218.67H395.3V223.73H399.56V228.8H407.36V233.87H408.16V238.93H422.33V244H424.81V249.07H432.39V254.13H441.42V259.2H445.21V264.27H459.79V269.33H466.6V274.4H478.33V279.47H484.45V284.53H490.17V289.6H504.16V294.67H520.63V299.73H535.35V304.8H572.22V309.87H584.13V314.93H661.81" style="vector-effect: non-scaling-stroke; fill: none; stroke: rgb(239, 85, 59); stroke-opacity: 1; stroke-width: 2px; opacity: 1;"/></g><g class="points"/><g class="text"/></g><g class="trace scatter trace13c257" style="stroke-miterlimit: 2; opacity: 1;"><g class="fills"/><g class="errorbars"/><g class="lines"><path class="js-line" d="M142.23,16V21.07H157.79V26.13H189.45V31.2H233.17V36.27H235.39V41.33H248.84V46.4H252.41V51.47H261.59V56.53H264.76V61.6H269.35V66.67H279.19V71.73H279.19V76.8H280.35V81.87H280.83V86.93H283.01V92H283.7V97.07H287.42V102.13H289.5V107.2H290.88V112.27H308.92V117.33H310.23V122.4H314.89V127.47H318.5V132.53H323.89V137.6H333.22V142.67H339.63V147.73H340.65V152.8H341.56V157.87H347.9V162.93H350.16V168H357.63V173.07H358.47V178.13H364.11V183.2H364.48V188.27H370.34V193.33H370.85V198.4H380.22V203.47H394.83V208.53H395.34V213.6H398.21V218.67H401.16V223.73H401.2V228.8H403.5V233.87H406.3V238.93H411.84V244H413.59V249.07H423.06V254.13H432.1V259.2H453.59V264.27H459.02V269.33H459.89V274.4H463.17V279.47H470.21V284.53H483.87V289.6H484.45V294.67H485.76V299.73H533.38V304.8H542.82V309.87H563.29V314.93H577.03" style="vector-effect: non-scaling-stroke; fill: none; stroke: rgb(239, 85, 59); stroke-opacity: 1; stroke-width: 2px; opacity: 1; stroke-dasharray: 3px, 3px;"/></g><g class="points"/><g class="text"/></g><g class="trace scatter trace396074" style="stroke-miterlimit: 2; opacity: 1;"><g class="fills"/><g class="errorbars"/><g class="lines"><path class="js-line" d="M153.57,16V21.07H159.94V26.13H190.84V31.2H201.95V36.27H216.12V41.33H224.25V46.4H234.08V51.47H248.47V56.53H250.73V61.6H262.03V66.67H262.61V71.73H265.63V76.8H268.58V81.87H269.02V86.93H276.71V92H283.19V97.07H304.51V102.13H305.6V107.2H312.74V112.27H313.4V117.33H314.93V122.4H317.99V127.47H321.38V132.53H321.67V137.6H327.24V142.67H330.96V147.73H341.09V152.8H341.96V157.87H347.54V162.93H349.47V168H357.34V173.07H371.14V178.13H371.4V183.2H381.42V188.27H381.56V193.33H384.7V198.4H385.24V203.47H387.76V208.53H390.09V213.6H397.05V218.67H401.02V223.73H403.31V228.8H413.59V233.87H416.61V238.93H424.99V244H432.57V249.07H434.1V254.13H435.96V259.2H440.55V264.27H441.79V269.33H444.34V274.4H494.29V279.47H498.33V284.53H512.03V289.6H521.18V294.67H527.7V299.73H531.52V304.8H546.97V309.87H570.1V314.93H618.12" style="vector-effect: non-scaling-stroke; fill: none; stroke: rgb(239, 85, 59); stroke-opacity: 1; stroke-width: 2px; opacity: 1; stroke-dasharray: 9px, 9px;"/></g><g class="points"/><g class="text"/></g><g class="trace scatter traceca5a83" style="stroke-miterlimit: 2; opacity: 1;"><g class="fills"/><g class="errorbars"/><g class="lines"><path class="js-line" d="M352.78,16V21.07H377.01V26.13H388.05V31.2H394.53V36.27H400.95V41.33H408.31V46.4H412.02V51.47H416.65V56.53H418.4V61.6H419.82V66.67H427.29V71.73H433.59V76.8H463.06V81.87H473.81V86.93H474.29V92H494.14V97.07H512.5V102.13H512.61V107.2H513.6V112.27H516.73V117.33H523.87V122.4H535.27V127.47H549.19V132.53H553.75V137.6H553.89V142.67H556.95V147.73H563.62V152.8H566.1V157.87H568.83V162.93H571.2V168H573.75V173.07H574.95V178.13H577.9V183.2H586.28V188.27H586.54V193.33H591.93V198.4H593.93V203.47H596.88V208.53H600.09V213.6H627.45V218.67H629.42V223.73H630.26V228.8H634.3V233.87H640.75V238.93H641.22V244H643.34V249.07H643.95V254.13H647.45V259.2H656.31V264.27H661.33V269.33H662.72V274.4H673.1V279.47H677.8V284.53H702.25V289.6H710.34V294.67H757.7V299.73H787.1V304.8H788.63V309.87H804.92V314.93H887" style="vector-effect: non-scaling-stroke; fill: none; stroke: rgb(0, 204, 150); stroke-opacity: 1; stroke-width: 2px; opacity: 1;"/></g><g class="points"/><g class="text"/></g><g class="trace scatter tracea50cd1" style="stroke-miterlimit: 2; opacity: 1;"><g class="fills"/><g class="errorbars"/><g class="lines"><path class="js-line" d="M371.62,16V21.07H371.95V26.13H395.04V31.2H409.8V36.27H416.18V41.33H425.03V46.4H430.46V51.47H430.68V56.53H432.93V61.6H435.08V66.67H446.12V71.73H449.4V76.8H458.8V81.87H460.59V86.93H462.34V92H467.25V97.07H471.08V102.13H473.16V107.2H473.85V112.27H474.58V117.33H481.32V122.4H486.96V127.47H492.21V132.53H495.71V137.6H510.46V142.67H512.39V147.73H516.04V152.8H518.19V157.87H525.95V162.93H526.86V168H548.68V173.07H554.11V178.13H560.45V183.2H560.67V188.27H563.58V193.33H568.5V198.4H570.21V203.47H572.87V208.53H578.45V213.6H583.33V218.67H587.48V223.73H599.65V228.8H609.09V233.87H618.27V238.93H624.79V244H626.32V249.07H627.92V254.13H637.36V259.2H655.43V264.27H661.73V269.33H662.61V274.4H673.54V279.47H682.39V284.53H695.03V289.6H706.18V294.67H712.92V299.73H751.8V304.8H763.02V309.87H763.42V314.93H821.02" style="vector-effect: non-scaling-stroke; fill: none; stroke: rgb(0, 204, 150); stroke-opacity: 1; stroke-width: 2px; opacity: 1; stroke-dasharray: 3px, 3px;"/></g><g class="points"/><g class="text"/></g><g class="trace scatter trace2b076d" style="stroke-miterlimit: 2; opacity: 1;"><g class="fills"/><g class="errorbars"/><g class="lines"><path class="js-line" d="M310.85,16V21.07H312.23V26.13H317.81V31.2H330.08V36.27H376.86V41.33H386.23V46.4H422.22V51.47H424.08V56.53H427.14V61.6H429.11V66.67H434.87V71.73H447.07V76.8H447.22V81.87H456.54V86.93H461.57V92H461.64V97.07H467.22V102.13H470.57V107.2H472.32V112.27H480.26V117.33H483.72V122.4H484.92V127.47H486.71V132.53H487.44V137.6H501.14V142.67H502.23V147.73H502.49V152.8H506.82V157.87H516.69V162.93H519.14V168H520.67V173.07H521.83V178.13H521.9V183.2H523.54V188.27H525.47V193.33H529.48V198.4H531.45V203.47H532.32V208.53H548.76V213.6H550.36V218.67H570.69V223.73H578.59V228.8H579.36V233.87H590.84V238.93H593.97V244H594.48V249.07H596.7V254.13H599.29V259.2H622.02V264.27H623.15V269.33H626.43V274.4H629.64V279.47H662.86V284.53H664.25V289.6H665.6V294.67H667.89V299.73H692.3V304.8H712.01V309.87H738.17V314.93H769.1" style="vector-effect: non-scaling-stroke; fill: none; stroke: rgb(0, 204, 150); stroke-opacity: 1; stroke-width: 2px; opacity: 1; stroke-dasharray: 9px, 9px;"/></g><g class="points"/><g class="text"/></g></g></g><g class="overplot"/><path class="xlines-above crisp" d="M0,0" style="fill: none;"/><path class="ylines-above crisp" d="M0,0" style="fill: none;"/><g class="overlines-above"/><g class="xaxislayer-above"><g class="xtick"><text text-anchor="middle" x="0" y="433" transform="translate(213.13,0)" style="font-family: 'Open Sans', verdana, arial, sans-serif; font-size: 12px; fill: rgb(42, 63, 95); fill-opacity: 1; white-space: pre; opacity: 1;">1000</text></g><g class="xtick"><text text-anchor="middle" x="0" y="433" style="font-family: 'Open Sans', verdana, arial, sans-serif; font-size: 12px; fill: rgb(42, 63, 95); fill-opacity: 1; white-space: pre; opacity: 1;" transform="translate(395.29,0)">1500</text></g><g class="xtick"><text text-anchor="middle" x="0" y="433" style="font-family: 'Open Sans', verdana, arial, sans-serif; font-size: 12px; fill: rgb(42, 63, 95); fill-opacity: 1; white-space: pre; opacity: 1;" transform="translate(577.46,0)">2000</text></g><g class="xtick"><text text-anchor="middle" x="0" y="433" style="font-family: 'Open Sans', verdana, arial, sans-serif; font-size: 12px; fill: rgb(42, 63, 95); fill-opacity: 1; white-space: pre; opacity: 1;" transform="translate(759.62,0)">2500</text></g><g class="xtick"><text text-anchor="middle" x="0" y="433" style="font-family: 'Open Sans', verdana, arial, sans-serif; font-size: 12px; fill: rgb(42, 63, 95); fill-opacity: 1; white-space: pre; opacity: 1;" transform="translate(941.79,0)">3000</text></g></g><g class="yaxislayer-above"><g class="ytick"><text text-anchor="end" x="79" y="4.199999999999999" transform="translate(0,420)" style="font-family: 'Open Sans', verdana, arial, sans-serif; font-size: 12px; fill: rgb(42, 63, 95); fill-opacity: 1; white-space: pre; opacity: 1;">0</text></g><g class="ytick"><text text-anchor="end" x="79" y="4.199999999999999" style="font-family: 'Open Sans', verdana, arial, sans-serif; font-size: 12px; fill: rgb(42, 63, 95); fill-opacity: 1; white-space: pre; opacity: 1;" transform="translate(0,359.2)">0.2</text></g><g class="ytick"><text text-anchor="end" x="79" y="4.199999999999999" style="font-family: 'Open Sans', verdana, arial, sans-serif; font-size: 12px; fill: rgb(42, 63, 95); fill-opacity: 1; white-space: pre; opacity: 1;" transform="translate(0,298.4)">0.4</text></g><g class="ytick"><text text-anchor="end" x="79" y="4.199999999999999" style="font-family: 'Open Sans', verdana, arial, sans-serif; font-size: 12px; fill: rgb(42, 63, 95); fill-opacity: 1; white-space: pre; opacity: 1;" transform="translate(0,237.6)">0.6</text></g><g class="ytick"><text text-anchor="end" x="79" y="4.199999999999999" style="font-family: 'Open Sans', verdana, arial, sans-serif; font-size: 12px; fill: rgb(42, 63, 95); fill-opacity: 1; white-space: pre; opacity: 1;" transform="translate(0,176.8)">0.8</text></g><g class="ytick"><text text-anchor="end" x="79" y="4.199999999999999" style="font-family: 'Open Sans', verdana, arial, sans-serif; font-size: 12px; fill: rgb(42, 63, 95); fill-opacity: 1; white-space: pre; opacity: 1;" transform="translate(0,116)">1</text></g></g><g class="overaxes-above"/></g></g><g class="polarlayer"/><g class="smithlayer"/><g class="ternarylayer"/><g class="geolayer"/><g class="funnelarealayer"/><g class="pielayer"/><g class="iciclelayer"/><g class="treemaplayer"/><g class="sunburstlayer"/><g class="glimages"/><defs id="topdefs-e04b5a"><g class="clips"/><clipPath id="legende04b5a"><rect width="203" height="200" x="0" y="0"/></clipPath></defs><g class="layer-above"><g class="imagelayer"/><g class="shapelayer"/></g><g class="infolayer"><g class="legend" pointer-events="all" transform="translate(984.74,100)"><rect class="bg" shape-rendering="crispEdges" width="203" height="200" x="0" y="0" style="stroke: rgb(68, 68, 68); stroke-opacity: 1; fill: rgb(255, 255, 255); fill-opacity: 1; stroke-width: 0px;"/><g class="scrollbox" transform="" clip-path="url(#legende04b5a)"><text class="legendtitletext" text-anchor="start" x="2" y="18.2" style="font-family: 'Open Sans', verdana, arial, sans-serif; font-size: 14px; fill: rgb(42, 63, 95); fill-opacity: 1; white-space: pre;">Min Snr Used (dB), ILP Type</text><g class="groups" transform=""><g class="traces" transform="translate(0,32.7)" style="opacity: 1;"><text class="legendtext" text-anchor="start" x="40" y="4.680000000000001" style="font-family: 'Open Sans', verdana, arial, sans-serif; font-size: 12px; fill: rgb(42, 63, 95); fill-opacity: 1; white-space: pre;">5, Fixed</text><g class="layers" style="opacity: 1;"><g class="legendfill"/><g class="legendlines"><path class="js-line" d="M5,0h30" style="fill: none; stroke: rgb(99, 110, 250); stroke-opacity: 1; stroke-width: 2px;"/></g><g class="legendsymbols"><g class="legendpoints"/></g></g><rect class="legendtoggle" x="0" y="-9.5" width="109.265625" height="19" style="fill: rgb(0, 0, 0); fill-opacity: 0;"/></g></g><g class="groups" transform=""><g class="traces" transform="translate(0,51.7)" style="opacity: 1;"><text class="legendtext" text-anchor="start" x="40" y="4.680000000000001" style="font-family: 'Open Sans', verdana, arial, sans-serif; font-size: 12px; fill: rgb(42, 63, 95); fill-opacity: 1; white-space: pre;">5, Single</text><g class="layers" style="opacity: 1;"><g class="legendfill"/><g class="legendlines"><path class="js-line" d="M5,0h30" style="fill: none; stroke: rgb(99, 110, 250); stroke-opacity: 1; stroke-dasharray: 3px, 3px; stroke-width: 2px;"/></g><g class="legendsymbols"><g class="legendpoints"/></g></g><rect class="legendtoggle" x="0" y="-9.5" width="109.265625" height="19" style="fill: rgb(0, 0, 0); fill-opacity: 0;"/></g></g><g class="groups" transform=""><g class="traces" transform="translate(0,70.7)" style="opacity: 1;"><text class="legendtext" text-anchor="start" x="40" y="4.680000000000001" style="font-family: 'Open Sans', verdana, arial, sans-serif; font-size: 12px; fill: rgb(42, 63, 95); fill-opacity: 1; white-space: pre;">5, Varying</text><g class="layers" style="opacity: 1;"><g class="legendfill"/><g class="legendlines"><path class="js-line" d="M5,0h30" style="fill: none; stroke: rgb(99, 110, 250); stroke-opacity: 1; stroke-dasharray: 9px, 9px; stroke-width: 2px;"/></g><g class="legendsymbols"><g class="legendpoints"/></g></g><rect class="legendtoggle" x="0" y="-9.5" width="109.265625" height="19" style="fill: rgb(0, 0, 0); fill-opacity: 0;"/></g></g><g class="groups" transform=""><g class="traces" transform="translate(0,89.7)" style="opacity: 1;"><text class="legendtext" text-anchor="start" x="40" y="4.680000000000001" style="font-family: 'Open Sans', verdana, arial, sans-serif; font-size: 12px; fill: rgb(42, 63, 95); fill-opacity: 1; white-space: pre;">10, Fixed</text><g class="layers" style="opacity: 1;"><g class="legendfill"/><g class="legendlines"><path class="js-line" d="M5,0h30" style="fill: none; stroke: rgb(239, 85, 59); stroke-opacity: 1; stroke-width: 2px;"/></g><g class="legendsymbols"><g class="legendpoints"/></g></g><rect class="legendtoggle" x="0" y="-9.5" width="109.265625" height="19" style="fill: rgb(0, 0, 0); fill-opacity: 0;"/></g></g><g class="groups" transform=""><g class="traces" transform="translate(0,108.7)" style="opacity: 1;"><text class="legendtext" text-anchor="start" x="40" y="4.680000000000001" style="font-family: 'Open Sans', verdana, arial, sans-serif; font-size: 12px; fill: rgb(42, 63, 95); fill-opacity: 1; white-space: pre;">10, Single</text><g class="layers" style="opacity: 1;"><g class="legendfill"/><g class="legendlines"><path class="js-line" d="M5,0h30" style="fill: none; stroke: rgb(239, 85, 59); stroke-opacity: 1; stroke-dasharray: 3px, 3px; stroke-width: 2px;"/></g><g class="legendsymbols"><g class="legendpoints"/></g></g><rect class="legendtoggle" x="0" y="-9.5" width="109.265625" height="19" style="fill: rgb(0, 0, 0); fill-opacity: 0;"/></g></g><g class="groups" transform=""><g class="traces" transform="translate(0,127.7)" style="opacity: 1;"><text class="legendtext" text-anchor="start" x="40" y="4.680000000000001" style="font-family: 'Open Sans', verdana, arial, sans-serif; font-size: 12px; fill: rgb(42, 63, 95); fill-opacity: 1; white-space: pre;">10, Varying</text><g class="layers" style="opacity: 1;"><g class="legendfill"/><g class="legendlines"><path class="js-line" d="M5,0h30" style="fill: none; stroke: rgb(239, 85, 59); stroke-opacity: 1; stroke-dasharray: 9px, 9px; stroke-width: 2px;"/></g><g class="legendsymbols"><g class="legendpoints"/></g></g><rect class="legendtoggle" x="0" y="-9.5" width="109.265625" height="19" style="fill: rgb(0, 0, 0); fill-opacity: 0;"/></g></g><g class="groups" transform=""><g class="traces" transform="translate(0,146.7)" style="opacity: 1;"><text class="legendtext" text-anchor="start" x="40" y="4.680000000000001" style="font-family: 'Open Sans', verdana, arial, sans-serif; font-size: 12px; fill: rgb(42, 63, 95); fill-opacity: 1; white-space: pre;">15, Fixed</text><g class="layers" style="opacity: 1;"><g class="legendfill"/><g class="legendlines"><path class="js-line" d="M5,0h30" style="fill: none; stroke: rgb(0, 204, 150); stroke-opacity: 1; stroke-width: 2px;"/></g><g class="legendsymbols"><g class="legendpoints"/></g></g><rect class="legendtoggle" x="0" y="-9.5" width="109.265625" height="19" style="fill: rgb(0, 0, 0); fill-opacity: 0;"/></g></g><g class="groups" transform=""><g class="traces" transform="translate(0,165.7)" style="opacity: 1;"><text class="legendtext" text-anchor="start" x="40" y="4.680000000000001" style="font-family: 'Open Sans', verdana, arial, sans-serif; font-size: 12px; fill: rgb(42, 63, 95); fill-opacity: 1; white-space: pre;">15, Single</text><g class="layers" style="opacity: 1;"><g class="legendfill"/><g class="legendlines"><path class="js-line" d="M5,0h30" style="fill: none; stroke: rgb(0, 204, 150); stroke-opacity: 1; stroke-dasharray: 3px, 3px; stroke-width: 2px;"/></g><g class="legendsymbols"><g class="legendpoints"/></g></g><rect class="legendtoggle" x="0" y="-9.5" width="109.265625" height="19" style="fill: rgb(0, 0, 0); fill-opacity: 0;"/></g></g><g class="groups" transform=""><g class="traces" transform="translate(0,184.7)" style="opacity: 1;"><text class="legendtext" text-anchor="start" x="40" y="4.680000000000001" style="font-family: 'Open Sans', verdana, arial, sans-serif; font-size: 12px; fill: rgb(42, 63, 95); fill-opacity: 1; white-space: pre;">15, Varying</text><g class="layers" style="opacity: 1;"><g class="legendfill"/><g class="legendlines"><path class="js-line" d="M5,0h30" style="fill: none; stroke: rgb(0, 204, 150); stroke-opacity: 1; stroke-dasharray: 9px, 9px; stroke-width: 2px;"/></g><g class="legendsymbols"><g class="legendpoints"/></g></g><rect class="legendtoggle" x="0" y="-9.5" width="109.265625" height="19" style="fill: rgb(0, 0, 0); fill-opacity: 0;"/></g></g></g><rect class="scrollbar" rx="20" ry="3" width="0" height="0" x="0" y="0" style="fill: rgb(128, 139, 164); fill-opacity: 1;"/></g><g class="g-gtitle"><text class="gtitle" x="60" y="50" text-anchor="start" dy="0em" style="font-family: 'Open Sans', verdana, arial, sans-serif; font-size: 17px; fill: rgb(42, 63, 95); opacity: 1; font-weight: normal; white-space: pre;">Received packets by each UE DL - CDF</text></g><g class="g-xtitle"><text class="xtitle" x="523.5" y="460.8" text-anchor="middle" style="font-family: 'Open Sans', verdana, arial, sans-serif; font-size: 14px; fill: rgb(42, 63, 95); opacity: 1; font-weight: normal; white-space: pre;">Number of Received Packets</text></g><g class="g-ytitle"><text class="ytitle" transform="rotate(-90,34.575,260)" x="34.575" y="260" text-anchor="middle" style="font-family: 'Open Sans', verdana, arial, sans-serif; font-size: 14px; fill: rgb(42, 63, 95); opacity: 1; font-weight: normal; white-space: pre;">probability</text></g><g class="annotation" data-index="0" style="opacity: 1;"><g class="annotation-text-g" transform="rotate(0,523.5,90.5)"><g class="cursor-pointer" transform="translate(491,81)"><rect class="bg" x="0.5" y="0.5" width="65" height="18" style="stroke-width: 1px; stroke: rgb(0, 0, 0); stroke-opacity: 0; fill: rgb(0, 0, 0); fill-opacity: 0;"/><text class="annotation-text" text-anchor="middle" x="32.703125" y="14" style="font-family: 'Open Sans', verdana, arial, sans-serif; font-size: 12px; fill: rgb(42, 63, 95); fill-opacity: 1; white-space: pre;">Power=30</text></g></g></g></g></svg>