<svg class="main-svg" xmlns="http://www.w3.org/2000/svg" xmlns:xlink="http://www.w3.org/1999/xlink" width="1200" height="500" style="" viewBox="0 0 1200 500"><rect x="0" y="0" width="1200" height="500" style="fill: rgb(255, 255, 255); fill-opacity: 1;"/><defs id="defs-308f9e"><g class="clips"><clipPath id="clip308f9exyplot" class="plotclip"><rect width="887" height="320"/></clipPath><clipPath class="axesclip" id="clip308f9ex"><rect x="80" y="0" width="887" height="500"/></clipPath><clipPath class="axesclip" id="clip308f9ey"><rect x="0" y="100" width="1200" height="320"/></clipPath><clipPath class="axesclip" id="clip308f9exy"><rect x="80" y="100" width="887" height="320"/></clipPath></g><g class="gradients"/><g class="patterns"/></defs><g class="bglayer"><rect class="bg" x="80" y="100" width="887" height="320" style="fill: rgb(229, 236, 246); fill-opacity: 1; stroke-width: 0;"/></g><g class="layer-below"><g class="imagelayer"/><g class="shapelayer"/></g><g class="cartesianlayer"><g class="subplot xy"><g class="layer-subplot"><g class="shapelayer"/><g class="imagelayer"/></g><g class="minor-gridlayer"><g class="x"/><g class="y"/></g><g class="gridlayer"><g class="x"><path class="xgrid crisp" transform="translate(119.53,0)" d="M0,100v320" style="stroke: rgb(255, 255, 255); stroke-opacity: 1; stroke-width: 1px;"/><path class="xgrid crisp" transform="translate(208.25,0)" d="M0,100v320" style="stroke: rgb(255, 255, 255); stroke-opacity: 1; stroke-width: 1px;"/><path class="xgrid crisp" transform="translate(296.97,0)" d="M0,100v320" style="stroke: rgb(255, 255, 255); stroke-opacity: 1; stroke-width: 1px;"/><path class="xgrid crisp" transform="translate(385.69,0)" d="M0,100v320" style="stroke: rgb(255, 255, 255); stroke-opacity: 1; stroke-width: 1px;"/><path class="xgrid crisp" transform="translate(474.41,0)" d="M0,100v320" style="stroke: rgb(255, 255, 255); stroke-opacity: 1; stroke-width: 1px;"/><path class="xgrid crisp" transform="translate(563.13,0)" d="M0,100v320" style="stroke: rgb(255, 255, 255); stroke-opacity: 1; stroke-width: 1px;"/><path class="xgrid crisp" transform="translate(651.85,0)" d="M0,100v320" style="stroke: rgb(255, 255, 255); stroke-opacity: 1; stroke-width: 1px;"/><path class="xgrid crisp" transform="translate(740.57,0)" d="M0,100v320" style="stroke: rgb(255, 255, 255); stroke-opacity: 1; stroke-width: 1px;"/><path class="xgrid crisp" transform="translate(829.29,0)" d="M0,100v320" style="stroke: rgb(255, 255, 255); stroke-opacity: 1; stroke-width: 1px;"/><path class="xgrid crisp" transform="translate(918.01,0)" d="M0,100v320" style="stroke: rgb(255, 255, 255); stroke-opacity: 1; stroke-width: 1px;"/></g><g class="y"><path class="ygrid crisp" transform="translate(0,359.2)" d="M80,0h887" style="stroke: rgb(255, 255, 255); stroke-opacity: 1; stroke-width: 1px;"/><path class="ygrid crisp" transform="translate(0,298.4)" d="M80,0h887" style="stroke: rgb(255, 255, 255); stroke-opacity: 1; stroke-width: 1px;"/><path class="ygrid crisp" transform="translate(0,237.6)" d="M80,0h887" style="stroke: rgb(255, 255, 255); stroke-opacity: 1; stroke-width: 1px;"/><path class="ygrid crisp" transform="translate(0,176.8)" d="M80,0h887" style="stroke: rgb(255, 255, 255); stroke-opacity: 1; stroke-width: 1px;"/><path class="ygrid crisp" transform="translate(0,116)" d="M80,0h887" style="stroke: rgb(255, 255, 255); stroke-opacity: 1; stroke-width: 1px;"/></g></g><g class="zerolinelayer"><path class="yzl zl crisp" transform="translate(0,420)" d="M80,0h887" style="stroke: rgb(255, 255, 255); stroke-opacity: 1; stroke-width: 2px;"/></g><path class="xlines-below"/><path class="ylines-below"/><g class="overlines-below"/><g class="xaxislayer-below"/><g class="yaxislayer-below"/><g class="overaxes-below"/><g class="plot" transform="translate(80,100)" clip-path="url(#clip308f9exyplot)"><g class="scatterlayer mlayer"><g class="trace scatter trace5ddf0f" style="stroke-miterlimit: 2; opacity: 1;"><g class="fills"/><g class="errorbars"/><g class="lines"><path class="js-line" d="M0,16V21.07H60.85V26.13H81.33V31.2H107.33V36.27H117.4V41.33H118.11V46.4H123.03V51.47H151.97V56.53H157.72V61.6H166.41V66.67H167.63V71.73H189.01V76.8H195.27V81.87H205.29V86.93H209.94V92H218.86V97.07H223.61V102.13H227.65V107.2H233.11V112.27H238.49V117.33H240.21V122.4H241.97V127.47H242.31V132.53H244.72V137.6H256.82V142.67H261.9V147.73H266.26V152.8H268.62V157.87H270.54V162.93H278.74V168H284.02V173.07H287.63V178.13H287.86V183.2H287.94V188.27H287.95V193.33H296.18V198.4H302.11V203.47H307.09V208.53H308.59V213.6H310.75V218.67H315.64V223.73H320.46V228.8H324.67V233.87H336.66V238.93H337.72V244H337.96V249.07H340.23V254.13H342.28V259.2H345.22V264.27H358.72V269.33H382.48V274.4H398.13V279.47H419.27V284.53H433.32V289.6H444.86V294.67H446.56V299.73H455.55V304.8H469.73V309.87H481.27V314.93H531.52" style="vector-effect: non-scaling-stroke; fill: none; stroke: rgb(99, 110, 250); stroke-opacity: 1; stroke-width: 2px; opacity: 1;"/></g><g class="points"/><g class="text"/></g><g class="trace scatter trace6d330a" style="stroke-miterlimit: 2; opacity: 1;"><g class="fills"/><g class="errorbars"/><g class="lines"><path class="js-line" d="M0,16V21.07H60.85V26.13H81.33V31.2H107.33V36.27H117.4V41.33H118.11V46.4H123.03V51.47H151.97V56.53H157.72V61.6H166.41V66.67H167.63V71.73H189.01V76.8H195.27V81.87H205.29V86.93H209.94V92H218.86V97.07H223.61V102.13H227.65V107.2H233.11V112.27H238.49V117.33H240.21V122.4H241.97V127.47H242.31V132.53H244.72V137.6H256.82V142.67H261.9V147.73H266.26V152.8H268.62V157.87H270.54V162.93H278.74V168H284.02V173.07H287.63V178.13H287.86V183.2H287.94V188.27H287.95V193.33H296.18V198.4H302.11V203.47H307.09V208.53H308.59V213.6H310.75V218.67H315.64V223.73H320.46V228.8H324.67V233.87H336.66V238.93H337.72V244H337.96V249.07H340.23V254.13H342.28V259.2H345.22V264.27H358.72V269.33H382.48V274.4H398.13V279.47H419.27V284.53H433.32V289.6H444.86V294.67H446.56V299.73H455.55V304.8H469.73V309.87H481.27V314.93H531.52" style="vector-effect: non-scaling-stroke; fill: none; stroke: rgb(99, 110, 250); stroke-opacity: 1; stroke-width: 2px; opacity: 1; stroke-dasharray: 3px, 3px;"/></g><g class="points"/><g class="text"/></g><g class="trace scatter traced3fe35" style="stroke-miterlimit: 2; opacity: 1;"><g class="fills"/><g class="errorbars"/><g class="lines"><path class="js-line" d="M409.46,16V21.07H430.17V26.13H433.08V31.2H442.74V36.27H451.32V41.33H455.32V46.4H460.35V51.47H464.66V56.53H467.62V61.6H471.56V66.67H472.32V71.73H473.44V76.8H483.57V81.87H484.06V86.93H490.4V92H491.38V97.07H499.56V102.13H500.41V107.2H501.72V112.27H501.97V117.33H503.09V122.4H508.94V127.47H517.15V132.53H520.79V137.6H521.46V142.67H528.59V147.73H529.8V152.8H544.06V157.87H546.75V162.93H546.8V168H547.75V173.07H548.44V178.13H551.64V183.2H553.39V188.27H563.23V193.33H563.56V198.4H566.86V203.47H567.84V208.53H571V213.6H584.48V218.67H586.53V223.73H590.91V228.8H591.49V233.87H594.16V238.93H607.33V244H607.6V249.07H610.16V254.13H610.54V259.2H614.27V264.27H614.38V269.33H621.44V274.4H623.44V279.47H626.45V284.53H626.55V289.6H631.45V294.67H639.98V299.73H658.52V304.8H696.99V309.87H723.24V314.93H782.7" style="vector-effect: non-scaling-stroke; fill: none; stroke: rgb(99, 110, 250); stroke-opacity: 1; stroke-width: 2px; opacity: 1; stroke-dasharray: 9px, 9px;"/></g><g class="points"/><g class="text"/></g><g class="trace scatter trace7b60a9" style="stroke-miterlimit: 2; opacity: 1;"><g class="fills"/><g class="errorbars"/><g class="lines"><path class="js-line" d="M314.85,16V21.07H353.77V26.13H370.11V31.2H374.38V36.27H385.03V41.33H389V46.4H396.22V51.47H399.67V56.53H404.59V61.6H409.6V66.67H410.27V71.73H432.04V76.8H432.88V81.87H440.56V86.93H442.92V92H445.58V97.07H449.84V102.13H460.93V107.2H462.8V112.27H465.64V117.33H470.48V122.4H482.31V127.47H484.06V132.53H484.29V137.6H484.77V142.67H485.6V147.73H497.36V152.8H504.65V157.87H508.71V162.93H515.82V168H523.25V173.07H523.44V178.13H535.03V183.2H540.46V188.27H540.69V193.33H546.12V198.4H552.5V203.47H554.58V208.53H555.51V213.6H556.42V218.67H564.86V223.73H568.46V228.8H573.55V233.87H574.8V238.93H575.36V244H584.83V249.07H585.15V254.13H592.43V259.2H606.9V264.27H616.22V269.33H617.1V274.4H627.59V279.47H628.5V284.53H632.17V289.6H639.64V294.67H643.93V299.73H654.53V304.8H666.04V309.87H668.79V314.93H676.08" style="vector-effect: non-scaling-stroke; fill: none; stroke: rgb(239, 85, 59); stroke-opacity: 1; stroke-width: 2px; opacity: 1;"/></g><g class="points"/><g class="text"/></g><g class="trace scatter traced27bf4" style="stroke-miterlimit: 2; opacity: 1;"><g class="fills"/><g class="errorbars"/><g class="lines"><path class="js-line" d="M314.85,16V21.07H353.77V26.13H370.11V31.2H374.38V36.27H385.03V41.33H389V46.4H396.22V51.47H399.67V56.53H404.59V61.6H409.6V66.67H410.27V71.73H432.04V76.8H432.88V81.87H440.56V86.93H442.92V92H445.58V97.07H449.84V102.13H460.93V107.2H462.8V112.27H465.64V117.33H470.48V122.4H482.31V127.47H484.06V132.53H484.29V137.6H484.77V142.67H485.6V147.73H497.36V152.8H504.65V157.87H508.71V162.93H515.82V168H523.25V173.07H523.44V178.13H535.03V183.2H540.46V188.27H540.69V193.33H546.12V198.4H552.5V203.47H554.58V208.53H555.51V213.6H556.42V218.67H564.86V223.73H568.46V228.8H573.55V233.87H574.8V238.93H575.36V244H584.83V249.07H585.15V254.13H592.43V259.2H606.9V264.27H616.22V269.33H617.1V274.4H627.59V279.47H628.5V284.53H632.17V289.6H639.64V294.67H643.93V299.73H654.53V304.8H666.04V309.87H668.79V314.93H676.08" style="vector-effect: non-scaling-stroke; fill: none; stroke: rgb(239, 85, 59); stroke-opacity: 1; stroke-width: 2px; opacity: 1; stroke-dasharray: 3px, 3px;"/></g><g class="points"/><g class="text"/></g><g class="trace scatter trace06d48f" style="stroke-miterlimit: 2; opacity: 1;"><g class="fills"/><g class="errorbars"/><g class="lines"><path class="js-line" d="M438.38,16V21.07H445.54V26.13H465.22V31.2H472.61V36.27H482.37V41.33H492.13V46.4H500.7V51.47H502.51V56.53H512.79V61.6H513.73V66.67H514.9V71.73H518.69V76.8H532.11V81.87H537.2V86.93H551.71V92H557.56V97.07H561.12V102.13H568.83V107.2H573.8V112.27H580.53V117.33H587.42V122.4H591.77V127.47H598.54V132.53H601.62V137.6H603.98V142.67H605.12V147.73H610.97V152.8H612.54V157.87H614.7V162.93H619.76V168H623.4V173.07H629.67V178.13H631.02V183.2H631.35V188.27H634.28V193.33H635.98V198.4H648.51V203.47H648.88V208.53H650.62V213.6H657.12V218.67H658.4V223.73H659.9V228.8H668.91V233.87H675.4V238.93H677.08V244H678.8V249.07H679.24V254.13H682.84V259.2H686.95V264.27H688.07V269.33H690.74V274.4H699.16V279.47H699.69V284.53H702V289.6H711.79V294.67H727.81V299.73H741.93V304.8H768.31V309.87H794.7V314.93H795.57" style="vector-effect: non-scaling-stroke; fill: none; stroke: rgb(239, 85, 59); stroke-opacity: 1; stroke-width: 2px; opacity: 1; stroke-dasharray: 9px, 9px;"/></g><g class="points"/><g class="text"/></g><g class="trace scatter traceb94f90" style="stroke-miterlimit: 2; opacity: 1;"><g class="fills"/><g class="errorbars"/><g class="lines"><path class="js-line" d="M510.09,16V21.07H563.73V26.13H564.77V31.2H567.1V36.27H571.68V41.33H575.33V46.4H580.97V51.47H585.69V56.53H586.9V61.6H592.77V66.67H592.82V71.73H599.1V76.8H601.38V81.87H606.2V86.93H608.06V92H610.45V97.07H611.53V102.13H613.97V107.2H624V112.27H624.99V117.33H631.66V122.4H634.86V127.47H639.18V132.53H640.36V137.6H641.31V142.67H650.16V147.73H650.32V152.8H660.43V157.87H663.44V162.93H665.6V168H672.4V173.07H674.46V178.13H676.8V183.2H677.44V188.27H684.14V193.33H684.19V198.4H692.11V203.47H693.17V208.53H695.04V213.6H696.52V218.67H701.17V223.73H705.28V228.8H710.32V233.87H710.88V238.93H718.64V244H726.59V249.07H737.83V254.13H739.57V259.2H746.12V264.27H750.01V269.33H756.25V274.4H759.18V279.47H770.58V284.53H785.31V289.6H787.49V294.67H798.02V299.73H815.05V304.8H839.43V309.87H840.21V314.93H887" style="vector-effect: non-scaling-stroke; fill: none; stroke: rgb(0, 204, 150); stroke-opacity: 1; stroke-width: 2px; opacity: 1;"/></g><g class="points"/><g class="text"/></g><g class="trace scatter tracef7fabc" style="stroke-miterlimit: 2; opacity: 1;"><g class="fills"/><g class="errorbars"/><g class="lines"><path class="js-line" d="M510.09,16V21.07H563.73V26.13H564.77V31.2H567.1V36.27H571.68V41.33H575.33V46.4H580.97V51.47H585.69V56.53H586.9V61.6H592.77V66.67H592.82V71.73H599.1V76.8H601.38V81.87H606.2V86.93H608.06V92H610.45V97.07H611.53V102.13H613.97V107.2H624V112.27H624.99V117.33H631.66V122.4H634.86V127.47H639.18V132.53H640.36V137.6H641.31V142.67H650.16V147.73H650.32V152.8H660.43V157.87H663.44V162.93H665.6V168H672.4V173.07H674.46V178.13H676.8V183.2H677.44V188.27H684.14V193.33H684.19V198.4H692.11V203.47H693.17V208.53H695.04V213.6H696.52V218.67H701.17V223.73H705.28V228.8H710.32V233.87H710.88V238.93H718.64V244H726.59V249.07H737.83V254.13H739.57V259.2H746.12V264.27H750.01V269.33H756.25V274.4H759.18V279.47H770.58V284.53H785.31V289.6H787.49V294.67H798.02V299.73H815.05V304.8H839.43V309.87H840.21V314.93H887" style="vector-effect: non-scaling-stroke; fill: none; stroke: rgb(0, 204, 150); stroke-opacity: 1; stroke-width: 2px; opacity: 1; stroke-dasharray: 3px, 3px;"/></g><g class="points"/><g class="text"/></g><g class="trace scatter tracedb67a0" style="stroke-miterlimit: 2; opacity: 1;"><g class="fills"/><g class="errorbars"/><g class="lines"><path class="js-line" d="M591.93,16V21.07H602.35V26.13H609.12V31.2H610V36.27H611.27V41.33H623.08V46.4H628.29V51.47H634.16V56.53H634.44V61.6H636.51V66.67H637.29V71.73H651.41V76.8H658.65V81.87H662.96V86.93H670.29V92H670.53V97.07H675.41V102.13H678.91V107.2H682.03V112.27H687.46V117.33H701.36V122.4H705.6V127.47H709.88V132.53H710.63V137.6H717.67V142.67H718.86V147.73H720.1V152.8H722V157.87H724.33V162.93H730.4V168H730.92V173.07H733.78V178.13H734.09V183.2H748.56V188.27H750.12V193.33H753.09V198.4H759.1V203.47H765.11V208.53H765.87V213.6H766.31V218.67H775.16V223.73H776.82V228.8H779.62V233.87H781.82V238.93H789.39V244H790.12V249.07H793.22V254.13H794.76V259.2H797.05V264.27H799.4V269.33H801.96V274.4H816.12V279.47H823.89V284.53H830.55V289.6H834.37V294.67H835.65V299.73H844.98V304.8H853.84V309.87H862.93V314.93H880.77" style="vector-effect: non-scaling-stroke; fill: none; stroke: rgb(0, 204, 150); stroke-opacity: 1; stroke-width: 2px; opacity: 1; stroke-dasharray: 9px, 9px;"/></g><g class="points"/><g class="text"/></g></g></g><g class="overplot"/><path class="xlines-above crisp" d="M0,0" style="fill: none;"/><path class="ylines-above crisp" d="M0,0" style="fill: none;"/><g class="overlines-above"/><g class="xaxislayer-above"><g class="xtick"><text text-anchor="middle" x="0" y="433" transform="translate(119.53,0)" style="font-family: 'Open Sans', verdana, arial, sans-serif; font-size: 12px; fill: rgb(42, 63, 95); fill-opacity: 1; white-space: pre; opacity: 1;">14</text></g><g class="xtick"><text text-anchor="middle" x="0" y="433" style="font-family: 'Open Sans', verdana, arial, sans-serif; font-size: 12px; fill: rgb(42, 63, 95); fill-opacity: 1; white-space: pre; opacity: 1;" transform="translate(208.25,0)">15</text></g><g class="xtick"><text text-anchor="middle" x="0" y="433" style="font-family: 'Open Sans', verdana, arial, sans-serif; font-size: 12px; fill: rgb(42, 63, 95); fill-opacity: 1; white-space: pre; opacity: 1;" transform="translate(296.97,0)">16</text></g><g class="xtick"><text text-anchor="middle" x="0" y="433" style="font-family: 'Open Sans', verdana, arial, sans-serif; font-size: 12px; fill: rgb(42, 63, 95); fill-opacity: 1; white-space: pre; opacity: 1;" transform="translate(385.69,0)">17</text></g><g class="xtick"><text text-anchor="middle" x="0" y="433" style="font-family: 'Open Sans', verdana, arial, sans-serif; font-size: 12px; fill: rgb(42, 63, 95); fill-opacity: 1; white-space: pre; opacity: 1;" transform="translate(474.41,0)">18</text></g><g class="xtick"><text text-anchor="middle" x="0" y="433" style="font-family: 'Open Sans', verdana, arial, sans-serif; font-size: 12px; fill: rgb(42, 63, 95); fill-opacity: 1; white-space: pre; opacity: 1;" transform="translate(563.13,0)">19</text></g><g class="xtick"><text text-anchor="middle" x="0" y="433" style="font-family: 'Open Sans', verdana, arial, sans-serif; font-size: 12px; fill: rgb(42, 63, 95); fill-opacity: 1; white-space: pre; opacity: 1;" transform="translate(651.85,0)">20</text></g><g class="xtick"><text text-anchor="middle" x="0" y="433" style="font-family: 'Open Sans', verdana, arial, sans-serif; font-size: 12px; fill: rgb(42, 63, 95); fill-opacity: 1; white-space: pre; opacity: 1;" transform="translate(740.57,0)">21</text></g><g class="xtick"><text text-anchor="middle" x="0" y="433" style="font-family: 'Open Sans', verdana, arial, sans-serif; font-size: 12px; fill: rgb(42, 63, 95); fill-opacity: 1; white-space: pre; opacity: 1;" transform="translate(829.29,0)">22</text></g><g class="xtick"><text text-anchor="middle" x="0" y="433" style="font-family: 'Open Sans', verdana, arial, sans-serif; font-size: 12px; fill: rgb(42, 63, 95); fill-opacity: 1; white-space: pre; opacity: 1;" transform="translate(918.01,0)">23</text></g></g><g class="yaxislayer-above"><g class="ytick"><text text-anchor="end" x="79" y="4.199999999999999" transform="translate(0,420)" style="font-family: 'Open Sans', verdana, arial, sans-serif; font-size: 12px; fill: rgb(42, 63, 95); fill-opacity: 1; white-space: pre; opacity: 1;">0</text></g><g class="ytick"><text text-anchor="end" x="79" y="4.199999999999999" style="font-family: 'Open Sans', verdana, arial, sans-serif; font-size: 12px; fill: rgb(42, 63, 95); fill-opacity: 1; white-space: pre; opacity: 1;" transform="translate(0,359.2)">0.2</text></g><g class="ytick"><text text-anchor="end" x="79" y="4.199999999999999" style="font-family: 'Open Sans', verdana, arial, sans-serif; font-size: 12px; fill: rgb(42, 63, 95); fill-opacity: 1; white-space: pre; opacity: 1;" transform="translate(0,298.4)">0.4</text></g><g class="ytick"><text text-anchor="end" x="79" y="4.199999999999999" style="font-family: 'Open Sans', verdana, arial, sans-serif; font-size: 12px; fill: rgb(42, 63, 95); fill-opacity: 1; white-space: pre; opacity: 1;" transform="translate(0,237.6)">0.6</text></g><g class="ytick"><text text-anchor="end" x="79" y="4.199999999999999" style="font-family: 'Open Sans', verdana, arial, sans-serif; font-size: 12px; fill: rgb(42, 63, 95); fill-opacity: 1; white-space: pre; opacity: 1;" transform="translate(0,176.8)">0.8</text></g><g class="ytick"><text text-anchor="end" x="79" y="4.199999999999999" style="font-family: 'Open Sans', verdana, arial, sans-serif; font-size: 12px; fill: rgb(42, 63, 95); fill-opacity: 1; white-space: pre; opacity: 1;" transform="translate(0,116)">1</text></g></g><g class="overaxes-above"/></g></g><g class="polarlayer"/><g class="smithlayer"/><g class="ternarylayer"/><g class="geolayer"/><g class="funnelarealayer"/><g class="pielayer"/><g class="iciclelayer"/><g class="treemaplayer"/><g class="sunburstlayer"/><g class="glimages"/><defs id="topdefs-308f9e"><g class="clips"/><clipPath id="legend308f9e"><rect width="203" height="200" x="0" y="0"/></clipPath></defs><g class="layer-above"><g class="imagelayer"/><g class="shapelayer"/></g><g class="infolayer"><g class="legend" pointer-events="all" transform="translate(984.74,100)"><rect class="bg" shape-rendering="crispEdges" width="203" height="200" x="0" y="0" style="stroke: rgb(68, 68, 68); stroke-opacity: 1; fill: rgb(255, 255, 255); fill-opacity: 1; stroke-width: 0px;"/><g class="scrollbox" transform="" clip-path="url(#legend308f9e)"><text class="legendtitletext" text-anchor="start" x="2" y="18.2" style="font-family: 'Open Sans', verdana, arial, sans-serif; font-size: 14px; fill: rgb(42, 63, 95); fill-opacity: 1; white-space: pre;">Min Snr Used (dB), ILP Type</text><g class="groups" transform=""><g class="traces" transform="translate(0,32.7)" style="opacity: 1;"><text class="legendtext" text-anchor="start" x="40" y="4.680000000000001" style="font-family: 'Open Sans', verdana, arial, sans-serif; font-size: 12px; fill: rgb(42, 63, 95); fill-opacity: 1; white-space: pre;">5, Fixed</text><g class="layers" style="opacity: 1;"><g class="legendfill"/><g class="legendlines"><path class="js-line" d="M5,0h30" style="fill: none; stroke: rgb(99, 110, 250); stroke-opacity: 1; stroke-width: 2px;"/></g><g class="legendsymbols"><g class="legendpoints"/></g></g><rect class="legendtoggle" x="0" y="-9.5" width="109.265625" height="19" style="fill: rgb(0, 0, 0); fill-opacity: 0;"/></g></g><g class="groups" transform=""><g class="traces" transform="translate(0,51.7)" style="opacity: 1;"><text class="legendtext" text-anchor="start" x="40" y="4.680000000000001" style="font-family: 'Open Sans', verdana, arial, sans-serif; font-size: 12px; fill: rgb(42, 63, 95); fill-opacity: 1; white-space: pre;">5, Single</text><g class="layers" style="opacity: 1;"><g class="legendfill"/><g class="legendlines"><path class="js-line" d="M5,0h30" style="fill: none; stroke: rgb(99, 110, 250); stroke-opacity: 1; stroke-dasharray: 3px, 3px; stroke-width: 2px;"/></g><g class="legendsymbols"><g class="legendpoints"/></g></g><rect class="legendtoggle" x="0" y="-9.5" width="109.265625" height="19" style="fill: rgb(0, 0, 0); fill-opacity: 0;"/></g></g><g class="groups" transform=""><g class="traces" transform="translate(0,70.7)" style="opacity: 1;"><text class="legendtext" text-anchor="start" x="40" y="4.680000000000001" style="font-family: 'Open Sans', verdana, arial, sans-serif; font-size: 12px; fill: rgb(42, 63, 95); fill-opacity: 1; white-space: pre;">5, Varying</text><g class="layers" style="opacity: 1;"><g class="legendfill"/><g class="legendlines"><path class="js-line" d="M5,0h30" style="fill: none; stroke: rgb(99, 110, 250); stroke-opacity: 1; stroke-dasharray: 9px, 9px; stroke-width: 2px;"/></g><g class="legendsymbols"><g class="legendpoints"/></g></g><rect class="legendtoggle" x="0" y="-9.5" width="109.265625" height="19" style="fill: rgb(0, 0, 0); fill-opacity: 0;"/></g></g><g class="groups" transform=""><g class="traces" transform="translate(0,89.7)" style="opacity: 1;"><text class="legendtext" text-anchor="start" x="40" y="4.680000000000001" style="font-family: 'Open Sans', verdana, arial, sans-serif; font-size: 12px; fill: rgb(42, 63, 95); fill-opacity: 1; white-space: pre;">10, Fixed</text><g class="layers" style="opacity: 1;"><g class="legendfill"/><g class="legendlines"><path class="js-line" d="M5,0h30" style="fill: none; stroke: rgb(239, 85, 59); stroke-opacity: 1; stroke-width: 2px;"/></g><g class="legendsymbols"><g class="legendpoints"/></g></g><rect class="legendtoggle" x="0" y="-9.5" width="109.265625" height="19" style="fill: rgb(0, 0, 0); fill-opacity: 0;"/></g></g><g class="groups" transform=""><g class="traces" transform="translate(0,108.7)" style="opacity: 1;"><text class="legendtext" text-anchor="start" x="40" y="4.680000000000001" style="font-family: 'Open Sans', verdana, arial, sans-serif; font-size: 12px; fill: rgb(42, 63, 95); fill-opacity: 1; white-space: pre;">10, Single</text><g class="layers" style="opacity: 1;"><g class="legendfill"/><g class="legendlines"><path class="js-line" d="M5,0h30" style="fill: none; stroke: rgb(239, 85, 59); stroke-opacity: 1; stroke-dasharray: 3px, 3px; stroke-width: 2px;"/></g><g class="legendsymbols"><g class="legendpoints"/></g></g><rect class="legendtoggle" x="0" y="-9.5" width="109.265625" height="19" style="fill: rgb(0, 0, 0); fill-opacity: 0;"/></g></g><g class="groups" transform=""><g class="traces" transform="translate(0,127.7)" style="opacity: 1;"><text class="legendtext" text-anchor="start" x="40" y="4.680000000000001" style="font-family: 'Open Sans', verdana, arial, sans-serif; font-size: 12px; fill: rgb(42, 63, 95); fill-opacity: 1; white-space: pre;">10, Varying</text><g class="layers" style="opacity: 1;"><g class="legendfill"/><g class="legendlines"><path class="js-line" d="M5,0h30" style="fill: none; stroke: rgb(239, 85, 59); stroke-opacity: 1; stroke-dasharray: 9px, 9px; stroke-width: 2px;"/></g><g class="legendsymbols"><g class="legendpoints"/></g></g><rect class="legendtoggle" x="0" y="-9.5" width="109.265625" height="19" style="fill: rgb(0, 0, 0); fill-opacity: 0;"/></g></g><g class="groups" transform=""><g class="traces" transform="translate(0,146.7)" style="opacity: 1;"><text class="legendtext" text-anchor="start" x="40" y="4.680000000000001" style="font-family: 'Open Sans', verdana, arial, sans-serif; font-size: 12px; fill: rgb(42, 63, 95); fill-opacity: 1; white-space: pre;">15, Fixed</text><g class="layers" style="opacity: 1;"><g class="legendfill"/><g class="legendlines"><path class="js-line" d="M5,0h30" style="fill: none; stroke: rgb(0, 204, 150); stroke-opacity: 1; stroke-width: 2px;"/></g><g class="legendsymbols"><g class="legendpoints"/></g></g><rect class="legendtoggle" x="0" y="-9.5" width="109.265625" height="19" style="fill: rgb(0, 0, 0); fill-opacity: 0;"/></g></g><g class="groups" transform=""><g class="traces" transform="translate(0,165.7)" style="opacity: 1;"><text class="legendtext" text-anchor="start" x="40" y="4.680000000000001" style="font-family: 'Open Sans', verdana, arial, sans-serif; font-size: 12px; fill: rgb(42, 63, 95); fill-opacity: 1; white-space: pre;">15, Single</text><g class="layers" style="opacity: 1;"><g class="legendfill"/><g class="legendlines"><path class="js-line" d="M5,0h30" style="fill: none; stroke: rgb(0, 204, 150); stroke-opacity: 1; stroke-dasharray: 3px, 3px; stroke-width: 2px;"/></g><g class="legendsymbols"><g class="legendpoints"/></g></g><rect class="legendtoggle" x="0" y="-9.5" width="109.265625" height="19" style="fill: rgb(0, 0, 0); fill-opacity: 0;"/></g></g><g class="groups" transform=""><g class="traces" transform="translate(0,184.7)" style="opacity: 1;"><text class="legendtext" text-anchor="start" x="40" y="4.680000000000001" style="font-family: 'Open Sans', verdana, arial, sans-serif; font-size: 12px; fill: rgb(42, 63, 95); fill-opacity: 1; white-space: pre;">15, Varying</text><g class="layers" style="opacity: 1;"><g class="legendfill"/><g class="legendlines"><path class="js-line" d="M5,0h30" style="fill: none; stroke: rgb(0, 204, 150); stroke-opacity: 1; stroke-dasharray: 9px, 9px; stroke-width: 2px;"/></g><g class="legendsymbols"><g class="legendpoints"/></g></g><rect class="legendtoggle" x="0" y="-9.5" width="109.265625" height="19" style="fill: rgb(0, 0, 0); fill-opacity: 0;"/></g></g></g><rect class="scrollbar" rx="20" ry="3" width="0" height="0" x="0" y="0" style="fill: rgb(128, 139, 164); fill-opacity: 1;"/></g><g class="g-gtitle"><text class="gtitle" x="60" y="50" text-anchor="start" dy="0em" style="font-family: 'Open Sans', verdana, arial, sans-serif; font-size: 17px; fill: rgb(42, 63, 95); opacity: 1; font-weight: normal; white-space: pre;">UE Sinr DL - CDF</text></g><g class="g-xtitle"><text class="xtitle" x="523.5" y="460.8" text-anchor="middle" style="font-family: 'Open Sans', verdana, arial, sans-serif; font-size: 14px; fill: rgb(42, 63, 95); opacity: 1; font-weight: normal; white-space: pre;">Sinr:Mean (dB)</text></g><g class="g-ytitle"><text class="ytitle" transform="rotate(-90,34.575,260)" x="34.575" y="260" text-anchor="middle" style="font-family: 'Open Sans', verdana, arial, sans-serif; font-size: 14px; fill: rgb(42, 63, 95); opacity: 1; font-weight: normal; white-space: pre;">probability</text></g><g class="annotation" data-index="0" style="opacity: 1;"><g class="annotation-text-g" transform="rotate(0,523.5,90.5)"><g class="cursor-pointer" transform="translate(491,81)"><rect class="bg" x="0.5" y="0.5" width="65" height="18" style="stroke-width: 1px; stroke: rgb(0, 0, 0); stroke-opacity: 0; fill: rgb(0, 0, 0); fill-opacity: 0;"/><text class="annotation-text" text-anchor="middle" x="32.703125" y="14" style="font-family: 'Open Sans', verdana, arial, sans-serif; font-size: 12px; fill: rgb(42, 63, 95); fill-opacity: 1; white-space: pre;">Power=30</text></g></g></g></g></svg>