<svg class="main-svg" xmlns="http://www.w3.org/2000/svg" xmlns:xlink="http://www.w3.org/1999/xlink" width="1200" height="500" style="" viewBox="0 0 1200 500"><rect x="0" y="0" width="1200" height="500" style="fill: rgb(255, 255, 255); fill-opacity: 1;"/><defs id="defs-8935a8"><g class="clips"><clipPath id="clip8935a8xyplot" class="plotclip"><rect width="887" height="320"/></clipPath><clipPath class="axesclip" id="clip8935a8x"><rect x="80" y="0" width="887" height="500"/></clipPath><clipPath class="axesclip" id="clip8935a8y"><rect x="0" y="100" width="1200" height="320"/></clipPath><clipPath class="axesclip" id="clip8935a8xy"><rect x="80" y="100" width="887" height="320"/></clipPath></g><g class="gradients"/><g class="patterns"/></defs><g class="bglayer"><rect class="bg" x="80" y="100" width="887" height="320" style="fill: rgb(229, 236, 246); fill-opacity: 1; stroke-width: 0;"/></g><g class="layer-below"><g class="imagelayer"/><g class="shapelayer"/></g><g class="cartesianlayer"><g class="subplot xy"><g class="layer-subplot"><g class="shapelayer"/><g class="imagelayer"/></g><g class="minor-gridlayer"><g class="x"/><g class="y"/></g><g class="gridlayer"><g class="x"><path class="xgrid crisp" transform="translate(197,0)" d="M0,100v320" style="stroke: rgb(255, 255, 255); stroke-opacity: 1; stroke-width: 1px;"/><path class="xgrid crisp" transform="translate(333.89,0)" d="M0,100v320" style="stroke: rgb(255, 255, 255); stroke-opacity: 1; stroke-width: 1px;"/><path class="xgrid crisp" transform="translate(470.77,0)" d="M0,100v320" style="stroke: rgb(255, 255, 255); stroke-opacity: 1; stroke-width: 1px;"/><path class="xgrid crisp" transform="translate(607.65,0)" d="M0,100v320" style="stroke: rgb(255, 255, 255); stroke-opacity: 1; stroke-width: 1px;"/><path class="xgrid crisp" transform="translate(744.54,0)" d="M0,100v320" style="stroke: rgb(255, 255, 255); stroke-opacity: 1; stroke-width: 1px;"/><path class="xgrid crisp" transform="translate(881.42,0)" d="M0,100v320" style="stroke: rgb(255, 255, 255); stroke-opacity: 1; stroke-width: 1px;"/></g><g class="y"><path class="ygrid crisp" transform="translate(0,359.2)" d="M80,0h887" style="stroke: rgb(255, 255, 255); stroke-opacity: 1; stroke-width: 1px;"/><path class="ygrid crisp" transform="translate(0,298.4)" d="M80,0h887" style="stroke: rgb(255, 255, 255); stroke-opacity: 1; stroke-width: 1px;"/><path class="ygrid crisp" transform="translate(0,237.6)" d="M80,0h887" style="stroke: rgb(255, 255, 255); stroke-opacity: 1; stroke-width: 1px;"/><path class="ygrid crisp" transform="translate(0,176.8)" d="M80,0h887" style="stroke: rgb(255, 255, 255); stroke-opacity: 1; stroke-width: 1px;"/><path class="ygrid crisp" transform="translate(0,116)" d="M80,0h887" style="stroke: rgb(255, 255, 255); stroke-opacity: 1; stroke-width: 1px;"/></g></g><g class="zerolinelayer"><path class="yzl zl crisp" transform="translate(0,420)" d="M80,0h887" style="stroke: rgb(255, 255, 255); stroke-opacity: 1; stroke-width: 2px;"/></g><path class="xlines-below"/><path class="ylines-below"/><g class="overlines-below"/><g class="xaxislayer-below"/><g class="yaxislayer-below"/><g class="overaxes-below"/><g class="plot" transform="translate(80,100)" clip-path="url(#clip8935a8xyplot)"><g class="scatterlayer mlayer"><g class="trace scatter trace11675f" style="stroke-miterlimit: 2; opacity: 1;"><g class="fills"/><g class="errorbars"/><g class="lines"><path class="js-line" d="M220.42,16V21.07H241.13V26.13H244.77V31.2H255.16V36.27H256.15V41.33H263.77V46.4H267.91V51.47H268.96V56.53H271.31V61.6H281.6V66.67H285.54V71.73H287.63V76.8H302.73V81.87H308.48V86.93H309.92V92H313.86V97.07H323.98V102.13H335.54V107.2H345.71V112.27H350.68V117.33H363.01V122.4H365.3V127.47H375.71V132.53H381.83V137.6H401.55V142.67H410.66V147.73H426.31V152.8H429.59V157.87H431.68V162.93H433.59V168H443.59V173.07H456.51V178.13H464.76V183.2H468.94V188.27H474.07V193.33H479.42V198.4H481.98V203.47H490.94V208.53H491.1V213.6H492.65V218.67H498.27V223.73H532.14V228.8H546.32V233.87H558.32V238.93H571.75V244H602.05V249.07H605.41V254.13H608.01V259.2H612.03V264.27H618.66V269.33H638.19V274.4H653.44V279.47H654.45V284.53H675.59V289.6H704.17V294.67H724.23V299.73H747.01V304.8H794.16V309.87H800.71V314.93H887" style="vector-effect: non-scaling-stroke; fill: none; stroke: rgb(99, 110, 250); stroke-opacity: 1; stroke-width: 2px; opacity: 1;"/></g><g class="points"/><g class="text"/></g><g class="trace scatter trace1a9bb1" style="stroke-miterlimit: 2; opacity: 1;"><g class="fills"/><g class="errorbars"/><g class="lines"><path class="js-line" d="M220.42,16V21.07H241.13V26.13H244.77V31.2H255.16V36.27H256.15V41.33H263.77V46.4H267.91V51.47H268.96V56.53H271.31V61.6H281.6V66.67H285.54V71.73H287.63V76.8H302.73V81.87H308.48V86.93H309.92V92H313.86V97.07H323.98V102.13H335.54V107.2H345.71V112.27H350.68V117.33H363.01V122.4H365.3V127.47H375.71V132.53H381.83V137.6H401.55V142.67H410.66V147.73H426.31V152.8H429.59V157.87H431.68V162.93H433.59V168H443.59V173.07H456.51V178.13H464.76V183.2H468.94V188.27H474.07V193.33H479.42V198.4H481.98V203.47H490.94V208.53H491.1V213.6H492.65V218.67H498.27V223.73H532.14V228.8H546.32V233.87H558.32V238.93H571.75V244H602.05V249.07H605.41V254.13H608.01V259.2H612.03V264.27H618.66V269.33H638.19V274.4H653.44V279.47H654.45V284.53H675.59V289.6H704.17V294.67H724.23V299.73H747.01V304.8H794.16V309.87H800.71V314.93H887" style="vector-effect: non-scaling-stroke; fill: none; stroke: rgb(99, 110, 250); stroke-opacity: 1; stroke-width: 2px; opacity: 1; stroke-dasharray: 3px, 3px;"/></g><g class="points"/><g class="text"/></g><g class="trace scatter trace889d51" style="stroke-miterlimit: 2; opacity: 1;"><g class="fills"/><g class="errorbars"/><g class="lines"><path class="js-line" d="M91.57,16V21.07H115.72V26.13H154.61V31.2H155.82V36.27H175.39V41.33H182.47V46.4H185.91V51.47H187.3V56.53H187.35V61.6H187.9V66.67H219.87V71.73H221.23V76.8H221.32V81.87H226.32V86.93H227.95V92H229.67V97.07H232.15V102.13H240.03V107.2H255.29V112.27H258.64V117.33H260.01V122.4H261.21V127.47H265.75V132.53H270.52V137.6H279.07V142.67H292.39V147.73H295.57V152.8H298.5V157.87H301.09V162.93H301.5V168H301.82V173.07H309.26V178.13H309.51V183.2H316.92V188.27H326.47V193.33H327.42V198.4H331.25V203.47H341.42V208.53H347.98V213.6H355.99V218.67H365.67V223.73H369.8V228.8H372.8V233.87H378.53V238.93H381.48V244H384.16V249.07H385.6V254.13H392.06V259.2H404.76V264.27H419.08V269.33H423.01V274.4H448.79V279.47H485.31V284.53H490.5V289.6H491.54V294.67H498.77V299.73H500.61V304.8H544.75V309.87H546.45V314.93H558.42" style="vector-effect: non-scaling-stroke; fill: none; stroke: rgb(99, 110, 250); stroke-opacity: 1; stroke-width: 2px; opacity: 1; stroke-dasharray: 9px, 9px;"/></g><g class="points"/><g class="text"/></g><g class="trace scatter tracec1d0fc" style="stroke-miterlimit: 2; opacity: 1;"><g class="fills"/><g class="errorbars"/><g class="lines"><path class="js-line" d="M0,16V21.07H67.21V26.13H74.74V31.2H77.25V36.27H80.46V41.33H82.35V46.4H93.04V51.47H106.42V56.53H109.01V61.6H113.2V66.67H125.17V71.73H135.75V76.8H152.93V81.87H160.36V86.93H174.73V92H175.21V97.07H177.8V102.13H181.04V107.2H182.43V112.27H208.09V117.33H219.98V122.4H223.06V127.47H231.56V132.53H233.27V137.6H242.24V142.67H251V147.73H252.25V152.8H252.67V157.87H254.57V162.93H260.26V168H264.46V173.07H271.1V178.13H272.45V183.2H272.98V188.27H275.2V193.33H276.63V198.4H284.67V203.47H285.31V208.53H296.37V213.6H305.93V218.67H309.82V223.73H324.8V228.8H331.41V233.87H361.07V238.93H362.43V244H371.02V249.07H372.91V254.13H380.73V259.2H389.65V264.27H392.21V269.33H402.81V274.4H440.35V279.47H451.03V284.53H453.2V289.6H460.67V294.67H468.45V299.73H484.04V304.8H489.71V309.87H562.43V314.93H606.74" style="vector-effect: non-scaling-stroke; fill: none; stroke: rgb(239, 85, 59); stroke-opacity: 1; stroke-width: 2px; opacity: 1;"/></g><g class="points"/><g class="text"/></g><g class="trace scatter trace6f7cec" style="stroke-miterlimit: 2; opacity: 1;"><g class="fills"/><g class="errorbars"/><g class="lines"><path class="js-line" d="M0,16V21.07H67.21V26.13H74.74V31.2H77.25V36.27H80.46V41.33H82.35V46.4H93.04V51.47H106.42V56.53H109.01V61.6H113.2V66.67H125.17V71.73H135.75V76.8H152.93V81.87H160.36V86.93H174.73V92H175.21V97.07H177.8V102.13H181.04V107.2H182.43V112.27H208.09V117.33H219.98V122.4H223.06V127.47H231.56V132.53H233.27V137.6H242.24V142.67H251V147.73H252.25V152.8H252.67V157.87H254.57V162.93H260.26V168H264.46V173.07H271.1V178.13H272.45V183.2H272.98V188.27H275.2V193.33H276.63V198.4H284.67V203.47H285.31V208.53H296.37V213.6H305.93V218.67H309.82V223.73H324.8V228.8H331.41V233.87H361.07V238.93H362.43V244H371.02V249.07H372.91V254.13H380.73V259.2H389.65V264.27H392.21V269.33H402.81V274.4H440.35V279.47H451.03V284.53H453.2V289.6H460.67V294.67H468.45V299.73H484.04V304.8H489.71V309.87H562.43V314.93H606.74" style="vector-effect: non-scaling-stroke; fill: none; stroke: rgb(239, 85, 59); stroke-opacity: 1; stroke-width: 2px; opacity: 1; stroke-dasharray: 3px, 3px;"/></g><g class="points"/><g class="text"/></g><g class="trace scatter trace0c7aa3" style="stroke-miterlimit: 2; opacity: 1;"><g class="fills"/><g class="errorbars"/><g class="lines"><path class="js-line" d="M67.62,16V21.07H72.19V26.13H111.03V31.2H130.78V36.27H138.62V41.33H141.21V46.4H143.46V51.47H146.83V56.53H149.14V61.6H149.19V66.67H153.68V71.73H154.53V76.8H159.59V81.87H177.58V86.93H184.76V92H189.83V97.07H192.71V102.13H198.45V107.2H200.34V112.27H200.51V117.33H201.22V122.4H204.88V127.47H208.34V132.53H216.39V137.6H217.1V142.67H218.13V147.73H221.03V152.8H221.71V157.87H230.04V162.93H230.6V168H231.56V173.07H232.17V178.13H235.67V183.2H253.52V188.27H264.13V193.33H264.75V198.4H267.02V203.47H268.64V208.53H269.14V213.6H270.04V218.67H270.88V223.73H272.09V228.8H272.9V233.87H274.18V238.93H281.51V244H290.55V249.07H295.42V254.13H303.59V259.2H307.9V264.27H315.19V269.33H316.32V274.4H332.98V279.47H335.5V284.53H379.9V289.6H380.96V294.67H465.46V299.73H468V304.8H485.14V309.87H486.15V314.93H525.67" style="vector-effect: non-scaling-stroke; fill: none; stroke: rgb(239, 85, 59); stroke-opacity: 1; stroke-width: 2px; opacity: 1; stroke-dasharray: 9px, 9px;"/></g><g class="points"/><g class="text"/></g><g class="trace scatter trace20ff7a" style="stroke-miterlimit: 2; opacity: 1;"><g class="fills"/><g class="errorbars"/><g class="lines"><path class="js-line" d="M57.43,16V21.07H62.55V26.13H68.23V31.2H90.75V36.27H96.4V41.33H100.39V46.4H106.02V51.47H114.36V56.53H127.21V61.6H134.19V66.67H146.16V71.73H148.85V76.8H151.72V81.87H153.12V86.93H153.24V92H160.98V97.07H161.85V102.13H168.15V107.2H172.28V112.27H175.87V117.33H178.84V122.4H179.84V127.47H184.8V132.53H184.87V137.6H191.47V142.67H199.95V147.73H203.67V152.8H204.28V157.87H209.96V162.93H213.38V168H214.16V173.07H220.54V178.13H221.29V183.2H222.05V188.27H224.62V193.33H228.37V198.4H231.24V203.47H242.32V208.53H245.33V213.6H246.01V218.67H248.96V223.73H252.06V228.8H256.79V233.87H261.52V238.93H266.07V244H271.93V249.07H274.78V254.13H279.75V259.2H284.22V264.27H286.14V269.33H298.85V274.4H302.92V279.47H309.34V284.53H312.15V289.6H318.63V294.67H323.31V299.73H326.2V304.8H329.5V309.87H334.91V314.93H347.57" style="vector-effect: non-scaling-stroke; fill: none; stroke: rgb(0, 204, 150); stroke-opacity: 1; stroke-width: 2px; opacity: 1;"/></g><g class="points"/><g class="text"/></g><g class="trace scatter tracedba12c" style="stroke-miterlimit: 2; opacity: 1;"><g class="fills"/><g class="errorbars"/><g class="lines"><path class="js-line" d="M57.43,16V21.07H62.55V26.13H68.23V31.2H90.75V36.27H96.4V41.33H100.39V46.4H106.02V51.47H114.36V56.53H127.21V61.6H134.19V66.67H146.16V71.73H148.85V76.8H151.72V81.87H153.12V86.93H153.24V92H160.98V97.07H161.85V102.13H168.15V107.2H172.28V112.27H175.87V117.33H178.84V122.4H179.84V127.47H184.8V132.53H184.87V137.6H191.47V142.67H199.95V147.73H203.67V152.8H204.28V157.87H209.96V162.93H213.38V168H214.16V173.07H220.54V178.13H221.29V183.2H222.05V188.27H224.62V193.33H228.37V198.4H231.24V203.47H242.32V208.53H245.33V213.6H246.01V218.67H248.96V223.73H252.06V228.8H256.79V233.87H261.52V238.93H266.07V244H271.93V249.07H274.78V254.13H279.75V259.2H284.22V264.27H286.14V269.33H298.85V274.4H302.92V279.47H309.34V284.53H312.15V289.6H318.63V294.67H323.31V299.73H326.2V304.8H329.5V309.87H334.91V314.93H347.57" style="vector-effect: non-scaling-stroke; fill: none; stroke: rgb(0, 204, 150); stroke-opacity: 1; stroke-width: 2px; opacity: 1; stroke-dasharray: 3px, 3px;"/></g><g class="points"/><g class="text"/></g><g class="trace scatter trace4d4b69" style="stroke-miterlimit: 2; opacity: 1;"><g class="fills"/><g class="errorbars"/><g class="lines"><path class="js-line" d="M1.88,16V21.07H49.33V26.13H55.75V31.2H72.39V36.27H86.35V41.33H89.81V46.4H96.96V51.47H98.51V56.53H98.73V61.6H100.64V66.67H100.71V71.73H103.49V76.8H106.57V81.87H108.25V86.93H110.18V92H112.19V97.07H112.61V102.13H113.67V107.2H114.85V112.27H116.85V117.33H123.76V122.4H125.02V127.47H130.39V132.53H131.37V137.6H132.81V142.67H133.63V147.73H138.65V152.8H139.54V157.87H144.56V162.93H147.28V168H148.88V173.07H149.77V178.13H151.1V183.2H154.2V188.27H187.05V193.33H187.65V198.4H189.96V203.47H192.51V208.53H201.44V213.6H214.88V218.67H216.86V223.73H221.79V228.8H223.27V233.87H226.06V238.93H227.97V244H234.27V249.07H238.59V254.13H240.22V259.2H250.39V264.27H254V269.33H257.18V274.4H265.2V279.47H265.9V284.53H268.63V289.6H276.08V294.67H291.42V299.73H334.24V304.8H366.8V309.87H447.32V314.93H566.82" style="vector-effect: non-scaling-stroke; fill: none; stroke: rgb(0, 204, 150); stroke-opacity: 1; stroke-width: 2px; opacity: 1; stroke-dasharray: 9px, 9px;"/></g><g class="points"/><g class="text"/></g></g></g><g class="overplot"/><path class="xlines-above crisp" d="M0,0" style="fill: none;"/><path class="ylines-above crisp" d="M0,0" style="fill: none;"/><g class="overlines-above"/><g class="xaxislayer-above"><g class="xtick"><text text-anchor="middle" x="0" y="433" transform="translate(197,0)" style="font-family: 'Open Sans', verdana, arial, sans-serif; font-size: 12px; fill: rgb(42, 63, 95); fill-opacity: 1; white-space: pre; opacity: 1;">0.1</text></g><g class="xtick"><text text-anchor="middle" x="0" y="433" style="font-family: 'Open Sans', verdana, arial, sans-serif; font-size: 12px; fill: rgb(42, 63, 95); fill-opacity: 1; white-space: pre; opacity: 1;" transform="translate(333.89,0)">0.15</text></g><g class="xtick"><text text-anchor="middle" x="0" y="433" style="font-family: 'Open Sans', verdana, arial, sans-serif; font-size: 12px; fill: rgb(42, 63, 95); fill-opacity: 1; white-space: pre; opacity: 1;" transform="translate(470.77,0)">0.2</text></g><g class="xtick"><text text-anchor="middle" x="0" y="433" style="font-family: 'Open Sans', verdana, arial, sans-serif; font-size: 12px; fill: rgb(42, 63, 95); fill-opacity: 1; white-space: pre; opacity: 1;" transform="translate(607.65,0)">0.25</text></g><g class="xtick"><text text-anchor="middle" x="0" y="433" style="font-family: 'Open Sans', verdana, arial, sans-serif; font-size: 12px; fill: rgb(42, 63, 95); fill-opacity: 1; white-space: pre; opacity: 1;" transform="translate(744.54,0)">0.3</text></g><g class="xtick"><text text-anchor="middle" x="0" y="433" style="font-family: 'Open Sans', verdana, arial, sans-serif; font-size: 12px; fill: rgb(42, 63, 95); fill-opacity: 1; white-space: pre; opacity: 1;" transform="translate(881.42,0)">0.35</text></g></g><g class="yaxislayer-above"><g class="ytick"><text text-anchor="end" x="79" y="4.199999999999999" transform="translate(0,420)" style="font-family: 'Open Sans', verdana, arial, sans-serif; font-size: 12px; fill: rgb(42, 63, 95); fill-opacity: 1; white-space: pre; opacity: 1;">0</text></g><g class="ytick"><text text-anchor="end" x="79" y="4.199999999999999" style="font-family: 'Open Sans', verdana, arial, sans-serif; font-size: 12px; fill: rgb(42, 63, 95); fill-opacity: 1; white-space: pre; opacity: 1;" transform="translate(0,359.2)">0.2</text></g><g class="ytick"><text text-anchor="end" x="79" y="4.199999999999999" style="font-family: 'Open Sans', verdana, arial, sans-serif; font-size: 12px; fill: rgb(42, 63, 95); fill-opacity: 1; white-space: pre; opacity: 1;" transform="translate(0,298.4)">0.4</text></g><g class="ytick"><text text-anchor="end" x="79" y="4.199999999999999" style="font-family: 'Open Sans', verdana, arial, sans-serif; font-size: 12px; fill: rgb(42, 63, 95); fill-opacity: 1; white-space: pre; opacity: 1;" transform="translate(0,237.6)">0.6</text></g><g class="ytick"><text text-anchor="end" x="79" y="4.199999999999999" style="font-family: 'Open Sans', verdana, arial, sans-serif; font-size: 12px; fill: rgb(42, 63, 95); fill-opacity: 1; white-space: pre; opacity: 1;" transform="translate(0,176.8)">0.8</text></g><g class="ytick"><text text-anchor="end" x="79" y="4.199999999999999" style="font-family: 'Open Sans', verdana, arial, sans-serif; font-size: 12px; fill: rgb(42, 63, 95); fill-opacity: 1; white-space: pre; opacity: 1;" transform="translate(0,116)">1</text></g></g><g class="overaxes-above"/></g></g><g class="polarlayer"/><g class="smithlayer"/><g class="ternarylayer"/><g class="geolayer"/><g class="funnelarealayer"/><g class="pielayer"/><g class="iciclelayer"/><g class="treemaplayer"/><g class="sunburstlayer"/><g class="glimages"/><defs id="topdefs-8935a8"><g class="clips"/><clipPath id="legend8935a8"><rect width="203" height="200" x="0" y="0"/></clipPath></defs><g class="layer-above"><g class="imagelayer"/><g class="shapelayer"/></g><g class="infolayer"><g class="legend" pointer-events="all" transform="translate(984.74,100)"><rect class="bg" shape-rendering="crispEdges" width="203" height="200" x="0" y="0" style="stroke: rgb(68, 68, 68); stroke-opacity: 1; fill: rgb(255, 255, 255); fill-opacity: 1; stroke-width: 0px;"/><g class="scrollbox" transform="" clip-path="url(#legend8935a8)"><text class="legendtitletext" text-anchor="start" x="2" y="18.2" style="font-family: 'Open Sans', verdana, arial, sans-serif; font-size: 14px; fill: rgb(42, 63, 95); fill-opacity: 1; white-space: pre;">Min Snr Used (dB), ILP Type</text><g class="groups" transform=""><g class="traces" transform="translate(0,32.7)" style="opacity: 1;"><text class="legendtext" text-anchor="start" x="40" y="4.680000000000001" style="font-family: 'Open Sans', verdana, arial, sans-serif; font-size: 12px; fill: rgb(42, 63, 95); fill-opacity: 1; white-space: pre;">5, Fixed</text><g class="layers" style="opacity: 1;"><g class="legendfill"/><g class="legendlines"><path class="js-line" d="M5,0h30" style="fill: none; stroke: rgb(99, 110, 250); stroke-opacity: 1; stroke-width: 2px;"/></g><g class="legendsymbols"><g class="legendpoints"/></g></g><rect class="legendtoggle" x="0" y="-9.5" width="109.265625" height="19" style="fill: rgb(0, 0, 0); fill-opacity: 0;"/></g></g><g class="groups" transform=""><g class="traces" transform="translate(0,51.7)" style="opacity: 1;"><text class="legendtext" text-anchor="start" x="40" y="4.680000000000001" style="font-family: 'Open Sans', verdana, arial, sans-serif; font-size: 12px; fill: rgb(42, 63, 95); fill-opacity: 1; white-space: pre;">5, Single</text><g class="layers" style="opacity: 1;"><g class="legendfill"/><g class="legendlines"><path class="js-line" d="M5,0h30" style="fill: none; stroke: rgb(99, 110, 250); stroke-opacity: 1; stroke-dasharray: 3px, 3px; stroke-width: 2px;"/></g><g class="legendsymbols"><g class="legendpoints"/></g></g><rect class="legendtoggle" x="0" y="-9.5" width="109.265625" height="19" style="fill: rgb(0, 0, 0); fill-opacity: 0;"/></g></g><g class="groups" transform=""><g class="traces" transform="translate(0,70.7)" style="opacity: 1;"><text class="legendtext" text-anchor="start" x="40" y="4.680000000000001" style="font-family: 'Open Sans', verdana, arial, sans-serif; font-size: 12px; fill: rgb(42, 63, 95); fill-opacity: 1; white-space: pre;">5, Varying</text><g class="layers" style="opacity: 1;"><g class="legendfill"/><g class="legendlines"><path class="js-line" d="M5,0h30" style="fill: none; stroke: rgb(99, 110, 250); stroke-opacity: 1; stroke-dasharray: 9px, 9px; stroke-width: 2px;"/></g><g class="legendsymbols"><g class="legendpoints"/></g></g><rect class="legendtoggle" x="0" y="-9.5" width="109.265625" height="19" style="fill: rgb(0, 0, 0); fill-opacity: 0;"/></g></g><g class="groups" transform=""><g class="traces" transform="translate(0,89.7)" style="opacity: 1;"><text class="legendtext" text-anchor="start" x="40" y="4.680000000000001" style="font-family: 'Open Sans', verdana, arial, sans-serif; font-size: 12px; fill: rgb(42, 63, 95); fill-opacity: 1; white-space: pre;">10, Fixed</text><g class="layers" style="opacity: 1;"><g class="legendfill"/><g class="legendlines"><path class="js-line" d="M5,0h30" style="fill: none; stroke: rgb(239, 85, 59); stroke-opacity: 1; stroke-width: 2px;"/></g><g class="legendsymbols"><g class="legendpoints"/></g></g><rect class="legendtoggle" x="0" y="-9.5" width="109.265625" height="19" style="fill: rgb(0, 0, 0); fill-opacity: 0;"/></g></g><g class="groups" transform=""><g class="traces" transform="translate(0,108.7)" style="opacity: 1;"><text class="legendtext" text-anchor="start" x="40" y="4.680000000000001" style="font-family: 'Open Sans', verdana, arial, sans-serif; font-size: 12px; fill: rgb(42, 63, 95); fill-opacity: 1; white-space: pre;">10, Single</text><g class="layers" style="opacity: 1;"><g class="legendfill"/><g class="legendlines"><path class="js-line" d="M5,0h30" style="fill: none; stroke: rgb(239, 85, 59); stroke-opacity: 1; stroke-dasharray: 3px, 3px; stroke-width: 2px;"/></g><g class="legendsymbols"><g class="legendpoints"/></g></g><rect class="legendtoggle" x="0" y="-9.5" width="109.265625" height="19" style="fill: rgb(0, 0, 0); fill-opacity: 0;"/></g></g><g class="groups" transform=""><g class="traces" transform="translate(0,127.7)" style="opacity: 1;"><text class="legendtext" text-anchor="start" x="40" y="4.680000000000001" style="font-family: 'Open Sans', verdana, arial, sans-serif; font-size: 12px; fill: rgb(42, 63, 95); fill-opacity: 1; white-space: pre;">10, Varying</text><g class="layers" style="opacity: 1;"><g class="legendfill"/><g class="legendlines"><path class="js-line" d="M5,0h30" style="fill: none; stroke: rgb(239, 85, 59); stroke-opacity: 1; stroke-dasharray: 9px, 9px; stroke-width: 2px;"/></g><g class="legendsymbols"><g class="legendpoints"/></g></g><rect class="legendtoggle" x="0" y="-9.5" width="109.265625" height="19" style="fill: rgb(0, 0, 0); fill-opacity: 0;"/></g></g><g class="groups" transform=""><g class="traces" transform="translate(0,146.7)" style="opacity: 1;"><text class="legendtext" text-anchor="start" x="40" y="4.680000000000001" style="font-family: 'Open Sans', verdana, arial, sans-serif; font-size: 12px; fill: rgb(42, 63, 95); fill-opacity: 1; white-space: pre;">15, Fixed</text><g class="layers" style="opacity: 1;"><g class="legendfill"/><g class="legendlines"><path class="js-line" d="M5,0h30" style="fill: none; stroke: rgb(0, 204, 150); stroke-opacity: 1; stroke-width: 2px;"/></g><g class="legendsymbols"><g class="legendpoints"/></g></g><rect class="legendtoggle" x="0" y="-9.5" width="109.265625" height="19" style="fill: rgb(0, 0, 0); fill-opacity: 0;"/></g></g><g class="groups" transform=""><g class="traces" transform="translate(0,165.7)" style="opacity: 1;"><text class="legendtext" text-anchor="start" x="40" y="4.680000000000001" style="font-family: 'Open Sans', verdana, arial, sans-serif; font-size: 12px; fill: rgb(42, 63, 95); fill-opacity: 1; white-space: pre;">15, Single</text><g class="layers" style="opacity: 1;"><g class="legendfill"/><g class="legendlines"><path class="js-line" d="M5,0h30" style="fill: none; stroke: rgb(0, 204, 150); stroke-opacity: 1; stroke-dasharray: 3px, 3px; stroke-width: 2px;"/></g><g class="legendsymbols"><g class="legendpoints"/></g></g><rect class="legendtoggle" x="0" y="-9.5" width="109.265625" height="19" style="fill: rgb(0, 0, 0); fill-opacity: 0;"/></g></g><g class="groups" transform=""><g class="traces" transform="translate(0,184.7)" style="opacity: 1;"><text class="legendtext" text-anchor="start" x="40" y="4.680000000000001" style="font-family: 'Open Sans', verdana, arial, sans-serif; font-size: 12px; fill: rgb(42, 63, 95); fill-opacity: 1; white-space: pre;">15, Varying</text><g class="layers" style="opacity: 1;"><g class="legendfill"/><g class="legendlines"><path class="js-line" d="M5,0h30" style="fill: none; stroke: rgb(0, 204, 150); stroke-opacity: 1; stroke-dasharray: 9px, 9px; stroke-width: 2px;"/></g><g class="legendsymbols"><g class="legendpoints"/></g></g><rect class="legendtoggle" x="0" y="-9.5" width="109.265625" height="19" style="fill: rgb(0, 0, 0); fill-opacity: 0;"/></g></g></g><rect class="scrollbar" rx="20" ry="3" width="0" height="0" x="0" y="0" style="fill: rgb(128, 139, 164); fill-opacity: 1;"/></g><g class="g-gtitle"><text class="gtitle" x="60" y="50" text-anchor="start" dy="0em" style="font-family: 'Open Sans', verdana, arial, sans-serif; font-size: 17px; fill: rgb(42, 63, 95); opacity: 1; font-weight: normal; white-space: pre;">UE Sinr DL COV - CDF</text></g><g class="g-xtitle"><text class="xtitle" x="523.5" y="460.8" text-anchor="middle" style="font-family: 'Open Sans', verdana, arial, sans-serif; font-size: 14px; fill: rgb(42, 63, 95); opacity: 1; font-weight: normal; white-space: pre;">Sinr:Mean COV</text></g><g class="g-ytitle"><text class="ytitle" transform="rotate(-90,34.575,260)" x="34.575" y="260" text-anchor="middle" style="font-family: 'Open Sans', verdana, arial, sans-serif; font-size: 14px; fill: rgb(42, 63, 95); opacity: 1; font-weight: normal; white-space: pre;">probability</text></g><g class="annotation" data-index="0" style="opacity: 1;"><g class="annotation-text-g" transform="rotate(0,523.5,90.5)"><g class="cursor-pointer" transform="translate(491,81)"><rect class="bg" x="0.5" y="0.5" width="65" height="18" style="stroke-width: 1px; stroke: rgb(0, 0, 0); stroke-opacity: 0; fill: rgb(0, 0, 0); fill-opacity: 0;"/><text class="annotation-text" text-anchor="middle" x="32.703125" y="14" style="font-family: 'Open Sans', verdana, arial, sans-serif; font-size: 12px; fill: rgb(42, 63, 95); fill-opacity: 1; white-space: pre;">Power=30</text></g></g></g></g></svg>