<svg class="main-svg" xmlns="http://www.w3.org/2000/svg" xmlns:xlink="http://www.w3.org/1999/xlink" width="1200" height="500" style="" viewBox="0 0 1200 500"><rect x="0" y="0" width="1200" height="500" style="fill: rgb(255, 255, 255); fill-opacity: 1;"/><defs id="defs-e3adfa"><g class="clips"><clipPath id="clipe3adfaxyplot" class="plotclip"><rect width="887" height="320"/></clipPath><clipPath class="axesclip" id="clipe3adfax"><rect x="80" y="0" width="887" height="500"/></clipPath><clipPath class="axesclip" id="clipe3adfay"><rect x="0" y="100" width="1200" height="320"/></clipPath><clipPath class="axesclip" id="clipe3adfaxy"><rect x="80" y="100" width="887" height="320"/></clipPath></g><g class="gradients"/><g class="patterns"/></defs><g class="bglayer"><rect class="bg" x="80" y="100" width="887" height="320" style="fill: rgb(229, 236, 246); fill-opacity: 1; stroke-width: 0;"/></g><g class="layer-below"><g class="imagelayer"/><g class="shapelayer"/></g><g class="cartesianlayer"><g class="subplot xy"><g class="layer-subplot"><g class="shapelayer"/><g class="imagelayer"/></g><g class="minor-gridlayer"><g class="x"/><g class="y"/></g><g class="gridlayer"><g class="x"><path class="xgrid crisp" transform="translate(123.11,0)" d="M0,100v320" style="stroke: rgb(255, 255, 255); stroke-opacity: 1; stroke-width: 1px;"/><path class="xgrid crisp" transform="translate(220.33,0)" d="M0,100v320" style="stroke: rgb(255, 255, 255); stroke-opacity: 1; stroke-width: 1px;"/><path class="xgrid crisp" transform="translate(317.55,0)" d="M0,100v320" style="stroke: rgb(255, 255, 255); stroke-opacity: 1; stroke-width: 1px;"/><path class="xgrid crisp" transform="translate(414.78,0)" d="M0,100v320" style="stroke: rgb(255, 255, 255); stroke-opacity: 1; stroke-width: 1px;"/><path class="xgrid crisp" transform="translate(512,0)" d="M0,100v320" style="stroke: rgb(255, 255, 255); stroke-opacity: 1; stroke-width: 1px;"/><path class="xgrid crisp" transform="translate(609.23,0)" d="M0,100v320" style="stroke: rgb(255, 255, 255); stroke-opacity: 1; stroke-width: 1px;"/><path class="xgrid crisp" transform="translate(706.45,0)" d="M0,100v320" style="stroke: rgb(255, 255, 255); stroke-opacity: 1; stroke-width: 1px;"/><path class="xgrid crisp" transform="translate(803.68,0)" d="M0,100v320" style="stroke: rgb(255, 255, 255); stroke-opacity: 1; stroke-width: 1px;"/><path class="xgrid crisp" transform="translate(900.9,0)" d="M0,100v320" style="stroke: rgb(255, 255, 255); stroke-opacity: 1; stroke-width: 1px;"/></g><g class="y"><path class="ygrid crisp" transform="translate(0,359.2)" d="M80,0h887" style="stroke: rgb(255, 255, 255); stroke-opacity: 1; stroke-width: 1px;"/><path class="ygrid crisp" transform="translate(0,298.4)" d="M80,0h887" style="stroke: rgb(255, 255, 255); stroke-opacity: 1; stroke-width: 1px;"/><path class="ygrid crisp" transform="translate(0,237.6)" d="M80,0h887" style="stroke: rgb(255, 255, 255); stroke-opacity: 1; stroke-width: 1px;"/><path class="ygrid crisp" transform="translate(0,176.8)" d="M80,0h887" style="stroke: rgb(255, 255, 255); stroke-opacity: 1; stroke-width: 1px;"/><path class="ygrid crisp" transform="translate(0,116)" d="M80,0h887" style="stroke: rgb(255, 255, 255); stroke-opacity: 1; stroke-width: 1px;"/></g></g><g class="zerolinelayer"><path class="yzl zl crisp" transform="translate(0,420)" d="M80,0h887" style="stroke: rgb(255, 255, 255); stroke-opacity: 1; stroke-width: 2px;"/></g><path class="xlines-below"/><path class="ylines-below"/><g class="overlines-below"/><g class="xaxislayer-below"/><g class="yaxislayer-below"/><g class="overaxes-below"/><g class="plot" transform="translate(80,100)" clip-path="url(#clipe3adfaxyplot)"><g class="scatterlayer mlayer"><g class="trace scatter tracedc32b0" style="stroke-miterlimit: 2; opacity: 1;"><g class="fills"/><g class="errorbars"/><g class="lines"><path class="js-line" d="M226.44,16V21.07H240.55V26.13H252.71V31.2H273.86V36.27H276.12V41.33H280.09V46.4H294.94V51.47H295.35V56.53H300.85V61.6H301.46V66.67H314.59V71.73H323.74V76.8H329.34V81.87H340.19V86.93H344.97V92H347.73V97.07H350.38V102.13H357.94V107.2H367.95V112.27H368.14V117.33H368.68V122.4H377.21V127.47H377.74V132.53H378.23V137.6H384.07V142.67H393.78V147.73H402.79V152.8H415.8V157.87H425.95V162.93H429.1V168H429.22V173.07H437.72V178.13H440.48V183.2H449.09V188.27H456.42V193.33H464.04V198.4H466.1V203.47H473.38V208.53H474.25V213.6H492.95V218.67H500.62V223.73H515.56V228.8H522.32V233.87H535.17V238.93H541.46V244H544.15V249.07H546.15V254.13H548.36V259.2H561.99V264.27H565.52V269.33H568.96V274.4H575.87V279.47H599.83V284.53H606.79V289.6H621.61V294.67H670.77V299.73H782.58V304.8H784.33V309.87H789.64V314.93H843.43" style="vector-effect: non-scaling-stroke; fill: none; stroke: rgb(99, 110, 250); stroke-opacity: 1; stroke-width: 2px; opacity: 1;"/></g><g class="points"/><g class="text"/></g><g class="trace scatter trace3117b7" style="stroke-miterlimit: 2; opacity: 1;"><g class="fills"/><g class="errorbars"/><g class="lines"><path class="js-line" d="M74.8,16V21.07H183.48V26.13H188.35V31.2H218.88V36.27H230.27V41.33H238.61V46.4H262.06V51.47H291.97V56.53H294.53V61.6H306.2V66.67H317.73V71.73H320.51V76.8H323.25V81.87H328.28V86.93H355.91V92H357.15V97.07H367.32V102.13H369.18V107.2H370.13V112.27H372.07V117.33H379.25V122.4H381.26V127.47H383.83V132.53H388.16V137.6H392.62V142.67H398.74V147.73H410.05V152.8H414.18V157.87H417.93V162.93H442.83V168H451V173.07H455.59V178.13H461.98V183.2H464.74V188.27H475V193.33H479.43V198.4H485.14V203.47H494.12V208.53H494.13V213.6H502.59V218.67H506.84V223.73H506.98V228.8H512.38V233.87H513.62V238.93H529.06V244H529.25V249.07H534.72V254.13H534.75V259.2H537.48V264.27H538.47V269.33H550.04V274.4H577.51V279.47H587.6V284.53H602.06V289.6H632.43V294.67H636.06V299.73H658.68V304.8H685.46V309.87H742.82V314.93H743.23" style="vector-effect: non-scaling-stroke; fill: none; stroke: rgb(99, 110, 250); stroke-opacity: 1; stroke-width: 2px; opacity: 1; stroke-dasharray: 3px, 3px;"/></g><g class="points"/><g class="text"/></g><g class="trace scatter trace2c4c25" style="stroke-miterlimit: 2; opacity: 1;"><g class="fills"/><g class="errorbars"/><g class="lines"><path class="js-line" d="M177.25,16V21.07H219.35V26.13H242.56V31.2H243.17V36.27H254.75V41.33H255.48V46.4H268.59V51.47H296.9V56.53H316.16V61.6H318.12V66.67H333.14V71.73H341.61V76.8H343.89V81.87H347.38V86.93H349.07V92H373.11V97.07H376.18V102.13H394.72V107.2H395.9V112.27H405.11V117.33H415.02V122.4H418.33V127.47H430.95V132.53H437.26V137.6H439.65V142.67H441.14V147.73H445.04V152.8H445.55V157.87H447.51V162.93H450.21V168H457.78V173.07H461.89V178.13H463.45V183.2H468.2V188.27H473.79V193.33H490.33V198.4H492.97V203.47H493.95V208.53H502.32V213.6H504.54V218.67H516.17V223.73H528.63V228.8H529.62V233.87H531.86V238.93H552.72V244H556.36V249.07H562.31V254.13H568.14V259.2H611.39V264.27H623.94V269.33H627.51V274.4H663.05V279.47H667.47V284.53H673.3V289.6H697.18V294.67H697.32V299.73H698.19V304.8H743.27V309.87H794.28V314.93H887" style="vector-effect: non-scaling-stroke; fill: none; stroke: rgb(99, 110, 250); stroke-opacity: 1; stroke-width: 2px; opacity: 1; stroke-dasharray: 9px, 9px;"/></g><g class="points"/><g class="text"/></g><g class="trace scatter tracecc8a1b" style="stroke-miterlimit: 2; opacity: 1;"><g class="fills"/><g class="errorbars"/><g class="lines"><path class="js-line" d="M112.11,16V21.07H124.24V26.13H131.51V31.2H179.03V36.27H193.81V41.33H200.27V46.4H204.76V51.47H209.87V56.53H250.59V61.6H252.06V66.67H253.11V71.73H258.21V76.8H268.99V81.87H271.12V86.93H271.65V92H279.38V97.07H290.36V102.13H292.39V107.2H303.28V112.27H307.95V117.33H314.85V122.4H315.79V127.47H322.16V132.53H325.09V137.6H327.13V142.67H327.45V147.73H329.46V152.8H339.5V157.87H343.53V162.93H345.47V168H353.14V173.07H355.51V178.13H362.21V183.2H366.59V188.27H369.79V193.33H375.56V198.4H381.94V203.47H388.49V208.53H399.45V213.6H410.92V218.67H423.29V223.73H424.83V228.8H428.8V233.87H447.41V238.93H461.75V244H467.51V249.07H490.24V254.13H490.68V259.2H492.02V264.27H502.53V269.33H509.67V274.4H517.79V279.47H526.19V284.53H535.8V289.6H552.37V294.67H553.89V299.73H566.13V304.8H569.06V309.87H584.76V314.93H722.52" style="vector-effect: non-scaling-stroke; fill: none; stroke: rgb(239, 85, 59); stroke-opacity: 1; stroke-width: 2px; opacity: 1;"/></g><g class="points"/><g class="text"/></g><g class="trace scatter trace982776" style="stroke-miterlimit: 2; opacity: 1;"><g class="fills"/><g class="errorbars"/><g class="lines"><path class="js-line" d="M101.93,16V21.07H161.64V26.13H187.41V31.2H199.52V36.27H203.46V41.33H203.8V46.4H214.63V51.47H237.42V56.53H241.59V61.6H245.34V66.67H252.86V71.73H264V76.8H272.13V81.87H276.6V86.93H280.49V92H282.54V97.07H282.62V102.13H284.74V107.2H286.5V112.27H293.34V117.33H304.21V122.4H306.53V127.47H308.16V132.53H313.26V137.6H324.15V142.67H333.88V147.73H353.36V152.8H384.67V157.87H388.86V162.93H395.72V168H411.77V173.07H416V178.13H423.72V183.2H425.56V188.27H427.56V193.33H432.51V198.4H437.97V203.47H438.41V208.53H440.02V213.6H440.2V218.67H440.3V223.73H441.21V228.8H443.78V233.87H445.58V238.93H446.61V244H448.46V249.07H470.39V254.13H496.04V259.2H515.03V264.27H518.96V269.33H534.55V274.4H536.94V279.47H545.61V284.53H557.9V289.6H571.72V294.67H586.65V299.73H592.81V304.8H620.87V309.87H635.17V314.93H698.94" style="vector-effect: non-scaling-stroke; fill: none; stroke: rgb(239, 85, 59); stroke-opacity: 1; stroke-width: 2px; opacity: 1; stroke-dasharray: 3px, 3px;"/></g><g class="points"/><g class="text"/></g><g class="trace scatter trace3498fb" style="stroke-miterlimit: 2; opacity: 1;"><g class="fills"/><g class="errorbars"/><g class="lines"><path class="js-line" d="M69.27,16V21.07H90.68V26.13H111.4V31.2H139.3V36.27H198.85V41.33H200.03V46.4H208.77V51.47H210.46V56.53H212.76V61.6H231.76V66.67H240.21V71.73H240.72V76.8H246.27V81.87H246.33V86.93H269.32V92H290.67V97.07H296.2V102.13H296.32V107.2H296.46V112.27H304.88V117.33H307.42V122.4H309.64V127.47H312.64V132.53H316.53V137.6H318.59V142.67H325.47V147.73H332.98V152.8H336.07V157.87H340.8V162.93H345.93V168H349.17V173.07H352.08V178.13H366.81V183.2H375.91V188.27H376.48V193.33H377.65V198.4H378.47V203.47H379.61V208.53H379.69V213.6H384.19V218.67H385.67V223.73H386.77V228.8H389.09V233.87H391.3V238.93H403.22V244H404.53V249.07H418.5V254.13H429.5V259.2H431.69V264.27H441.5V269.33H445.77V274.4H446.63V279.47H462.35V284.53H470.22V289.6H484.48V294.67H485.86V299.73H522.59V304.8H563.35V309.87H617.45V314.93H621.09" style="vector-effect: non-scaling-stroke; fill: none; stroke: rgb(239, 85, 59); stroke-opacity: 1; stroke-width: 2px; opacity: 1; stroke-dasharray: 9px, 9px;"/></g><g class="points"/><g class="text"/></g><g class="trace scatter trace9d66d4" style="stroke-miterlimit: 2; opacity: 1;"><g class="fills"/><g class="errorbars"/><g class="lines"><path class="js-line" d="M25.66,16V21.07H71.82V26.13H90.91V31.2H119.4V36.27H119.87V41.33H133.96V46.4H140.45V51.47H141.91V56.53H146.49V61.6H147.79V66.67H151.03V71.73H155.98V76.8H171.86V81.87H187.29V86.93H188.38V92H190.36V97.07H194.48V102.13H195.4V107.2H201.47V112.27H201.52V117.33H206.25V122.4H212.53V127.47H221.08V132.53H221.75V137.6H225.21V142.67H237.86V147.73H241.07V152.8H244.67V157.87H245.56V162.93H249V168H249.77V173.07H253.24V178.13H263.38V183.2H266.03V188.27H270.41V193.33H282.22V198.4H284.12V203.47H290.9V208.53H291.61V213.6H301.68V218.67H302.68V223.73H306.01V228.8H314.7V233.87H316.71V238.93H328.14V244H331.31V249.07H335.6V254.13H346.33V259.2H346.81V264.27H353.5V269.33H356.31V274.4H360.41V279.47H364.71V284.53H371.15V289.6H393.36V294.67H424.69V299.73H435.67V304.8H459.13V309.87H507.78V314.93H605.8" style="vector-effect: non-scaling-stroke; fill: none; stroke: rgb(0, 204, 150); stroke-opacity: 1; stroke-width: 2px; opacity: 1;"/></g><g class="points"/><g class="text"/></g><g class="trace scatter trace86be2c" style="stroke-miterlimit: 2; opacity: 1;"><g class="fills"/><g class="errorbars"/><g class="lines"><path class="js-line" d="M0,16V21.07H96.67V26.13H119.01V31.2H120.44V36.27H126.35V41.33H135.9V46.4H154.47V51.47H155.19V56.53H158.75V61.6H159V66.67H160.13V71.73H170.59V76.8H171.8V81.87H188.3V86.93H190.2V92H192V97.07H192.84V102.13H195.43V107.2H199.99V112.27H204.92V117.33H209.56V122.4H217.12V127.47H222.24V132.53H229.22V137.6H235.26V142.67H236.59V147.73H239.08V152.8H240.29V157.87H242.95V162.93H266.28V168H266.31V173.07H273.05V178.13H279.03V183.2H293.6V188.27H296.62V193.33H296.86V198.4H301.78V203.47H302.71V208.53H303.7V213.6H308.86V218.67H309.25V223.73H314.79V228.8H321.72V233.87H325.22V238.93H330.14V244H333.36V249.07H334.57V254.13H343.03V259.2H354.24V264.27H358.87V269.33H362.59V274.4H371.41V279.47H377.09V284.53H395.02V289.6H405.14V294.67H410.8V299.73H453.77V304.8H457.75V309.87H461.96V314.93H518.78" style="vector-effect: non-scaling-stroke; fill: none; stroke: rgb(0, 204, 150); stroke-opacity: 1; stroke-width: 2px; opacity: 1; stroke-dasharray: 3px, 3px;"/></g><g class="points"/><g class="text"/></g><g class="trace scatter traced4e602" style="stroke-miterlimit: 2; opacity: 1;"><g class="fills"/><g class="errorbars"/><g class="lines"><path class="js-line" d="M59.97,16V21.07H61.09V26.13H118.32V31.2H124.87V36.27H126.7V41.33H130.37V46.4H135.61V51.47H142.94V56.53H149.52V61.6H153.58V66.67H158.62V71.73H160.28V76.8H176.47V81.87H186.09V86.93H190.59V92H191.2V97.07H191.38V102.13H197.75V107.2H199.41V112.27H203.9V117.33H207.19V122.4H212.37V127.47H212.97V132.53H221.22V137.6H226.73V142.67H228.25V147.73H236V152.8H237.43V157.87H243.88V162.93H253.81V168H256.88V173.07H257.78V178.13H260.12V183.2H260.36V188.27H262.58V193.33H264.28V198.4H267.56V203.47H276.64V208.53H278.7V213.6H298.89V218.67H300.99V223.73H301.26V228.8H317.72V233.87H326.07V238.93H330.66V244H347.08V249.07H347.08V254.13H352.27V259.2H353.16V264.27H359.71V269.33H361.39V274.4H379.86V279.47H396.1V284.53H400.81V289.6H421.13V294.67H421.29V299.73H427.6V304.8H444.42V309.87H472.25V314.93H477.65" style="vector-effect: non-scaling-stroke; fill: none; stroke: rgb(0, 204, 150); stroke-opacity: 1; stroke-width: 2px; opacity: 1; stroke-dasharray: 9px, 9px;"/></g><g class="points"/><g class="text"/></g></g></g><g class="overplot"/><path class="xlines-above crisp" d="M0,0" style="fill: none;"/><path class="ylines-above crisp" d="M0,0" style="fill: none;"/><g class="overlines-above"/><g class="xaxislayer-above"><g class="xtick"><text text-anchor="middle" x="0" y="433" transform="translate(123.11,0)" style="font-family: 'Open Sans', verdana, arial, sans-serif; font-size: 12px; fill: rgb(42, 63, 95); fill-opacity: 1; white-space: pre; opacity: 1;">0.2</text></g><g class="xtick"><text text-anchor="middle" x="0" y="433" style="font-family: 'Open Sans', verdana, arial, sans-serif; font-size: 12px; fill: rgb(42, 63, 95); fill-opacity: 1; white-space: pre; opacity: 1;" transform="translate(220.33,0)">0.3</text></g><g class="xtick"><text text-anchor="middle" x="0" y="433" style="font-family: 'Open Sans', verdana, arial, sans-serif; font-size: 12px; fill: rgb(42, 63, 95); fill-opacity: 1; white-space: pre; opacity: 1;" transform="translate(317.55,0)">0.4</text></g><g class="xtick"><text text-anchor="middle" x="0" y="433" style="font-family: 'Open Sans', verdana, arial, sans-serif; font-size: 12px; fill: rgb(42, 63, 95); fill-opacity: 1; white-space: pre; opacity: 1;" transform="translate(414.78,0)">0.5</text></g><g class="xtick"><text text-anchor="middle" x="0" y="433" style="font-family: 'Open Sans', verdana, arial, sans-serif; font-size: 12px; fill: rgb(42, 63, 95); fill-opacity: 1; white-space: pre; opacity: 1;" transform="translate(512,0)">0.6</text></g><g class="xtick"><text text-anchor="middle" x="0" y="433" style="font-family: 'Open Sans', verdana, arial, sans-serif; font-size: 12px; fill: rgb(42, 63, 95); fill-opacity: 1; white-space: pre; opacity: 1;" transform="translate(609.23,0)">0.7</text></g><g class="xtick"><text text-anchor="middle" x="0" y="433" style="font-family: 'Open Sans', verdana, arial, sans-serif; font-size: 12px; fill: rgb(42, 63, 95); fill-opacity: 1; white-space: pre; opacity: 1;" transform="translate(706.45,0)">0.8</text></g><g class="xtick"><text text-anchor="middle" x="0" y="433" style="font-family: 'Open Sans', verdana, arial, sans-serif; font-size: 12px; fill: rgb(42, 63, 95); fill-opacity: 1; white-space: pre; opacity: 1;" transform="translate(803.68,0)">0.9</text></g><g class="xtick"><text text-anchor="middle" x="0" y="433" style="font-family: 'Open Sans', verdana, arial, sans-serif; font-size: 12px; fill: rgb(42, 63, 95); fill-opacity: 1; white-space: pre; opacity: 1;" transform="translate(900.9,0)">1</text></g></g><g class="yaxislayer-above"><g class="ytick"><text text-anchor="end" x="79" y="4.199999999999999" transform="translate(0,420)" style="font-family: 'Open Sans', verdana, arial, sans-serif; font-size: 12px; fill: rgb(42, 63, 95); fill-opacity: 1; white-space: pre; opacity: 1;">0</text></g><g class="ytick"><text text-anchor="end" x="79" y="4.199999999999999" style="font-family: 'Open Sans', verdana, arial, sans-serif; font-size: 12px; fill: rgb(42, 63, 95); fill-opacity: 1; white-space: pre; opacity: 1;" transform="translate(0,359.2)">0.2</text></g><g class="ytick"><text text-anchor="end" x="79" y="4.199999999999999" style="font-family: 'Open Sans', verdana, arial, sans-serif; font-size: 12px; fill: rgb(42, 63, 95); fill-opacity: 1; white-space: pre; opacity: 1;" transform="translate(0,298.4)">0.4</text></g><g class="ytick"><text text-anchor="end" x="79" y="4.199999999999999" style="font-family: 'Open Sans', verdana, arial, sans-serif; font-size: 12px; fill: rgb(42, 63, 95); fill-opacity: 1; white-space: pre; opacity: 1;" transform="translate(0,237.6)">0.6</text></g><g class="ytick"><text text-anchor="end" x="79" y="4.199999999999999" style="font-family: 'Open Sans', verdana, arial, sans-serif; font-size: 12px; fill: rgb(42, 63, 95); fill-opacity: 1; white-space: pre; opacity: 1;" transform="translate(0,176.8)">0.8</text></g><g class="ytick"><text text-anchor="end" x="79" y="4.199999999999999" style="font-family: 'Open Sans', verdana, arial, sans-serif; font-size: 12px; fill: rgb(42, 63, 95); fill-opacity: 1; white-space: pre; opacity: 1;" transform="translate(0,116)">1</text></g></g><g class="overaxes-above"/></g></g><g class="polarlayer"/><g class="smithlayer"/><g class="ternarylayer"/><g class="geolayer"/><g class="funnelarealayer"/><g class="pielayer"/><g class="iciclelayer"/><g class="treemaplayer"/><g class="sunburstlayer"/><g class="glimages"/><defs id="topdefs-e3adfa"><g class="clips"/><clipPath id="legende3adfa"><rect width="203" height="200" x="0" y="0"/></clipPath></defs><g class="layer-above"><g class="imagelayer"/><g class="shapelayer"/></g><g class="infolayer"><g class="legend" pointer-events="all" transform="translate(984.74,100)"><rect class="bg" shape-rendering="crispEdges" width="203" height="200" x="0" y="0" style="stroke: rgb(68, 68, 68); stroke-opacity: 1; fill: rgb(255, 255, 255); fill-opacity: 1; stroke-width: 0px;"/><g class="scrollbox" transform="" clip-path="url(#legende3adfa)"><text class="legendtitletext" text-anchor="start" x="2" y="18.2" style="font-family: 'Open Sans', verdana, arial, sans-serif; font-size: 14px; fill: rgb(42, 63, 95); fill-opacity: 1; white-space: pre;">Min Snr Used (dB), ILP Type</text><g class="groups" transform=""><g class="traces" transform="translate(0,32.7)" style="opacity: 1;"><text class="legendtext" text-anchor="start" x="40" y="4.680000000000001" style="font-family: 'Open Sans', verdana, arial, sans-serif; font-size: 12px; fill: rgb(42, 63, 95); fill-opacity: 1; white-space: pre;">5, Fixed</text><g class="layers" style="opacity: 1;"><g class="legendfill"/><g class="legendlines"><path class="js-line" d="M5,0h30" style="fill: none; stroke: rgb(99, 110, 250); stroke-opacity: 1; stroke-width: 2px;"/></g><g class="legendsymbols"><g class="legendpoints"/></g></g><rect class="legendtoggle" x="0" y="-9.5" width="109.265625" height="19" style="fill: rgb(0, 0, 0); fill-opacity: 0;"/></g></g><g class="groups" transform=""><g class="traces" transform="translate(0,51.7)" style="opacity: 1;"><text class="legendtext" text-anchor="start" x="40" y="4.680000000000001" style="font-family: 'Open Sans', verdana, arial, sans-serif; font-size: 12px; fill: rgb(42, 63, 95); fill-opacity: 1; white-space: pre;">5, Single</text><g class="layers" style="opacity: 1;"><g class="legendfill"/><g class="legendlines"><path class="js-line" d="M5,0h30" style="fill: none; stroke: rgb(99, 110, 250); stroke-opacity: 1; stroke-dasharray: 3px, 3px; stroke-width: 2px;"/></g><g class="legendsymbols"><g class="legendpoints"/></g></g><rect class="legendtoggle" x="0" y="-9.5" width="109.265625" height="19" style="fill: rgb(0, 0, 0); fill-opacity: 0;"/></g></g><g class="groups" transform=""><g class="traces" transform="translate(0,70.7)" style="opacity: 1;"><text class="legendtext" text-anchor="start" x="40" y="4.680000000000001" style="font-family: 'Open Sans', verdana, arial, sans-serif; font-size: 12px; fill: rgb(42, 63, 95); fill-opacity: 1; white-space: pre;">5, Varying</text><g class="layers" style="opacity: 1;"><g class="legendfill"/><g class="legendlines"><path class="js-line" d="M5,0h30" style="fill: none; stroke: rgb(99, 110, 250); stroke-opacity: 1; stroke-dasharray: 9px, 9px; stroke-width: 2px;"/></g><g class="legendsymbols"><g class="legendpoints"/></g></g><rect class="legendtoggle" x="0" y="-9.5" width="109.265625" height="19" style="fill: rgb(0, 0, 0); fill-opacity: 0;"/></g></g><g class="groups" transform=""><g class="traces" transform="translate(0,89.7)" style="opacity: 1;"><text class="legendtext" text-anchor="start" x="40" y="4.680000000000001" style="font-family: 'Open Sans', verdana, arial, sans-serif; font-size: 12px; fill: rgb(42, 63, 95); fill-opacity: 1; white-space: pre;">10, Fixed</text><g class="layers" style="opacity: 1;"><g class="legendfill"/><g class="legendlines"><path class="js-line" d="M5,0h30" style="fill: none; stroke: rgb(239, 85, 59); stroke-opacity: 1; stroke-width: 2px;"/></g><g class="legendsymbols"><g class="legendpoints"/></g></g><rect class="legendtoggle" x="0" y="-9.5" width="109.265625" height="19" style="fill: rgb(0, 0, 0); fill-opacity: 0;"/></g></g><g class="groups" transform=""><g class="traces" transform="translate(0,108.7)" style="opacity: 1;"><text class="legendtext" text-anchor="start" x="40" y="4.680000000000001" style="font-family: 'Open Sans', verdana, arial, sans-serif; font-size: 12px; fill: rgb(42, 63, 95); fill-opacity: 1; white-space: pre;">10, Single</text><g class="layers" style="opacity: 1;"><g class="legendfill"/><g class="legendlines"><path class="js-line" d="M5,0h30" style="fill: none; stroke: rgb(239, 85, 59); stroke-opacity: 1; stroke-dasharray: 3px, 3px; stroke-width: 2px;"/></g><g class="legendsymbols"><g class="legendpoints"/></g></g><rect class="legendtoggle" x="0" y="-9.5" width="109.265625" height="19" style="fill: rgb(0, 0, 0); fill-opacity: 0;"/></g></g><g class="groups" transform=""><g class="traces" transform="translate(0,127.7)" style="opacity: 1;"><text class="legendtext" text-anchor="start" x="40" y="4.680000000000001" style="font-family: 'Open Sans', verdana, arial, sans-serif; font-size: 12px; fill: rgb(42, 63, 95); fill-opacity: 1; white-space: pre;">10, Varying</text><g class="layers" style="opacity: 1;"><g class="legendfill"/><g class="legendlines"><path class="js-line" d="M5,0h30" style="fill: none; stroke: rgb(239, 85, 59); stroke-opacity: 1; stroke-dasharray: 9px, 9px; stroke-width: 2px;"/></g><g class="legendsymbols"><g class="legendpoints"/></g></g><rect class="legendtoggle" x="0" y="-9.5" width="109.265625" height="19" style="fill: rgb(0, 0, 0); fill-opacity: 0;"/></g></g><g class="groups" transform=""><g class="traces" transform="translate(0,146.7)" style="opacity: 1;"><text class="legendtext" text-anchor="start" x="40" y="4.680000000000001" style="font-family: 'Open Sans', verdana, arial, sans-serif; font-size: 12px; fill: rgb(42, 63, 95); fill-opacity: 1; white-space: pre;">15, Fixed</text><g class="layers" style="opacity: 1;"><g class="legendfill"/><g class="legendlines"><path class="js-line" d="M5,0h30" style="fill: none; stroke: rgb(0, 204, 150); stroke-opacity: 1; stroke-width: 2px;"/></g><g class="legendsymbols"><g class="legendpoints"/></g></g><rect class="legendtoggle" x="0" y="-9.5" width="109.265625" height="19" style="fill: rgb(0, 0, 0); fill-opacity: 0;"/></g></g><g class="groups" transform=""><g class="traces" transform="translate(0,165.7)" style="opacity: 1;"><text class="legendtext" text-anchor="start" x="40" y="4.680000000000001" style="font-family: 'Open Sans', verdana, arial, sans-serif; font-size: 12px; fill: rgb(42, 63, 95); fill-opacity: 1; white-space: pre;">15, Single</text><g class="layers" style="opacity: 1;"><g class="legendfill"/><g class="legendlines"><path class="js-line" d="M5,0h30" style="fill: none; stroke: rgb(0, 204, 150); stroke-opacity: 1; stroke-dasharray: 3px, 3px; stroke-width: 2px;"/></g><g class="legendsymbols"><g class="legendpoints"/></g></g><rect class="legendtoggle" x="0" y="-9.5" width="109.265625" height="19" style="fill: rgb(0, 0, 0); fill-opacity: 0;"/></g></g><g class="groups" transform=""><g class="traces" transform="translate(0,184.7)" style="opacity: 1;"><text class="legendtext" text-anchor="start" x="40" y="4.680000000000001" style="font-family: 'Open Sans', verdana, arial, sans-serif; font-size: 12px; fill: rgb(42, 63, 95); fill-opacity: 1; white-space: pre;">15, Varying</text><g class="layers" style="opacity: 1;"><g class="legendfill"/><g class="legendlines"><path class="js-line" d="M5,0h30" style="fill: none; stroke: rgb(0, 204, 150); stroke-opacity: 1; stroke-dasharray: 9px, 9px; stroke-width: 2px;"/></g><g class="legendsymbols"><g class="legendpoints"/></g></g><rect class="legendtoggle" x="0" y="-9.5" width="109.265625" height="19" style="fill: rgb(0, 0, 0); fill-opacity: 0;"/></g></g></g><rect class="scrollbar" rx="20" ry="3" width="0" height="0" x="0" y="0" style="fill: rgb(128, 139, 164); fill-opacity: 1;"/></g><g class="g-gtitle"><text class="gtitle" x="60" y="50" text-anchor="start" dy="0em" style="font-family: 'Open Sans', verdana, arial, sans-serif; font-size: 17px; fill: rgb(42, 63, 95); opacity: 1; font-weight: normal; white-space: pre;">UEs Throughput COV DL - CDF</text></g><g class="g-xtitle"><text class="xtitle" x="523.5" y="460.8" text-anchor="middle" style="font-family: 'Open Sans', verdana, arial, sans-serif; font-size: 14px; fill: rgb(42, 63, 95); opacity: 1; font-weight: normal; white-space: pre;">Throughput:Mean COV</text></g><g class="g-ytitle"><text class="ytitle" transform="rotate(-90,34.575,260)" x="34.575" y="260" text-anchor="middle" style="font-family: 'Open Sans', verdana, arial, sans-serif; font-size: 14px; fill: rgb(42, 63, 95); opacity: 1; font-weight: normal; white-space: pre;">probability</text></g><g class="annotation" data-index="0" style="opacity: 1;"><g class="annotation-text-g" transform="rotate(0,523.5,90.5)"><g class="cursor-pointer" transform="translate(491,81)"><rect class="bg" x="0.5" y="0.5" width="65" height="18" style="stroke-width: 1px; stroke: rgb(0, 0, 0); stroke-opacity: 0; fill: rgb(0, 0, 0); fill-opacity: 0;"/><text class="annotation-text" text-anchor="middle" x="32.703125" y="14" style="font-family: 'Open Sans', verdana, arial, sans-serif; font-size: 12px; fill: rgb(42, 63, 95); fill-opacity: 1; white-space: pre;">Power=30</text></g></g></g></g></svg>