<svg class="main-svg" xmlns="http://www.w3.org/2000/svg" xmlns:xlink="http://www.w3.org/1999/xlink" width="1200" height="500" style="" viewBox="0 0 1200 500"><rect x="0" y="0" width="1200" height="500" style="fill: rgb(255, 255, 255); fill-opacity: 1;"/><defs id="defs-756ac7"><g class="clips"><clipPath id="clip756ac7xyplot" class="plotclip"><rect width="887" height="320"/></clipPath><clipPath class="axesclip" id="clip756ac7x"><rect x="80" y="0" width="887" height="500"/></clipPath><clipPath class="axesclip" id="clip756ac7y"><rect x="0" y="100" width="1200" height="320"/></clipPath><clipPath class="axesclip" id="clip756ac7xy"><rect x="80" y="100" width="887" height="320"/></clipPath></g><g class="gradients"/><g class="patterns"/></defs><g class="bglayer"><rect class="bg" x="80" y="100" width="887" height="320" style="fill: rgb(229, 236, 246); fill-opacity: 1; stroke-width: 0;"/></g><g class="layer-below"><g class="imagelayer"/><g class="shapelayer"/></g><g class="cartesianlayer"><g class="subplot xy"><g class="layer-subplot"><g class="shapelayer"/><g class="imagelayer"/></g><g class="minor-gridlayer"><g class="x"/><g class="y"/></g><g class="gridlayer"><g class="x"><path class="xgrid crisp" transform="translate(108.16,0)" d="M0,100v320" style="stroke: rgb(255, 255, 255); stroke-opacity: 1; stroke-width: 1px;"/><path class="xgrid crisp" transform="translate(223.72,0)" d="M0,100v320" style="stroke: rgb(255, 255, 255); stroke-opacity: 1; stroke-width: 1px;"/><path class="xgrid crisp" transform="translate(339.28,0)" d="M0,100v320" style="stroke: rgb(255, 255, 255); stroke-opacity: 1; stroke-width: 1px;"/><path class="xgrid crisp" transform="translate(454.84,0)" d="M0,100v320" style="stroke: rgb(255, 255, 255); stroke-opacity: 1; stroke-width: 1px;"/><path class="xgrid crisp" transform="translate(570.4,0)" d="M0,100v320" style="stroke: rgb(255, 255, 255); stroke-opacity: 1; stroke-width: 1px;"/><path class="xgrid crisp" transform="translate(685.96,0)" d="M0,100v320" style="stroke: rgb(255, 255, 255); stroke-opacity: 1; stroke-width: 1px;"/><path class="xgrid crisp" transform="translate(801.52,0)" d="M0,100v320" style="stroke: rgb(255, 255, 255); stroke-opacity: 1; stroke-width: 1px;"/><path class="xgrid crisp" transform="translate(917.08,0)" d="M0,100v320" style="stroke: rgb(255, 255, 255); stroke-opacity: 1; stroke-width: 1px;"/></g><g class="y"><path class="ygrid crisp" transform="translate(0,359.2)" d="M80,0h887" style="stroke: rgb(255, 255, 255); stroke-opacity: 1; stroke-width: 1px;"/><path class="ygrid crisp" transform="translate(0,298.4)" d="M80,0h887" style="stroke: rgb(255, 255, 255); stroke-opacity: 1; stroke-width: 1px;"/><path class="ygrid crisp" transform="translate(0,237.6)" d="M80,0h887" style="stroke: rgb(255, 255, 255); stroke-opacity: 1; stroke-width: 1px;"/><path class="ygrid crisp" transform="translate(0,176.8)" d="M80,0h887" style="stroke: rgb(255, 255, 255); stroke-opacity: 1; stroke-width: 1px;"/><path class="ygrid crisp" transform="translate(0,116)" d="M80,0h887" style="stroke: rgb(255, 255, 255); stroke-opacity: 1; stroke-width: 1px;"/></g></g><g class="zerolinelayer"><path class="yzl zl crisp" transform="translate(0,420)" d="M80,0h887" style="stroke: rgb(255, 255, 255); stroke-opacity: 1; stroke-width: 2px;"/></g><path class="xlines-below"/><path class="ylines-below"/><g class="overlines-below"/><g class="xaxislayer-below"/><g class="yaxislayer-below"/><g class="overaxes-below"/><g class="plot" transform="translate(80,100)" clip-path="url(#clip756ac7xyplot)"><g class="scatterlayer mlayer"><g class="trace scatter trace5bdee8" style="stroke-miterlimit: 2; opacity: 1;"><g class="fills"/><g class="errorbars"/><g class="lines"><path class="js-line" d="M43.31,16V21.07H51.83V26.13H53.99V31.2H79.8V36.27H92.15V41.33H94.12V46.4H100.16V51.47H103.85V56.53H114.03V61.6H126.9V66.67H132.61V71.73H134.83V76.8H150.07V81.87H151.58V86.93H167.32V92H171.09V97.07H172.77V102.13H173.42V107.2H178.91V112.27H183.28V117.33H190.31V122.4H207.35V127.47H211.55V132.53H220.19V137.6H221.58V142.67H222.47V147.73H223.79V152.8H227.56V157.87H229.87V162.93H233.7V168H234.59V173.07H239.32V178.13H242.3V183.2H245.62V188.27H247.6V193.33H254.56V198.4H264.58V203.47H264.81V208.53H265.74V213.6H276.4V218.67H278.79V223.73H280.77V228.8H281.95V233.87H292.48V238.93H294.24V244H294.93V249.07H296.61V254.13H300.91V259.2H301V264.27H305.34V269.33H311.45V274.4H312.55V279.47H319.36V284.53H325.58V289.6H340.23V294.67H364.85V299.73H399.94V304.8H411.28V309.87H413.86V314.93H444.36" style="vector-effect: non-scaling-stroke; fill: none; stroke: rgb(99, 110, 250); stroke-opacity: 1; stroke-width: 2px; opacity: 1;"/></g><g class="points"/><g class="text"/></g><g class="trace scatter trace288cc5" style="stroke-miterlimit: 2; opacity: 1;"><g class="fills"/><g class="errorbars"/><g class="lines"><path class="js-line" d="M118.37,16V21.07H141.88V26.13H167.81V31.2H183.98V36.27H189.97V41.33H193.5V46.4H197.74V51.47H198.92V56.53H200.76V61.6H201.95V66.67H205.26V71.73H221.66V76.8H223.1V81.87H224.92V86.93H237.76V92H240.49V97.07H240.99V102.13H244.19V107.2H252.53V112.27H259.2V117.33H259.77V122.4H272.95V127.47H276.31V132.53H280.16V137.6H284.44V142.67H288.64V147.73H289.86V152.8H295.34V157.87H300.91V162.93H304.67V168H305.82V173.07H309.54V178.13H310.42V183.2H315.08V188.27H326.33V193.33H328.84V198.4H329.46V203.47H330.58V208.53H331.03V213.6H332.53V218.67H340.12V223.73H345.93V228.8H349.87V233.87H355.48V238.93H355.63V244H363.61V249.07H368.83V254.13H373.28V259.2H377.01V264.27H383.65V269.33H386.37V274.4H401.29V279.47H405.4V284.53H437.94V289.6H451.78V294.67H480.31V299.73H490.67V304.8H514.06V309.87H529.55V314.93H580.43" style="vector-effect: non-scaling-stroke; fill: none; stroke: rgb(99, 110, 250); stroke-opacity: 1; stroke-width: 2px; opacity: 1; stroke-dasharray: 3px, 3px;"/></g><g class="points"/><g class="text"/></g><g class="trace scatter tracebd0360" style="stroke-miterlimit: 2; opacity: 1;"><g class="fills"/><g class="errorbars"/><g class="lines"><path class="js-line" d="M0,16V21.07H10.51V26.13H38.58V31.2H40.44V36.27H54.55V41.33H61.32V46.4H94.47V51.47H96.59V56.53H107.79V61.6H113.11V66.67H128.12V71.73H128.38V76.8H129.69V81.87H136.91V86.93H140.58V92H141.7V97.07H142V102.13H143.41V107.2H143.97V112.27H152.91V117.33H166.88V122.4H167.2V127.47H172.38V132.53H174.51V137.6H175.3V142.67H176.54V147.73H183.02V152.8H204.52V157.87H205.06V162.93H206.8V168H210.15V173.07H221.62V178.13H228.29V183.2H229.24V188.27H233.81V193.33H234.44V198.4H237.03V203.47H237.09V208.53H244.07V213.6H245.32V218.67H246.44V223.73H250.85V228.8H252.08V233.87H252.45V238.93H254.82V244H266.8V249.07H275.96V254.13H283.2V259.2H291.72V264.27H299.6V269.33H299.89V274.4H318V279.47H322.07V284.53H330.53V289.6H339.8V294.67H351.61V299.73H356.38V304.8H389.09V309.87H400.68V314.93H413.58" style="vector-effect: non-scaling-stroke; fill: none; stroke: rgb(99, 110, 250); stroke-opacity: 1; stroke-width: 2px; opacity: 1; stroke-dasharray: 9px, 9px;"/></g><g class="points"/><g class="text"/></g><g class="trace scatter trace4e5bed" style="stroke-miterlimit: 2; opacity: 1;"><g class="fills"/><g class="errorbars"/><g class="lines"><path class="js-line" d="M103.52,16V21.07H162.95V26.13H278.81V31.2H292.85V36.27H295.44V41.33H312.13V46.4H313.71V51.47H316.04V56.53H316.11V61.6H319.92V66.67H321.38V71.73H325.39V76.8H326.66V81.87H330.38V86.93H331.13V92H331.62V97.07H336.43V102.13H340.71V107.2H344.02V112.27H346.4V117.33H367.67V122.4H379.45V127.47H379.73V132.53H382.07V137.6H385.25V142.67H386.08V147.73H395.14V152.8H395.96V157.87H402.71V162.93H404.45V168H405.52V173.07H405.84V178.13H423.38V183.2H423.45V188.27H424.99V193.33H431.7V198.4H435.57V203.47H437.75V208.53H440.79V213.6H450.82V218.67H464.47V223.73H465.63V228.8H468.94V233.87H472.83V238.93H477.02V244H484.16V249.07H494.73V254.13H497.66V259.2H501.41V264.27H502.77V269.33H507.58V274.4H511.65V279.47H517.7V284.53H524.53V289.6H541.34V294.67H567.34V299.73H575.45V304.8H598.08V309.87H638.73V314.93H801.02" style="vector-effect: non-scaling-stroke; fill: none; stroke: rgb(239, 85, 59); stroke-opacity: 1; stroke-width: 2px; opacity: 1;"/></g><g class="points"/><g class="text"/></g><g class="trace scatter trace13274f" style="stroke-miterlimit: 2; opacity: 1;"><g class="fills"/><g class="errorbars"/><g class="lines"><path class="js-line" d="M177.86,16V21.07H191.61V26.13H215.35V31.2H216.41V36.27H260.44V41.33H271.31V46.4H275.19V51.47H279.75V56.53H281.7V61.6H292.49V66.67H306.57V71.73H311.63V76.8H316.04V81.87H321.99V86.93H323.77V92H325.1V97.07H329.45V102.13H330.36V107.2H336.98V112.27H343.92V117.33H347.05V122.4H349.44V127.47H349.56V132.53H357.02V137.6H360.98V142.67H361.17V147.73H371.55V152.8H372.27V157.87H375.32V162.93H381.06V168H383.8V173.07H384.03V178.13H388.23V183.2H392.6V188.27H392.84V193.33H402.74V198.4H418.53V203.47H426.43V208.53H430.74V213.6H434.97V218.67H443.76V223.73H443.82V228.8H458.05V233.87H468.58V238.93H473.06V244H474.15V249.07H492.25V254.13H492.4V259.2H496.95V264.27H498.49V269.33H503.26V274.4H507.2V279.47H510.08V284.53H515.78V289.6H530.62V294.67H544.53V299.73H552.81V304.8H635.85V309.87H651.78V314.93H790.13" style="vector-effect: non-scaling-stroke; fill: none; stroke: rgb(239, 85, 59); stroke-opacity: 1; stroke-width: 2px; opacity: 1; stroke-dasharray: 3px, 3px;"/></g><g class="points"/><g class="text"/></g><g class="trace scatter trace982559" style="stroke-miterlimit: 2; opacity: 1;"><g class="fills"/><g class="errorbars"/><g class="lines"><path class="js-line" d="M160.08,16V21.07H169.4V26.13H174.29V31.2H181.13V36.27H189.99V41.33H221.7V46.4H223.01V51.47H242.15V56.53H258.98V61.6H262.35V66.67H269.21V71.73H274.9V76.8H286.52V81.87H300.19V86.93H303.59V92H315.3V97.07H319.91V102.13H328.57V107.2H340.46V112.27H359.73V117.33H361.27V122.4H367.9V127.47H371.81V132.53H373.24V137.6H374.62V142.67H380.96V147.73H385.65V152.8H396.23V157.87H398.72V162.93H405.71V168H407.89V173.07H422.7V178.13H425.16V183.2H430.1V188.27H433.68V193.33H448.39V198.4H451.56V203.47H463.24V208.53H466.19V213.6H467.88V218.67H473.18V223.73H474.33V228.8H477.67V233.87H481.31V238.93H483.41V244H493.6V249.07H496.14V254.13H502.04V259.2H506.67V264.27H508.46V269.33H510.65V274.4H513.32V279.47H515.43V284.53H515.83V289.6H541.14V294.67H552.91V299.73H565.17V304.8H587.24V309.87H640.89V314.93H677.46" style="vector-effect: non-scaling-stroke; fill: none; stroke: rgb(239, 85, 59); stroke-opacity: 1; stroke-width: 2px; opacity: 1; stroke-dasharray: 9px, 9px;"/></g><g class="points"/><g class="text"/></g><g class="trace scatter trace3075d3" style="stroke-miterlimit: 2; opacity: 1;"><g class="fills"/><g class="errorbars"/><g class="lines"><path class="js-line" d="M267.12,16V21.07H337.08V26.13H344.96V31.2H366.13V36.27H375.55V41.33H386.38V46.4H386.67V51.47H389.85V56.53H402.2V61.6H406.52V66.67H407.3V71.73H421.46V76.8H424.1V81.87H424.64V86.93H427.82V92H437.82V97.07H439.6V102.13H439.9V107.2H486.93V112.27H489.99V117.33H494.86V122.4H501.06V127.47H505.55V132.53H510.85V137.6H516.78V142.67H517.87V147.73H520.94V152.8H525.11V157.87H526.49V162.93H530.85V168H536.9V173.07H536.94V178.13H538.22V183.2H555.52V188.27H566.74V193.33H569.15V198.4H581.92V203.47H588.14V208.53H588.45V213.6H596.15V218.67H596.61V223.73H601.63V228.8H602.42V233.87H606.56V238.93H607.16V244H610.65V249.07H618.78V254.13H626.21V259.2H641.5V264.27H643.68V269.33H644.42V274.4H648.11V279.47H672.9V284.53H700.16V289.6H728.68V294.67H732.21V299.73H749.75V304.8H780.41V309.87H810.42V314.93H874.14" style="vector-effect: non-scaling-stroke; fill: none; stroke: rgb(0, 204, 150); stroke-opacity: 1; stroke-width: 2px; opacity: 1;"/></g><g class="points"/><g class="text"/></g><g class="trace scatter trace88be07" style="stroke-miterlimit: 2; opacity: 1;"><g class="fills"/><g class="errorbars"/><g class="lines"><path class="js-line" d="M355,16V21.07H363.6V26.13H368.87V31.2H374.3V36.27H385.46V41.33H387.1V46.4H388.48V51.47H400.99V56.53H404.96V61.6H407.96V66.67H409.69V71.73H411.69V76.8H427.34V81.87H438.31V86.93H438.42V92H462.07V97.07H464.15V102.13H476.28V107.2H477.01V112.27H482.57V117.33H485.46V122.4H486.85V127.47H490.77V132.53H492.28V137.6H505.51V142.67H513.72V147.73H520.89V152.8H522.71V157.87H522.95V162.93H526.05V168H529.73V173.07H530.13V178.13H532.23V183.2H534.91V188.27H535.14V193.33H559.61V198.4H568.79V203.47H576.2V208.53H577.65V213.6H587.59V218.67H606.31V223.73H616.12V228.8H625.93V233.87H626.54V238.93H636.41V244H645.88V249.07H652.82V254.13H670.68V259.2H675.13V264.27H682.41V269.33H699.44V274.4H719.4V279.47H736.17V284.53H737.05V289.6H744.79V294.67H754.83V299.73H756.48V304.8H769.55V309.87H790.51V314.93H818.91" style="vector-effect: non-scaling-stroke; fill: none; stroke: rgb(0, 204, 150); stroke-opacity: 1; stroke-width: 2px; opacity: 1; stroke-dasharray: 3px, 3px;"/></g><g class="points"/><g class="text"/></g><g class="trace scatter trace0e3eda" style="stroke-miterlimit: 2; opacity: 1;"><g class="fills"/><g class="errorbars"/><g class="lines"><path class="js-line" d="M281.53,16V21.07H327.85V26.13H329.78V31.2H334.42V36.27H359.11V41.33H371.19V46.4H383.34V51.47H398.38V56.53H403.78V61.6H415.18V66.67H427.15V71.73H427.75V76.8H431.42V81.87H434.73V86.93H436.66V92H439.64V97.07H446.77V102.13H453.79V107.2H455.79V112.27H456.8V117.33H458.44V122.4H462.55V127.47H468.47V132.53H470.23V137.6H471.27V142.67H477.15V147.73H478.88V152.8H479.41V157.87H484.37V162.93H486.78V168H490.8V173.07H498.71V178.13H500.82V183.2H500.88V188.27H505.17V193.33H521.55V198.4H523.84V203.47H526.45V208.53H529.05V213.6H543.84V218.67H552.59V223.73H555.56V228.8H559.99V233.87H579.43V238.93H582.62V244H585.05V249.07H592.18V254.13H592.9V259.2H620.03V264.27H620.76V269.33H630.14V274.4H666.52V279.47H670.71V284.53H673.65V289.6H677.92V294.67H699.66V299.73H732.87V304.8H744.27V309.87H755.29V314.93H887" style="vector-effect: non-scaling-stroke; fill: none; stroke: rgb(0, 204, 150); stroke-opacity: 1; stroke-width: 2px; opacity: 1; stroke-dasharray: 9px, 9px;"/></g><g class="points"/><g class="text"/></g></g></g><g class="overplot"/><path class="xlines-above crisp" d="M0,0" style="fill: none;"/><path class="ylines-above crisp" d="M0,0" style="fill: none;"/><g class="overlines-above"/><g class="xaxislayer-above"><g class="xtick"><text text-anchor="middle" x="0" y="433" transform="translate(108.16,0)" style="font-family: 'Open Sans', verdana, arial, sans-serif; font-size: 12px; fill: rgb(42, 63, 95); fill-opacity: 1; white-space: pre; opacity: 1;">1M</text></g><g class="xtick"><text text-anchor="middle" x="0" y="433" style="font-family: 'Open Sans', verdana, arial, sans-serif; font-size: 12px; fill: rgb(42, 63, 95); fill-opacity: 1; white-space: pre; opacity: 1;" transform="translate(223.72,0)">1.5M</text></g><g class="xtick"><text text-anchor="middle" x="0" y="433" style="font-family: 'Open Sans', verdana, arial, sans-serif; font-size: 12px; fill: rgb(42, 63, 95); fill-opacity: 1; white-space: pre; opacity: 1;" transform="translate(339.28,0)">2M</text></g><g class="xtick"><text text-anchor="middle" x="0" y="433" style="font-family: 'Open Sans', verdana, arial, sans-serif; font-size: 12px; fill: rgb(42, 63, 95); fill-opacity: 1; white-space: pre; opacity: 1;" transform="translate(454.84,0)">2.5M</text></g><g class="xtick"><text text-anchor="middle" x="0" y="433" style="font-family: 'Open Sans', verdana, arial, sans-serif; font-size: 12px; fill: rgb(42, 63, 95); fill-opacity: 1; white-space: pre; opacity: 1;" transform="translate(570.4,0)">3M</text></g><g class="xtick"><text text-anchor="middle" x="0" y="433" style="font-family: 'Open Sans', verdana, arial, sans-serif; font-size: 12px; fill: rgb(42, 63, 95); fill-opacity: 1; white-space: pre; opacity: 1;" transform="translate(685.96,0)">3.5M</text></g><g class="xtick"><text text-anchor="middle" x="0" y="433" style="font-family: 'Open Sans', verdana, arial, sans-serif; font-size: 12px; fill: rgb(42, 63, 95); fill-opacity: 1; white-space: pre; opacity: 1;" transform="translate(801.52,0)">4M</text></g><g class="xtick"><text text-anchor="middle" x="0" y="433" style="font-family: 'Open Sans', verdana, arial, sans-serif; font-size: 12px; fill: rgb(42, 63, 95); fill-opacity: 1; white-space: pre; opacity: 1;" transform="translate(917.08,0)">4.5M</text></g></g><g class="yaxislayer-above"><g class="ytick"><text text-anchor="end" x="79" y="4.199999999999999" transform="translate(0,420)" style="font-family: 'Open Sans', verdana, arial, sans-serif; font-size: 12px; fill: rgb(42, 63, 95); fill-opacity: 1; white-space: pre; opacity: 1;">0</text></g><g class="ytick"><text text-anchor="end" x="79" y="4.199999999999999" style="font-family: 'Open Sans', verdana, arial, sans-serif; font-size: 12px; fill: rgb(42, 63, 95); fill-opacity: 1; white-space: pre; opacity: 1;" transform="translate(0,359.2)">0.2</text></g><g class="ytick"><text text-anchor="end" x="79" y="4.199999999999999" style="font-family: 'Open Sans', verdana, arial, sans-serif; font-size: 12px; fill: rgb(42, 63, 95); fill-opacity: 1; white-space: pre; opacity: 1;" transform="translate(0,298.4)">0.4</text></g><g class="ytick"><text text-anchor="end" x="79" y="4.199999999999999" style="font-family: 'Open Sans', verdana, arial, sans-serif; font-size: 12px; fill: rgb(42, 63, 95); fill-opacity: 1; white-space: pre; opacity: 1;" transform="translate(0,237.6)">0.6</text></g><g class="ytick"><text text-anchor="end" x="79" y="4.199999999999999" style="font-family: 'Open Sans', verdana, arial, sans-serif; font-size: 12px; fill: rgb(42, 63, 95); fill-opacity: 1; white-space: pre; opacity: 1;" transform="translate(0,176.8)">0.8</text></g><g class="ytick"><text text-anchor="end" x="79" y="4.199999999999999" style="font-family: 'Open Sans', verdana, arial, sans-serif; font-size: 12px; fill: rgb(42, 63, 95); fill-opacity: 1; white-space: pre; opacity: 1;" transform="translate(0,116)">1</text></g></g><g class="overaxes-above"/></g></g><g class="polarlayer"/><g class="smithlayer"/><g class="ternarylayer"/><g class="geolayer"/><g class="funnelarealayer"/><g class="pielayer"/><g class="iciclelayer"/><g class="treemaplayer"/><g class="sunburstlayer"/><g class="glimages"/><defs id="topdefs-756ac7"><g class="clips"/><clipPath id="legend756ac7"><rect width="203" height="200" x="0" y="0"/></clipPath></defs><g class="layer-above"><g class="imagelayer"/><g class="shapelayer"/></g><g class="infolayer"><g class="legend" pointer-events="all" transform="translate(984.74,100)"><rect class="bg" shape-rendering="crispEdges" style="stroke: rgb(68, 68, 68); stroke-opacity: 1; fill: rgb(255, 255, 255); fill-opacity: 1; stroke-width: 0px;" width="203" height="200" x="0" y="0"/><g class="scrollbox" transform="" clip-path="url(#legend756ac7)"><text class="legendtitletext" text-anchor="start" x="2" y="18.2" style="font-family: 'Open Sans', verdana, arial, sans-serif; font-size: 14px; fill: rgb(42, 63, 95); fill-opacity: 1; white-space: pre;">Min Snr Used (dB), ILP Type</text><g class="groups" transform=""><g class="traces" transform="translate(0,32.7)" style="opacity: 1;"><text class="legendtext" text-anchor="start" x="40" y="4.680000000000001" style="font-family: 'Open Sans', verdana, arial, sans-serif; font-size: 12px; fill: rgb(42, 63, 95); fill-opacity: 1; white-space: pre;">5, Fixed</text><g class="layers" style="opacity: 1;"><g class="legendfill"/><g class="legendlines"><path class="js-line" d="M5,0h30" style="fill: none; stroke: rgb(99, 110, 250); stroke-opacity: 1; stroke-width: 2px;"/></g><g class="legendsymbols"><g class="legendpoints"/></g></g><rect class="legendtoggle" x="0" y="-9.5" width="109.265625" height="19" style="fill: rgb(0, 0, 0); fill-opacity: 0;"/></g></g><g class="groups" transform=""><g class="traces" transform="translate(0,51.7)" style="opacity: 1;"><text class="legendtext" text-anchor="start" x="40" y="4.680000000000001" style="font-family: 'Open Sans', verdana, arial, sans-serif; font-size: 12px; fill: rgb(42, 63, 95); fill-opacity: 1; white-space: pre;">5, Single</text><g class="layers" style="opacity: 1;"><g class="legendfill"/><g class="legendlines"><path class="js-line" d="M5,0h30" style="fill: none; stroke: rgb(99, 110, 250); stroke-opacity: 1; stroke-dasharray: 3px, 3px; stroke-width: 2px;"/></g><g class="legendsymbols"><g class="legendpoints"/></g></g><rect class="legendtoggle" x="0" y="-9.5" width="109.265625" height="19" style="fill: rgb(0, 0, 0); fill-opacity: 0;"/></g></g><g class="groups" transform=""><g class="traces" transform="translate(0,70.7)" style="opacity: 1;"><text class="legendtext" text-anchor="start" x="40" y="4.680000000000001" style="font-family: 'Open Sans', verdana, arial, sans-serif; font-size: 12px; fill: rgb(42, 63, 95); fill-opacity: 1; white-space: pre;">5, Varying</text><g class="layers" style="opacity: 1;"><g class="legendfill"/><g class="legendlines"><path class="js-line" d="M5,0h30" style="fill: none; stroke: rgb(99, 110, 250); stroke-opacity: 1; stroke-dasharray: 9px, 9px; stroke-width: 2px;"/></g><g class="legendsymbols"><g class="legendpoints"/></g></g><rect class="legendtoggle" x="0" y="-9.5" width="109.265625" height="19" style="fill: rgb(0, 0, 0); fill-opacity: 0;"/></g></g><g class="groups" transform=""><g class="traces" transform="translate(0,89.7)" style="opacity: 1;"><text class="legendtext" text-anchor="start" x="40" y="4.680000000000001" style="font-family: 'Open Sans', verdana, arial, sans-serif; font-size: 12px; fill: rgb(42, 63, 95); fill-opacity: 1; white-space: pre;">10, Fixed</text><g class="layers" style="opacity: 1;"><g class="legendfill"/><g class="legendlines"><path class="js-line" d="M5,0h30" style="fill: none; stroke: rgb(239, 85, 59); stroke-opacity: 1; stroke-width: 2px;"/></g><g class="legendsymbols"><g class="legendpoints"/></g></g><rect class="legendtoggle" x="0" y="-9.5" width="109.265625" height="19" style="fill: rgb(0, 0, 0); fill-opacity: 0;"/></g></g><g class="groups" transform=""><g class="traces" transform="translate(0,108.7)" style="opacity: 1;"><text class="legendtext" text-anchor="start" x="40" y="4.680000000000001" style="font-family: 'Open Sans', verdana, arial, sans-serif; font-size: 12px; fill: rgb(42, 63, 95); fill-opacity: 1; white-space: pre;">10, Single</text><g class="layers" style="opacity: 1;"><g class="legendfill"/><g class="legendlines"><path class="js-line" d="M5,0h30" style="fill: none; stroke: rgb(239, 85, 59); stroke-opacity: 1; stroke-dasharray: 3px, 3px; stroke-width: 2px;"/></g><g class="legendsymbols"><g class="legendpoints"/></g></g><rect class="legendtoggle" x="0" y="-9.5" width="109.265625" height="19" style="fill: rgb(0, 0, 0); fill-opacity: 0;"/></g></g><g class="groups" transform=""><g class="traces" transform="translate(0,127.7)" style="opacity: 1;"><text class="legendtext" text-anchor="start" x="40" y="4.680000000000001" style="font-family: 'Open Sans', verdana, arial, sans-serif; font-size: 12px; fill: rgb(42, 63, 95); fill-opacity: 1; white-space: pre;">10, Varying</text><g class="layers" style="opacity: 1;"><g class="legendfill"/><g class="legendlines"><path class="js-line" d="M5,0h30" style="fill: none; stroke: rgb(239, 85, 59); stroke-opacity: 1; stroke-dasharray: 9px, 9px; stroke-width: 2px;"/></g><g class="legendsymbols"><g class="legendpoints"/></g></g><rect class="legendtoggle" x="0" y="-9.5" width="109.265625" height="19" style="fill: rgb(0, 0, 0); fill-opacity: 0;"/></g></g><g class="groups" transform=""><g class="traces" transform="translate(0,146.7)" style="opacity: 1;"><text class="legendtext" text-anchor="start" x="40" y="4.680000000000001" style="font-family: 'Open Sans', verdana, arial, sans-serif; font-size: 12px; fill: rgb(42, 63, 95); fill-opacity: 1; white-space: pre;">15, Fixed</text><g class="layers" style="opacity: 1;"><g class="legendfill"/><g class="legendlines"><path class="js-line" d="M5,0h30" style="fill: none; stroke: rgb(0, 204, 150); stroke-opacity: 1; stroke-width: 2px;"/></g><g class="legendsymbols"><g class="legendpoints"/></g></g><rect class="legendtoggle" x="0" y="-9.5" width="109.265625" height="19" style="fill: rgb(0, 0, 0); fill-opacity: 0;"/></g></g><g class="groups" transform=""><g class="traces" transform="translate(0,165.7)" style="opacity: 1;"><text class="legendtext" text-anchor="start" x="40" y="4.680000000000001" style="font-family: 'Open Sans', verdana, arial, sans-serif; font-size: 12px; fill: rgb(42, 63, 95); fill-opacity: 1; white-space: pre;">15, Single</text><g class="layers" style="opacity: 1;"><g class="legendfill"/><g class="legendlines"><path class="js-line" d="M5,0h30" style="fill: none; stroke: rgb(0, 204, 150); stroke-opacity: 1; stroke-dasharray: 3px, 3px; stroke-width: 2px;"/></g><g class="legendsymbols"><g class="legendpoints"/></g></g><rect class="legendtoggle" x="0" y="-9.5" width="109.265625" height="19" style="fill: rgb(0, 0, 0); fill-opacity: 0;"/></g></g><g class="groups" transform=""><g class="traces" transform="translate(0,184.7)" style="opacity: 1;"><text class="legendtext" text-anchor="start" x="40" y="4.680000000000001" style="font-family: 'Open Sans', verdana, arial, sans-serif; font-size: 12px; fill: rgb(42, 63, 95); fill-opacity: 1; white-space: pre;">15, Varying</text><g class="layers" style="opacity: 1;"><g class="legendfill"/><g class="legendlines"><path class="js-line" d="M5,0h30" style="fill: none; stroke: rgb(0, 204, 150); stroke-opacity: 1; stroke-dasharray: 9px, 9px; stroke-width: 2px;"/></g><g class="legendsymbols"><g class="legendpoints"/></g></g><rect class="legendtoggle" x="0" y="-9.5" width="109.265625" height="19" style="fill: rgb(0, 0, 0); fill-opacity: 0;"/></g></g></g><rect class="scrollbar" rx="20" ry="3" width="0" height="0" style="fill: rgb(128, 139, 164); fill-opacity: 1;" x="0" y="0"/></g><g class="g-gtitle"><text class="gtitle" x="60" y="50" text-anchor="start" dy="0em" style="font-family: 'Open Sans', verdana, arial, sans-serif; font-size: 17px; fill: rgb(42, 63, 95); opacity: 1; font-weight: normal; white-space: pre;">UEs Throughput DL - CDF</text></g><g class="g-xtitle"><text class="xtitle" x="523.5" y="460.8" text-anchor="middle" style="font-family: 'Open Sans', verdana, arial, sans-serif; font-size: 14px; fill: rgb(42, 63, 95); opacity: 1; font-weight: normal; white-space: pre;">Throughput:Mean (Bps)</text></g><g class="g-ytitle"><text class="ytitle" transform="rotate(-90,34.575,260)" x="34.575" y="260" text-anchor="middle" style="font-family: 'Open Sans', verdana, arial, sans-serif; font-size: 14px; fill: rgb(42, 63, 95); opacity: 1; font-weight: normal; white-space: pre;">probability</text></g><g class="annotation" data-index="0" style="opacity: 1;"><g class="annotation-text-g" transform="rotate(0,523.5,90.5)"><g class="cursor-pointer" transform="translate(491,81)"><rect class="bg" x="0.5" y="0.5" width="65" height="18" style="stroke-width: 1px; stroke: rgb(0, 0, 0); stroke-opacity: 0; fill: rgb(0, 0, 0); fill-opacity: 0;"/><text class="annotation-text" text-anchor="middle" x="32.703125" y="14" style="font-family: 'Open Sans', verdana, arial, sans-serif; font-size: 12px; fill: rgb(42, 63, 95); fill-opacity: 1; white-space: pre;">Power=30</text></g></g></g></g></svg>