<svg class="main-svg" xmlns="http://www.w3.org/2000/svg" xmlns:xlink="http://www.w3.org/1999/xlink" width="1200" height="500" style="" viewBox="0 0 1200 500"><rect x="0" y="0" width="1200" height="500" style="fill: rgb(255, 255, 255); fill-opacity: 1;"/><defs id="defs-97a5f7"><g class="clips"><clipPath id="clip97a5f7xyplot" class="plotclip"><rect width="861" height="320"/></clipPath><clipPath class="axesclip" id="clip97a5f7x"><rect x="80" y="0" width="861" height="500"/></clipPath><clipPath class="axesclip" id="clip97a5f7y"><rect x="0" y="100" width="1200" height="320"/></clipPath><clipPath class="axesclip" id="clip97a5f7xy"><rect x="80" y="100" width="861" height="320"/></clipPath></g><g class="gradients"/><g class="patterns"/></defs><g class="bglayer"><rect class="bg" x="80" y="100" width="861" height="320" style="fill: rgb(229, 236, 246); fill-opacity: 1; stroke-width: 0;"/></g><g class="layer-below"><g class="imagelayer"/><g class="shapelayer"/></g><g class="cartesianlayer"><g class="subplot xy"><g class="layer-subplot"><g class="shapelayer"/><g class="imagelayer"/></g><g class="minor-gridlayer"><g class="x"/><g class="y"/></g><g class="gridlayer"><g class="x"><path class="xgrid crisp" transform="translate(151.73000000000002,0)" d="M0,100v320" style="stroke: rgb(255, 255, 255); stroke-opacity: 1; stroke-width: 1px;"/><path class="xgrid crisp" transform="translate(258.57,0)" d="M0,100v320" style="stroke: rgb(255, 255, 255); stroke-opacity: 1; stroke-width: 1px;"/><path class="xgrid crisp" transform="translate(365.41,0)" d="M0,100v320" style="stroke: rgb(255, 255, 255); stroke-opacity: 1; stroke-width: 1px;"/><path class="xgrid crisp" transform="translate(472.25,0)" d="M0,100v320" style="stroke: rgb(255, 255, 255); stroke-opacity: 1; stroke-width: 1px;"/><path class="xgrid crisp" transform="translate(579.0799999999999,0)" d="M0,100v320" style="stroke: rgb(255, 255, 255); stroke-opacity: 1; stroke-width: 1px;"/><path class="xgrid crisp" transform="translate(685.92,0)" d="M0,100v320" style="stroke: rgb(255, 255, 255); stroke-opacity: 1; stroke-width: 1px;"/><path class="xgrid crisp" transform="translate(792.76,0)" d="M0,100v320" style="stroke: rgb(255, 255, 255); stroke-opacity: 1; stroke-width: 1px;"/><path class="xgrid crisp" transform="translate(899.6,0)" d="M0,100v320" style="stroke: rgb(255, 255, 255); stroke-opacity: 1; stroke-width: 1px;"/></g><g class="y"><path class="ygrid crisp" transform="translate(0,359.2)" d="M80,0h861" style="stroke: rgb(255, 255, 255); stroke-opacity: 1; stroke-width: 1px;"/><path class="ygrid crisp" transform="translate(0,298.4)" d="M80,0h861" style="stroke: rgb(255, 255, 255); stroke-opacity: 1; stroke-width: 1px;"/><path class="ygrid crisp" transform="translate(0,237.6)" d="M80,0h861" style="stroke: rgb(255, 255, 255); stroke-opacity: 1; stroke-width: 1px;"/><path class="ygrid crisp" transform="translate(0,176.8)" d="M80,0h861" style="stroke: rgb(255, 255, 255); stroke-opacity: 1; stroke-width: 1px;"/><path class="ygrid crisp" transform="translate(0,116)" d="M80,0h861" style="stroke: rgb(255, 255, 255); stroke-opacity: 1; stroke-width: 1px;"/></g></g><g class="zerolinelayer"><path class="yzl zl crisp" transform="translate(0,420)" d="M80,0h861" style="stroke: rgb(255, 255, 255); stroke-opacity: 1; stroke-width: 2px;"/></g><path class="xlines-below"/><path class="ylines-below"/><g class="overlines-below"/><g class="xaxislayer-below"/><g class="yaxislayer-below"/><g class="overaxes-below"/><g class="plot" transform="translate(80,100)" clip-path="url(#clip97a5f7xyplot)"><g class="scatterlayer mlayer"><g class="trace scatter traced2ea9c" style="stroke-miterlimit: 2; opacity: 1;"><g class="fills"/><g class="errorbars"/><g class="lines"><path class="js-line" d="M19.33,16V17.99H25.41V19.97H61V21.96H69.22V23.95H70.07V25.93H72.11V27.92H73.05V29.91H75.39V31.9H83.53V33.88H84V35.87H87.38V37.86H90.67V39.84H94.71V41.83H98.4V43.82H100V45.8H100.84V47.79H103.49V49.78H104.04V51.76H109.1V53.75H111.76V55.74H111.94V57.73H113.14V59.71H113.57V61.7H116.68V63.69H117.26V65.67H120.56V67.66H122.96V69.65H123.2V71.63H123.82V73.62H126.02V75.61H130.67V77.59H131.3V79.58H131.9V81.57H132.72V83.56H136.13V85.54H138.12V87.53H138.82V89.52H149.66V91.5H153.05V93.49H156.09V95.48H156.15V97.46H156.46V99.45H157.84V101.44H158.87V103.42H158.93V105.41H159.62V107.4H160.07V109.39H160.97V111.37H161.37V113.36H162.45V115.35H162.86V117.33H163.57V119.32H164.18V121.31H164.23V123.29H164.49V125.28H166.05V127.27H167.91V129.25H170.3V131.24H172.62V133.23H173.87V135.22H174.32V137.2H176.77V139.19H179.27V141.18H181.97V143.16H182.52V145.15H182.72V147.14H184.11V149.12H184.18V151.11H184.64V153.1H187.05V155.08H187.44V157.07H190.06V159.06H190.14V161.05H191.78V163.03H192.1V165.02H196.32V167.01H196.8V168.99H196.9V170.98H198.65V172.97H204.32V174.95H206.59V176.94H207.8V178.93H208.29V180.92H211.34V182.9H211.6V184.89H213.3V186.88H214.21V188.86H214.29V190.85H214.69V192.84H214.9V194.82H215.31V196.81H216.6V198.8H217.12V200.78H218.32V202.77H220.97V204.76H223.02V206.75H226.47V208.73H229.41V210.72H232.36V212.71H233.37V214.69H235.19V216.68H239.18V218.67H240.1V220.65H240.34V222.64H245.19V224.63H246.36V226.61H250.62V228.6H251.44V230.59H253.76V232.58H254.77V234.56H255.82V236.55H256.28V238.54H257.69V240.52H257.77V242.51H258.88V244.5H263.63V246.48H264.02V248.47H266.54V250.46H270.61V252.44H272.75V254.43H273.43V256.42H274.76V258.41H278.41V260.39H281.43V262.38H287.6V264.37H288.06V266.35H288.35V268.34H288.79V270.33H290.51V272.31H290.86V274.3H292.61V276.29H303.98V278.27H304.99V280.26H310.1V282.25H319.49V284.24H322.72V286.22H322.87V288.21H322.93V290.2H324.65V292.18H325.5V294.17H328.17V296.16H329.37V298.14H329.65V300.13H344.34V302.12H348.83V304.1H353.12V306.09H358.06V308.08H424.62V310.07H434.37V312.05H436.37V314.04H455.26V316.03H487.35V318.01H536.24" style="vector-effect: non-scaling-stroke; fill: none; stroke: rgb(99, 110, 250); stroke-opacity: 1; stroke-width: 2px; opacity: 1;"/></g><g class="points"/><g class="text"/></g><g class="trace scatter trace0d8969" style="stroke-miterlimit: 2; opacity: 1;"><g class="fills"/><g class="errorbars"/><g class="lines"><path class="js-line" d="M13.49,16V17.99H33.78V19.97H59.4V21.96H59.6V23.95H61.48V25.93H61.89V27.92H64.15V29.91H65.62V31.9H72.23V33.88H72.98V35.87H78.11V37.86H86.24V39.84H92.22V41.83H94.44V43.82H100.98V45.8H102.17V47.79H105.64V49.78H106.75V51.76H113.7V53.75H120.46V55.74H122.36V57.73H125.54V59.71H125.68V61.7H129.24V63.69H134.27V65.67H135.35V67.66H135.41V69.65H136.89V71.63H140.74V73.62H141.42V75.61H142.72V77.59H147.9V79.58H148.02V81.57H148.9V83.56H149.95V85.54H150.19V87.53H152.91V89.52H154.09V91.5H154.86V93.49H158.71V95.48H163.58V97.46H165.1V99.45H168.85V101.44H171.31V103.42H173.86V105.41H174.54V107.4H177.62V109.39H178.08V111.37H179.19V113.36H180.97V115.35H181.98V117.33H183.77V119.32H184.31V121.31H185.47V123.29H188.71V125.28H193.4V127.27H193.52V129.25H195.22V131.24H198.52V133.23H203.03V135.22H208.36V137.2H210.52V139.19H212.72V141.18H212.97V143.16H214.44V145.15H215.32V147.14H219.71V149.12H221.58V151.11H222.24V153.1H226.25V155.08H228.63V157.07H228.98V159.06H229.36V161.05H232.59V163.03H234.82V165.02H239.09V167.01H239.4V168.99H244.43V170.98H247.08V172.97H252.74V174.95H253.44V176.94H253.54V178.93H257.8V180.92H257.89V182.9H257.89V184.89H258.25V186.88H258.81V188.86H258.92V190.85H262.74V192.84H263.01V194.82H264.27V196.81H265.36V198.8H265.97V200.78H269.79V202.77H271.22V204.76H276.33V206.75H276.98V208.73H277.26V210.72H279.43V212.71H280.26V214.69H281.04V216.68H281.5V218.67H282.08V220.65H282.52V222.64H284.17V224.63H284.37V226.61H289.32V228.6H290.33V230.59H290.85V232.58H291.75V234.56H297.15V236.55H297.25V238.54H302.74V240.52H303.37V242.51H303.74V244.5H303.93V246.48H306.06V248.47H306.16V250.46H306.88V252.44H308.18V254.43H316.57V256.42H318.73V258.41H320.77V260.39H329.72V262.38H333.05V264.37H337.32V266.35H337.67V268.34H339.59V270.33H339.73V272.31H341.32V274.3H350V276.29H366.94V278.27H369.9V280.26H377.65V282.25H382.4V284.24H387.4V286.22H390.05V288.21H398.63V290.2H407.04V292.18H414.23V294.17H426.5V296.16H428.41V298.14H432.21V300.13H441.93V302.12H449.53V304.1H452.09V306.09H464.63V308.08H478.53V310.07H486.05V312.05H496.83V314.04H546.15V316.03H706.91V318.01H861" style="vector-effect: non-scaling-stroke; fill: none; stroke: rgb(99, 110, 250); stroke-opacity: 1; stroke-width: 2px; opacity: 1; stroke-dasharray: 3px, 3px;"/></g><g class="points"/><g class="text"/></g><g class="trace scatter trace8f4747" style="stroke-miterlimit: 2; opacity: 1;"><g class="fills"/><g class="errorbars"/><g class="lines"><path class="js-line" d="M14.3,16V17.99H28.91V19.97H40.54V21.96H45.06V23.95H59.57V25.93H65.85V27.92H72.21V29.91H73.27V31.9H79.96V33.88H82.53V35.87H84.94V37.86H87.48V39.84H88.62V41.83H90.6V43.82H92.95V45.8H93.43V47.79H94V49.78H95.15V51.76H96.35V53.75H98.12V55.74H98.55V57.73H99.4V59.71H103.53V61.7H107.71V63.69H109.09V65.67H109.85V67.66H112.44V69.65H116.27V71.63H116.62V73.62H121.61V75.61H121.68V77.59H122.13V79.58H122.23V81.57H125.07V83.56H126.85V85.54H128.79V87.53H133.75V89.52H134.82V91.5H141.36V93.49H141.93V95.48H142.03V97.46H143.03V99.45H147.81V101.44H148.83V103.42H149.26V105.41H150.86V107.4H151.9V109.39H152.73V111.37H154.76V113.36H156.51V115.35H157.02V117.33H158.57V119.32H160.48V121.31H162.2V123.29H164.28V125.28H164.59V127.27H166.32V129.25H167.05V131.24H169.91V133.23H170.57V135.22H172.39V137.2H172.5V139.19H174.26V141.18H174.52V143.16H177.23V145.15H177.66V147.14H178.27V149.12H178.44V151.11H179.58V153.1H182.63V155.08H184.06V157.07H184.52V159.06H186.95V161.05H187.55V163.03H190.17V165.02H190.43V167.01H194.25V168.99H196.31V170.98H197.05V172.97H197.26V174.95H198.16V176.94H198.49V178.93H201.16V180.92H201.39V182.9H202.45V184.89H203.23V186.88H203.93V188.86H205.98V190.85H206.74V192.84H207.33V194.82H210.5V196.81H211.61V198.8H212.52V200.78H218.6V202.77H219.46V204.76H219.96V206.75H221.76V208.73H222.24V210.72H223.07V212.71H225.15V214.69H226.09V216.68H228.58V218.67H230.03V220.65H236.62V222.64H236.73V224.63H238.35V226.61H240.36V228.6H241.4V230.59H241.66V232.58H244.79V234.56H244.87V236.55H253.51V238.54H254.73V240.52H255.15V242.51H255.71V244.5H257.51V246.48H258.54V248.47H262.65V250.46H264.82V252.44H265.02V254.43H267.9V256.42H268.09V258.41H270.16V260.39H270.73V262.38H277.49V264.37H280.47V266.35H281.76V268.34H290.75V270.33H292.04V272.31H294.03V274.3H294.39V276.29H298.23V278.27H299.45V280.26H303.79V282.25H306.23V284.24H306.78V286.22H307.63V288.21H317.79V290.2H317.93V292.18H320.36V294.17H321.23V296.16H324.3V298.14H348.11V300.13H349.75V302.12H366.7V304.1H401.28V306.09H413.76V308.08H424.13V310.07H425.33V312.05H443.02V314.04H450.17V316.03H455.09V318.01H771.72" style="vector-effect: non-scaling-stroke; fill: none; stroke: rgb(239, 85, 59); stroke-opacity: 1; stroke-width: 2px; opacity: 1;"/></g><g class="points"/><g class="text"/></g><g class="trace scatter tracee8692e" style="stroke-miterlimit: 2; opacity: 1;"><g class="fills"/><g class="errorbars"/><g class="lines"><path class="js-line" d="M31.17,16V17.99H32.2V19.97H46.11V21.96H70.85V23.95H73.7V25.93H79.17V27.92H83.74V29.91H84.45V31.9H91.15V33.88H93.5V35.87H95.36V37.86H101.71V39.84H101.81V41.83H103.02V43.82H108.48V45.8H110.71V47.79H113.2V49.78H119.18V51.76H121.23V53.75H122.65V55.74H123.18V57.73H124.36V59.71H124.93V61.7H126.74V63.69H127.48V65.67H128.82V67.66H137.37V69.65H138.95V71.63H139.37V73.62H143.83V75.61H145.18V77.59H148.48V79.58H160.44V81.57H160.52V83.56H165.09V85.54H165.2V87.53H167.47V89.52H171.61V91.5H173.2V93.49H178V95.48H179.87V97.46H180.54V99.45H183.9V101.44H185.98V103.42H188.84V105.41H191.55V107.4H191.59V109.39H191.66V111.37H193.72V113.36H193.77V115.35H194.26V117.33H197V119.32H203.99V121.31H205.4V123.29H208.8V125.28H211.06V127.27H213.08V129.25H216.35V131.24H217.81V133.23H218.1V135.22H221.38V137.2H222.49V139.19H224.27V141.18H225.31V143.16H226.18V145.15H240.5V147.14H241.43V149.12H242.77V151.11H243.08V153.1H243.25V155.08H246.41V157.07H246.67V159.06H248.38V161.05H248.5V163.03H254V165.02H254.4V167.01H254.53V168.99H255.87V170.98H256.49V172.97H257.11V174.95H260.77V176.94H263.24V178.93H263.64V180.92H264.88V182.9H266.89V184.89H267.78V186.88H268.01V188.86H277.56V190.85H280.29V192.84H281.66V194.82H283.1V196.81H285.53V198.8H286.46V200.78H288.62V202.77H293.46V204.76H293.73V206.75H298.07V208.73H299.54V210.72H304.17V212.71H308.93V214.69H309.11V216.68H309.67V218.67H310.73V220.65H311.24V222.64H314.11V224.63H314.37V226.61H318.51V228.6H319.16V230.59H321.57V232.58H328.68V234.56H332.82V236.55H335.99V238.54H337.79V240.52H341.84V242.51H341.96V244.5H343.48V246.48H343.86V248.47H349.31V250.46H352.92V252.44H355.6V254.43H356.92V256.42H365.37V258.41H370.09V260.39H373.49V262.38H380.27V264.37H380.92V266.35H381.99V268.34H382.91V270.33H386.18V272.31H390.37V274.3H393.18V276.29H398.61V278.27H400.81V280.26H405.53V282.25H412.46V284.24H412.55V286.22H413.1V288.21H414.8V290.2H415.87V292.18H417.61V294.17H419.52V296.16H422.65V298.14H433.29V300.13H435.42V302.12H435.51V304.1H441.97V306.09H449.28V308.08H457.86V310.07H471.15V312.05H473.28V314.04H560.15V316.03H565.3V318.01H726.39" style="vector-effect: non-scaling-stroke; fill: none; stroke: rgb(239, 85, 59); stroke-opacity: 1; stroke-width: 2px; opacity: 1; stroke-dasharray: 3px, 3px;"/></g><g class="points"/><g class="text"/></g><g class="trace scatter traceb69878" style="stroke-miterlimit: 2; opacity: 1;"><g class="fills"/><g class="errorbars"/><g class="lines"><path class="js-line" d="M0,16V17.99H7.63V19.97H14.32V21.96H16.32V23.95H36.38V25.93H39.72V27.92H46.51V29.91H47.63V31.9H49.87V33.88H52.03V35.87H52.72V37.86H61.25V39.84H62.55V41.83H63.37V43.82H63.49V45.8H69.09V47.79H69.75V49.78H75.26V51.76H75.5V53.75H75.74V55.74H76.61V57.73H77.18V59.71H77.28V61.7H82.07V63.69H83.81V65.67H84.29V67.66H86.64V69.65H88.07V71.63H90.62V73.62H90.86V75.61H90.96V77.59H92.63V79.58H92.73V81.57H94.84V83.56H99.38V85.54H100.7V87.53H101.76V89.52H102.17V91.5H102.9V93.49H113.08V95.48H113.3V97.46H113.36V99.45H115.4V101.44H115.46V103.42H117.42V105.41H118.23V107.4H118.72V109.39H122.66V111.37H122.95V113.36H123.74V115.35H124.46V117.33H125.26V119.32H129.38V121.31H129.63V123.29H130.65V125.28H133.41V127.27H134.86V129.25H135.24V131.24H135.27V133.23H137.88V135.22H139.32V137.2H139.94V139.19H140.44V141.18H141.29V143.16H142.29V145.15H144.83V147.14H145.28V149.12H146.86V151.11H147.25V153.1H151.92V155.08H155.96V157.07H156.76V159.06H157.37V161.05H157.66V163.03H160.28V165.02H161.6V167.01H162.86V168.99H162.99V170.98H163.22V172.97H164.01V174.95H165.4V176.94H166.27V178.93H166.71V180.92H169.87V182.9H170.87V184.89H171.4V186.88H172.85V188.86H174.41V190.85H177.04V192.84H178.55V194.82H179.63V196.81H179.86V198.8H180.53V200.78H181.18V202.77H181.18V204.76H182.51V206.75H185.22V208.73H185.89V210.72H187.15V212.71H187.65V214.69H188.72V216.68H189.96V218.67H190.09V220.65H193.13V222.64H195.2V224.63H195.35V226.61H196.82V228.6H201.73V230.59H203.85V232.58H204.21V234.56H204.89V236.55H205.5V238.54H209.5V240.52H215.21V242.51H216.49V244.5H217.66V246.48H218.37V248.47H219.37V250.46H219.47V252.44H219.56V254.43H223.55V256.42H225.63V258.41H228.84V260.39H229.43V262.38H242.02V264.37H242.96V266.35H244.83V268.34H251.79V270.33H252.23V272.31H254.85V274.3H257.67V276.29H258.08V278.27H258.28V280.26H258.37V282.25H260.51V284.24H261.28V286.22H262.93V288.21H277.01V290.2H277.96V292.18H288.18V294.17H288.79V296.16H296.28V298.14H298.74V300.13H299.53V302.12H302.43V304.1H316.07V306.09H337.36V308.08H349.27V310.07H356.46V312.05H365.62V314.04H380.1V316.03H410.11V318.01H420.38" style="vector-effect: non-scaling-stroke; fill: none; stroke: rgb(0, 204, 150); stroke-opacity: 1; stroke-width: 2px; opacity: 1;"/></g><g class="points"/><g class="text"/></g><g class="trace scatter tracee42e8f" style="stroke-miterlimit: 2; opacity: 1;"><g class="fills"/><g class="errorbars"/><g class="lines"><path class="js-line" d="M4.09,16V17.99H6.69V19.97H11.32V21.96H20.34V23.95H22.01V25.93H39.15V27.92H45V29.91H50.53V31.9H53.5V33.88H56.75V35.87H62.55V37.86H66.05V39.84H66.91V41.83H67.13V43.82H70.14V45.8H71.46V47.79H75.39V49.78H75.72V51.76H82.57V53.75H82.88V55.74H86.49V57.73H96.05V59.71H99.37V61.7H99.87V63.69H103.5V65.67H104.5V67.66H113.82V69.65H114.11V71.63H124.12V73.62H125.6V75.61H127.98V77.59H130.86V79.58H132.1V81.57H132.33V83.56H133.91V85.54H134.79V87.53H139.97V89.52H143.32V91.5H143.55V93.49H146.24V95.48H146.59V97.46H147.11V99.45H150.55V101.44H152.73V103.42H154.38V105.41H154.96V107.4H156.87V109.39H157.46V111.37H157.92V113.36H161.15V115.35H162.48V117.33H164.64V119.32H167.49V121.31H169.69V123.29H169.84V125.28H170.6V127.27H170.73V129.25H170.9V131.24H174.6V133.23H175.25V135.22H177.32V137.2H179.69V139.19H180.37V141.18H182.69V143.16H182.85V145.15H184.29V147.14H185.43V149.12H185.89V151.11H186V153.1H186.72V155.08H187.05V157.07H189V159.06H190.58V161.05H192.6V163.03H192.63V165.02H193.13V167.01H195.17V168.99H195.95V170.98H196.4V172.97H200.18V174.95H203.62V176.94H208.17V178.93H209.32V180.92H210.12V182.9H213.24V184.89H214.34V186.88H216.95V188.86H218.64V190.85H223.09V192.84H227.55V194.82H227.67V196.81H227.85V198.8H228.84V200.78H229.08V202.77H229.53V204.76H231.26V206.75H233.06V208.73H234.89V210.72H237.24V212.71H244.5V214.69H245.5V216.68H253.65V218.67H255.55V220.65H255.78V222.64H256.21V224.63H256.3V226.61H258.37V228.6H260.2V230.59H262.93V232.58H263.29V234.56H263.47V236.55H264.11V238.54H264.25V240.52H265.71V242.51H275.06V244.5H275.64V246.48H282.53V248.47H289.99V250.46H290.71V252.44H293.67V254.43H294.29V256.42H295.66V258.41H297.66V260.39H297.74V262.38H304.58V264.37H306.53V266.35H312.19V268.34H312.53V270.33H315.3V272.31H322.48V274.3H333.84V276.29H334.98V278.27H337.31V280.26H338.96V282.25H339.25V284.24H359.49V286.22H363.54V288.21H367.57V290.2H370.53V292.18H372.13V294.17H379.45V296.16H381.28V298.14H387.87V300.13H388.2V302.12H404.89V304.1H406.25V306.09H443.53V308.08H447.96V310.07H451.18V312.05H484.34V314.04H488.21V316.03H514.82V318.01H591.25" style="vector-effect: non-scaling-stroke; fill: none; stroke: rgb(0, 204, 150); stroke-opacity: 1; stroke-width: 2px; opacity: 1; stroke-dasharray: 3px, 3px;"/></g><g class="points"/><g class="text"/></g></g></g><g class="overplot"/><path class="xlines-above crisp" d="M0,0" style="fill: none;"/><path class="ylines-above crisp" d="M0,0" style="fill: none;"/><g class="overlines-above"/><g class="xaxislayer-above"><g class="xtick"><text text-anchor="middle" x="0" y="433" transform="translate(151.73000000000002,0)" style="font-family: 'Open Sans', verdana, arial, sans-serif; font-size: 12px; fill: rgb(42, 63, 95); fill-opacity: 1; white-space: pre; opacity: 1;">0.05</text></g><g class="xtick"><text text-anchor="middle" x="0" y="433" style="font-family: 'Open Sans', verdana, arial, sans-serif; font-size: 12px; fill: rgb(42, 63, 95); fill-opacity: 1; white-space: pre; opacity: 1;" transform="translate(258.57,0)">0.1</text></g><g class="xtick"><text text-anchor="middle" x="0" y="433" style="font-family: 'Open Sans', verdana, arial, sans-serif; font-size: 12px; fill: rgb(42, 63, 95); fill-opacity: 1; white-space: pre; opacity: 1;" transform="translate(365.41,0)">0.15</text></g><g class="xtick"><text text-anchor="middle" x="0" y="433" style="font-family: 'Open Sans', verdana, arial, sans-serif; font-size: 12px; fill: rgb(42, 63, 95); fill-opacity: 1; white-space: pre; opacity: 1;" transform="translate(472.25,0)">0.2</text></g><g class="xtick"><text text-anchor="middle" x="0" y="433" style="font-family: 'Open Sans', verdana, arial, sans-serif; font-size: 12px; fill: rgb(42, 63, 95); fill-opacity: 1; white-space: pre; opacity: 1;" transform="translate(579.0799999999999,0)">0.25</text></g><g class="xtick"><text text-anchor="middle" x="0" y="433" style="font-family: 'Open Sans', verdana, arial, sans-serif; font-size: 12px; fill: rgb(42, 63, 95); fill-opacity: 1; white-space: pre; opacity: 1;" transform="translate(685.92,0)">0.3</text></g><g class="xtick"><text text-anchor="middle" x="0" y="433" style="font-family: 'Open Sans', verdana, arial, sans-serif; font-size: 12px; fill: rgb(42, 63, 95); fill-opacity: 1; white-space: pre; opacity: 1;" transform="translate(792.76,0)">0.35</text></g><g class="xtick"><text text-anchor="middle" x="0" y="433" style="font-family: 'Open Sans', verdana, arial, sans-serif; font-size: 12px; fill: rgb(42, 63, 95); fill-opacity: 1; white-space: pre; opacity: 1;" transform="translate(899.6,0)">0.4</text></g></g><g class="yaxislayer-above"><g class="ytick"><text text-anchor="end" x="79" y="4.199999999999999" transform="translate(0,420)" style="font-family: 'Open Sans', verdana, arial, sans-serif; font-size: 12px; fill: rgb(42, 63, 95); fill-opacity: 1; white-space: pre; opacity: 1;">0</text></g><g class="ytick"><text text-anchor="end" x="79" y="4.199999999999999" style="font-family: 'Open Sans', verdana, arial, sans-serif; font-size: 12px; fill: rgb(42, 63, 95); fill-opacity: 1; white-space: pre; opacity: 1;" transform="translate(0,359.2)">0.2</text></g><g class="ytick"><text text-anchor="end" x="79" y="4.199999999999999" style="font-family: 'Open Sans', verdana, arial, sans-serif; font-size: 12px; fill: rgb(42, 63, 95); fill-opacity: 1; white-space: pre; opacity: 1;" transform="translate(0,298.4)">0.4</text></g><g class="ytick"><text text-anchor="end" x="79" y="4.199999999999999" style="font-family: 'Open Sans', verdana, arial, sans-serif; font-size: 12px; fill: rgb(42, 63, 95); fill-opacity: 1; white-space: pre; opacity: 1;" transform="translate(0,237.6)">0.6</text></g><g class="ytick"><text text-anchor="end" x="79" y="4.199999999999999" style="font-family: 'Open Sans', verdana, arial, sans-serif; font-size: 12px; fill: rgb(42, 63, 95); fill-opacity: 1; white-space: pre; opacity: 1;" transform="translate(0,176.8)">0.8</text></g><g class="ytick"><text text-anchor="end" x="79" y="4.199999999999999" style="font-family: 'Open Sans', verdana, arial, sans-serif; font-size: 12px; fill: rgb(42, 63, 95); fill-opacity: 1; white-space: pre; opacity: 1;" transform="translate(0,116)">1</text></g></g><g class="overaxes-above"/></g></g><g class="polarlayer"/><g class="smithlayer"/><g class="ternarylayer"/><g class="geolayer"/><g class="funnelarealayer"/><g class="pielayer"/><g class="iciclelayer"/><g class="treemaplayer"/><g class="sunburstlayer"/><g class="glimages"/><defs id="topdefs-97a5f7"><g class="clips"/><clipPath id="legend97a5f7"><rect width="230" height="143" x="0" y="0"/></clipPath></defs><g class="layer-above"><g class="imagelayer"/><g class="shapelayer"/></g><g class="infolayer"><g class="legend" pointer-events="all" transform="translate(958.22,100)"><rect class="bg" shape-rendering="crispEdges" width="230" height="143" x="0" y="0" style="stroke: rgb(68, 68, 68); stroke-opacity: 1; fill: rgb(255, 255, 255); fill-opacity: 1; stroke-width: 0px;"/><g class="scrollbox" transform="" clip-path="url(#legend97a5f7)"><text class="legendtitletext" text-anchor="start" x="2" y="18.2" style="font-family: 'Open Sans', verdana, arial, sans-serif; font-size: 14px; fill: rgb(42, 63, 95); fill-opacity: 1; white-space: pre;">Min Snr Used (dB), Interference</text><g class="groups" transform=""><g class="traces" transform="translate(0,32.7)" style="opacity: 1;"><text class="legendtext" text-anchor="start" x="40" y="4.680000000000001" style="font-family: 'Open Sans', verdana, arial, sans-serif; font-size: 12px; fill: rgb(42, 63, 95); fill-opacity: 1; white-space: pre;">5, false</text><g class="layers" style="opacity: 1;"><g class="legendfill"/><g class="legendlines"><path class="js-line" d="M5,0h30" style="fill: none; stroke: rgb(99, 110, 250); stroke-opacity: 1; stroke-width: 2px;"/></g><g class="legendsymbols"><g class="legendpoints"/></g></g><rect class="legendtoggle" x="0" y="-9.5" width="91.96875" height="19" style="fill: rgb(0, 0, 0); fill-opacity: 0;"/></g></g><g class="groups" transform=""><g class="traces" transform="translate(0,51.7)" style="opacity: 1;"><text class="legendtext" text-anchor="start" x="40" y="4.680000000000001" style="font-family: 'Open Sans', verdana, arial, sans-serif; font-size: 12px; fill: rgb(42, 63, 95); fill-opacity: 1; white-space: pre;">5, true</text><g class="layers" style="opacity: 1;"><g class="legendfill"/><g class="legendlines"><path class="js-line" d="M5,0h30" style="fill: none; stroke: rgb(99, 110, 250); stroke-opacity: 1; stroke-dasharray: 3px, 3px; stroke-width: 2px;"/></g><g class="legendsymbols"><g class="legendpoints"/></g></g><rect class="legendtoggle" x="0" y="-9.5" width="91.96875" height="19" style="fill: rgb(0, 0, 0); fill-opacity: 0;"/></g></g><g class="groups" transform=""><g class="traces" transform="translate(0,70.7)" style="opacity: 1;"><text class="legendtext" text-anchor="start" x="40" y="4.680000000000001" style="font-family: 'Open Sans', verdana, arial, sans-serif; font-size: 12px; fill: rgb(42, 63, 95); fill-opacity: 1; white-space: pre;">10, false</text><g class="layers" style="opacity: 1;"><g class="legendfill"/><g class="legendlines"><path class="js-line" d="M5,0h30" style="fill: none; stroke: rgb(239, 85, 59); stroke-opacity: 1; stroke-width: 2px;"/></g><g class="legendsymbols"><g class="legendpoints"/></g></g><rect class="legendtoggle" x="0" y="-9.5" width="91.96875" height="19" style="fill: rgb(0, 0, 0); fill-opacity: 0;"/></g></g><g class="groups" transform=""><g class="traces" transform="translate(0,89.7)" style="opacity: 1;"><text class="legendtext" text-anchor="start" x="40" y="4.680000000000001" style="font-family: 'Open Sans', verdana, arial, sans-serif; font-size: 12px; fill: rgb(42, 63, 95); fill-opacity: 1; white-space: pre;">10, true</text><g class="layers" style="opacity: 1;"><g class="legendfill"/><g class="legendlines"><path class="js-line" d="M5,0h30" style="fill: none; stroke: rgb(239, 85, 59); stroke-opacity: 1; stroke-dasharray: 3px, 3px; stroke-width: 2px;"/></g><g class="legendsymbols"><g class="legendpoints"/></g></g><rect class="legendtoggle" x="0" y="-9.5" width="91.96875" height="19" style="fill: rgb(0, 0, 0); fill-opacity: 0;"/></g></g><g class="groups" transform=""><g class="traces" transform="translate(0,108.7)" style="opacity: 1;"><text class="legendtext" text-anchor="start" x="40" y="4.680000000000001" style="font-family: 'Open Sans', verdana, arial, sans-serif; font-size: 12px; fill: rgb(42, 63, 95); fill-opacity: 1; white-space: pre;">15, false</text><g class="layers" style="opacity: 1;"><g class="legendfill"/><g class="legendlines"><path class="js-line" d="M5,0h30" style="fill: none; stroke: rgb(0, 204, 150); stroke-opacity: 1; stroke-width: 2px;"/></g><g class="legendsymbols"><g class="legendpoints"/></g></g><rect class="legendtoggle" x="0" y="-9.5" width="91.96875" height="19" style="fill: rgb(0, 0, 0); fill-opacity: 0;"/></g></g><g class="groups" transform=""><g class="traces" transform="translate(0,127.7)" style="opacity: 1;"><text class="legendtext" text-anchor="start" x="40" y="4.680000000000001" style="font-family: 'Open Sans', verdana, arial, sans-serif; font-size: 12px; fill: rgb(42, 63, 95); fill-opacity: 1; white-space: pre;">15, true</text><g class="layers" style="opacity: 1;"><g class="legendfill"/><g class="legendlines"><path class="js-line" d="M5,0h30" style="fill: none; stroke: rgb(0, 204, 150); stroke-opacity: 1; stroke-dasharray: 3px, 3px; stroke-width: 2px;"/></g><g class="legendsymbols"><g class="legendpoints"/></g></g><rect class="legendtoggle" x="0" y="-9.5" width="91.96875" height="19" style="fill: rgb(0, 0, 0); fill-opacity: 0;"/></g></g></g><rect class="scrollbar" rx="20" ry="3" width="0" height="0" x="0" y="0" style="fill: rgb(128, 139, 164); fill-opacity: 1;"/></g><g class="g-gtitle"><text class="gtitle" x="60" y="50" text-anchor="start" dy="0em" style="font-family: 'Open Sans', verdana, arial, sans-serif; font-size: 17px; fill: rgb(42, 63, 95); opacity: 1; font-weight: normal; white-space: pre;">End to End Delay of each UE DL - fixed - CDF</text></g><g class="g-xtitle"><text class="xtitle" x="510.5" y="460.8" text-anchor="middle" style="font-family: 'Open Sans', verdana, arial, sans-serif; font-size: 14px; fill: rgb(42, 63, 95); opacity: 1; font-weight: normal; white-space: pre;">Delay (s)</text></g><g class="g-ytitle"><text class="ytitle" transform="rotate(-90,34.575,260)" x="34.575" y="260" text-anchor="middle" style="font-family: 'Open Sans', verdana, arial, sans-serif; font-size: 14px; fill: rgb(42, 63, 95); opacity: 1; font-weight: normal; white-space: pre;">probability</text></g><g class="annotation" data-index="0" style="opacity: 1;"><g class="annotation-text-g" transform="rotate(0,510.5,90.5)"><g class="cursor-pointer" transform="translate(478,81)"><rect class="bg" x="0.5" y="0.5" width="65" height="18" style="stroke-width: 1px; stroke: rgb(0, 0, 0); stroke-opacity: 0; fill: rgb(0, 0, 0); fill-opacity: 0;"/><text class="annotation-text" text-anchor="middle" x="32.703125" y="14" style="font-family: 'Open Sans', verdana, arial, sans-serif; font-size: 12px; fill: rgb(42, 63, 95); fill-opacity: 1; white-space: pre;">Power=30</text></g></g></g></g></svg>